<svg width="21" height="24" viewBox="0 0 21 24" fill="none" xmlns="http://www.w3.org/2000/svg">
<path d="M4.50006 0C3.67506 0 3.00006 0.675 3.00006 1.5V22.5C3.00006 23.325 3.67506 24 4.50006 24H19.5C20.325 24 21 23.325 21 22.5V6L15 0H4.50006Z" fill="#EEEEEE"/>
<path d="M16.5 6H21L15 0V4.5C15 5.325 15.675 6 16.5 6Z" fill="#A4A4A4"/>
<path d="M16.5 6L21 10.5V6H16.5Z" fill="#C4C4C4"/>
<path d="M3.00006 20.25H17.25C17.6625 20.25 18 19.9125 18 19.5V20.25C18 20.6625 17.6625 21 17.25 21H3.00006V20.25Z" fill="#C4C4C4"/>
<path d="M18 19.5C18 19.9125 17.6625 20.25 17.25 20.25H0.749998C0.337499 20.25 0 19.9125 0 19.5V12C0 11.5875 0.337499 11.25 0.749998 11.25H17.25C17.6625 11.25 18 11.5875 18 12V19.5Z" fill="#4C9FD2"/>
<path fill-rule="evenodd" clip-rule="evenodd" d="M9.63215 17.8118C9.22365 17.8118 9.06155 17.4691 9.29498 17.2271L11.6025 14.566H9.6897C9.12639 14.566 9.17178 13.875 9.6897 13.875H12.302C12.794 13.875 12.9367 14.2789 12.5873 14.6061L10.377 17.0976H12.4836C13.0023 17.0976 13.0672 17.8125 12.4325 17.8125L9.63215 17.8118Z" fill="white"/>
<path fill-rule="evenodd" clip-rule="evenodd" d="M5.33387 17.7361C5.05454 17.6278 5.03801 17.4304 5.27199 17.1878L7.58501 14.5207H5.66765C5.103 14.5207 5.1485 13.8281 5.66765 13.8281H8.28615C8.7793 13.8281 8.92229 14.2329 8.57213 14.5608C8.57213 14.5608 6.17879 17.4075 6.07726 17.5176C5.97572 17.6278 5.61321 17.8444 5.33387 17.7361Z" fill="white"/>
</svg>
