<svg width="21" height="24" viewBox="0 0 21 24" fill="none" xmlns="http://www.w3.org/2000/svg">
<path d="M4.50006 0C3.67506 0 3.00006 0.675 3.00006 1.5V22.5C3.00006 23.325 3.67506 24 4.50006 24H19.5C20.325 24 21 23.325 21 22.5V6L15.0001 0H4.50006Z" fill="#EEEEEE"/>
<path d="M16.5 6H21L15 0V4.5C15 5.325 15.675 6 16.5 6Z" fill="#A4A4A4"/>
<path d="M16.5 6L21 10.5V6H16.5Z" fill="#C4C4C4"/>
<path d="M3.00006 20.25H17.2501C17.6626 20.25 18.0001 19.9125 18.0001 19.5V20.25C18.0001 20.6625 17.6626 21 17.2501 21H3.00006V20.25Z" fill="#C4C4C4"/>
<path d="M18 19.5C18 19.9125 17.6625 20.25 17.25 20.25H0.75C0.3375 20.25 0 19.9125 0 19.5V12C0 11.5875 0.3375 11.25 0.75 11.25H17.25C17.6625 11.25 18 11.5875 18 12V19.5Z" fill="#1BB934"/>
<path d="M12.4113 17.7421L10.828 14.4256C10.594 13.9516 11.302 13.5623 11.5653 14.0596L12.0993 15.2648L12.7885 16.8481L13.4658 15.2648L13.9998 14.0596C14.2398 13.6043 14.935 13.8916 14.7318 14.3896L13.2025 17.7421C13.0645 18.1201 12.6385 18.2094 12.4113 17.7421Z" fill="white"/>
<path d="M7.29897 14.7495C7.43697 13.5862 9.19346 13.377 10.0215 14.013C10.4295 14.3422 9.99746 14.8642 9.63746 14.6002C9.19346 14.3182 8.18622 14.1862 8.06022 14.8095C7.89822 15.7935 10.5067 15.2302 10.4647 16.8247C10.4227 18.348 8.21622 18.384 7.38822 17.7C7.18947 17.5387 7.19622 17.2755 7.30422 17.1127C7.46022 16.9575 7.63347 16.9035 7.83822 17.0707C8.32947 17.4067 9.59546 17.6587 9.68471 16.806C9.60821 15.9195 7.11297 16.4535 7.29897 14.7495Z" fill="white"/>
<path d="M2.99738 15.8948C2.99738 14.7375 3.72262 13.7423 5.10262 13.7423C5.62387 13.7423 6.03787 13.8983 6.47587 14.2763C6.63787 14.4255 6.65512 14.6895 6.49312 14.8575C6.33112 15.0008 6.08512 14.9835 5.94187 14.8395C5.69587 14.5815 5.44387 14.5103 5.10262 14.5103C4.17937 14.5103 3.73537 15.1643 3.73537 15.8955C3.73537 16.6395 4.17337 17.3228 5.10262 17.3228C5.44387 17.3228 5.76187 17.184 6.03787 16.9388C6.22387 16.7948 6.48187 16.866 6.58912 17.0108C6.68512 17.1428 6.73312 17.3648 6.52312 17.574C6.10312 17.9648 5.59987 18.0428 5.10187 18.0428C3.65137 18.0428 2.99738 17.052 2.99738 15.8948Z" fill="white"/>
</svg>
