<svg width="21" height="24" viewBox="0 0 21 24" fill="none" xmlns="http://www.w3.org/2000/svg">
<path d="M4.50006 0C3.67506 0 3.00006 0.675 3.00006 1.5V22.5C3.00006 23.325 3.67506 24 4.50006 24H19.5C20.325 24 21 23.325 21 22.5V6L15 0H4.50006Z" fill="#EEEEEE"/>
<path d="M16.5 6H21L15 0V4.5C15 5.325 15.675 6 16.5 6Z" fill="#A4A4A4"/>
<path d="M16.5 6L21 10.5V6H16.5Z" fill="#C4C4C4"/>
<path d="M3.00006 20.25H17.25C17.6625 20.25 18 19.9125 18 19.5V20.25C18 20.6625 17.6625 21 17.25 21H3.00006V20.25Z" fill="#C4C4C4"/>
<path d="M18 19.5C18 19.9125 17.6625 20.25 17.25 20.25H0.749998C0.337499 20.25 0 19.9125 0 19.5V12C0 11.5875 0.337499 11.25 0.749998 11.25H17.25C17.6625 11.25 18 11.5875 18 12V19.5Z" fill="#0076BF"/>
<path fill-rule="evenodd" clip-rule="evenodd" d="M2.42535 17.6278C2.42535 17.8911 2.64135 17.9998 2.83935 17.9998H4.26585C6.89234 17.9998 6.95309 13.8501 4.2126 13.8501H2.83935C2.64135 13.8501 2.42535 14.0061 2.42535 14.2221V17.6278ZM3.21693 17.2678V14.5813H4.21218C5.90268 14.5813 5.83143 17.2678 4.21218 17.2678H3.21693Z" fill="white"/>
<path fill-rule="evenodd" clip-rule="evenodd" d="M6.92648 15.9008C6.92648 17.37 8.07848 18.108 9.18773 18.06C10.237 18.06 11.3342 17.3228 11.3342 15.9008C11.3342 14.4795 10.237 13.7535 9.18773 13.7003C8.07773 13.7003 6.92648 14.4255 6.92648 15.9008ZM7.71805 15.9014C7.71805 14.9542 8.44931 14.4802 9.12131 14.4802C9.81131 14.4802 10.5486 14.9534 10.5486 15.9014C10.5486 16.8434 9.81131 17.3234 9.12131 17.3234C8.45006 17.3234 7.71805 16.8434 7.71805 15.9014Z" fill="white"/>
<path d="M12.04 15.8948C12.04 14.7376 12.766 13.7423 14.1453 13.7423C14.6673 13.7423 15.0813 13.8983 15.5185 14.2763C15.6805 14.4256 15.6985 14.6896 15.5365 14.8576C15.3745 15.0008 15.1285 14.9836 14.9845 14.8396C14.7393 14.5816 14.4873 14.5103 14.1453 14.5103C13.222 14.5103 12.7788 15.1643 12.7788 15.8956C12.7788 16.6396 13.216 17.3228 14.1453 17.3228C14.4873 17.3228 14.8053 17.1841 15.0813 16.9388C15.2665 16.7948 15.5245 16.8661 15.6325 17.0108C15.7285 17.1428 15.7758 17.3648 15.5665 17.5741C15.1465 17.9648 14.6433 18.0428 14.1445 18.0428C12.694 18.0428 12.04 17.0521 12.04 15.8948Z" fill="white"/>
</svg>
