<svg width="21" height="24" viewBox="0 0 21 24" fill="none" xmlns="http://www.w3.org/2000/svg">
<path d="M4.50006 0C3.67506 0 3.00006 0.675 3.00006 1.5V22.5C3.00006 23.325 3.67506 24 4.50006 24H19.5C20.325 24 21 23.325 21 22.5V6L15 0H4.50006Z" fill="#EEEEEE"/>
<path d="M16.5 6H21L15 0V4.5C15 5.325 15.675 6 16.5 6Z" fill="#A4A4A4"/>
<path d="M16.5 6L21 10.5V6H16.5Z" fill="#C4C4C4"/>
<path d="M3.00006 20.25H17.25C17.6625 20.25 18 19.9125 18 19.5V20.25C18 20.6625 17.6625 21 17.25 21H3.00006V20.25Z" fill="#C4C4C4"/>
<path d="M18 19.5C18 19.9125 17.6625 20.25 17.25 20.25H0.749998C0.337499 20.25 0 19.9125 0 19.5V12C0 11.5875 0.337499 11.25 0.749998 11.25H17.25C17.6625 11.25 18 11.5875 18 12V19.5Z" fill="#0076BF"/>
<path d="M15.4259 15.2878L16.4699 13.9805C16.7819 13.5733 17.3871 14.0945 17.0459 14.4845C16.6859 14.9105 16.3086 15.3725 15.9479 15.845L17.1719 17.3682C17.5011 17.8182 16.8419 18.2502 16.5179 17.8062L15.4146 16.391L14.3294 17.8362C14.0234 18.2735 13.3454 17.7822 13.6881 17.3742L14.8926 15.845C14.5154 15.3718 14.1494 14.9105 13.7834 14.4845C13.4054 14.0345 14.1074 13.5733 14.3826 13.9933L15.4259 15.2878Z" fill="white"/>
<path d="M9.63529 15.8948C9.63529 14.7376 10.3613 13.7423 11.7405 13.7423C12.2625 13.7423 12.6765 13.8983 13.1138 14.2763C13.2758 14.4256 13.2938 14.6896 13.1318 14.8576C12.9698 15.0008 12.7238 14.9836 12.5798 14.8396C12.3345 14.5816 12.0825 14.5103 11.7405 14.5103C10.8173 14.5103 10.374 15.1643 10.374 15.8956C10.374 16.6396 10.8113 17.3228 11.7405 17.3228C12.0825 17.3228 12.4005 17.1841 12.6765 16.9388C12.8618 16.7948 13.1198 16.8661 13.2278 17.0108C13.3238 17.1428 13.371 17.3648 13.1618 17.5741C12.7418 17.9648 12.2385 18.0428 11.7398 18.0428C10.2893 18.0428 9.63529 17.0521 9.63529 15.8948Z" fill="white"/>
<path fill-rule="evenodd" clip-rule="evenodd" d="M4.94213 15.9008C4.94213 17.37 6.09413 18.108 7.20338 18.06C8.25263 18.06 9.34988 17.3228 9.34988 15.9008C9.34988 14.4795 8.25263 13.7535 7.20338 13.7003C6.09338 13.7003 4.94213 14.4255 4.94213 15.9008ZM5.73371 15.9014C5.73371 14.9542 6.46496 14.4802 7.13696 14.4802C7.82696 14.4802 8.5642 14.9534 8.5642 15.9014C8.5642 16.8434 7.82696 17.3234 7.13696 17.3234C6.46571 17.3234 5.73371 16.8434 5.73371 15.9014Z" fill="white"/>
<path fill-rule="evenodd" clip-rule="evenodd" d="M0.831665 17.6278C0.831665 17.8911 1.04766 17.9998 1.24566 17.9998H2.67216C5.29866 17.9998 5.3594 13.8501 2.61891 13.8501H1.24566C1.04766 13.8501 0.831665 14.0061 0.831665 14.2221V17.6278ZM1.62324 17.2678V14.5813H2.61849C4.30899 14.5813 4.23774 17.2678 2.61849 17.2678H1.62324Z" fill="white"/>
</svg>
