<svg width="21" height="24" viewBox="0 0 21 24" fill="none" xmlns="http://www.w3.org/2000/svg">
<path d="M4.50006 0C3.67506 0 3.00006 0.675 3.00006 1.5V22.5C3.00006 23.325 3.67506 24 4.50006 24H19.5C20.325 24 21 23.325 21 22.5V6L15 0H4.50006Z" fill="#EEEEEE"/>
<path d="M16.5 6H21L15 0V4.5C15 5.325 15.675 6 16.5 6Z" fill="#A4A4A4"/>
<path d="M16.5 6L21 10.5V6H16.5Z" fill="#C4C4C4"/>
<path d="M3.00006 20.25H17.25C17.6625 20.25 18 19.9125 18 19.5V20.25C18 20.6625 17.6625 21 17.25 21H3.00006V20.25Z" fill="#C4C4C4"/>
<path d="M18 19.5C18 19.9125 17.6625 20.25 17.25 20.25H0.749998C0.337499 20.25 0 19.9125 0 19.5V12C0 11.5875 0.337499 11.25 0.749998 11.25H17.25C17.6625 11.25 18 11.5875 18 12V19.5Z" fill="#E9B400"/>
<path d="M16.1989 17.5388C15.7729 17.8928 15.2509 18.0428 14.7236 18.0428C13.4636 18.0428 12.5704 17.3235 12.5704 15.8955C12.5704 14.685 13.5124 13.7438 14.7769 13.7438C15.2509 13.7438 15.7721 13.905 16.1441 14.271C16.5094 14.6303 15.9821 15.1643 15.6229 14.847C15.4009 14.631 15.0889 14.469 14.7769 14.469C14.0516 14.469 13.3504 15.0503 13.3504 15.8955C13.3504 16.7835 13.9376 17.3235 14.7236 17.3235C15.0889 17.3235 15.4009 17.2148 15.6229 17.0535V16.3163H14.7236C14.1896 16.3163 14.2436 15.5843 14.7236 15.5843H15.9229C16.1449 15.5843 16.3481 15.7523 16.3481 15.9383V17.2155C16.3481 17.3235 16.3009 17.424 16.1989 17.5388Z" fill="white"/>
<path d="M9.40024 17.9779C9.19024 17.9779 9.02824 17.8159 9.02824 17.6059V14.2001C9.02824 13.9841 9.19024 13.8281 9.40024 13.8281H11.5527C12.1047 13.8281 12.0927 14.6074 11.5527 14.6074H9.82623V15.5074H11.3375C11.8707 15.5074 11.8707 16.2934 11.3375 16.2934H9.82623V17.1926H11.6555C12.2015 17.1926 12.2427 17.9779 11.6555 17.9779H9.40024Z" fill="white"/>
<path fill-rule="evenodd" clip-rule="evenodd" d="M5.53118 13.7963C5.27918 13.7963 5.12318 14.0123 5.12318 14.2103V17.5868C5.12318 17.8508 5.33318 18 5.53118 18C5.74718 18 5.91517 17.8508 5.91517 17.5868V16.7948H6.91642C7.69642 16.7948 8.39841 16.2668 8.39841 15.3188C8.39841 14.3183 7.69642 13.7963 6.91642 13.7963H5.53118ZM5.91476 16.0456V14.5516H6.916C7.318 14.5516 7.636 14.8996 7.636 15.3188C7.636 15.6908 7.318 16.0456 6.916 16.0456H5.91476Z" fill="white"/>
<path d="M3.56177 14.2102C3.56177 13.7062 4.35377 13.7062 4.35377 14.2102V16.5787C4.35377 17.5207 3.90377 18.0907 2.86653 18.0907C2.35653 18.0907 1.93128 17.952 1.55928 17.4727C1.25328 17.1067 1.82928 16.5795 2.14128 16.9627C2.39328 17.2747 2.66328 17.3467 2.92652 17.3347C3.26177 17.3227 3.55652 17.172 3.56252 16.5787L3.56177 14.2102Z" fill="white"/>
</svg>
