<svg width="21" height="24" viewBox="0 0 21 24" fill="none" xmlns="http://www.w3.org/2000/svg">
<path d="M4.50006 0C3.67506 0 3.00006 0.675 3.00006 1.5V22.5C3.00006 23.325 3.67506 24 4.50006 24H19.5C20.325 24 21 23.325 21 22.5V6L15 0H4.50006Z" fill="#EEEEEE"/>
<path d="M16.5 6H21L15 0V4.5C15 5.325 15.675 6 16.5 6Z" fill="#A4A4A4"/>
<path d="M16.5 6L21 10.5V6H16.5Z" fill="#C4C4C4"/>
<path d="M3.00006 20.25H17.25C17.6625 20.25 18 19.9125 18 19.5V20.25C18 20.6625 17.6625 21 17.25 21H3.00006V20.25Z" fill="#C4C4C4"/>
<path d="M18 19.5C18 19.9125 17.6625 20.25 17.25 20.25H0.749998C0.337499 20.25 0 19.9125 0 19.5V12C0 11.5875 0.337499 11.25 0.749998 11.25H17.25C17.6625 11.25 18 11.5875 18 12V19.5Z" fill="#E9B400"/>
<path d="M14.5583 17.5387C14.1323 17.8927 13.6103 18.0427 13.083 18.0427C11.823 18.0427 10.9298 17.3235 10.9298 15.8955C10.9298 14.685 11.8718 13.7437 13.1363 13.7437C13.6103 13.7437 14.1315 13.905 14.5035 14.271C14.8688 14.6302 14.3415 15.1642 13.9823 14.847C13.7603 14.631 13.4483 14.469 13.1363 14.469C12.411 14.469 11.7098 15.0502 11.7098 15.8955C11.7098 16.7835 12.297 17.3235 13.083 17.3235C13.4483 17.3235 13.7603 17.2147 13.9823 17.0535V16.3162H13.083C12.549 16.3162 12.603 15.5842 13.083 15.5842H14.2823C14.5043 15.5842 14.7075 15.7522 14.7075 15.9382V17.2155C14.7075 17.3235 14.6603 17.424 14.5583 17.5387Z" fill="white"/>
<path fill-rule="evenodd" clip-rule="evenodd" d="M7.40875 13.7962C7.15675 13.7962 7.00076 14.0122 7.00076 14.2102V17.5867C7.00076 17.8507 7.21075 18 7.40875 18C7.62475 18 7.79275 17.8507 7.79275 17.5867V16.7947H8.794C9.57399 16.7947 10.276 16.2667 10.276 15.3187C10.276 14.3182 9.57399 13.7962 8.794 13.7962H7.40875ZM7.79233 16.0455V14.5515H8.79358C9.19558 14.5515 9.51358 14.8995 9.51358 15.3187C9.51358 15.6907 9.19558 16.0455 8.79358 16.0455H7.79233Z" fill="white"/>
<path d="M5.15558 14.2102C5.15558 13.7062 5.94758 13.7062 5.94758 14.2102V16.5787C5.94758 17.5207 5.49758 18.0907 4.46034 18.0907C3.95034 18.0907 3.52509 17.952 3.15309 17.4727C2.84709 17.1067 3.42309 16.5795 3.73509 16.9627C3.98709 17.2747 4.25709 17.3467 4.52034 17.3347C4.85558 17.3227 5.15033 17.172 5.15633 16.5787L5.15558 14.2102Z" fill="white"/>
</svg>
