<svg width="22" height="24" viewBox="0 0 22 24" fill="none" xmlns="http://www.w3.org/2000/svg">
<path d="M4.50152 0C3.67625 0 3.00104 0.675 3.00104 1.5V22.5C3.00104 23.325 3.67625 24 4.50152 24H19.5063C20.3316 24 21.0068 23.325 21.0068 22.5V6L15.0049 0H4.50152Z" fill="#EEEEEE"/>
<path d="M16.5054 6H21.0068L15.0049 0V4.5C15.0049 5.325 15.6801 6 16.5054 6Z" fill="#A4A4A4"/>
<path d="M16.5053 6L21.0068 10.5V6H16.5053Z" fill="#C4C4C4"/>
<path d="M3.00104 20.25H17.2556C17.6682 20.25 18.0059 19.9125 18.0059 19.5V20.25C18.0059 20.6625 17.6682 21 17.2556 21H3.00104V20.25Z" fill="#C4C4C4"/>
<path d="M18.2604 19.5386C18.2604 19.9616 17.9181 20.3078 17.4996 20.3078H0.760851C0.342383 20.3078 0 19.9616 0 19.5386V11.8463C0 11.4232 0.342383 11.077 0.760851 11.077H17.4996C17.9181 11.077 18.2604 11.4232 18.2604 11.8463V19.5386Z" fill="#E00000"/>
<path d="M12.9355 14.6115V15.5241H14.4844C14.7032 15.5241 14.9219 15.7308 14.9219 15.9311C14.9219 16.1207 14.7032 16.2757 14.4844 16.2757H12.9355V17.4812C12.9355 17.6822 12.7843 17.8366 12.5716 17.8366C12.3043 17.8366 12.1409 17.6822 12.1409 17.4812V14.2203C12.1409 14.0142 12.305 13.8642 12.5716 13.8642H14.7039C14.9713 13.8642 15.1293 14.0142 15.1293 14.2203C15.1293 14.4041 14.9713 14.6108 14.7039 14.6108L12.9355 14.6115Z" fill="white"/>
<path fill-rule="evenodd" clip-rule="evenodd" d="M7.42686 17.4816C7.42686 17.7336 7.64563 17.837 7.84618 17.837H9.29176C11.952 17.837 12.0128 13.8645 9.23707 13.8645H7.84618C7.64563 13.8645 7.42686 14.0146 7.42686 14.2207V17.4816ZM8.22913 17.1369V14.5652H9.23717C10.9502 14.5652 10.8772 17.1369 9.23717 17.1369H8.22913Z" fill="white"/>
<path fill-rule="evenodd" clip-rule="evenodd" d="M3.75129 13.8131C3.49681 13.8131 3.33881 14.0199 3.33881 14.2094V17.4416C3.33881 17.6943 3.55074 17.8372 3.75129 17.8372C3.97006 17.8372 4.14022 17.6943 4.14022 17.4416V16.6835H5.15433C5.94435 16.6835 6.65537 16.178 6.65537 15.2705C6.65537 14.3128 5.94435 13.8131 5.15433 13.8131H3.75129ZM4.13982 15.9663V14.5362H5.15394C5.5611 14.5362 5.88319 14.8693 5.88319 15.2706C5.88319 15.6267 5.5611 15.9663 5.15394 15.9663H4.13982Z" fill="white"/>
</svg>
