<svg width="21" height="24" viewBox="0 0 21 24" fill="none" xmlns="http://www.w3.org/2000/svg">
<path d="M4.50006 0C3.67506 0 3.00006 0.675 3.00006 1.5V22.5C3.00006 23.325 3.67506 24 4.50006 24H19.5C20.325 24 21 23.325 21 22.5V6L15.0001 0H4.50006Z" fill="#EEEEEE"/>
<path d="M16.5 6H21L15 0V4.5C15 5.325 15.675 6 16.5 6Z" fill="#A4A4A4"/>
<path d="M16.5 6L21 10.5V6H16.5Z" fill="#C4C4C4"/>
<path d="M3.00006 20.25H17.2501C17.6626 20.25 18.0001 19.9125 18.0001 19.5V20.25C18.0001 20.6625 17.6626 21 17.2501 21H3.00006V20.25Z" fill="#C4C4C4"/>
<path d="M18 19.5C18 19.9125 17.6625 20.25 17.25 20.25H0.75C0.75 20.25 0 19.9125 0 19.5V12C0 11.5875 0.3375 11.25 0.75 11.25H17.25C17.6625 11.25 18 11.5875 18 12V19.5Z" fill="#E9B400"/>
<path d="M14.9744 17.5388C14.5484 17.892 14.0264 18.0428 13.4992 18.0428C12.2392 18.0428 11.3459 17.3228 11.3459 15.8955C11.3459 14.6842 12.2879 13.743 13.5524 13.743C14.0264 13.743 14.5477 13.905 14.9197 14.271C15.2857 14.6302 14.7577 15.1642 14.3984 14.847C14.1764 14.6302 13.8644 14.469 13.5524 14.469C12.8272 14.469 12.1259 15.0502 12.1259 15.8955C12.1259 16.7835 12.7132 17.3228 13.4992 17.3228C13.8644 17.3228 14.1764 17.2148 14.3984 17.0528V16.3162H13.4992C12.9652 16.3162 13.0192 15.5835 13.4992 15.5835H14.6984C14.9204 15.5835 15.1237 15.7522 15.1237 15.9382V17.2155C15.1237 17.3228 15.0764 17.424 14.9744 17.5388Z" fill="white"/>
<path d="M6.88868 14.2702C6.88868 14.0535 6.93668 13.8442 7.24868 13.8442C7.46393 13.8442 7.51268 13.8982 7.67393 14.0535L9.65843 16.5368V14.2102C9.65843 14.0122 9.83168 13.7955 10.0364 13.7955C10.2524 13.7955 10.4617 14.0122 10.4617 14.2102V17.586C10.4617 17.8508 10.2997 17.9513 10.1437 18C9.93443 18 9.83168 17.952 9.65843 17.7908L7.67393 15.2715V17.5868C7.67393 17.8515 7.51193 18.0008 7.29593 18.0008C7.07993 18.0008 6.88793 17.8515 6.88793 17.5868L6.88868 14.2702Z" fill="white"/>
<path fill-rule="evenodd" clip-rule="evenodd" d="M3.25759 13.7955C3.00559 13.7955 2.85034 14.0122 2.85034 14.2102V17.586C2.85034 17.8508 3.05959 18 3.25759 18C3.47434 18 3.64084 17.8508 3.64084 17.586V16.794H4.64359C5.42284 16.794 6.12484 16.2667 6.12484 15.3187C6.12484 14.3175 5.42284 13.7955 4.64359 13.7955H3.25759ZM3.64146 16.0448V14.5515H4.64346C5.04471 14.5515 5.36271 14.8988 5.36271 15.3188C5.36271 15.6908 5.04471 16.0448 4.64346 16.0448H3.64146Z" fill="white"/>
</svg>
