<svg width="21" height="24" viewBox="0 0 21 24" fill="none" xmlns="http://www.w3.org/2000/svg">
<path d="M4.50006 0C3.67506 0 3.00006 0.675 3.00006 1.5V22.5C3.00006 23.325 3.67506 24 4.50006 24H19.5C20.325 24 21 23.325 21 22.5V6L15 0H4.50006Z" fill="#EEEEEE"/>
<path d="M16.5 6H21L15 0V4.5C15 5.325 15.675 6 16.5 6Z" fill="#A4A4A4"/>
<path d="M16.5 6L21 10.5V6H16.5Z" fill="#C4C4C4"/>
<path d="M3.00006 20.25H17.25C17.6625 20.25 18 19.9125 18 19.5V20.25C18 20.6625 17.6625 21 17.25 21H3.00006V20.25Z" fill="#C4C4C4"/>
<path d="M18 19.5C18 19.9125 17.6625 20.25 17.25 20.25H0.749998C0.337499 20.25 0 19.9125 0 19.5V12C0 11.5875 0.337499 11.25 0.749998 11.25H17.25C17.6625 11.25 18 11.5875 18 12V19.5Z" fill="#F2994A"/>
<path d="M11.4133 14.7312C11.5513 13.5672 13.3078 13.3579 14.1358 13.9939C14.5438 14.3232 14.1118 14.8452 13.7518 14.5812C13.3078 14.2999 12.3006 14.1679 12.1746 14.7904C12.0126 15.7744 14.6211 15.2112 14.5791 16.8064C14.5371 18.3296 12.3306 18.3649 11.5026 17.6816C11.3038 17.5197 11.3106 17.2564 11.4186 17.0937C11.5746 16.9384 11.7478 16.8844 11.9526 17.0524C12.4438 17.3877 13.7098 17.6396 13.7991 16.7877C13.7218 15.9012 11.2273 16.4344 11.4133 14.7312Z" fill="white"/>
<path fill-rule="evenodd" clip-rule="evenodd" d="M3.85134 13.7964C3.60009 13.7964 3.44409 14.0124 3.44409 14.2104L3.44484 17.5869C3.44484 17.8509 3.65409 18.0002 3.85209 18.0002C4.06809 18.0002 4.23534 17.8509 4.23534 17.5869V16.7949H5.23659C6.01659 16.7949 6.71858 16.2669 6.71858 15.3189C6.71858 14.3184 6.01659 13.7964 5.23659 13.7964H3.85134ZM4.23459 16.0458V14.5518H5.23584C5.63784 14.5518 5.95584 14.8998 5.95584 15.3191C5.95584 15.6911 5.63784 16.0458 5.23584 16.0458H4.23459Z" fill="white"/>
<path fill-rule="evenodd" clip-rule="evenodd" d="M7.89067 13.7964C7.63867 13.7964 7.48267 14.0124 7.48267 14.2104V17.5869C7.48267 17.8509 7.69267 18.0002 7.89067 18.0002C8.10667 18.0002 8.27467 17.8509 8.27467 17.5869V16.7949H9.27592C10.0559 16.7949 10.7579 16.2669 10.7579 15.3189C10.7579 14.3184 10.0559 13.7964 9.27592 13.7964H7.89067ZM8.27318 16.0458V14.5518H9.27443C9.67642 14.5518 9.99442 14.8998 9.99442 15.3191C9.99442 15.6911 9.67642 16.0458 9.27443 16.0458H8.27318Z" fill="white"/>
</svg>
