<svg width="21" height="24" viewBox="0 0 21 24" fill="none" xmlns="http://www.w3.org/2000/svg">
<path d="M4.50006 0C3.67506 0 3.00006 0.675 3.00006 1.5V22.5C3.00006 23.325 3.67506 24 4.50006 24H19.5C20.325 24 21 23.325 21 22.5V6L15 0H4.50006Z" fill="#EEEEEE"/>
<path d="M16.5 6H21L15 0V4.5C15 5.325 15.675 6 16.5 6Z" fill="#A4A4A4"/>
<path d="M16.5 6L21 10.5V6H16.5Z" fill="#C4C4C4"/>
<path d="M3.00006 20.25H17.25C17.6625 20.25 18 19.9125 18 19.5V20.25C18 20.6625 17.6625 21 17.25 21H3.00006V20.25Z" fill="#C4C4C4"/>
<path d="M18 19.5C18 19.9125 17.6625 20.25 17.25 20.25H0.749998C0.337499 20.25 0 19.9125 0 19.5V12C0 11.5875 0.337499 11.25 0.749998 11.25H17.25C17.6625 11.25 18 11.5875 18 12V19.5Z" fill="#F2994A"/>
<path d="M12.6404 14.6002H11.5919C11.0699 14.6002 11.0699 13.833 11.5919 13.833H14.4276C14.9616 13.833 14.9616 14.6002 14.4276 14.6002H13.4324V17.6287C13.4324 18.15 12.6404 18.1627 12.6404 17.6287V14.6002Z" fill="white"/>
<path fill-rule="evenodd" clip-rule="evenodd" d="M7.89067 13.7962C7.63867 13.7962 7.48267 14.0122 7.48267 14.2102V17.5867C7.48267 17.8507 7.69267 18 7.89067 18C8.10667 18 8.27467 17.8507 8.27467 17.5867V16.7947H9.27592C10.0559 16.7947 10.7579 16.2667 10.7579 15.3187C10.7579 14.3182 10.0559 13.7962 9.27592 13.7962H7.89067ZM8.27318 16.0454V14.5514H9.27442C9.67642 14.5514 9.99442 14.8994 9.99442 15.3186C9.99442 15.6906 9.67642 16.0454 9.27442 16.0454H8.27318Z" fill="white"/>
<path fill-rule="evenodd" clip-rule="evenodd" d="M3.85134 13.7962C3.60009 13.7962 3.44409 14.0122 3.44409 14.2102L3.44484 17.5867C3.44484 17.8507 3.65409 18 3.85209 18C4.06809 18 4.23534 17.8507 4.23534 17.5867V16.7947H5.23659C6.01659 16.7947 6.71858 16.2667 6.71858 15.3187C6.71858 14.3182 6.01659 13.7962 5.23659 13.7962H3.85134ZM4.23459 16.0454V14.5514H5.23584C5.63784 14.5514 5.95584 14.8994 5.95584 15.3186C5.95584 15.6906 5.63784 16.0454 5.23584 16.0454H4.23459Z" fill="white"/>
</svg>
