<svg width="21" height="24" viewBox="0 0 21 24" fill="none" xmlns="http://www.w3.org/2000/svg">
<path d="M4.50006 0C3.67506 0 3.00006 0.675 3.00006 1.5V22.5C3.00006 23.325 3.67506 24 4.50006 24H19.5C20.325 24 21 23.325 21 22.5V6L15 0H4.50006Z" fill="#EEEEEE"/>
<path d="M16.5 6H21L15 0V4.5C15 5.325 15.675 6 16.5 6Z" fill="#A4A4A4"/>
<path d="M16.5 6L21 10.5V6H16.5Z" fill="#C4C4C4"/>
<path d="M3.00006 20.25H17.25C17.6625 20.25 18 19.9125 18 19.5V20.25C18 20.6625 17.6625 21 17.25 21H3.00006V20.25Z" fill="#C4C4C4"/>
<path d="M18 19.5C18 19.9125 17.6625 20.25 17.25 20.25H0.749998C0.337499 20.25 0 19.9125 0 19.5V12C0 11.5875 0.337499 11.25 0.749998 11.25H17.25C17.6625 11.25 18 11.5875 18 12V19.5Z" fill="#F2994A"/>
<path d="M15.0508 15.2877L16.0948 13.9805C16.4068 13.5733 17.0121 14.0945 16.6708 14.4845C16.3108 14.9105 15.9336 15.3725 15.5728 15.845L16.7968 17.3682C17.1261 17.8182 16.4668 18.2502 16.1428 17.8062L15.0396 16.391L13.9543 17.8362C13.6483 18.2735 12.9703 17.7822 13.3131 17.3742L14.5176 15.845C14.1403 15.3717 13.7743 14.9105 13.4083 14.4845C13.0303 14.0345 13.7323 13.5733 14.0076 13.9933L15.0508 15.2877Z" fill="white"/>
<path d="M10.531 14.6002H9.48255C8.96055 14.6002 8.96055 13.833 9.48255 13.833H12.3183C12.8523 13.833 12.8523 14.6002 12.3183 14.6002H11.323V17.6287C11.323 18.15 10.531 18.1627 10.531 17.6287V14.6002Z" fill="white"/>
<path fill-rule="evenodd" clip-rule="evenodd" d="M5.78124 13.7962C5.52924 13.7962 5.37324 14.0122 5.37324 14.2102V17.5867C5.37324 17.8507 5.58324 17.9999 5.78124 17.9999C5.99724 17.9999 6.16524 17.8507 6.16524 17.5867V16.7947H7.16648C7.94648 16.7947 8.64848 16.2667 8.64848 15.3187C8.64848 14.3182 7.94648 13.7962 7.16648 13.7962H5.78124ZM6.16375 16.0454V14.5514H7.16499C7.56699 14.5514 7.88499 14.8994 7.88499 15.3186C7.88499 15.6906 7.56699 16.0454 7.16499 16.0454H6.16375Z" fill="white"/>
<path fill-rule="evenodd" clip-rule="evenodd" d="M1.7419 13.7962C1.49066 13.7962 1.33466 14.0122 1.33466 14.2102L1.33541 17.5867C1.33541 17.8507 1.54466 17.9999 1.74265 17.9999C1.95865 17.9999 2.1259 17.8507 2.1259 17.5867V16.7947H3.12715C3.90715 16.7947 4.60915 16.2667 4.60915 15.3187C4.60915 14.3182 3.90715 13.7962 3.12715 13.7962H1.7419ZM2.12516 16.0454V14.5514H3.12641C3.52841 14.5514 3.84641 14.8994 3.84641 15.3186C3.84641 15.6906 3.52841 16.0454 3.12641 16.0454H2.12516Z" fill="white"/>
</svg>
