<svg width="21" height="24" viewBox="0 0 21 24" fill="none" xmlns="http://www.w3.org/2000/svg">
<path d="M4.50006 0C3.67506 0 3.00006 0.675 3.00006 1.5V22.5C3.00006 23.325 3.67506 24 4.50006 24H19.5C20.325 24 21 23.325 21 22.5V6L15 0H4.50006Z" fill="#EEEEEE"/>
<path d="M16.5 6H21L15 0V4.5C15 5.325 15.675 6 16.5 6Z" fill="#A4A4A4"/>
<path d="M16.5 6L21 10.5V6H16.5Z" fill="#C4C4C4"/>
<path d="M3.00006 20.25H17.25C17.6625 20.25 18 19.9125 18 19.5V20.25C18 20.6625 17.6625 21 17.25 21H3.00006V20.25Z" fill="#C4C4C4"/>
<path d="M18 19.5C18 19.9125 17.6625 20.25 17.25 20.25H0.749998C0.337499 20.25 0 19.9125 0 19.5V12C0 11.5875 0.337499 11.25 0.749998 11.25H17.25C17.6625 11.25 18 11.5875 18 12V19.5Z" fill="#0076BF"/>
<path d="M12.4095 14.6081V15.5614H13.9387C14.1547 15.5614 14.3707 15.7774 14.3707 15.9874C14.3707 16.1854 14.1547 16.3466 13.9387 16.3466H12.4095V17.6059C12.4095 17.8159 12.2602 17.9779 12.0502 17.9779C11.7862 17.9779 11.625 17.8159 11.625 17.6059V14.2001C11.625 13.9841 11.787 13.8281 12.0502 13.8281H14.1555C14.4195 13.8281 14.5755 13.9841 14.5755 14.2001C14.5755 14.3921 14.4195 14.6074 14.1555 14.6074L12.4095 14.6081Z" fill="white"/>
<path d="M8.65603 14.6002H7.60753C7.08554 14.6002 7.08554 13.833 7.60753 13.833H10.4433C10.9773 13.833 10.9773 14.6002 10.4433 14.6002H9.44803V17.6287C9.44803 18.15 8.65603 18.1627 8.65603 17.6287V14.6002Z" fill="white"/>
<path fill-rule="evenodd" clip-rule="evenodd" d="M3.42188 17.5999C3.42188 18.1279 4.21912 18.1091 4.21912 17.5879L4.21837 16.5026H5.16037L6.06562 17.7986C6.42562 18.2539 7.04962 17.8106 6.73762 17.3486L5.94037 16.3766C7.21162 15.8674 6.89962 13.8281 5.37637 13.8281H3.78112C3.58387 13.8281 3.42188 13.9849 3.42188 14.1941V17.5999ZM5.37647 15.8135H4.21923V14.5543H5.37647C6.20446 14.5543 6.15646 15.8135 5.37647 15.8135Z" fill="white"/>
</svg>
