<svg width="21" height="24" viewBox="0 0 21 24" fill="none" xmlns="http://www.w3.org/2000/svg">
<path d="M4.50006 0C3.67506 0 3.00006 0.675 3.00006 1.5V22.5C3.00006 23.325 3.67506 24 4.50006 24H19.5C20.325 24 21 23.325 21 22.5V6L15 0H4.50006Z" fill="#EEEEEE"/>
<path d="M16.5 6H21L15 0V4.5C15 5.325 15.675 6 16.5 6Z" fill="#A4A4A4"/>
<path d="M16.5 6L21 10.5V6H16.5Z" fill="#C4C4C4"/>
<path d="M3.00006 20.25H17.25C17.6625 20.25 18 19.9125 18 19.5V20.25C18 20.6625 17.6625 21 17.25 21H3.00006V20.25Z" fill="#C4C4C4"/>
<path d="M18 19.5C18 19.9125 17.6625 20.25 17.25 20.25H0.749998C0.337499 20.25 0 19.9125 0 19.5V12C0 11.5875 0.337499 11.25 0.749998 11.25H17.25C17.6625 11.25 18 11.5875 18 12V19.5Z" fill="#0076BF"/>
<path d="M4.72353 14.6002H3.67428C3.15228 14.6002 3.15228 13.833 3.67428 13.833H6.51077C7.04477 13.833 7.04477 14.6002 6.51077 14.6002H5.51478V17.628C5.51478 18.1492 4.72278 18.162 4.72278 17.628L4.72353 14.6002Z" fill="white"/>
<path d="M9.01953 15.2895L10.0635 13.9822C10.3755 13.575 10.9808 14.0962 10.6395 14.4862C10.2795 14.9122 9.90228 15.3742 9.54153 15.8467L10.7655 17.3699C11.0948 17.8199 10.4355 18.2519 10.1115 17.8079L9.00828 16.3927L7.92303 17.8379C7.61704 18.2752 6.93904 17.7839 7.28179 17.3759L8.48628 15.8467C8.10903 15.3735 7.74304 14.9122 7.37704 14.4862C6.99904 14.0362 7.70104 13.575 7.97628 13.995L9.01953 15.2895Z" fill="white"/>
<path d="M12.4818 14.6002H11.4333C10.9113 14.6002 10.9113 13.833 11.4333 13.833H14.2691C14.8031 13.833 14.8031 14.6002 14.2691 14.6002H13.2738V17.628C13.2738 18.1492 12.4818 18.162 12.4818 17.628V14.6002Z" fill="white"/>
</svg>
