<svg width="21" height="24" viewBox="0 0 21 24" fill="none" xmlns="http://www.w3.org/2000/svg">
<path d="M4.50006 0C3.67506 0 3.00006 0.675 3.00006 1.5V22.5C3.00006 23.325 3.67506 24 4.50006 24H19.5C20.325 24 21 23.325 21 22.5V6L15.0001 0H4.50006Z" fill="#EEEEEE"/>
<path d="M16.5 6H21L15 0V4.5C15 5.325 15.675 6 16.5 6Z" fill="#A4A4A4"/>
<path d="M16.5 6L21 10.5V6H16.5Z" fill="#C4C4C4"/>
<path d="M3.00006 20.25H17.2501C17.6626 20.25 18.0001 19.9125 18.0001 19.5V20.25C18.0001 20.6625 17.6626 21 17.2501 21H3.00006V20.25Z" fill="#C4C4C4"/>
<path d="M18 19.5C18 19.9125 17.6625 20.25 17.25 20.25H0.75C0.3375 20.25 0 19.9125 0 19.5V12C0 11.5875 0.3375 11.25 0.75 11.25H17.25C17.6625 11.25 18 11.5875 18 12V19.5Z" fill="#A4A4A4"/>
</svg>
