<svg width="21" height="24" viewBox="0 0 21 24" fill="none" xmlns="http://www.w3.org/2000/svg">
<path d="M4.50006 0C3.67506 0 3.00006 0.675 3.00006 1.5V22.5C3.00006 23.325 3.67506 24 4.50006 24H19.5001C20.3251 24 21.0001 23.325 21.0001 22.5V6L15.0001 0H4.50006Z" fill="#EEEEEE"/>
<path d="M16.5001 6H21.0001L15.0001 0V4.5C15.0001 5.325 15.6751 6 16.5001 6Z" fill="#A4A4A4"/>
<path d="M16.5 6L21 10.5V6H16.5Z" fill="#C4C4C4"/>
<path d="M3.00006 20.25H17.2501C17.6626 20.25 18.0001 19.9125 18.0001 19.5V20.25C18.0001 20.6625 17.6626 21 17.2501 21H3.00006V20.25Z" fill="#C4C4C4"/>
<path d="M17.7584 19.5C17.7584 19.9125 17.4254 20.25 17.0185 20.25H0.739934C0.33297 20.25 0 19.9125 0 19.5V12C0 11.5875 0.33297 11.25 0.739934 11.25H17.0185C17.4254 11.25 17.7584 11.5875 17.7584 12V19.5Z" fill="#1BB934"/>
<path d="M11.1013 14.7503C11.2374 13.5863 12.9704 13.377 13.7872 14.013C14.1898 14.3423 13.7636 14.8643 13.4084 14.6003C12.9704 14.319 11.9766 14.187 11.8523 14.8095C11.6925 15.7935 14.266 15.2303 14.2245 16.8255C14.1831 18.3488 12.0062 18.384 11.1893 17.7008C10.9932 17.5388 10.9999 17.2755 11.1065 17.1128C11.2604 16.9575 11.4313 16.9035 11.6333 17.0715C12.1179 17.4068 13.367 17.6588 13.455 16.8068C13.3788 15.9203 10.9178 16.4535 11.1013 14.7503Z" fill="white"/>
<path d="M7.648 14.2102C7.648 14.0122 7.81375 13.8442 8.02093 13.8442C8.21035 13.8442 8.37018 14.013 8.37018 14.2102V17.2147H9.97953C10.5589 17.2147 10.5715 18 9.97953 18H8.02167C7.81449 18 7.64874 17.8507 7.64874 17.6347L7.648 14.2102Z" fill="white"/>
<path d="M5.19474 15.2903L6.22398 13.983C6.5318 13.575 7.12966 14.0963 6.79225 14.4863C6.43782 14.9123 6.0649 15.3743 5.70973 15.8475L6.91656 17.3708C7.24213 17.8208 6.59173 18.252 6.27208 17.808L5.1829 16.3928L4.11221 17.8388C3.81032 18.276 3.14142 17.7848 3.47883 17.3768L4.6679 15.8475C4.29498 15.3735 3.93389 14.9123 3.57354 14.4863C3.20135 14.0363 3.89319 13.575 4.16549 13.9958L5.19474 15.2903Z" fill="white"/>
</svg>
