<svg width="21" height="24" viewBox="0 0 21 24" fill="none" xmlns="http://www.w3.org/2000/svg">
<path d="M4.50006 0C3.67506 0 3.00006 0.675 3.00006 1.5V22.5C3.00006 23.325 3.67506 24 4.50006 24H19.5C20.325 24 21 23.325 21 22.5V6L15.0001 0H4.50006Z" fill="#EEEEEE"/>
<path d="M16.5 6H21L15 0V4.5C15 5.325 15.675 6 16.5 6Z" fill="#A4A4A4"/>
<path d="M16.5 6L21 10.5V6H16.5Z" fill="#C4C4C4"/>
<path d="M3.00006 20.25H17.2501C17.6626 20.25 18.0001 19.9125 18.0001 19.5V20.25C18.0001 20.6625 17.6626 21 17.2501 21H3.00006V20.25Z" fill="#C4C4C4"/>
<path d="M18 19.5C18 19.9125 17.6625 20.25 17.25 20.25H0.75C0.3375 20.25 0 19.9125 0 19.5V12C0 11.5875 0.3375 11.25 0.75 11.25H17.25C17.6625 11.25 18 11.5875 18 12V19.5Z" fill="#1BB934"/>
<path d="M14.7338 15.2902L15.7771 13.983C16.0891 13.575 16.6951 14.0962 16.3531 14.4862C15.9938 14.9122 15.6158 15.3742 15.2558 15.8475L16.4791 17.3707C16.8091 17.8207 16.1498 18.2519 15.8258 17.808L14.7218 16.3927L13.6365 17.8387C13.3305 18.2759 12.6525 17.7847 12.9945 17.3767L14.1998 15.8475C13.8218 15.3735 13.4558 14.9122 13.0905 14.4862C12.7133 14.0362 13.4145 13.575 13.6905 13.9957L14.7338 15.2902Z" fill="white"/>
<path d="M9.23549 14.7503C9.37349 13.5863 11.13 13.377 11.958 14.013C12.366 14.3423 11.934 14.8643 11.574 14.6003C11.13 14.319 10.1227 14.187 9.99673 14.8095C9.83473 15.7935 12.4432 15.2303 12.4012 16.8255C12.3592 18.3488 10.1527 18.384 9.32474 17.7008C9.12599 17.5388 9.13274 17.2755 9.24074 17.1128C9.39674 16.9575 9.56999 16.9035 9.77474 17.0715C10.266 17.4068 11.532 17.6588 11.6212 16.8068C11.544 15.9203 9.04949 16.4535 9.23549 14.7503Z" fill="white"/>
<path d="M5.73615 14.2102C5.73615 14.0122 5.90415 13.8442 6.11415 13.8442C6.30615 13.8442 6.46815 14.013 6.46815 14.2102V17.2147H8.09939C8.68664 17.2147 8.69939 18 8.09939 18H6.1149C5.9049 18 5.7369 17.8507 5.7369 17.6347L5.73615 14.2102Z" fill="white"/>
<path d="M3.24943 15.2902L4.29268 13.983C4.60468 13.575 5.21068 14.0962 4.86868 14.4862C4.50943 14.9122 4.13143 15.3742 3.77143 15.8475L4.99468 17.3707C5.32468 17.8207 4.66543 18.2519 4.34143 17.808L3.23743 16.3927L2.15218 17.8387C1.84618 18.2759 1.16818 17.7847 1.51018 17.3767L2.71543 15.8475C2.33743 15.3735 1.97143 14.9122 1.60618 14.4862C1.22893 14.0362 1.93018 13.575 2.20618 13.9957L3.24943 15.2902Z" fill="white"/>
</svg>
