<svg width="21" height="24" viewBox="0 0 21 24" fill="none" xmlns="http://www.w3.org/2000/svg">
<path d="M4.50006 0C3.67506 0 3.00006 0.675 3.00006 1.5V22.5C3.00006 23.325 3.67506 24 4.50006 24H19.5C20.325 24 21 23.325 21 22.5V6L15 0H4.50006Z" fill="#EEEEEE"/>
<path d="M16.5 6H21L15 0V4.5C15 5.325 15.675 6 16.5 6Z" fill="#A4A4A4"/>
<path d="M16.5 6L21 10.5V6H16.5Z" fill="#C4C4C4"/>
<path d="M3.00006 20.25H17.25C17.6625 20.25 18 19.9125 18 19.5V20.25C18 20.6625 17.6625 21 17.25 21H3.00006V20.25Z" fill="#C4C4C4"/>
<path d="M18 19.5C18 19.9125 17.6625 20.25 17.25 20.25H0.749998C0.337499 20.25 0 19.9125 0 19.5V12C0 11.5875 0.337499 11.25 0.749998 11.25H17.25C17.6625 11.25 18 11.5875 18 12V19.5Z" fill="#4C9FD2"/>
<path fill-rule="evenodd" clip-rule="evenodd" d="M11.2702 13.8282C11.0022 13.8282 10.8363 14.0315 10.8363 14.2179V17.3963C10.8363 17.6448 11.0597 17.7853 11.2702 17.7853C11.4999 17.7853 11.6786 17.6448 11.6786 17.3963V16.6508H12.7433C13.5727 16.6508 14.3193 16.1538 14.3193 15.2614C14.3193 14.3196 13.5727 13.8282 12.7433 13.8282H11.2702ZM11.6769 15.9455V14.5391H12.7417C13.1691 14.5391 13.5073 14.8667 13.5073 15.2614C13.5073 15.6115 13.1691 15.9455 12.7417 15.9455H11.6769Z" fill="white"/>
<path fill-rule="evenodd" clip-rule="evenodd" d="M9.04592 14.1819C9.04592 13.7188 9.88813 13.7018 9.88813 14.1819V17.4048C9.88813 17.8729 9.04592 17.8849 9.04592 17.4048V14.1819Z" fill="white"/>
<path fill-rule="evenodd" clip-rule="evenodd" d="M5.00545 17.7783C4.60348 17.7783 4.44397 17.4344 4.67366 17.1916L6.94429 14.5215H5.06207C4.50777 14.5215 4.55244 13.8282 5.06207 13.8282H7.63258C8.11669 13.8282 8.25706 14.2334 7.91331 14.5617L5.73839 17.0617H7.81123C8.32166 17.0617 8.38546 17.779 7.76098 17.779L5.00545 17.7783Z" fill="white"/>
</svg>
