<svg width="150" height="150" viewBox="0 0 150 150" fill="none" xmlns="http://www.w3.org/2000/svg">
<g clip-path="url(#clip0)">
<path d="M104.507 4.47327H26.5517C22.0197 4.47327 18.3459 8.14464 18.3459 12.6735V138.137C18.3459 142.666 22.0197 146.338 26.5517 146.338H104.507C109.039 146.338 112.713 142.666 112.713 138.137V12.6735C112.713 8.14464 109.039 4.47327 104.507 4.47327Z" fill="#FAFAFA"/>
<path d="M111.366 66.9998C107.191 65.5398 102.691 65.22 98.3361 66.0863C93.5256 67.0431 89.107 69.4041 85.6393 72.8706C82.1716 76.3372 79.8104 80.7535 78.8545 85.5611C77.8986 90.3687 78.3909 95.3516 80.269 99.8797C82.1472 104.408 85.3269 108.277 89.4059 110.999C93.485 113.721 98.2803 115.173 103.185 115.172C106.052 115.168 108.805 114.679 111.366 113.782V66.9998Z" fill="#DDDDDD"/>
<path d="M25.5752 5.70337H105.483C106.271 5.70337 107.051 5.85842 107.779 6.15966C108.506 6.46091 109.168 6.90245 109.725 7.45908C110.282 8.01571 110.724 8.67653 111.025 9.4038C111.326 10.1311 111.482 10.9106 111.482 11.6977V23.7439H19.5767V11.6977C19.5767 10.1079 20.2087 8.58325 21.3336 7.45908C22.4585 6.33492 23.9843 5.70337 25.5752 5.70337Z" fill="#EEEEEE"/>
<path d="M104.507 147.568H26.5517C21.3418 147.563 17.1199 143.344 17.115 138.137V12.6736C17.1199 7.46723 21.3418 3.24821 26.5517 3.24329H104.507C109.717 3.24821 113.938 7.46723 113.943 12.6736V138.137C113.938 143.344 109.717 147.563 104.507 147.568ZM26.5517 5.70336C24.7031 5.70769 22.9315 6.44344 21.6244 7.74967C20.3173 9.0559 19.5811 10.8263 19.5767 12.6736V138.137C19.5811 139.985 20.3173 141.755 21.6244 143.061C22.9315 144.367 24.7031 145.103 26.5517 145.108H104.507C106.355 145.103 108.127 144.367 109.434 143.061C110.741 141.755 111.477 139.985 111.482 138.137V12.6736C111.477 10.8263 110.741 9.0559 109.434 7.74967C108.127 6.44344 106.355 5.70769 104.507 5.70336H26.5517Z" fill="#444444"/>
<path d="M53.319 68.181C53.3346 68.5615 53.2615 68.9405 53.1056 69.288C53.056 69.4061 52.9728 69.5071 52.8663 69.5785C52.7599 69.6499 52.6348 69.6886 52.5066 69.6898H49.3966V75.4874C49.3996 75.5905 49.3678 75.6916 49.3063 75.7744C49.2258 75.8692 49.1208 75.9401 49.0027 75.9794C48.8175 76.0454 48.6244 76.0868 48.4283 76.1024C48.1289 76.1389 47.8273 76.1554 47.5257 76.1516C47.235 76.1545 46.9444 76.138 46.6559 76.1024C46.4651 76.087 46.2774 76.0456 46.0979 75.9794C45.983 75.9429 45.8825 75.8712 45.8107 75.7744C45.7585 75.688 45.7329 75.5882 45.7368 75.4874V69.6652H34.4374C34.2922 69.6722 34.1471 69.6499 34.0107 69.5996C33.8906 69.552 33.7857 69.4726 33.7071 69.37C33.6034 69.2247 33.5384 69.0554 33.5184 68.878C33.4748 68.6069 33.4556 68.3325 33.461 68.058V67.3281C33.4733 67.1323 33.5008 66.9376 33.543 66.7459C33.5831 66.5684 33.6408 66.3953 33.7153 66.2293C33.7901 66.0523 33.875 65.8799 33.9697 65.7127L43.8167 48.9596C43.8948 48.835 44.0017 48.7309 44.1285 48.6562C44.2954 48.5606 44.475 48.4888 44.6619 48.443C44.9321 48.3843 45.2064 48.3459 45.4824 48.3282H46.6148C47.0314 48.3239 47.4478 48.3431 47.8621 48.3856C48.1525 48.4094 48.4406 48.456 48.7237 48.525C48.9034 48.566 49.0733 48.6414 49.2243 48.7464C49.2768 48.7837 49.3197 48.8329 49.3496 48.8898C49.3796 48.9468 49.3957 49.01 49.3966 49.0744V66.6639H52.5066C52.6305 66.6655 52.7514 66.7017 52.8558 66.7684C52.9602 66.835 53.0439 66.9295 53.0974 67.0411C53.2689 67.3954 53.3452 67.7882 53.319 68.181ZM45.7286 51.5345L36.8089 66.6639H45.7286V51.5345ZM75.2038 62.1702C75.216 64.114 75.0485 66.0548 74.7033 67.9678C74.4322 69.555 73.8762 71.0802 73.0621 72.4697C72.3181 73.7032 71.2589 74.7165 69.9932 75.4054C68.5633 76.1368 66.9705 76.4924 65.3651 76.4386C63.8509 76.4889 62.3472 76.1709 60.9832 75.512C59.7996 74.8816 58.8162 73.9329 58.144 72.7731C57.3584 71.4023 56.8326 69.8983 56.5931 68.3368C56.2635 66.3366 56.1042 64.3121 56.1172 62.285C56.1026 60.3597 56.273 58.4375 56.6259 56.5448C56.8956 54.9521 57.4516 53.4213 58.2671 52.0265C58.9958 50.7994 60.0417 49.791 61.295 49.1072C62.7167 48.3775 64.3011 48.0218 65.8985 48.074C67.4207 48.022 68.9328 48.34 70.305 49.0006C71.4954 49.6228 72.4875 50.566 73.1688 51.7231C73.9544 53.0939 74.4802 54.5979 74.7197 56.1594C75.0504 58.1455 75.2121 60.1562 75.2038 62.1702ZM71.4456 62.4244C71.4456 61.0468 71.3964 59.8085 71.2979 58.7179C71.2167 57.7418 71.0714 56.7721 70.863 55.815C70.6983 55.0671 70.4477 54.3406 70.1162 53.6501C69.8389 53.0928 69.4668 52.5879 69.0167 52.1577C68.5927 51.7851 68.095 51.5057 67.556 51.3377C66.9575 51.157 66.3349 51.0685 65.7097 51.0753C64.6645 51.0198 63.6298 51.3078 62.7639 51.8953C61.9783 52.5109 61.3649 53.3187 60.9832 54.2406C60.5235 55.3566 60.2277 56.5332 60.1052 57.7339C59.9386 59.1628 59.8591 60.6004 59.8672 62.039C59.8479 63.7965 59.9548 65.5531 60.1872 67.2953C60.3349 68.5172 60.6763 69.7062 61.1965 70.8215C61.5838 71.6397 62.1992 72.3288 62.969 72.8059C63.7701 73.2352 64.6698 73.4473 65.5784 73.4209C66.2975 73.4353 67.0121 73.3042 67.6791 73.0355C68.2733 72.7881 68.8056 72.4129 69.2382 71.9367C69.6941 71.4327 70.058 70.8526 70.3132 70.2228C70.616 69.5094 70.8466 68.7681 71.0025 68.0088C71.177 67.1399 71.2949 66.2606 71.3553 65.3765C71.4128 64.4335 71.4456 63.4494 71.4456 62.4244ZM97.5975 68.181C97.6131 68.5615 97.54 68.9405 97.3841 69.288C97.3336 69.4055 97.2502 69.5059 97.1439 69.5772C97.0376 69.6485 96.9131 69.6876 96.7851 69.6898H93.6669V75.4874C93.6723 75.5895 93.6434 75.6905 93.5848 75.7744C93.5026 75.8711 93.3944 75.9422 93.273 75.9794C93.0904 76.0446 92.9001 76.086 92.7068 76.1024C92.4074 76.1387 92.1058 76.1551 91.8042 76.1516C91.5244 76.1534 91.2448 76.137 90.9672 76.1024C90.7737 76.0878 90.5831 76.0464 90.401 75.9794C90.2896 75.9405 90.1924 75.869 90.122 75.7744C90.0634 75.6905 90.0345 75.5895 90.0399 75.4874V69.6652H78.7077C78.5652 69.6715 78.4229 69.6492 78.2892 69.5996C78.1678 69.5543 78.0622 69.4745 77.9856 69.37C77.8789 69.2255 77.8111 69.0561 77.7887 68.878C77.7524 68.6062 77.736 68.3321 77.7394 68.058V67.3281C77.7543 67.132 77.7845 66.9374 77.8297 66.7459C77.8708 66.5697 77.9256 66.397 77.9938 66.2293C78.0677 66.0653 78.1497 65.8931 78.2482 65.7127L88.0952 48.9596C88.1772 48.8391 88.2839 48.7357 88.407 48.6562C88.5746 48.5619 88.7539 48.4903 88.9404 48.443C89.2108 48.3855 89.485 48.3472 89.7609 48.3282H90.8933C91.3126 48.3239 91.7317 48.3431 92.1488 48.3856C92.4254 48.4102 92.7003 48.4569 92.9694 48.525C93.1499 48.5643 93.3198 48.6398 93.47 48.7464C93.5224 48.7837 93.5654 48.8329 93.5953 48.8898C93.6252 48.9468 93.6413 49.01 93.6423 49.0744V66.6639H96.7605C96.8832 66.6661 97.0028 66.7026 97.1058 66.7693C97.2087 66.8359 97.291 66.9301 97.3431 67.0411C97.5302 67.3905 97.618 67.7849 97.5975 68.181ZM89.9989 51.5345L81.1202 66.6639H89.9989V51.5345Z" fill="#444444"/>
<path d="M29.0134 128.707H59.3748C59.7013 128.707 60.0144 128.837 60.2452 129.067C60.476 129.298 60.6057 129.611 60.6057 129.937C60.6057 130.263 60.476 130.576 60.2452 130.807C60.0144 131.038 59.7013 131.167 59.3748 131.167H29.0134C28.687 131.167 28.3739 131.038 28.143 130.807C27.9122 130.576 27.7825 130.263 27.7825 129.937C27.7825 129.611 27.9122 129.298 28.143 129.067C28.3739 128.837 28.687 128.707 29.0134 128.707ZM29.0134 134.447H42.9633C43.2897 134.447 43.6028 134.577 43.8336 134.807C44.0644 135.038 44.1941 135.351 44.1941 135.677C44.1941 136.003 44.0644 136.316 43.8336 136.547C43.6028 136.778 43.2897 136.907 42.9633 136.907H29.0134C28.687 136.907 28.3739 136.778 28.143 136.547C27.9122 136.316 27.7825 136.003 27.7825 135.677C27.7825 135.351 27.9122 135.038 28.143 134.807C28.3739 134.577 28.687 134.447 29.0134 134.447ZM71.6835 128.707H102.045C102.371 128.707 102.685 128.837 102.915 129.067C103.146 129.298 103.276 129.611 103.276 129.937C103.276 130.263 103.146 130.576 102.915 130.807C102.685 131.038 102.371 131.167 102.045 131.167H71.6835C71.3571 131.167 71.044 131.038 70.8132 130.807C70.5823 130.576 70.4527 130.263 70.4527 129.937C70.4527 129.611 70.5823 129.298 70.8132 129.067C71.044 128.837 71.3571 128.707 71.6835 128.707ZM71.6835 134.447H90.5569C90.8833 134.447 91.1964 134.577 91.4272 134.807C91.6581 135.038 91.7877 135.351 91.7877 135.677C91.7877 136.003 91.6581 136.316 91.4272 136.547C91.1964 136.778 90.8833 136.907 90.5569 136.907H71.6835C71.3571 136.907 71.044 136.778 70.8132 136.547C70.5823 136.316 70.4527 136.003 70.4527 135.677C70.4527 135.351 70.5823 135.038 70.8132 134.807C71.044 134.577 71.3571 134.447 71.6835 134.447Z" fill="#DDDDDD"/>
<path d="M17.9356 22.1038H113.123V24.5639H17.9356V22.1038ZM29.4237 18.0037C28.5532 18.0037 27.7183 17.6581 27.1028 17.043C26.4872 16.4278 26.1414 15.5935 26.1414 14.7236C26.1414 13.8536 26.4872 13.0193 27.1028 12.4042C27.7183 11.7891 28.5532 11.4435 29.4237 11.4435C30.2942 11.4435 31.1291 11.7891 31.7447 12.4042C32.3602 13.0193 32.706 13.8536 32.706 14.7236C32.706 15.5935 32.3602 16.4278 31.7447 17.043C31.1291 17.6581 30.2942 18.0037 29.4237 18.0037ZM29.4237 13.0835C28.9884 13.0835 28.571 13.2563 28.2632 13.5639C27.9555 13.8715 27.7825 14.2886 27.7825 14.7236C27.7825 15.1585 27.9555 15.5757 28.2632 15.8833C28.571 16.1908 28.9884 16.3636 29.4237 16.3636C29.859 16.3636 30.2764 16.1908 30.5842 15.8833C30.892 15.5757 31.0649 15.1585 31.0649 14.7236C31.0649 14.2886 30.892 13.8715 30.5842 13.5639C30.2764 13.2563 29.859 13.0835 29.4237 13.0835ZM40.9118 18.0037C40.0413 18.0037 39.2064 17.6581 38.5909 17.043C37.9753 16.4278 37.6295 15.5935 37.6295 14.7236C37.6295 13.8536 37.9753 13.0193 38.5909 12.4042C39.2064 11.7891 40.0413 11.4435 40.9118 11.4435C41.7823 11.4435 42.6172 11.7891 43.2328 12.4042C43.8483 13.0193 44.1941 13.8536 44.1941 14.7236C44.1941 15.5935 43.8483 16.4278 43.2328 17.043C42.6172 17.6581 41.7823 18.0037 40.9118 18.0037ZM40.9118 13.0835C40.4766 13.0835 40.0591 13.2563 39.7513 13.5639C39.4436 13.8715 39.2707 14.2886 39.2707 14.7236C39.2707 15.1585 39.4436 15.5757 39.7513 15.8833C40.0591 16.1908 40.4766 16.3636 40.9118 16.3636C41.3471 16.3636 41.7645 16.1908 42.0723 15.8833C42.3801 15.5757 42.553 15.1585 42.553 14.7236C42.553 14.2886 42.3801 13.8715 42.0723 13.5639C41.7645 13.2563 41.3471 13.0835 40.9118 13.0835ZM100.404 90.1658H30.6546C29.4583 90.1637 28.3116 89.6878 27.4657 88.8425C26.6197 87.9971 26.1436 86.8512 26.1414 85.6557V37.2743C26.1436 36.0788 26.6197 34.9328 27.4657 34.0875C28.3116 33.2422 29.4583 32.7663 30.6546 32.7641H100.404C101.6 32.7663 102.747 33.2422 103.593 34.0875C104.439 34.9328 104.915 36.0788 104.917 37.2743V85.6557C104.915 86.8512 104.439 87.9971 103.593 88.8425C102.747 89.6878 101.6 90.1637 100.404 90.1658ZM30.6546 35.2242C30.1105 35.2242 29.5887 35.4402 29.204 35.8246C28.8193 36.2091 28.6031 36.7305 28.6031 37.2743V85.6557C28.6031 86.1994 28.8193 86.7209 29.204 87.1053C29.5887 87.4898 30.1105 87.7058 30.6546 87.7058H100.404C100.948 87.7058 101.47 87.4898 101.854 87.1053C102.239 86.7209 102.455 86.1994 102.455 85.6557V37.2743C102.455 36.7305 102.239 36.2091 101.854 35.8246C101.47 35.4402 100.948 35.2242 100.404 35.2242H30.6546Z" fill="#444444"/>
<path d="M10.9607 145.107H118.457C118.783 145.107 119.096 145.237 119.327 145.468C119.558 145.698 119.687 146.011 119.687 146.338C119.687 146.664 119.558 146.977 119.327 147.207C119.096 147.438 118.783 147.568 118.457 147.568H10.9607C10.6342 147.568 10.3211 147.438 10.0903 147.207C9.85948 146.977 9.7298 146.664 9.7298 146.338C9.7298 146.011 9.85948 145.698 10.0903 145.468C10.3211 145.237 10.6342 145.107 10.9607 145.107ZM127.483 145.107H144.715C145.042 145.107 145.355 145.237 145.585 145.468C145.816 145.698 145.946 146.011 145.946 146.338C145.946 146.664 145.816 146.977 145.585 147.207C145.355 147.438 145.042 147.568 144.715 147.568H127.483C127.157 147.568 126.843 147.438 126.613 147.207C126.382 146.977 126.252 146.664 126.252 146.338C126.252 146.011 126.382 145.698 126.613 145.468C126.843 145.237 127.157 145.107 127.483 145.107ZM37.1618 118.129C37.17 118.282 37.17 118.435 37.1618 118.588C37.1474 118.7 37.1112 118.809 37.0551 118.908C37.0193 118.985 36.9624 119.05 36.891 119.096C36.8301 119.136 36.7585 119.156 36.6858 119.154H27.6595C27.4308 119.148 27.2098 119.07 27.0276 118.932C26.9154 118.83 26.8299 118.702 26.7784 118.559C26.727 118.416 26.7111 118.263 26.7322 118.112V101.515C26.7111 101.365 26.727 101.211 26.7784 101.068C26.8299 100.926 26.9154 100.797 27.0276 100.695C27.2081 100.553 27.4297 100.475 27.6595 100.474H36.5545C36.6297 100.472 36.7037 100.492 36.7679 100.531C36.8327 100.58 36.8828 100.646 36.9156 100.72C36.9648 100.82 36.9985 100.928 37.0141 101.039C37.0305 101.2 37.0305 101.362 37.0141 101.523C37.0305 101.673 37.0305 101.824 37.0141 101.974C36.9964 102.085 36.9632 102.193 36.9156 102.294C36.8936 102.359 36.8571 102.418 36.8089 102.466C36.7447 102.505 36.6707 102.525 36.5956 102.524H29.2596V108.379H35.5206C35.5575 108.375 35.5947 108.379 35.63 108.39C35.6653 108.401 35.6979 108.42 35.7258 108.444C35.7945 108.49 35.8509 108.552 35.8899 108.625C35.9404 108.721 35.9711 108.827 35.9801 108.936C35.9883 109.094 35.9883 109.254 35.9801 109.412C35.9884 109.562 35.9884 109.713 35.9801 109.863C35.9665 109.968 35.936 110.071 35.8899 110.166C35.8481 110.232 35.792 110.288 35.7258 110.33C35.6623 110.363 35.592 110.38 35.5206 110.379H29.2596V117.054H36.6448C36.7175 117.052 36.7891 117.072 36.85 117.112C36.9187 117.158 36.9751 117.22 37.0141 117.292C37.0699 117.391 37.1068 117.5 37.1207 117.612C37.147 117.783 37.1618 117.956 37.1618 118.129ZM53.6472 118.785C53.6635 118.849 53.6635 118.917 53.6472 118.982C53.602 119.05 53.5358 119.102 53.4585 119.129C53.3273 119.169 53.1927 119.196 53.0564 119.211C52.8266 119.228 52.5969 119.228 52.3671 119.211C52.162 119.228 51.9568 119.228 51.7517 119.211C51.6192 119.202 51.489 119.171 51.366 119.121C51.2787 119.08 51.2027 119.018 51.1445 118.941C51.0866 118.851 51.0397 118.754 51.005 118.654L49.2489 114.291C49.052 113.791 48.8386 113.332 48.6253 112.913C48.4195 112.519 48.1599 112.154 47.8539 111.831C47.5527 111.526 47.1925 111.286 46.7954 111.126C46.3334 110.944 45.8393 110.857 45.343 110.871H43.7018V118.818C43.7012 118.888 43.6782 118.957 43.6361 119.014C43.5828 119.08 43.5115 119.128 43.431 119.154C43.3082 119.194 43.1818 119.221 43.0535 119.236C42.8542 119.252 42.6539 119.252 42.4545 119.236C42.2552 119.252 42.0548 119.252 41.8555 119.236C41.7279 119.217 41.6018 119.19 41.478 119.154C41.4028 119.135 41.336 119.092 41.2884 119.031C41.2407 118.97 41.215 118.895 41.2154 118.818V101.515C41.1943 101.365 41.2102 101.211 41.2617 101.068C41.3131 100.926 41.3987 100.797 41.5108 100.695C41.6914 100.553 41.9129 100.475 42.1427 100.474H47.2795C47.5549 100.478 47.8293 100.505 48.1001 100.556C48.7622 100.661 49.4059 100.86 50.0121 101.146C50.5405 101.392 51.0147 101.74 51.407 102.171C51.7705 102.586 52.0492 103.068 52.2276 103.59C52.4146 104.159 52.5088 104.754 52.5066 105.353C52.5124 105.91 52.4265 106.464 52.2522 106.993C52.0961 107.473 51.848 107.919 51.5219 108.305C51.1955 108.69 50.8107 109.022 50.3813 109.289C49.9173 109.584 49.4184 109.821 48.8961 109.994C49.1937 110.125 49.4702 110.299 49.7166 110.511C49.98 110.728 50.2172 110.976 50.4223 111.249C50.6546 111.564 50.8572 111.898 51.0296 112.249C51.2265 112.618 51.4152 113.069 51.6122 113.512L53.2533 117.612C53.3502 117.851 53.4355 118.094 53.5077 118.342C53.5816 118.479 53.63 118.629 53.6472 118.785ZM49.9382 105.664C49.9625 105.011 49.791 104.366 49.4459 103.811C49.0542 103.256 48.4688 102.867 47.8047 102.72C47.5368 102.646 47.2617 102.599 46.9841 102.581C46.5862 102.54 46.186 102.524 45.7861 102.532H43.6854V108.821H46.1061C46.6784 108.829 47.2484 108.749 47.7965 108.584C48.2331 108.443 48.6375 108.217 48.9863 107.919C49.3006 107.639 49.5427 107.288 49.692 106.894C49.8449 106.507 49.9282 106.097 49.9382 105.681V105.664ZM69.6896 118.785C69.7059 118.849 69.7059 118.917 69.6896 118.982C69.6444 119.05 69.5781 119.102 69.5008 119.129C69.3697 119.169 69.235 119.196 69.0987 119.211C68.8665 119.228 68.6334 119.228 68.4012 119.211C68.1992 119.228 67.9961 119.228 67.794 119.211C67.6615 119.202 67.5313 119.171 67.4083 119.121C67.3192 119.082 67.2425 119.02 67.1868 118.941C67.1289 118.851 67.0821 118.754 67.0473 118.654L65.2912 114.291C65.0861 113.791 64.881 113.332 64.6594 112.913C64.4614 112.514 64.201 112.148 63.8881 111.831C63.5914 111.525 63.2335 111.284 62.8377 111.126C62.3729 110.944 61.8761 110.857 61.3771 110.871H59.7359V118.818C59.7394 118.889 59.7159 118.959 59.6703 119.014C59.6217 119.081 59.5525 119.13 59.4733 119.154C59.3506 119.194 59.2241 119.221 59.0959 119.236C58.8965 119.252 58.6962 119.252 58.4968 119.236C58.2975 119.252 58.0972 119.252 57.8978 119.236C57.7696 119.221 57.6431 119.194 57.5204 119.154C57.439 119.13 57.3672 119.081 57.3152 119.014C57.2765 118.956 57.2565 118.887 57.2578 118.818V101.515C57.2367 101.365 57.2525 101.211 57.304 101.068C57.3555 100.926 57.441 100.797 57.5532 100.695C57.7306 100.554 57.9501 100.476 58.1768 100.474H63.3218L64.1424 100.556C64.8045 100.661 65.4482 100.86 66.0544 101.146C66.5786 101.395 67.0496 101.743 67.4412 102.171C67.8104 102.581 68.0894 103.065 68.2617 103.59C68.4587 104.155 68.5571 104.752 68.5489 105.353C68.5506 105.909 68.4648 106.463 68.2946 106.993C68.1299 107.469 67.8827 107.914 67.5642 108.305C67.2356 108.688 66.8511 109.02 66.4236 109.289C65.9552 109.576 65.4573 109.813 64.9384 109.994C65.236 110.125 65.5126 110.299 65.759 110.511C66.024 110.724 66.2595 110.972 66.4565 111.249C66.6944 111.561 66.8996 111.896 67.0719 112.249C67.2606 112.618 67.4576 113.069 67.6463 113.512L69.2875 117.612C69.427 117.956 69.509 118.202 69.55 118.342C69.6239 118.479 69.6723 118.629 69.6896 118.785ZM65.9559 105.664C65.9802 105.011 65.8087 104.366 65.4636 103.811C65.0691 103.258 64.4849 102.87 63.8224 102.72C63.5536 102.649 63.279 102.603 63.0018 102.581C62.6066 102.54 62.2092 102.524 61.812 102.532H59.7195V108.821H62.1812C62.7535 108.829 63.3236 108.749 63.8716 108.584C64.3075 108.441 64.7116 108.216 65.0615 107.919C65.3733 107.649 65.6121 107.304 65.759 106.919C65.9067 106.523 65.9723 106.102 65.9559 105.681V105.664ZM88.6285 109.617C88.6441 111.002 88.4646 112.382 88.0951 113.717C87.7839 114.846 87.2419 115.899 86.5032 116.808C85.7875 117.669 84.8719 118.342 83.8363 118.768C82.6519 119.25 81.3812 119.485 80.1027 119.457C78.8589 119.482 77.622 119.268 76.4593 118.826C75.4764 118.438 74.6051 117.812 73.9237 117.005C73.2185 116.134 72.7092 115.122 72.4303 114.037C72.0825 112.698 71.9169 111.319 71.9379 109.937C71.9215 108.584 72.1021 107.236 72.4713 105.935C72.7987 104.81 73.3576 103.765 74.1125 102.868C74.836 102.016 75.7533 101.35 76.7876 100.925C79.1413 100.03 81.7377 100.007 84.1071 100.859C85.0928 101.242 85.9691 101.862 86.6591 102.663C87.3673 103.525 87.8822 104.529 88.169 105.607C88.5063 106.916 88.6613 108.265 88.6285 109.617ZM86.0027 109.789C86.0128 108.798 85.9193 107.809 85.7237 106.837C85.562 105.998 85.2447 105.197 84.7882 104.475C84.3503 103.808 83.7447 103.268 83.0322 102.909C82.1862 102.512 81.2583 102.321 80.3243 102.351C79.3855 102.319 78.4537 102.525 77.6163 102.95C76.9031 103.351 76.2933 103.912 75.8357 104.59C75.369 105.296 75.0378 106.083 74.8592 106.911C74.6584 107.84 74.5594 108.789 74.5638 109.74C74.5552 110.755 74.6459 111.768 74.8346 112.766C74.9897 113.613 75.3043 114.422 75.7618 115.152C76.1886 115.817 76.7867 116.355 77.4933 116.71C78.3479 117.107 79.2838 117.298 80.2258 117.268C81.1755 117.295 82.1172 117.087 82.9665 116.661C83.6875 116.271 84.2995 115.707 84.7472 115.021C85.2154 114.295 85.5438 113.489 85.7155 112.643C85.9229 111.705 86.0329 110.749 86.0437 109.789H86.0027ZM104.999 118.785C105.015 118.849 105.015 118.917 104.999 118.982C104.954 119.05 104.888 119.102 104.81 119.129C104.679 119.169 104.545 119.196 104.408 119.211C104.176 119.228 103.943 119.228 103.711 119.211C103.509 119.228 103.306 119.228 103.104 119.211C102.971 119.202 102.841 119.171 102.718 119.121C102.629 119.082 102.552 119.02 102.496 118.941C102.438 118.851 102.392 118.754 102.357 118.654L100.601 114.291C100.396 113.791 100.19 113.332 99.9689 112.913C99.7567 112.51 99.4795 112.144 99.1484 111.831C98.8517 111.525 98.4938 111.284 98.098 111.126C97.6361 110.944 97.142 110.857 96.6456 110.871H95.0044V118.818C95.0057 118.887 94.9857 118.956 94.947 119.014C94.8936 119.08 94.8223 119.128 94.7418 119.154C94.6191 119.194 94.4926 119.221 94.3644 119.236C94.165 119.252 93.9647 119.252 93.7654 119.236C93.566 119.252 93.3657 119.252 93.1663 119.236C93.0381 119.221 92.9116 119.194 92.7889 119.154C92.7075 119.13 92.6357 119.081 92.5837 119.014C92.545 118.956 92.525 118.887 92.5263 118.818V101.515C92.5052 101.365 92.521 101.211 92.5725 101.068C92.624 100.926 92.7095 100.797 92.8217 100.695C93.0022 100.553 93.2238 100.475 93.4535 100.474H98.5904C98.8657 100.478 99.1402 100.505 99.4109 100.556C100.073 100.661 100.717 100.86 101.323 101.146C101.85 101.395 102.323 101.743 102.718 102.171C103.087 102.581 103.366 103.065 103.538 103.59C103.735 104.155 103.834 104.752 103.826 105.353C103.827 105.909 103.742 106.463 103.571 106.993C103.407 107.469 103.159 107.914 102.841 108.305C102.515 108.69 102.13 109.022 101.7 109.289C101.232 109.576 100.734 109.813 100.215 109.994C100.513 110.125 100.789 110.299 101.036 110.511C101.301 110.724 101.536 110.972 101.733 111.249C101.971 111.561 102.176 111.896 102.349 112.249C102.562 112.66 102.753 113.081 102.923 113.512L104.564 117.612C104.704 117.956 104.786 118.202 104.827 118.342C104.912 118.477 104.971 118.627 104.999 118.785ZM101.265 105.664C101.29 105.011 101.118 104.366 100.773 103.811C100.379 103.258 99.7945 102.87 99.1319 102.72C98.8631 102.649 98.5885 102.603 98.3114 102.581C97.9162 102.54 97.5188 102.524 97.1215 102.532H95.0701V108.821H97.5318C98.1041 108.829 98.6742 108.749 99.2222 108.584C99.6588 108.443 100.063 108.217 100.412 107.919C100.721 107.645 100.963 107.302 101.118 106.919C101.241 106.518 101.29 106.099 101.265 105.681V105.664Z" fill="#444444"/>
<path d="M105.133 111.048C100.548 111.049 96.0658 109.692 92.2528 107.147C88.4399 104.603 85.4676 100.986 83.712 96.7531C81.9563 92.5205 81.4962 87.8626 82.3897 83.3686C83.2833 78.8746 85.4904 74.7464 88.7319 71.506C91.9734 68.2656 96.1037 66.0586 100.6 65.1642C105.097 64.2697 109.758 64.728 113.994 66.4811C118.231 68.2341 121.851 71.2032 124.399 75.0127C126.946 78.8223 128.306 83.3012 128.306 87.8831C128.293 100.669 117.928 111.031 105.133 111.048Z" fill="#FAFAFA"/>
<path d="M105.467 111.667C100.724 111.669 96.0876 110.265 92.1435 107.633C88.1994 105.001 85.1248 101.259 83.3088 96.881C81.4928 92.5028 81.0167 87.6847 81.941 83.0362C82.8652 78.3877 85.1482 74.1174 88.5012 70.7656C91.8541 67.4137 96.1265 65.1309 100.778 64.2056C105.429 63.2804 110.251 63.7545 114.632 65.5678C119.014 67.3811 122.759 70.4523 125.394 74.3928C128.029 78.3334 129.436 82.9663 129.436 87.7058C129.422 100.93 118.7 111.649 105.467 111.667ZM105.467 66.2047C101.211 66.2031 97.0505 67.4627 93.5112 69.8243C89.9719 72.1859 87.2129 75.5433 85.5831 79.472C83.9534 83.4006 83.5262 87.724 84.3554 91.8954C85.1847 96.0667 87.2332 99.8986 90.2419 102.906C93.2506 105.914 97.0843 107.963 101.258 108.793C105.432 109.623 109.758 109.198 113.69 107.571C117.622 105.944 120.983 103.188 123.348 99.652C125.712 96.1159 126.974 91.9586 126.974 87.7058C126.96 75.84 117.341 66.2228 105.467 66.2047Z" fill="#444444"/>
<path d="M105.571 95.1362C104.34 95.1362 103.873 93.9566 103.873 92.501L103.342 77.1541C103.342 76.4552 103.577 75.7849 103.995 75.2907C104.413 74.7966 104.98 74.5189 105.571 74.5189C106.162 74.5189 106.729 74.7966 107.147 75.2907C107.565 75.7849 107.8 76.4552 107.8 77.1541L107.269 92.501C107.269 93.9943 106.802 95.1362 105.571 95.1362Z" fill="#A4A4A4"/>
<path d="M107.163 99.365C107.163 98.3254 106.451 97.4827 105.571 97.4827C104.692 97.4827 103.979 98.3254 103.979 99.365C103.979 100.405 104.692 101.247 105.571 101.247C106.451 101.247 107.163 100.405 107.163 99.365Z" fill="#A4A4A4"/>
</g>
<defs>
<clipPath id="clip0">
<rect width="150" height="150" fill="white"/>
</clipPath>
</defs>
</svg>
