<svg width="150" height="150" viewBox="0 0 150 150" fill="none" xmlns="http://www.w3.org/2000/svg">
<rect x="37.7028" y="5.27026" width="93.2432" height="140.27" rx="10" fill="#FAFAFA"/>
<path d="M38.919 132.167H55.1422C58.7251 132.167 61.6296 129.263 61.6296 125.68V93.2458C61.6296 90.2233 59.5623 87.6836 56.7643 86.9634V80.272C56.7643 69.5642 49.0766 60.6518 38.919 58.7524V68.7998C43.6456 70.4684 47.0324 74.9748 47.0324 80.2721V86.7589H38.919V132.167Z" fill="#DDDDDD"/>
<path d="M45.8839 6.48645H122.765C126.61 6.49092 129.725 9.60658 129.73 13.4513V23.3108C129.73 23.8705 129.276 24.3243 128.716 24.3243H39.9325C39.3728 24.3243 38.919 23.8705 38.919 23.3108V13.4513C38.9235 9.60658 42.0391 6.49092 45.8839 6.48645Z" fill="#EEEEEE"/>
<rect x="37.2974" y="22.7028" width="94.0541" height="2.43243" fill="#444444"/>
<path fill-rule="evenodd" clip-rule="evenodd" d="M45.4055 15.4055C45.4055 17.1967 46.8575 18.6487 48.6487 18.6487C50.4399 18.6487 51.8919 17.1967 51.8919 15.4055C51.8919 13.6143 50.4399 12.1622 48.6487 12.1622C46.8575 12.1622 45.4055 13.6143 45.4055 15.4055ZM47.0271 15.4055C47.0271 14.5099 47.7531 13.7839 48.6487 13.7839C49.5443 13.7839 50.2703 14.5099 50.2703 15.4055C50.2703 16.3011 49.5443 17.0271 48.6487 17.0271C47.7531 17.0271 47.0271 16.3011 47.0271 15.4055Z" fill="#444444"/>
<path fill-rule="evenodd" clip-rule="evenodd" d="M56.7568 15.4055C56.7568 17.1967 58.2089 18.6487 60.0001 18.6487C61.7912 18.6487 63.2433 17.1967 63.2433 15.4055C63.2433 13.6143 61.7912 12.1622 60.0001 12.1622C58.2089 12.1622 56.7568 13.6143 56.7568 15.4055ZM58.3784 15.4055C58.3784 14.5099 59.1045 13.7839 60.0001 13.7839C60.8957 13.7839 61.6217 14.5099 61.6217 15.4055C61.6217 16.3011 60.8957 17.0271 60.0001 17.0271C59.1045 17.0271 58.3784 16.3011 58.3784 15.4055Z" fill="#444444"/>
<path fill-rule="evenodd" clip-rule="evenodd" d="M49.8649 100.2H118.784C121.235 100.196 123.225 98.2164 123.243 95.7649V89.2784C123.239 86.8174 121.245 84.8234 118.784 84.8189H49.8649C47.4039 84.8234 45.4099 86.8174 45.4055 89.2784V95.7649C45.4233 98.2164 47.4133 100.196 49.8649 100.2ZM48.4229 87.8293C48.8038 87.4439 49.3231 87.227 49.8649 87.2271L118.784 87.2514C119.903 87.2514 120.811 88.1589 120.811 89.2784V95.7649C120.811 96.8844 119.903 97.7919 118.784 97.7919H49.8649C48.7454 97.7919 47.8379 96.8844 47.8379 95.7649V89.2784C47.8314 88.7366 48.0421 88.2147 48.4229 87.8293Z" fill="#444444"/>
<path fill-rule="evenodd" clip-rule="evenodd" d="M49.8649 74.4243H118.784C121.245 74.4199 123.239 72.4259 123.243 69.9649V63.4784C123.239 61.0174 121.245 59.0234 118.784 59.0189H49.8649C47.4039 59.0234 45.4099 61.0174 45.4055 63.4784V69.9649C45.4099 72.4259 47.4039 74.4199 49.8649 74.4243ZM47.8379 63.4784C47.8379 62.3589 48.7454 61.4514 49.8649 61.4514H118.784C119.903 61.4514 120.811 62.3589 120.811 63.4784V69.9649C120.811 71.0844 119.903 71.9919 118.784 71.9919H49.8649C48.7454 71.9919 47.8379 71.0844 47.8379 69.9649V63.4784Z" fill="#444444"/>
<path fill-rule="evenodd" clip-rule="evenodd" d="M49.8649 48.6487H118.784C121.245 48.6442 123.239 46.6503 123.243 44.1892V37.7027C123.239 35.2417 121.245 33.2477 118.784 33.2433H49.8649C47.4039 33.2477 45.4099 35.2417 45.4055 37.7027V44.1892C45.4099 46.6503 47.4039 48.6442 49.8649 48.6487ZM47.8379 37.7027C47.8379 36.5832 48.7454 35.6757 49.8649 35.6757H118.784C119.903 35.6757 120.811 36.5832 120.811 37.7027V44.1892C120.811 45.3087 119.903 46.2163 118.784 46.2163H49.8649C48.7454 46.2163 47.8379 45.3087 47.8379 44.1892V37.7027Z" fill="#444444"/>
<path d="M47.4325 111.17C46.7608 111.17 46.2163 111.715 46.2163 112.386C46.2163 113.058 46.7608 113.603 47.4325 113.603H77.4325C78.1042 113.603 78.6487 113.058 78.6487 112.386C78.6487 111.715 78.1042 111.17 77.4325 111.17H47.4325Z" fill="#DDDDDD"/>
<path d="M47.4325 116.846C46.7608 116.846 46.2163 117.39 46.2163 118.062C46.2163 118.734 46.7608 119.278 47.4325 119.278H77.4325C78.1042 119.278 78.6487 118.734 78.6487 118.062C78.6487 117.39 78.1042 116.846 77.4325 116.846H47.4325Z" fill="#DDDDDD"/>
<path d="M46.2163 123.738C46.2163 123.066 46.7608 122.522 47.4325 122.522H77.4325C78.1042 122.522 78.6487 123.066 78.6487 123.738C78.6487 124.41 78.1042 124.954 77.4325 124.954H47.4325C46.7608 124.954 46.2163 124.41 46.2163 123.738Z" fill="#DDDDDD"/>
<path d="M47.4325 128.197C46.7608 128.197 46.2163 128.742 46.2163 129.413C46.2163 130.085 46.7608 130.63 47.4325 130.63H61.2163C61.888 130.63 62.4325 130.085 62.4325 129.413C62.4325 128.742 61.888 128.197 61.2163 128.197H47.4325Z" fill="#DDDDDD"/>
<path d="M89.5947 111.17C88.923 111.17 88.3785 111.715 88.3785 112.386C88.3785 113.058 88.923 113.603 89.5947 113.603H119.595C120.266 113.603 120.811 113.058 120.811 112.386C120.811 111.715 120.266 111.17 119.595 111.17H89.5947Z" fill="#DDDDDD"/>
<path d="M89.5947 116.846C88.923 116.846 88.3785 117.39 88.3785 118.062C88.3785 118.734 88.923 119.278 89.5947 119.278H119.595C120.266 119.278 120.811 118.734 120.811 118.062C120.811 117.39 120.266 116.846 119.595 116.846H89.5947Z" fill="#DDDDDD"/>
<path d="M88.3785 123.738C88.3785 123.066 88.923 122.522 89.5947 122.522H119.595C120.266 122.522 120.811 123.066 120.811 123.738C120.811 124.41 120.266 124.954 119.595 124.954H89.5947C88.923 124.954 88.3785 124.41 88.3785 123.738Z" fill="#DDDDDD"/>
<path d="M89.5947 128.197C88.923 128.197 88.3785 128.742 88.3785 129.413C88.3785 130.085 88.923 130.63 89.5947 130.63H108.243C108.915 130.63 109.46 130.085 109.46 129.413C109.46 128.742 108.915 128.197 108.243 128.197H89.5947Z" fill="#DDDDDD"/>
<path d="M53.1082 91.2811H70.1352C70.8069 91.2811 71.3514 91.8256 71.3514 92.4973C71.3514 93.169 70.8069 93.7135 70.1352 93.7135H53.1082C52.4365 93.7135 51.892 93.169 51.892 92.4973C51.892 91.8256 52.4365 91.2811 53.1082 91.2811Z" fill="#DDDDDD"/>
<path d="M75.4055 91.2811H92.4325C93.1042 91.2811 93.6487 91.8256 93.6487 92.4973C93.6487 93.169 93.1042 93.7135 92.4325 93.7135H75.4055C74.7338 93.7135 74.1893 93.169 74.1893 92.4973C74.1893 91.8256 74.7338 91.2811 75.4055 91.2811Z" fill="#DDDDDD"/>
<path d="M97.7028 91.2811H114.73C115.402 91.2811 115.946 91.8256 115.946 92.4973C115.946 93.169 115.402 93.7135 114.73 93.7135H97.7028C97.0311 93.7135 96.4866 93.169 96.4866 92.4973C96.4866 91.8256 97.0311 91.2811 97.7028 91.2811Z" fill="#DDDDDD"/>
<path d="M53.1082 65.5054H70.1352C70.8069 65.5054 71.3514 66.0499 71.3514 66.7216C71.3514 67.3933 70.8069 67.9378 70.1352 67.9378H53.1082C52.4365 67.9378 51.892 67.3933 51.892 66.7216C51.892 66.0499 52.4365 65.5054 53.1082 65.5054Z" fill="#DDDDDD"/>
<path d="M75.4055 65.5054H92.4325C93.1042 65.5054 93.6487 66.0499 93.6487 66.7216C93.6487 67.3933 93.1042 67.9378 92.4325 67.9378H75.4055C74.7338 67.9378 74.1893 67.3933 74.1893 66.7216C74.1893 66.0499 74.7338 65.5054 75.4055 65.5054Z" fill="#DDDDDD"/>
<path d="M97.7028 65.5054H114.73C115.402 65.5054 115.946 66.0499 115.946 66.7216C115.946 67.3933 115.402 67.9378 114.73 67.9378H97.7028C97.0311 67.9378 96.4866 67.3933 96.4866 66.7216C96.4866 66.0499 97.0311 65.5054 97.7028 65.5054Z" fill="#DDDDDD"/>
<path d="M53.1082 39.7297H70.1352C70.8069 39.7297 71.3514 40.2743 71.3514 40.946C71.3514 41.6177 70.8069 42.1622 70.1352 42.1622H53.1082C52.4365 42.1622 51.892 41.6177 51.892 40.946C51.892 40.2743 52.4365 39.7297 53.1082 39.7297Z" fill="#DDDDDD"/>
<path d="M75.4055 39.7297H92.4325C93.1042 39.7297 93.6487 40.2743 93.6487 40.946C93.6487 41.6177 93.1042 42.1622 92.4325 42.1622H75.4055C74.7338 42.1622 74.1893 41.6177 74.1893 40.946C74.1893 40.2743 74.7338 39.7297 75.4055 39.7297Z" fill="#DDDDDD"/>
<path d="M97.7028 39.7297H114.73C115.402 39.7297 115.946 40.2743 115.946 40.946C115.946 41.6177 115.402 42.1622 114.73 42.1622H97.7028C97.0311 42.1622 96.4866 41.6177 96.4866 40.946C96.4866 40.2743 97.0311 39.7297 97.7028 39.7297Z" fill="#DDDDDD"/>
<path fill-rule="evenodd" clip-rule="evenodd" d="M39.5111 144.302C37.6539 142.598 36.4889 140.151 36.4866 137.432V13.3784C36.491 8.23057 40.6631 4.05855 45.8109 4.05408H122.838C127.986 4.05855 132.158 8.23057 132.162 13.3784V137.432C132.16 140.151 130.995 142.598 129.138 144.302H133.077C133.756 144.302 134.307 144.853 134.307 145.533C134.307 146.212 133.756 146.763 133.077 146.763H35.2096C34.5301 146.763 33.9792 146.212 33.9792 145.533C33.9792 144.853 34.5301 144.302 35.2096 144.302H39.5111ZM45.2631 144.302C41.7149 144.019 38.9232 141.053 38.919 137.432V13.3784C38.9235 9.57397 42.0065 6.49098 45.8109 6.48651H122.838C126.642 6.49098 129.725 9.57397 129.73 13.3784V137.432C129.726 141.053 126.934 144.019 123.386 144.302H45.2631Z" fill="#444444"/>
<path d="M19.8811 144.302C19.2016 144.302 18.6508 144.853 18.6508 145.533C18.6508 146.212 19.2016 146.763 19.8811 146.763H28.5679C29.2474 146.763 29.7983 146.212 29.7983 145.533C29.7983 144.853 29.2474 144.302 28.5679 144.302H19.8811Z" fill="#444444"/>
<path d="M4.86493 90.0023C4.86493 86.4197 7.76946 83.5154 11.3524 83.5154H51.8989C55.4818 83.5154 58.3864 86.4197 58.3864 90.0023V122.437C58.3864 126.019 55.4819 128.924 51.8989 128.924H11.3524C7.76946 128.924 4.86493 126.019 4.86493 122.437V90.0023Z" fill="#FAFAFA"/>
<path fill-rule="evenodd" clip-rule="evenodd" d="M34.0579 103.787C35.0428 103.048 35.6799 101.87 35.6799 100.543C35.6799 98.3043 33.8645 96.4891 31.6252 96.4891C29.3859 96.4891 27.5706 98.3043 27.5706 100.543C27.5706 101.87 28.2076 103.047 29.1924 103.787V111.895C29.1924 113.239 30.2816 114.328 31.6251 114.328C32.9687 114.328 34.0579 113.239 34.0579 111.895V103.787Z" fill="#EEEEEE"/>
<path fill-rule="evenodd" clip-rule="evenodd" d="M26.3542 100.543C26.3542 97.6326 28.7141 95.2728 31.6252 95.2728C34.5364 95.2728 36.8963 97.6326 36.8963 100.543C36.8963 102.039 36.2725 103.389 35.2744 104.347V111.895C35.2744 113.911 33.6406 115.544 31.6252 115.544C29.6098 115.544 27.976 113.911 27.976 111.895V104.347C26.9779 103.389 26.3542 102.039 26.3542 100.543ZM31.6252 97.7054C30.0577 97.7054 28.787 98.976 28.787 100.543C28.787 101.471 29.2308 102.295 29.9229 102.815L30.4088 103.18V111.895C30.4088 112.567 30.9534 113.112 31.6252 113.112C32.297 113.112 32.8416 112.567 32.8416 111.895V103.18L33.3274 102.815C34.0196 102.295 34.4635 101.471 34.4635 100.543C34.4635 98.976 33.1928 97.7054 31.6252 97.7054Z" fill="#444444"/>
<path d="M9.7301 77.0284C9.7301 64.9371 19.5329 55.1351 31.6252 55.1351C43.7176 55.1351 53.5204 64.9371 53.5204 77.0284C53.5204 78.9682 53.5202 92.2178 53.5202 83.5154H43.7893V77.0284C43.7893 70.311 38.3433 64.8655 31.6254 64.8655C24.9074 64.8655 19.4614 70.311 19.4614 77.0284V83.5154H9.7301V77.0284Z" fill="#EEEEEE"/>
<path fill-rule="evenodd" clip-rule="evenodd" d="M51.8989 85.948H11.3524C9.11305 85.948 7.29772 87.7631 7.29772 90.0023V122.437C7.29772 124.676 9.11306 126.491 11.3524 126.491H51.8989C54.1383 126.491 55.9536 124.676 55.9536 122.437V90.0023C55.9536 87.7632 54.1383 85.948 51.8989 85.948ZM11.3524 83.5154C7.76946 83.5154 4.86493 86.4197 4.86493 90.0023V122.437C4.86493 126.019 7.76946 128.924 11.3524 128.924H51.8989C55.4819 128.924 58.3864 126.019 58.3864 122.437V90.0023C58.3864 86.4197 55.4818 83.5154 51.8989 83.5154H11.3524Z" fill="#444444"/>
<path d="M12.1636 77.0284C12.1636 66.2806 20.8772 57.5677 31.626 57.5677C42.3747 57.5677 51.0883 66.2806 51.0883 77.0284V84.3262H53.5211V77.0284C53.5211 64.9371 43.7183 55.1351 31.626 55.1351C19.5336 55.1351 9.73081 64.9371 9.73081 77.0284V84.3262H12.1636V77.0284Z" fill="#444444"/>
<path d="M17.0293 84.3262H19.4621V77.0284C19.4621 70.311 24.9081 64.8655 31.6261 64.8655C38.344 64.8655 43.79 70.311 43.79 77.0284V84.3262H46.2228V77.0284C46.2228 68.9675 39.6876 62.4329 31.6261 62.4329C23.5645 62.4329 17.0293 68.9675 17.0293 77.0284V84.3262Z" fill="#444444"/>
</svg>
