<svg width="150" height="150" viewBox="0 0 150 150" fill="none" xmlns="http://www.w3.org/2000/svg">
<path d="M82.0001 4.47327H26.5517C22.0197 4.47327 18.3459 8.14464 18.3459 12.6735V138.137C18.3459 142.666 22.0197 146.338 26.5517 146.338H104.507C109.039 146.338 112.713 142.666 112.713 138.137V36.5L82.0001 4.47327Z" fill="#FAFAFA"/>
<path fill-rule="evenodd" clip-rule="evenodd" d="M81.0056 6.97327H26.5517C23.3989 6.97327 20.8459 9.52695 20.8459 12.6735V138.137C20.8459 141.284 23.3989 143.838 26.5517 143.838H104.507C107.66 143.838 110.213 141.284 110.213 138.137V37.5771L81.0056 6.97327ZM82.0001 4.47327H26.5517C22.0197 4.47327 18.3459 8.14464 18.3459 12.6735V138.137C18.3459 142.666 22.0197 146.338 26.5517 146.338H104.507C109.039 146.338 112.713 142.666 112.713 138.137V36.5L82.0001 4.47327Z" fill="#444444"/>
<path d="M10.2309 144H117.727C118.053 144 118.366 144.13 118.597 144.36C118.828 144.591 118.958 144.904 118.958 145.23C118.958 145.556 118.828 145.869 118.597 146.1C118.366 146.33 118.053 146.46 117.727 146.46H10.2309C9.90448 146.46 9.59141 146.33 9.36057 146.1C9.12974 145.869 9.00006 145.556 9.00006 145.23C9.00006 144.904 9.12974 144.591 9.36057 144.36C9.59141 144.13 9.90448 144 10.2309 144ZM126.753 144H143.985C144.312 144 144.625 144.13 144.856 144.36C145.087 144.591 145.216 144.904 145.216 145.23C145.216 145.556 145.087 145.869 144.856 146.1C144.625 146.33 144.312 146.46 143.985 146.46H126.753C126.427 146.46 126.114 146.33 125.883 146.1C125.652 145.869 125.522 145.556 125.522 145.23C125.522 144.904 125.652 144.591 125.883 144.36C126.114 144.13 126.427 144 126.753 144Z" fill="#444444"/>
<path d="M82.2501 6V37.5H111" stroke="#444444" stroke-width="2.5" stroke-linejoin="round" color="#FAFAFA"/>
<path fill-rule="evenodd" clip-rule="evenodd" d="M98.336 66.0863C102.691 65.22 107.191 65.5398 111.366 66.9998V110H110.21V114.155C107.983 114.814 105.625 115.169 103.185 115.172C98.2802 115.173 93.485 113.721 89.4059 110.999C85.3268 108.277 82.1471 104.408 80.269 99.8797C78.3908 95.3516 77.8986 90.3687 78.8545 85.5611C79.8104 80.7535 82.1715 76.3372 85.6392 72.8706C89.1069 69.4041 93.5255 67.0431 98.336 66.0863Z" fill="#DDDDDD"/>
<rect x="31.2501" y="44.25" width="69.5" height="69.5" rx="2.75" stroke="#444444" stroke-width="2.5" color="#FAFAFA"/>
<path d="M58.0001 62.5L71.0001 84.5L78.0001 74.5L96.0001 108H36.0001L58.0001 62.5Z" fill="#C4C4C4"/>
<path fill-rule="evenodd" clip-rule="evenodd" d="M80.8 79.7109L96 108H85.729C83.3983 105.694 81.537 102.937 80.2689 99.8796C78.3908 95.3516 77.8985 90.3687 78.8544 85.5611C79.2589 83.5269 79.915 81.5627 80.8 79.7109Z" fill="#888888"/>
<circle cx="81.5001" cy="56.5" r="6.5" fill="#C4C4C4"/>
<path d="M105.133 111.048C100.548 111.049 96.0658 109.692 92.2528 107.147C88.4399 104.603 85.4676 100.986 83.712 96.7531C81.9563 92.5205 81.4962 87.8626 82.3897 83.3686C83.2833 78.8746 85.4904 74.7464 88.7319 71.506C91.9734 68.2656 96.1037 66.0586 100.6 65.1642C105.097 64.2697 109.758 64.728 113.994 66.4811C118.231 68.2341 121.851 71.2032 124.399 75.0127C126.946 78.8223 128.306 83.3012 128.306 87.8831C128.293 100.669 117.928 111.031 105.133 111.048Z" fill="#FAFAFA"/>
<path d="M105.467 111.667C100.724 111.669 96.0876 110.265 92.1435 107.633C88.1994 105.001 85.1248 101.259 83.3088 96.881C81.4928 92.5028 81.0167 87.6847 81.941 83.0362C82.8652 78.3877 85.1482 74.1174 88.5012 70.7656C91.8541 67.4137 96.1265 65.1309 100.778 64.2056C105.429 63.2804 110.251 63.7545 114.632 65.5678C119.014 67.3811 122.759 70.4523 125.394 74.3928C128.029 78.3334 129.436 82.9663 129.436 87.7058C129.422 100.93 118.7 111.649 105.467 111.667ZM105.467 66.2047C101.211 66.2031 97.0505 67.4627 93.5112 69.8243C89.9719 72.1859 87.2129 75.5433 85.5831 79.472C83.9534 83.4006 83.5262 87.724 84.3554 91.8954C85.1847 96.0667 87.2332 99.8986 90.2419 102.906C93.2506 105.914 97.0843 107.963 101.258 108.793C105.432 109.623 109.758 109.198 113.69 107.571C117.622 105.944 120.983 103.188 123.348 99.652C125.712 96.1159 126.974 91.9586 126.974 87.7058C126.96 75.84 117.341 66.2228 105.467 66.2047Z" fill="#444444"/>
<path d="M113.15 76.7161L105.156 84.6978L97.1741 76.7161C96.2192 75.7613 94.6711 75.7613 93.7162 76.7161C92.7613 77.671 92.7613 79.2191 93.7162 80.174L101.698 88.1687L93.7162 96.1503C92.7613 97.1052 92.7613 98.6533 93.7162 99.6082C94.6711 100.563 96.2192 100.563 97.1741 99.6082L105.156 91.6265L113.15 99.6082C114.105 100.563 115.653 100.563 116.608 99.6082C117.563 98.6533 117.563 97.1052 116.608 96.1503L108.627 88.1687L116.608 80.174C117.563 79.2191 117.563 77.671 116.608 76.7161C115.653 75.7613 114.105 75.7613 113.15 76.7161Z" fill="#A4A4A4"/>
</svg>
