<svg width="150" height="150" viewBox="0 0 150 150" fill="none" xmlns="http://www.w3.org/2000/svg">
<rect x="10.5502" y="11.2051" width="93.154" height="135.19" rx="10" fill="#FAFAFA"/>
<path d="M18.2237 11.8551H90.9448C94.5815 11.8594 97.5286 14.8672 97.5328 18.5787V28.0967C97.5328 28.637 97.1036 29.0751 96.5741 29.0751H12.5944C12.065 29.0751 11.6357 28.637 11.6357 28.0967V18.5787C11.64 14.8672 14.587 11.8594 18.2237 11.8551Z" fill="#EEEEEE"/>
<path d="M39.7697 12.1622C39.8613 12.561 40.0318 12.9437 40.2791 13.2851C45.1531 20.1166 50.0205 26.9335 54.8846 33.7457C63.797 46.2279 72.6984 58.6944 81.6094 71.2068C81.9801 71.7341 82.1811 72.366 82.1846 73.0149V125.458C82.1862 126.363 82.579 127.223 83.2583 127.806C85.9322 130.09 88.6429 132.374 91.3536 134.658C92.9346 135.99 94.5155 137.322 96.0891 138.654C96.9858 139.409 98.2277 139.57 99.281 139.069C100.334 138.567 101.011 137.492 101.021 136.306C101.021 129.257 101.011 122.217 101.002 115.181C100.983 101.123 100.964 87.0837 101.021 73.0306C101.037 72.38 101.251 71.7507 101.634 71.2303C108.841 61.0406 116.048 50.7916 123.255 40.5427C129.661 31.4325 136.067 22.3223 142.474 13.2538C142.709 12.9202 142.872 12.5486 142.961 12.1622H39.7697Z" fill="#DDDDDD"/>
<rect x="10.1019" y="27.5096" width="88.9648" height="2.34818" fill="#444444"/>
<path fill-rule="evenodd" clip-rule="evenodd" d="M17.7712 20.4651C17.7712 22.1943 19.1447 23.596 20.839 23.596C22.5333 23.596 23.9067 22.1943 23.9067 20.4651C23.9067 18.736 22.5333 17.3342 20.839 17.3342C19.1447 17.3342 17.7712 18.736 17.7712 20.4651ZM19.3054 20.4651C19.3054 19.6006 19.9922 18.8997 20.8393 18.8997C21.6864 18.8997 22.3732 19.6006 22.3732 20.4651C22.3732 21.3297 21.6864 22.0306 20.8393 22.0306C19.9922 22.0306 19.3054 21.3297 19.3054 20.4651Z" fill="#444444"/>
<path fill-rule="evenodd" clip-rule="evenodd" d="M28.5084 20.4651C28.5084 22.1943 29.8819 23.596 31.5761 23.596C33.2704 23.596 34.6439 22.1943 34.6439 20.4651C34.6439 18.736 33.2704 17.3342 31.5761 17.3342C29.8819 17.3342 28.5084 18.736 28.5084 20.4651ZM30.042 20.4651C30.042 19.6006 30.7287 18.8997 31.5759 18.8997C32.423 18.8997 33.1097 19.6006 33.1097 20.4651C33.1097 21.3297 32.423 22.0306 31.5759 22.0306C30.7287 22.0306 30.042 21.3297 30.042 20.4651Z" fill="#444444"/>
<path fill-rule="evenodd" clip-rule="evenodd" d="M18.6506 147.568H95.604C100.747 147.563 104.915 143.542 104.919 138.581V19.0195C104.915 14.0581 100.747 10.0372 95.604 10.0329H18.6506C13.5077 10.0372 9.33969 14.0581 9.33522 19.0195V138.581C9.33969 143.542 13.5077 147.563 18.6506 147.568ZM11.7645 19.0195C11.769 15.3529 14.849 12.3815 18.6498 12.3772H95.6032C99.404 12.3815 102.484 15.3529 102.488 19.0195V138.581C102.484 142.248 99.404 145.219 95.6032 145.223H18.6498C14.849 145.219 11.769 142.248 11.7645 138.581V19.0195Z" fill="#444444"/>
<path d="M3.30007 145.69H103.769C104.404 145.69 104.919 146.215 104.919 146.864C104.919 147.512 104.404 148.038 103.769 148.038H3.30007C2.66471 148.038 2.14966 147.512 2.14966 146.864C2.14966 146.215 2.66471 145.69 3.30007 145.69Z" fill="#444444"/>
<path d="M112.205 145.69H128.311C128.946 145.69 129.461 146.215 129.461 146.864C129.461 147.512 128.946 148.038 128.311 148.038H112.205C111.57 148.038 111.055 147.512 111.055 146.864C111.055 146.215 111.57 145.69 112.205 145.69Z" fill="#444444"/>
<path d="M25.0571 127.824H41.1628C41.7982 127.824 42.3132 128.35 42.3132 128.998C42.3132 129.646 41.7982 130.172 41.1628 130.172H25.0571C24.4218 130.172 23.9067 129.646 23.9067 128.998C23.9067 128.35 24.4218 127.824 25.0571 127.824Z" fill="#DDDDDD"/>
<path d="M46.1479 127.824H62.2536C62.889 127.824 63.404 128.35 63.404 128.998C63.404 129.646 62.889 130.172 62.2536 130.172H46.1479C45.5126 130.172 44.9975 129.646 44.9975 128.998C44.9975 128.35 45.5126 127.824 46.1479 127.824Z" fill="#DDDDDD"/>
<path d="M67.2387 127.824H83.3444C83.9798 127.824 84.4948 128.35 84.4948 128.998C84.4948 129.646 83.9798 130.172 83.3444 130.172H67.2387C66.6034 130.172 66.0883 129.646 66.0883 128.998C66.0883 128.35 66.6034 127.824 67.2387 127.824Z" fill="#DDDDDD"/>
<path d="M25.0571 106.855H41.1628C41.7982 106.855 42.3132 107.38 42.3132 108.029C42.3132 108.677 41.7982 109.203 41.1628 109.203H25.0571C24.4218 109.203 23.9067 108.677 23.9067 108.029C23.9067 107.38 24.4218 106.855 25.0571 106.855Z" fill="#DDDDDD"/>
<path d="M46.1479 106.855H62.2536C62.889 106.855 63.404 107.38 63.404 108.029C63.404 108.677 62.889 109.203 62.2536 109.203H46.1479C45.5126 109.203 44.9975 108.677 44.9975 108.029C44.9975 107.38 45.5126 106.855 46.1479 106.855Z" fill="#DDDDDD"/>
<path d="M67.2387 106.855H83.3444C83.9798 106.855 84.4948 107.38 84.4948 108.029C84.4948 108.677 83.9798 109.203 83.3444 109.203H67.2387C66.6034 109.203 66.0883 108.677 66.0883 108.029C66.0883 107.38 66.6034 106.855 67.2387 106.855Z" fill="#DDDDDD"/>
<path d="M25.0571 85.8853H41.1628C41.7982 85.8853 42.3132 86.411 42.3132 87.0594C42.3132 87.7078 41.7982 88.2335 41.1628 88.2335H25.0571C24.4218 88.2335 23.9067 87.7078 23.9067 87.0594C23.9067 86.411 24.4218 85.8853 25.0571 85.8853Z" fill="#DDDDDD"/>
<path d="M46.1479 85.8853H62.2536C62.889 85.8853 63.404 86.411 63.404 87.0594C63.404 87.7078 62.889 88.2335 62.2536 88.2335H46.1479C45.5126 88.2335 44.9975 87.7078 44.9975 87.0594C44.9975 86.411 45.5126 85.8853 46.1479 85.8853Z" fill="#DDDDDD"/>
<path d="M67.2387 85.8853H83.3444C83.9798 85.8853 84.4948 86.411 84.4948 87.0594C84.4948 87.7078 83.9798 88.2335 83.3444 88.2335H67.2387C66.6034 88.2335 66.0883 87.7078 66.0883 87.0594C66.0883 86.411 66.6034 85.8853 67.2387 85.8853Z" fill="#DDDDDD"/>
<path d="M25.0571 64.9162H41.1628C41.7982 64.9162 42.3132 65.4418 42.3132 66.0903C42.3132 66.7387 41.7982 67.2643 41.1628 67.2643H25.0571C24.4218 67.2643 23.9067 66.7387 23.9067 66.0903C23.9067 65.4418 24.4218 64.9162 25.0571 64.9162Z" fill="#DDDDDD"/>
<path d="M46.1479 64.9162H62.2536C62.889 64.9162 63.404 65.4418 63.404 66.0903C63.404 66.7387 62.889 67.2643 62.2536 67.2643H46.1479C45.5126 67.2643 44.9975 66.7387 44.9975 66.0903C44.9975 65.4418 45.5126 64.9162 46.1479 64.9162Z" fill="#DDDDDD"/>
<path d="M67.2387 64.9162H83.3444C83.9798 64.9162 84.4948 65.4418 84.4948 66.0903C84.4948 66.7387 83.9798 67.2643 83.3444 67.2643H67.2387C66.6034 67.2643 66.0883 66.7387 66.0883 66.0903C66.0883 65.4418 66.6034 64.9162 67.2387 64.9162Z" fill="#DDDDDD"/>
<path d="M25.0571 43.9469H41.1628C41.7982 43.9469 42.3132 44.4726 42.3132 45.121C42.3132 45.7694 41.7982 46.2951 41.1628 46.2951H25.0571C24.4218 46.2951 23.9067 45.7694 23.9067 45.121C23.9067 44.4726 24.4218 43.9469 25.0571 43.9469Z" fill="#DDDDDD"/>
<path d="M46.1479 43.9469H62.2536C62.889 43.9469 63.404 44.4726 63.404 45.121C63.404 45.7694 62.889 46.2951 62.2536 46.2951H46.1479C45.5126 46.2951 44.9975 45.7694 44.9975 45.121C44.9975 44.4726 45.5126 43.9469 46.1479 43.9469Z" fill="#DDDDDD"/>
<path fill-rule="evenodd" clip-rule="evenodd" d="M22.1797 136.442H90.3155C92.7486 136.437 94.7199 134.512 94.7243 132.137V125.875C94.7243 123.497 92.7504 121.57 90.3155 121.57H22.1797C19.7448 121.57 17.7709 123.497 17.7709 125.875V132.137C17.7753 134.512 19.7466 136.437 22.1797 136.442ZM20.1765 125.875C20.1765 124.794 21.0737 123.918 22.1805 123.918H90.3163C91.423 123.918 92.3203 124.794 92.3203 125.875V132.137C92.3159 133.216 91.4212 134.089 90.3163 134.093H22.1805C21.0755 134.089 20.1809 133.216 20.1765 132.137V125.875Z" fill="#444444"/>
<path fill-rule="evenodd" clip-rule="evenodd" d="M22.1797 115.465H90.3155C92.7504 115.465 94.7243 113.537 94.7243 111.16V104.898C94.7199 102.522 92.7486 100.597 90.3155 100.593H22.1797C19.7466 100.597 17.7753 102.522 17.7709 104.898V111.16C17.7709 113.537 19.7448 115.465 22.1797 115.465ZM20.1765 104.898C20.1765 103.817 21.0737 102.941 22.1805 102.941H90.3163C91.423 102.941 92.3203 103.817 92.3203 104.898V111.16C92.3203 112.24 91.423 113.116 90.3163 113.116H22.1805C21.0737 113.116 20.1765 112.24 20.1765 111.16V104.898Z" fill="#444444"/>
<path fill-rule="evenodd" clip-rule="evenodd" d="M22.1797 94.4953H90.3155C92.7392 94.491 94.7067 92.5804 94.7243 90.2138V83.952C94.7199 81.5762 92.7486 79.6513 90.3155 79.647H22.1797C19.7466 79.6513 17.7753 81.5762 17.7709 83.952V90.2138C17.7885 92.5804 19.756 94.491 22.1797 94.4953ZM20.755 82.5531C21.1315 82.181 21.6449 81.9716 22.1806 81.9717L90.3164 81.9952C91.4232 81.9952 92.3204 82.8713 92.3204 83.952V90.2138C92.3204 91.2945 91.4232 92.1706 90.3164 92.1706H22.1806C21.0739 92.1706 20.1766 91.2945 20.1766 90.2138V83.952C20.1702 83.4289 20.3785 82.9252 20.755 82.5531Z" fill="#444444"/>
<path fill-rule="evenodd" clip-rule="evenodd" d="M22.1797 52.5569H90.3155C92.7486 52.5525 94.7199 50.6277 94.7243 48.2519V41.9901C94.7199 39.6143 92.7486 37.6894 90.3155 37.6851H22.1797C19.7466 37.6894 17.7753 39.6143 17.7709 41.9901V48.2519C17.7753 50.6277 19.7466 52.5525 22.1797 52.5569ZM20.1765 41.9901C20.1765 40.9093 21.0737 40.0332 22.1805 40.0332H90.3163C91.423 40.0332 92.3203 40.9093 92.3203 41.9901V48.2519C92.3203 49.3326 91.423 50.2087 90.3163 50.2087H22.1805C21.0737 50.2087 20.1765 49.3326 20.1765 48.2519V41.9901Z" fill="#444444"/>
<path fill-rule="evenodd" clip-rule="evenodd" d="M22.1797 73.526H90.3155C92.7486 73.5217 94.7199 71.5969 94.7243 69.2211V62.9592C94.7199 60.5835 92.7486 58.6586 90.3155 58.6543H22.1797C19.7466 58.6586 17.7753 60.5835 17.7709 62.9592V69.2211C17.7753 71.5969 19.7466 73.5217 22.1797 73.526ZM20.1765 62.9592C20.1765 61.8785 21.0737 61.0024 22.1805 61.0024H90.3163C91.423 61.0024 92.3203 61.8785 92.3203 62.9592V69.221C92.3203 70.3017 91.423 71.1778 90.3163 71.1778H22.1805C21.0737 71.1778 20.1765 70.3017 20.1765 69.221V62.9592Z" fill="#444444"/>
<path d="M103.889 136.581C102.924 136.581 101.99 136.234 101.251 135.602L96.764 131.79C93.98 129.442 91.1884 127.094 88.4427 124.746C87.4961 123.941 86.9506 122.747 86.9549 121.49V69.047C86.9518 68.6447 86.8257 68.2534 86.5944 67.9277C79.196 57.5749 71.8078 47.2324 64.4299 36.9004C58.0336 27.9461 51.6425 18.9812 45.2565 10.006C44.3306 8.72085 44.1941 7.01267 44.9037 5.5914C45.5987 4.15698 47.0402 3.25845 48.608 3.28236C64.7827 3.28236 81.2258 3.28236 97.1321 3.28236C113.038 3.28236 129.62 3.24323 145.848 3.24323C147.408 3.24508 148.835 4.1377 149.545 5.555C150.254 6.9723 150.127 8.6758 149.215 9.96684C142.88 18.9369 136.555 27.933 130.241 36.9552C123.078 47.1307 115.669 57.6662 108.391 67.959C108.164 68.2809 108.041 68.6664 108.038 69.0627C108.038 80.5218 108.038 92.1766 108.038 103.448C108.038 113.086 108.038 122.716 108.038 132.338C108.041 133.984 107.107 135.481 105.645 136.174C105.095 136.437 104.496 136.576 103.889 136.581Z" fill="#FAFAFA"/>
<path fill-rule="evenodd" clip-rule="evenodd" d="M101.174 136.045C101.913 136.679 102.846 137.027 103.809 137.027C104.416 137.022 105.014 136.883 105.563 136.619C107.023 135.923 107.956 134.421 107.953 132.77V69.283C107.956 68.8854 108.079 68.4986 108.305 68.1757C114.372 59.5562 120.529 50.767 126.559 42.1599C127.753 40.4546 128.943 38.7564 130.126 37.0681C136.432 28.0157 142.748 18.9894 149.074 9.98935C149.985 8.69399 150.112 6.98479 149.404 5.56274C148.695 4.14069 147.27 3.24508 145.712 3.24323C137.568 3.24323 129.335 3.25314 121.144 3.26301C113.034 3.27277 104.964 3.28249 97.0615 3.28249H48.6024C47.0367 3.25851 45.5972 4.16004 44.9031 5.59926C44.1944 7.02529 44.3308 8.73919 45.2554 10.0286C51.6328 19.0339 58.0154 28.0288 64.4031 37.0131C71.7712 47.3797 79.1494 57.7568 86.5379 68.1443C86.7689 68.4711 86.8947 68.8637 86.8979 69.2673V121.886C86.8936 123.147 87.4384 124.345 88.3837 125.153C90.7348 127.173 93.1197 129.193 95.5046 131.213C95.9011 131.549 96.2975 131.885 96.6938 132.221L101.174 136.045ZM145.71 5.6838C137.609 5.6838 129.42 5.69362 121.269 5.70343L121.146 5.70358C113.036 5.71335 104.966 5.72307 97.0615 5.72307H48.5839L48.5654 5.72278C47.964 5.71357 47.3802 6.05986 47.0891 6.6635L47.0828 6.6765L47.0764 6.68944C46.7696 7.30693 46.8314 8.05125 47.2263 8.602L47.2305 8.60784L47.2347 8.61371C53.6113 17.6178 59.993 26.6114 66.3798 35.5945C73.7477 45.9609 81.126 56.338 88.5143 66.7253L88.5184 66.7311C89.0397 67.4686 89.32 68.3485 89.327 69.2484L89.327 69.2578V121.894C89.3251 122.447 89.5644 122.958 89.9572 123.293L89.9626 123.298C92.3063 125.312 94.6835 127.325 97.0684 129.346C97.4655 129.682 97.8627 130.018 98.26 130.355L98.2667 130.361L102.752 134.19C103.053 134.448 103.424 134.584 103.8 134.586C104.045 134.583 104.288 134.526 104.513 134.418L104.523 134.413C105.115 134.131 105.525 133.502 105.524 132.775L105.524 132.77L105.524 69.2736L105.524 69.2642C105.53 68.3739 105.806 67.503 106.318 66.7711L106.322 66.7666C112.387 58.1494 118.542 49.3628 124.572 40.7556C125.766 39.0516 126.954 37.3546 128.137 35.6673C134.444 26.6125 140.762 17.5839 147.09 8.58145C147.482 8.02368 147.541 7.27558 147.232 6.65551C146.926 6.04183 146.33 5.68497 145.71 5.6838Z" fill="#444444"/>
<path d="M105.286 20.9864L97.2908 28.9681L89.3092 20.9864C88.3543 20.0315 86.8062 20.0315 85.8513 20.9864C84.8965 21.9413 84.8965 23.4894 85.8513 24.4443L93.833 32.4389L85.8513 40.4206C84.8965 41.3755 84.8965 42.9236 85.8513 43.8784C86.8062 44.8333 88.3543 44.8333 89.3092 43.8784L97.2908 35.8968L105.286 43.8784C106.24 44.8333 107.789 44.8333 108.743 43.8784C109.698 42.9236 109.698 41.3755 108.743 40.4206L100.762 32.4389L108.743 24.4443C109.698 23.4894 109.698 21.9413 108.743 20.9864C107.789 20.0315 106.24 20.0315 105.286 20.9864Z" fill="#A4A4A4"/>
</svg>
