<svg width="150" height="150" viewBox="0 0 150 150" fill="none" xmlns="http://www.w3.org/2000/svg">
<path d="M34.0541 13.7843C34.0541 9.30601 37.6848 5.67566 42.1635 5.67566H122.735C127.213 5.67566 130.844 9.30602 130.844 13.7843V136.998C130.844 141.476 127.213 145.107 122.735 145.107H42.1635C37.6848 145.107 34.0541 141.476 34.0541 136.998V13.7843Z" fill="#FAFAFA"/>
<path d="M33.7505 13.7843C33.7505 9.30601 37.3812 5.67566 41.8598 5.67566H45.4826V145.107H41.8598C37.3812 145.107 33.7505 141.476 33.7505 136.998V13.7843Z" fill="#EEEEEE"/>
<path fill-rule="evenodd" clip-rule="evenodd" d="M41.6 132.972H53.5205C57.1034 132.972 60.008 130.068 60.008 126.485V94.0507C60.008 91.0282 57.9406 88.4885 55.1427 87.7682V81.0768C55.1427 71.9431 49.5489 64.1157 41.6 60.8329V72.2354C43.9466 74.4528 45.4108 77.5939 45.4108 81.077V87.5638H41.6V132.972ZM62.8487 90.1546C62.1691 90.1546 61.6183 90.7054 61.6183 91.3849C61.6183 92.0643 62.1691 92.6152 62.8487 92.6152H109.158C109.838 92.6152 110.389 92.0643 110.389 91.3849C110.389 90.7054 109.838 90.1546 109.158 90.1546H62.8487ZM61.6177 97.1262C61.6177 96.4467 62.1685 95.8959 62.848 95.8959H109.158C109.837 95.8959 110.388 96.4467 110.388 97.1262C110.388 97.8056 109.837 98.3565 109.158 98.3565H62.848C62.1685 98.3565 61.6177 97.8056 61.6177 97.1262ZM61.6177 102.867C61.6177 102.188 62.1685 101.637 62.848 101.637H109.158C109.837 101.637 110.388 102.188 110.388 102.867C110.388 103.547 109.837 104.098 109.158 104.098H62.848C62.1685 104.098 61.6177 103.547 61.6177 102.867ZM61.6177 108.609C61.6177 107.929 62.1685 107.378 62.848 107.378H99.4036C100.083 107.378 100.634 107.929 100.634 108.609C100.634 109.288 100.083 109.839 99.4036 109.839H62.848C62.1685 109.839 61.6177 109.288 61.6177 108.609Z" fill="#DDDDDD"/>
<path fill-rule="evenodd" clip-rule="evenodd" d="M85.3084 72.1254V68.4646C84.3492 68.0446 83.5343 67.4471 82.6643 66.8706C81.8057 66.3006 80.8878 65.9973 79.9303 65.6227C79.5824 65.4873 79.2557 65.3195 78.9492 65.1281C78.873 65.1144 78.804 65.0844 78.7303 65.0665C79.2313 67.1706 77.6122 69.4522 75.6176 70.0003C73.2492 70.6514 71.1127 69.1781 70.3222 66.993C70.2127 66.6914 69.9581 65.8781 69.9192 65.6819C69.9192 65.6795 69.9176 65.6787 69.9176 65.6763C69.8535 65.733 69.7765 65.7954 69.6662 65.87C68.2278 66.8503 66.44 66.9768 65.0219 67.9157C64.8484 68.0317 64.6749 68.1273 64.5013 68.2133V75.7068H82.6813C82.8297 74.1565 83.7062 72.6922 85.3084 72.1254Z" fill="#DDDDDD"/>
<path fill-rule="evenodd" clip-rule="evenodd" d="M102.242 71.6611C101.383 71.0911 99.6871 70.9484 98.7296 70.5746C98.3825 70.4384 99.4358 70.9192 99.1293 70.7279C99.0539 70.7141 98.8042 70.5924 98.7296 70.5746C99.0685 71.9968 98.0639 73.3216 97.0042 74.3157C95.7669 75.3779 95.3947 75.4638 93.8469 75.4638C92.595 75.4638 91.6715 75.5222 91.3617 74.6108C90.3466 74.0635 89.5423 73.1076 89.1215 71.9449C89.012 71.6424 88.7574 70.8292 88.7185 70.6322C88.7185 70.6306 88.7169 70.6297 88.7169 70.6273C88.6528 70.6841 88.5766 70.7465 88.4663 70.8211C87.0263 71.8014 85.2393 71.9279 83.8212 72.8668C83.6469 72.9819 83.4742 73.0784 83.3015 73.1643V80.6587H104.108C104.256 79.1076 104.108 77.9757 104.108 77.0765V73.4157C103.149 72.9957 103.111 72.2368 102.242 71.6611Z" fill="#DDDDDD"/>
<path fill-rule="evenodd" clip-rule="evenodd" d="M103.609 79.6492H83.9465V75.3324C83.9465 73.6386 85.3233 72.261 87.0171 72.261C87.0463 72.261 87.0755 72.2594 87.1046 72.257C87.4063 72.2473 87.7022 72.214 87.99 72.1573C88.753 74.6594 91.0849 76.444 93.7776 76.444C96.4703 76.444 98.8022 74.6594 99.5652 72.1573C99.853 72.214 100.149 72.2473 100.451 72.257C100.481 72.2594 100.509 72.261 100.538 72.261C102.232 72.261 103.609 73.6386 103.609 75.3324V79.6492ZM82.2463 74.7705H64.9987V70.4538C64.9987 68.76 66.3763 67.3832 68.0692 67.3832C68.0984 67.3832 68.1276 67.3816 68.156 67.3783C68.7884 67.3589 69.3933 67.2316 69.9544 67.0143L74.1082 73.0102C74.2719 73.247 74.5419 73.3873 74.8298 73.3873C75.1176 73.3873 75.3868 73.247 75.5514 73.0102L79.706 67.0143C80.2663 67.2316 80.8711 67.3589 81.5036 67.3783C81.5319 67.3816 81.5611 67.3832 81.5903 67.3832C82.3346 67.3832 83.0465 67.6556 83.5987 68.1324C83.6027 68.1365 83.6076 68.1405 83.6125 68.1446C83.7941 68.3035 83.9587 68.4835 84.0998 68.6838C84.1006 68.6846 84.1014 68.6854 84.1022 68.6862C84.45 69.18 84.6625 69.7759 84.6625 70.427V71.147C83.3522 71.8865 82.4303 73.2105 82.2463 74.7705ZM73.3071 63.1686C73.7952 63.3219 74.3052 63.4029 74.8298 63.4029C75.3503 63.4029 75.8611 63.3243 76.3533 63.1719C76.6314 64.3459 77.2873 65.3756 78.1873 66.1232L74.8298 70.9694L71.4714 66.1232C72.373 65.3756 73.029 64.3451 73.3071 63.1686ZM70.1936 56.1348C70.959 55.4319 71.58 54.5813 72.013 53.6408C72.0154 53.6424 72.0187 53.6448 72.0219 53.6473C72.51 54.0105 73.089 54.2035 73.6987 54.2035H78.2879C78.8384 54.2035 79.3152 54.5254 79.5406 54.9908C79.5357 56.8135 79.016 58.5162 78.0763 59.7883C77.19 60.9875 76.0371 61.6483 74.8298 61.6483C73.7125 61.6483 72.6244 61.071 71.7665 60.0227C70.9338 59.0067 70.3825 57.6381 70.1936 56.1348ZM72.2506 48.7038C72.4809 48.6373 72.7241 48.5983 72.9746 48.5862C73.1036 48.5813 73.2292 48.5465 73.3436 48.4865C73.9955 48.1443 74.6854 47.9708 75.3941 47.9708C77.9838 47.9708 80.0984 50.2492 80.1827 53.0846C79.6549 52.6856 78.9982 52.4481 78.2879 52.4481H73.6987C73.47 52.4481 73.2536 52.3767 73.0719 52.2405C72.9163 52.1246 72.7963 51.9689 72.7241 51.7897C72.5587 51.377 72.1484 51.1192 71.7049 51.1475C71.2606 51.1759 70.8852 51.4856 70.7725 51.9178C70.5495 52.7773 70.1311 53.5783 69.5627 54.2586C69.1079 51.7143 70.2536 49.2811 72.2506 48.7038ZM92.2549 68.0456C92.7487 68.2005 93.2579 68.2816 93.7736 68.2816C94.299 68.2816 94.8098 68.1997 95.3003 68.0456C95.6522 69.54 96.6187 70.7992 97.9176 71.5419C97.4109 73.3727 95.7268 74.6894 93.7776 74.6894C91.8284 74.6894 90.1452 73.3727 89.6384 71.5419C90.9365 70.7992 91.9022 69.54 92.2549 68.0456ZM89.2679 61.7886C89.6019 61.5656 89.9555 61.3824 90.326 61.2421C90.8482 61.0475 91.4003 60.9397 91.9695 60.9219C92.0846 60.9178 92.2022 60.9178 92.3182 60.9219C94.0119 60.9802 95.5444 60.1483 96.326 58.7505C96.3738 58.6646 96.4209 58.5778 96.4655 58.4894C97.2665 58.9824 97.95 59.6773 98.4641 60.5205C98.46 60.5465 98.4568 60.5732 98.4544 60.5992C98.3198 62.2646 97.7457 63.7921 96.8368 64.9021C95.979 65.9497 94.8909 66.527 93.7736 66.527C91.7076 66.527 89.8703 64.5632 89.2679 61.7886ZM87.1095 61.311C87.0236 60.9729 86.9555 60.6267 86.9068 60.2724C86.863 59.9675 86.8355 59.6497 86.8249 59.3019C86.7592 57.2586 87.343 55.3248 88.47 53.8573C89.5565 52.4416 91.0217 51.634 92.5938 51.5838C92.6465 51.5821 93.7776 51.5189 94.9322 52.1002C95.0611 52.1659 95.2103 52.1959 95.3546 52.1919C95.3717 52.1911 95.8217 52.17 95.8346 52.17C97.153 52.1789 98.4155 52.8073 99.3892 53.9383C100.404 55.1173 100.992 56.7048 101.047 58.4075C101.077 59.3327 100.946 60.2327 100.671 61.0605C100.588 60.8392 100.495 60.6219 100.394 60.4078C99.5465 58.6054 98.1203 57.2092 96.3779 56.4762C96.1582 56.3838 95.9084 56.3846 95.6887 56.4802C95.469 56.5751 95.2979 56.7559 95.2152 56.9805C95.0984 57.2959 94.9565 57.604 94.7944 57.8943C94.3346 58.7156 93.4087 59.2046 92.379 59.1689C92.2241 59.1632 92.0676 59.1632 91.9128 59.1681C91.1546 59.1924 90.4144 59.3367 89.709 59.5986C89.0141 59.8621 87.8449 60.5205 87.1095 61.311ZM100.711 70.5105C100.682 70.5081 100.653 70.5065 100.624 70.5065C98.7187 70.5065 97.1433 69.064 96.9333 67.2138C98.0076 66.4313 98.8938 65.2581 99.4768 63.831C99.5611 64.1051 99.7744 64.3256 100.057 64.4124C100.142 64.4392 100.229 64.4521 100.316 64.4521C100.583 64.4521 100.84 64.3305 101.008 64.114C102.233 62.541 102.869 60.4946 102.801 58.3516C102.734 56.2492 101.994 54.2748 100.72 52.7935C99.4136 51.2765 97.6898 50.4324 95.8638 50.4154C95.7673 50.4113 95.5265 50.4194 95.4876 50.4219C94.5495 49.9962 93.5587 49.7975 92.5379 49.83C90.4298 49.8973 88.4903 50.9481 87.0779 52.7886C85.7052 54.5773 84.9917 56.91 85.0703 59.3578C85.0833 59.7721 85.1157 60.154 85.1692 60.5181C85.3127 61.5608 85.5998 62.5597 86.0238 63.4865C86.1584 63.7824 86.4446 63.9786 86.7682 63.9981C87.0917 64.0175 87.4006 63.8562 87.57 63.5797C87.6406 63.4646 87.7314 63.3202 87.8311 63.18C88.2219 64.3678 88.8211 65.4356 89.5792 66.2781C89.9036 66.6381 90.253 66.9502 90.6211 67.217C90.4095 69.0656 88.8349 70.5065 86.9311 70.5065C86.9019 70.5065 86.8719 70.5081 86.8436 70.5105C86.6976 70.5162 86.5598 70.5502 86.4171 70.5681V70.427C86.4171 68.1892 84.943 66.3454 82.8852 65.8086C82.6776 65.7502 82.4644 65.7097 82.2479 65.6797C82.2284 65.6773 82.2106 65.67 82.1911 65.6675V65.674C82.0525 65.6562 81.913 65.6392 81.7727 65.6335C81.7411 65.6302 81.7087 65.6286 81.6763 65.6286C79.7733 65.6286 78.2003 64.1902 77.9854 62.3432C78.5336 61.9443 79.0395 61.4383 79.4879 60.831C80.3936 59.6043 80.9822 58.071 81.2003 56.4138C81.2668 56.3408 81.3236 56.2565 81.3633 56.16C81.7476 55.2462 81.9414 54.2708 81.9414 53.2613C81.9414 49.3767 79.0046 46.2162 75.3949 46.2162C74.4617 46.2162 73.556 46.4278 72.699 46.8462C72.3787 46.8738 72.0657 46.9305 71.7649 47.0181C68.7463 47.8905 67.0403 51.5392 67.9614 55.1529C68.0538 55.5162 68.1722 55.8738 68.3125 56.2151C68.3506 56.3083 68.4041 56.3902 68.4673 56.4624C68.8144 59.014 70.0225 61.1375 71.6741 62.3383C71.4625 64.1878 69.8887 65.6286 67.9833 65.6286C67.9541 65.6286 67.9249 65.6294 67.8965 65.6327C65.3149 65.7243 63.2433 67.851 63.2433 70.4538V75.6478C63.2433 76.1327 63.6365 76.5259 64.1214 76.5259H82.1911V80.5265C82.1911 81.0113 82.5836 81.4037 83.0684 81.4037H104.486C104.971 81.4037 105.364 81.0113 105.364 80.5265V75.3324C105.364 72.7289 103.292 70.6021 100.711 70.5105Z" fill="#444444"/>
<path d="M45.4824 4.85553H47.6818V145.927H45.4824V4.85553Z" fill="#444444"/>
<path fill-rule="evenodd" clip-rule="evenodd" d="M41.8598 3.24323H122.431C128.253 3.24323 132.973 7.96269 132.973 13.7845V136.998C132.973 142.82 128.253 147.54 122.431 147.54H41.8598C36.0376 147.54 31.3177 142.82 31.3177 136.998V13.7844C31.3177 7.96268 36.0376 3.24323 41.8598 3.24323ZM41.8598 5.67582C37.3812 5.67582 33.7505 9.30616 33.7505 13.7844V136.998C33.7505 141.477 37.3812 145.107 41.8598 145.107H122.431C126.91 145.107 130.54 141.477 130.54 136.998V13.7845C130.54 9.30617 126.91 5.67582 122.431 5.67582H41.8598Z" fill="#444444"/>
<path d="M32.3576 146.337C32.3576 145.658 32.9084 145.107 33.5879 145.107H131.455C132.134 145.107 132.685 145.658 132.685 146.337C132.685 147.017 132.134 147.568 131.455 147.568H33.5879C32.9084 147.568 32.3576 147.017 32.3576 146.337Z" fill="#444444"/>
<path d="M17.0291 146.337C17.0291 145.658 17.58 145.107 18.2595 145.107H26.9463C27.6258 145.107 28.1766 145.658 28.1766 146.337C28.1766 147.017 27.6258 147.568 26.9463 147.568H18.2595C17.58 147.568 17.0291 147.017 17.0291 146.337Z" fill="#444444"/>
<path d="M3.24329 90.8072C3.24329 87.2246 6.14782 84.3203 9.73074 84.3203H50.2773C53.8602 84.3203 56.7647 87.2246 56.7647 90.8072V123.242C56.7647 126.824 53.8602 129.729 50.2773 129.729H9.73074C6.14782 129.729 3.24329 126.824 3.24329 123.242V90.8072Z" fill="#FAFAFA"/>
<path fill-rule="evenodd" clip-rule="evenodd" d="M32.4363 104.592C33.4212 103.853 34.0582 102.675 34.0582 101.348C34.0582 99.1092 32.2429 97.2941 30.0036 97.2941C27.7642 97.2941 25.9489 99.1092 25.9489 101.348C25.9489 102.675 26.5859 103.852 27.5707 104.592V112.7C27.5707 114.044 28.6599 115.133 30.0035 115.133C31.3471 115.133 32.4363 114.044 32.4363 112.7V104.592Z" fill="#EEEEEE"/>
<path fill-rule="evenodd" clip-rule="evenodd" d="M24.7325 101.348C24.7325 98.4375 27.0925 96.0778 30.0036 96.0778C32.9147 96.0778 35.2746 98.4375 35.2746 101.348C35.2746 102.844 34.6509 104.194 33.6527 105.152V112.7C33.6527 114.716 32.0189 116.349 30.0035 116.349C27.9881 116.349 26.3543 114.716 26.3543 112.7V105.152C25.3562 104.194 24.7325 102.844 24.7325 101.348ZM30.0036 98.5104C28.4361 98.5104 27.1653 99.781 27.1653 101.348C27.1653 102.276 27.6092 103.1 28.3013 103.62L28.7871 103.984V112.7C28.7871 113.372 29.3317 113.917 30.0035 113.917C30.6753 113.917 31.2199 113.372 31.2199 112.7V103.985L31.7058 103.62C32.398 103.1 32.8419 102.276 32.8419 101.348C32.8419 99.781 31.5711 98.5104 30.0036 98.5104Z" fill="#444444"/>
<path d="M8.10846 77.8334C8.10846 65.742 17.9112 55.9401 30.0036 55.9401C42.096 55.9401 51.8987 65.742 51.8987 77.8334C51.8987 79.9956 51.8868 82.1581 51.8986 84.3203H42.1677V77.8334C42.1677 71.116 36.7217 65.6704 30.0037 65.6704C23.2857 65.6704 17.8398 71.116 17.8398 77.8334V84.3203H8.10846V77.8334Z" fill="#EEEEEE"/>
<path fill-rule="evenodd" clip-rule="evenodd" d="M50.2773 86.7529H9.73074C7.49141 86.7529 5.67608 88.5681 5.67608 90.8072V123.242C5.67608 125.481 7.49141 127.296 9.73074 127.296H50.2773C52.5166 127.296 54.332 125.481 54.332 123.242V90.8072C54.332 88.5681 52.5166 86.7529 50.2773 86.7529ZM9.73074 84.3203C6.14782 84.3203 3.24329 87.2246 3.24329 90.8072V123.242C3.24329 126.824 6.14782 129.729 9.73074 129.729H50.2773C53.8602 129.729 56.7647 126.824 56.7647 123.242V90.8072C56.7647 87.2246 53.8602 84.3203 50.2773 84.3203H9.73074Z" fill="#444444"/>
<path d="M10.542 77.8334C10.542 67.0855 19.2556 58.3727 30.0043 58.3727C40.7531 58.3727 49.4667 67.0855 49.4667 77.8334V85.1312H51.8995V77.8334C51.8995 65.742 42.0967 55.9401 30.0043 55.9401C17.912 55.9401 8.10917 65.742 8.10917 77.8334V85.1312H10.542V77.8334Z" fill="#444444"/>
<path d="M15.4077 85.1312H17.8405V77.8334C17.8405 71.116 23.2865 65.6704 30.0044 65.6704C36.7224 65.6704 42.1684 71.116 42.1684 77.8334V85.1312H44.6012V77.8334C44.6012 69.7725 38.066 63.2378 30.0044 63.2378C21.9429 63.2378 15.4077 69.7725 15.4077 77.8334V85.1312Z" fill="#444444"/>
</svg>
