<svg width="150" height="150" viewBox="0 0 150 150" fill="none" xmlns="http://www.w3.org/2000/svg">
<path d="M18.931 20.8641C18.931 16.4359 22.5278 12.8461 26.9648 12.8461H96.9676C101.405 12.8461 105.001 16.4359 105.001 20.8641V135.214C105.001 139.642 101.405 143.232 96.9677 143.232H26.9648C22.5278 143.232 18.931 139.642 18.931 135.214V20.8641Z" fill="#FAFAFA"/>
<path fill-rule="evenodd" clip-rule="evenodd" d="M26.9647 10.4408H96.9676C102.74 10.4408 107.415 15.1103 107.415 20.8641V135.214C107.415 140.968 102.74 145.637 96.9676 145.637H26.9647C21.1922 145.637 16.5178 140.968 16.5178 135.214V20.8641C16.5178 15.1103 21.1922 10.4408 26.9647 10.4408ZM26.9647 12.8461C22.5278 12.8461 18.931 16.4359 18.931 20.8641V135.214C18.931 139.642 22.5278 143.232 26.9647 143.232H96.9676C101.405 143.232 105.001 139.642 105.001 135.214V20.8641C105.001 16.4359 101.405 12.8461 96.9676 12.8461H26.9647Z" fill="#444444"/>
<path d="M18.931 23.2002C18.931 17.6774 23.4081 13.2002 28.931 13.2002H95.1105C100.633 13.2002 105.11 17.6774 105.11 23.2002V30.0737H18.931V23.2002Z" fill="#EEEEEE"/>
<rect x="17.3922" y="28.5397" width="89.2574" height="2.30092" fill="#444444"/>
<path fill-rule="evenodd" clip-rule="evenodd" d="M28.1645 23.1012C28.9758 23.1012 29.6336 22.4456 29.6336 21.6369C29.6336 20.8282 28.9758 20.1726 28.1645 20.1726C27.3532 20.1726 26.6955 20.8282 26.6955 21.6369C26.6955 22.4456 27.3532 23.1012 28.1645 23.1012ZM38.9372 23.1012C39.7486 23.1012 40.4063 22.4456 40.4063 21.6369C40.4063 20.8282 39.7486 20.1726 38.9372 20.1726C38.1259 20.1726 37.4682 20.8282 37.4682 21.6369C37.4682 22.4456 38.1259 23.1012 38.9372 23.1012ZM31.2424 21.6369C31.2424 23.3313 29.8644 24.7048 28.1645 24.7048C26.4647 24.7048 25.0867 23.3313 25.0867 21.6369C25.0867 19.9426 26.4647 18.569 28.1645 18.569C29.8644 18.569 31.2424 19.9426 31.2424 21.6369ZM42.0151 21.6369C42.0151 23.3313 40.6371 24.7048 38.9372 24.7048C37.2374 24.7048 35.8594 23.3313 35.8594 21.6369C35.8594 19.9426 37.2374 18.569 38.9372 18.569C40.6371 18.569 42.0151 19.9426 42.0151 21.6369Z" fill="#444444"/>
<path fill-rule="evenodd" clip-rule="evenodd" d="M26.9115 53.4859C26.9115 53.4859 31.8228 56.7949 40.1696 56.7949C48.5165 56.7949 57.4479 59.2022 57.4479 59.2022V68.6711H26.9115V53.4859Z" fill="#DDDDDD"/>
<path fill-rule="evenodd" clip-rule="evenodd" d="M66.6376 91.4316C66.6376 91.4316 71.5489 94.7407 79.8957 94.7407C88.2426 94.7407 97.174 97.1479 97.174 97.1479V106.617H66.6376V91.4316Z" fill="#DDDDDD"/>
<path fill-rule="evenodd" clip-rule="evenodd" d="M26.9115 91.0676C26.9115 91.0676 27.7185 86.1587 35.0952 86.1587C42.1797 86.1587 42.8523 93.1068 47.3916 96.1118C49.883 97.7611 57.4479 96.784 57.4479 96.784V106.253H26.9115V91.0676Z" fill="#DDDDDD"/>
<path d="M27.78 117.509C27.1426 117.509 26.6258 118.024 26.6258 118.659C26.6258 119.295 27.1426 119.81 27.78 119.81H56.2501C56.8875 119.81 57.4042 119.295 57.4042 118.659C57.4042 118.024 56.8875 117.509 56.2501 117.509H27.78Z" fill="#DDDDDD"/>
<path d="M27.78 122.877C27.1425 122.877 26.6258 123.393 26.6258 124.028C26.6258 124.663 27.1425 125.178 27.78 125.178H56.25C56.8874 125.178 57.4042 124.663 57.4042 124.028C57.4042 123.393 56.8874 122.877 56.25 122.877H27.78Z" fill="#DDDDDD"/>
<path d="M26.6258 129.397C26.6258 128.761 27.1425 128.246 27.78 128.246H56.25C56.8874 128.246 57.4042 128.761 57.4042 129.397C57.4042 130.032 56.8874 130.547 56.25 130.547H27.78C27.1425 130.547 26.6258 130.032 26.6258 129.397Z" fill="#DDDDDD"/>
<path d="M27.78 133.615C27.1425 133.615 26.6258 134.13 26.6258 134.766C26.6258 135.401 27.1425 135.916 27.78 135.916H40.8608C41.4982 135.916 42.015 135.401 42.015 134.766C42.015 134.13 41.4982 133.615 40.8608 133.615H27.78Z" fill="#DDDDDD"/>
<path d="M66.6376 118.659C66.6376 118.024 67.1543 117.509 67.7918 117.509H96.2618C96.8992 117.509 97.416 118.024 97.416 118.659C97.416 119.295 96.8992 119.81 96.2618 119.81H67.7918C67.1543 119.81 66.6376 119.295 66.6376 118.659Z" fill="#DDDDDD"/>
<path d="M67.7918 122.877C67.1543 122.877 66.6376 123.393 66.6376 124.028C66.6376 124.663 67.1543 125.178 67.7918 125.178H96.2618C96.8992 125.178 97.416 124.663 97.416 124.028C97.416 123.393 96.8992 122.877 96.2618 122.877H67.7918Z" fill="#DDDDDD"/>
<path d="M66.6376 129.397C66.6376 128.761 67.1543 128.246 67.7918 128.246H96.2618C96.8992 128.246 97.416 128.761 97.416 129.397C97.416 130.032 96.8992 130.547 96.2618 130.547H67.7918C67.1543 130.547 66.6376 130.032 66.6376 129.397Z" fill="#DDDDDD"/>
<path d="M67.7918 133.615C67.1543 133.615 66.6376 134.13 66.6376 134.766C66.6376 135.401 67.1543 135.916 67.7918 135.916H85.4893C86.1268 135.916 86.6435 135.401 86.6435 134.766C86.6435 134.13 86.1268 133.615 85.4893 133.615H67.7918Z" fill="#DDDDDD"/>
<path d="M131.92 42.1622C130.803 38.3346 129.21 34.5782 127.121 30.9716C113.11 6.78196 82.0784 -1.506 57.8104 12.4599C33.5424 26.4257 25.2275 57.3569 39.2387 81.5465C51.9494 103.491 78.6643 112.347 101.635 103.377L105 109.187V42.1622H131.92Z" fill="#DDDDDD"/>
<path fill-rule="evenodd" clip-rule="evenodd" d="M55.7253 41.6828H28.3043C27.86 41.6828 27.4999 42.0417 27.4999 42.4846V66.7492C27.4999 67.192 27.86 67.551 28.3043 67.551H55.7253C56.1696 67.551 56.5297 67.192 56.5297 66.7492V42.4846C56.5297 42.0417 56.1696 41.6828 55.7253 41.6828ZM55.7253 80.0315H28.3043C27.86 80.0315 27.4999 80.3905 27.4999 80.8333V105.098C27.4999 105.541 27.86 105.9 28.3043 105.9H55.7253C56.1696 105.9 56.5297 105.541 56.5297 105.098V80.8333C56.5297 80.3905 56.1696 80.0315 55.7253 80.0315ZM95.7375 80.0315H68.3164C67.8721 80.0315 67.512 80.3905 67.512 80.8333V105.098C67.512 105.541 67.8722 105.9 68.3164 105.9H95.7375C96.1817 105.9 96.5419 105.541 96.5419 105.098V80.8333C96.5419 80.3905 96.1817 80.0315 95.7375 80.0315ZM25.0867 42.4846C25.0867 40.7133 26.5272 39.2774 28.3043 39.2774H55.7253C57.5023 39.2774 58.9429 40.7133 58.9429 42.4846V66.7492C58.9429 68.5204 57.5023 69.9563 55.7253 69.9563H28.3043C26.5272 69.9563 25.0867 68.5204 25.0867 66.7492V42.4846ZM25.0867 80.8333C25.0867 79.062 26.5272 77.6261 28.3043 77.6261H55.7253C57.5023 77.6261 58.9429 79.062 58.9429 80.8333V105.098C58.9429 106.869 57.5023 108.305 55.7253 108.305H28.3043C26.5272 108.305 25.0867 106.869 25.0867 105.098V80.8333ZM68.3164 77.6261C66.5394 77.6261 65.0988 79.062 65.0988 80.8333V105.098C65.0988 106.869 66.5394 108.305 68.3164 108.305H95.7375C97.5145 108.305 98.9551 106.869 98.9551 105.098V80.8333C98.9551 79.062 97.5145 77.6261 95.7375 77.6261H68.3164Z" fill="#444444"/>
<path fill-rule="evenodd" clip-rule="evenodd" d="M114.286 90.7807L135.614 127.603C136.839 129.718 136.112 132.421 133.991 133.642C131.869 134.863 129.157 134.139 127.932 132.024L106.603 95.2017C84.5571 105.315 58.0064 97.1944 45.6315 75.8298C32.5089 53.1741 40.2965 24.2045 63.0255 11.1243C85.7545 -1.95597 114.818 5.80642 127.941 28.462C140.316 49.8266 134.095 76.8062 114.286 90.7807Z" fill="#EEEEEE"/>
<path fill-rule="evenodd" clip-rule="evenodd" d="M118.496 91.6357L138.4 125.999C140.514 129.648 139.26 134.313 135.599 136.42C131.939 138.526 127.259 137.276 125.145 133.628L105.241 99.2638C82.2706 108.234 55.5557 99.3779 42.845 77.4333C28.8339 53.2437 37.1487 22.3126 61.4167 8.34673C85.6847 -5.61915 116.716 2.66882 130.727 26.8584C143.438 48.803 137.775 76.2921 118.496 91.6357ZM114.286 90.7807L135.614 127.603C136.839 129.718 136.112 132.421 133.99 133.642C131.869 134.863 129.157 134.139 127.932 132.024L106.603 95.2017C84.5571 105.315 58.0063 97.1944 45.6315 75.8298C32.5089 53.1741 40.2964 24.2045 63.0255 11.1242C85.7545 -1.95599 114.818 5.8064 127.941 28.462C140.315 49.8266 134.095 76.8061 114.286 90.7807Z" fill="#444444"/>
<path fill-rule="evenodd" clip-rule="evenodd" d="M86.7973 91.8151C108.895 91.8151 126.809 73.959 126.809 51.9324C126.809 29.9058 108.895 12.0497 86.7973 12.0497C64.6993 12.0497 46.7853 29.9058 46.7853 51.9324C46.7853 73.959 64.6993 91.8151 86.7973 91.8151Z" fill="#FAFAFA"/>
<path fill-rule="evenodd" clip-rule="evenodd" d="M86.7973 89.4097C107.562 89.4097 124.396 72.6305 124.396 51.9324C124.396 31.2343 107.562 14.4551 86.7973 14.4551C66.0321 14.4551 49.1985 31.2343 49.1985 51.9324C49.1985 72.6305 66.0321 89.4097 86.7973 89.4097ZM126.809 51.9324C126.809 73.959 108.895 91.8151 86.7973 91.8151C64.6993 91.8151 46.7853 73.959 46.7853 51.9324C46.7853 29.9058 64.6993 12.0497 86.7973 12.0497C108.895 12.0497 126.809 29.9058 126.809 51.9324Z" fill="#444444"/>
<path d="M9.69733 144.736C9.69733 144.101 10.2141 143.586 10.8515 143.586H111.651C112.288 143.586 112.805 144.101 112.805 144.736C112.805 145.372 112.288 145.887 111.651 145.887H10.8515C10.2141 145.887 9.69733 145.372 9.69733 144.736Z" fill="#444444"/>
<path d="M118.961 144.736C118.961 144.101 119.477 143.586 120.115 143.586H136.273C136.911 143.586 137.428 144.101 137.428 144.736C137.428 145.372 136.911 145.887 136.273 145.887H120.115C119.477 145.887 118.961 145.372 118.961 144.736Z" fill="#444444"/>
<path fill-rule="evenodd" clip-rule="evenodd" d="M95.6767 40.8162L87.756 48.7113L79.8354 40.8162C78.8871 39.871 77.3496 39.871 76.4013 40.8162C75.453 41.7615 75.453 43.294 76.4013 44.2392L84.3219 52.1343L76.4013 60.0293C75.453 60.9746 75.453 62.5071 76.4013 63.4523C77.3496 64.3976 78.8871 64.3976 79.8354 63.4523L87.756 55.5573L95.6767 63.4523C96.625 64.3976 98.1625 64.3976 99.1107 63.4523C100.059 62.5071 100.059 60.9746 99.1107 60.0293L91.1901 52.1343L99.1107 44.2392C100.059 43.294 100.059 41.7615 99.1107 40.8162C98.1625 39.871 96.625 39.871 95.6767 40.8162Z" fill="#A4A4A4"/>
</svg>
