<svg width="150" height="150" viewBox="0 0 150 150" fill="none" xmlns="http://www.w3.org/2000/svg">
<path d="M104.507 4.47327H26.5517C22.0197 4.47327 18.3459 8.14464 18.3459 12.6735V138.137C18.3459 142.666 22.0197 146.338 26.5517 146.338H104.507C109.039 146.338 112.713 142.666 112.713 138.137V12.6735C112.713 8.14464 109.039 4.47327 104.507 4.47327Z" fill="#FAFAFA"/>
<path d="M111.487 64.0203C111.422 63.9644 111.356 63.9111 111.288 63.8605C109.764 62.7299 107.71 63.1962 106.701 64.9022L83.2536 104.517C82.8944 105.124 82.7028 105.836 82.7028 106.564C82.7028 108.611 84.1844 110.27 86.0122 110.27H111.487V64.0203Z" fill="#DDDDDD"/>
<path d="M25.5752 5.70337H105.483C106.271 5.70337 107.051 5.85842 107.779 6.15966C108.506 6.46091 109.168 6.90245 109.725 7.45908C110.282 8.01571 110.724 8.67653 111.025 9.4038C111.326 10.1311 111.482 10.9106 111.482 11.6977V23.7439H19.5767V11.6977C19.5767 10.1079 20.2087 8.58325 21.3336 7.45908C22.4585 6.33492 23.9843 5.70337 25.5752 5.70337Z" fill="#EEEEEE"/>
<path d="M104.507 147.568H26.5517C21.3418 147.563 17.1199 143.344 17.115 138.137V12.6736C17.1199 7.46723 21.3418 3.24821 26.5517 3.24329H104.507C109.717 3.24821 113.938 7.46723 113.943 12.6736V138.137C113.938 143.344 109.717 147.563 104.507 147.568ZM26.5517 5.70336C24.7031 5.70769 22.9315 6.44344 21.6244 7.74967C20.3173 9.0559 19.5811 10.8263 19.5767 12.6736V138.137C19.5811 139.985 20.3173 141.755 21.6244 143.061C22.9315 144.367 24.7031 145.103 26.5517 145.108H104.507C106.355 145.103 108.127 144.367 109.434 143.061C110.741 141.755 111.477 139.985 111.482 138.137V12.6736C111.477 10.8263 110.741 9.0559 109.434 7.74967C108.127 6.44344 106.355 5.70769 104.507 5.70336H26.5517Z" fill="#444444"/>
<path d="M29.0134 128.707H59.3748C59.7013 128.707 60.0144 128.837 60.2452 129.067C60.476 129.298 60.6057 129.611 60.6057 129.937C60.6057 130.263 60.476 130.576 60.2452 130.807C60.0144 131.038 59.7013 131.167 59.3748 131.167H29.0134C28.687 131.167 28.3739 131.038 28.143 130.807C27.9122 130.576 27.7825 130.263 27.7825 129.937C27.7825 129.611 27.9122 129.298 28.143 129.067C28.3739 128.837 28.687 128.707 29.0134 128.707ZM29.0134 134.447H42.9633C43.2897 134.447 43.6028 134.577 43.8336 134.807C44.0644 135.038 44.1941 135.351 44.1941 135.677C44.1941 136.003 44.0644 136.316 43.8336 136.547C43.6028 136.778 43.2897 136.907 42.9633 136.907H29.0134C28.687 136.907 28.3739 136.778 28.143 136.547C27.9122 136.316 27.7825 136.003 27.7825 135.677C27.7825 135.351 27.9122 135.038 28.143 134.807C28.3739 134.577 28.687 134.447 29.0134 134.447ZM71.6835 128.707H102.045C102.371 128.707 102.685 128.837 102.915 129.067C103.146 129.298 103.276 129.611 103.276 129.937C103.276 130.263 103.146 130.576 102.915 130.807C102.685 131.038 102.371 131.167 102.045 131.167H71.6835C71.3571 131.167 71.044 131.038 70.8132 130.807C70.5824 130.576 70.4527 130.263 70.4527 129.937C70.4527 129.611 70.5824 129.298 70.8132 129.067C71.044 128.837 71.3571 128.707 71.6835 128.707ZM71.6835 134.447H90.5569C90.8833 134.447 91.1964 134.577 91.4272 134.807C91.6581 135.038 91.7877 135.351 91.7877 135.677C91.7877 136.003 91.6581 136.316 91.4272 136.547C91.1964 136.778 90.8833 136.907 90.5569 136.907H71.6835C71.3571 136.907 71.044 136.778 70.8132 136.547C70.5824 136.316 70.4527 136.003 70.4527 135.677C70.4527 135.351 70.5824 135.038 70.8132 134.807C71.044 134.577 71.3571 134.447 71.6835 134.447Z" fill="#DDDDDD"/>
<path fill-rule="evenodd" clip-rule="evenodd" d="M36.2344 62.4699C35.862 62.2121 35.6757 61.854 35.6757 61.3956C35.6757 61.1951 35.7259 60.9945 35.8261 60.794C35.9264 60.5935 36.0625 60.4359 36.2344 60.3213L53.0798 51.4689C53.2517 51.3829 53.4093 51.3399 53.5525 51.3399C53.8103 51.3399 54.0252 51.4259 54.1971 51.5978C54.369 51.7697 54.4836 51.9702 54.5409 52.1994C54.5695 52.2854 54.5838 52.4143 54.5838 52.5862C54.5838 53.1305 54.326 53.5459 53.8103 53.8324L39.4574 61.3097V61.4386L53.8103 68.9159C54.326 69.2024 54.5838 69.6178 54.5838 70.1621C54.5838 70.334 54.5695 70.4629 54.5409 70.5489C54.4836 70.7781 54.369 70.9786 54.1971 71.1505C54.0252 71.3224 53.8103 71.4083 53.5525 71.4083C53.4093 71.4083 53.2517 71.3653 53.0798 71.2794L36.2344 62.4699ZM59.532 80.8194C59.2168 80.7621 58.9661 80.6117 58.7799 80.3682C58.5937 80.1247 58.5293 79.8597 58.5866 79.5732L70.1893 43.0032C70.3038 42.6881 70.4972 42.4589 70.7694 42.3156C71.0415 42.1724 71.3209 42.1294 71.6074 42.1867C71.9225 42.244 72.1803 42.4016 72.3809 42.6594C72.5814 42.9172 72.653 43.1894 72.5957 43.4759L60.9071 80.0459C60.7925 80.3324 60.6063 80.5472 60.3484 80.6905C60.0906 80.8337 59.8184 80.8767 59.532 80.8194ZM78.3603 71.2794C78.1884 71.3653 78.0309 71.4083 77.8876 71.4083C77.6298 71.4083 77.4149 71.3224 77.243 71.1505C77.0711 70.9786 76.9566 70.7781 76.8992 70.5489C76.8706 70.4629 76.8563 70.334 76.8563 70.1621C76.8563 69.6178 77.1141 69.2024 77.6298 68.9159L91.9828 61.4386V61.3097L77.6298 53.8324C77.1141 53.5459 76.8563 53.1305 76.8563 52.5862C76.8563 52.4143 76.8706 52.2854 76.8992 52.1994C76.9566 51.9702 77.0711 51.7697 77.243 51.5978C77.4149 51.4259 77.6298 51.3399 77.8876 51.3399C78.0309 51.3399 78.1884 51.3829 78.3603 51.4689L95.2057 60.3213C95.3776 60.4359 95.5137 60.5935 95.614 60.794C95.7142 60.9945 95.7644 61.1951 95.7644 61.3956C95.7644 61.854 95.5782 62.2121 95.2057 62.4699L78.3603 71.2794Z" fill="#444444"/>
<path d="M17.9356 22.1038H113.123V24.5639H17.9356V22.1038ZM29.4237 18.0037C28.5532 18.0037 27.7183 17.6581 27.1028 17.043C26.4872 16.4278 26.1414 15.5935 26.1414 14.7236C26.1414 13.8536 26.4872 13.0193 27.1028 12.4042C27.7183 11.7891 28.5532 11.4435 29.4237 11.4435C30.2942 11.4435 31.1291 11.7891 31.7447 12.4042C32.3602 13.0193 32.706 13.8536 32.706 14.7236C32.706 15.5935 32.3602 16.4278 31.7447 17.043C31.1291 17.6581 30.2942 18.0037 29.4237 18.0037ZM29.4237 13.0835C28.9884 13.0835 28.571 13.2563 28.2632 13.5639C27.9555 13.8715 27.7825 14.2886 27.7825 14.7236C27.7825 15.1585 27.9555 15.5757 28.2632 15.8833C28.571 16.1908 28.9884 16.3636 29.4237 16.3636C29.859 16.3636 30.2764 16.1908 30.5842 15.8833C30.892 15.5757 31.0649 15.1585 31.0649 14.7236C31.0649 14.2886 30.892 13.8715 30.5842 13.5639C30.2764 13.2563 29.859 13.0835 29.4237 13.0835ZM40.9118 18.0037C40.0413 18.0037 39.2064 17.6581 38.5909 17.043C37.9753 16.4278 37.6295 15.5935 37.6295 14.7236C37.6295 13.8536 37.9753 13.0193 38.5909 12.4042C39.2064 11.7891 40.0413 11.4435 40.9118 11.4435C41.7823 11.4435 42.6172 11.7891 43.2328 12.4042C43.8483 13.0193 44.1941 13.8536 44.1941 14.7236C44.1941 15.5935 43.8483 16.4278 43.2328 17.043C42.6172 17.6581 41.7823 18.0037 40.9118 18.0037ZM40.9118 13.0835C40.4766 13.0835 40.0591 13.2563 39.7513 13.5639C39.4436 13.8715 39.2707 14.2886 39.2707 14.7236C39.2707 15.1585 39.4436 15.5757 39.7513 15.8833C40.0591 16.1908 40.4766 16.3636 40.9118 16.3636C41.3471 16.3636 41.7645 16.1908 42.0723 15.8833C42.3801 15.5757 42.553 15.1585 42.553 14.7236C42.553 14.2886 42.3801 13.8715 42.0723 13.5639C41.7645 13.2563 41.3471 13.0835 40.9118 13.0835ZM100.404 90.1658H30.6546C29.4583 90.1637 28.3116 89.6878 27.4657 88.8425C26.6197 87.9971 26.1436 86.8512 26.1414 85.6557V37.2743C26.1436 36.0788 26.6197 34.9328 27.4657 34.0875C28.3116 33.2422 29.4583 32.7663 30.6546 32.7641H100.404C101.6 32.7663 102.747 33.2422 103.593 34.0875C104.439 34.9328 104.915 36.0788 104.917 37.2743V85.6557C104.915 86.8512 104.439 87.9971 103.593 88.8425C102.747 89.6878 101.6 90.1637 100.404 90.1658ZM30.6546 35.2242C30.1105 35.2242 29.5887 35.4402 29.204 35.8246C28.8193 36.2091 28.6031 36.7305 28.6031 37.2743V85.6557C28.6031 86.1994 28.8193 86.7209 29.204 87.1053C29.5887 87.4898 30.1105 87.7058 30.6546 87.7058H100.404C100.948 87.7058 101.47 87.4898 101.854 87.1053C102.239 86.7209 102.455 86.1994 102.455 85.6557V37.2743C102.455 36.7305 102.239 36.2091 101.854 35.8246C101.47 35.4402 100.948 35.2242 100.404 35.2242H30.6546Z" fill="#444444"/>
<path d="M10.9607 145.107H118.457C118.783 145.107 119.096 145.237 119.327 145.468C119.558 145.698 119.687 146.011 119.687 146.338C119.687 146.664 119.558 146.977 119.327 147.207C119.096 147.438 118.783 147.568 118.457 147.568H10.9607C10.6342 147.568 10.3211 147.438 10.0903 147.207C9.85948 146.977 9.7298 146.664 9.7298 146.338C9.7298 146.011 9.85948 145.698 10.0903 145.468C10.3211 145.237 10.6342 145.107 10.9607 145.107ZM127.483 145.107H144.715C145.042 145.107 145.355 145.237 145.585 145.468C145.816 145.698 145.946 146.011 145.946 146.338C145.946 146.664 145.816 146.977 145.585 147.207C145.355 147.438 145.042 147.568 144.715 147.568H127.483C127.157 147.568 126.843 147.438 126.613 147.207C126.382 146.977 126.252 146.664 126.252 146.338C126.252 146.011 126.382 145.698 126.613 145.468C126.843 145.237 127.157 145.107 127.483 145.107ZM37.1618 118.129C37.17 118.282 37.17 118.435 37.1618 118.588C37.1474 118.7 37.1112 118.809 37.0551 118.908C37.0193 118.985 36.9624 119.05 36.891 119.096C36.8301 119.136 36.7585 119.156 36.6858 119.154H27.6595C27.4308 119.148 27.2098 119.07 27.0276 118.932C26.9154 118.83 26.8299 118.702 26.7784 118.559C26.727 118.416 26.7111 118.263 26.7322 118.112V101.515C26.7111 101.365 26.727 101.211 26.7784 101.068C26.8299 100.926 26.9154 100.797 27.0276 100.695C27.2081 100.553 27.4297 100.475 27.6595 100.474H36.5545C36.6297 100.472 36.7037 100.492 36.7679 100.531C36.8327 100.58 36.8828 100.646 36.9156 100.72C36.9648 100.82 36.9985 100.928 37.0141 101.039C37.0305 101.2 37.0305 101.362 37.0141 101.523C37.0305 101.673 37.0305 101.824 37.0141 101.974C36.9964 102.085 36.9632 102.193 36.9156 102.294C36.8936 102.359 36.8571 102.418 36.8089 102.466C36.7447 102.505 36.6707 102.525 36.5956 102.524H29.2596V108.379H35.5206C35.5575 108.375 35.5947 108.379 35.63 108.39C35.6653 108.401 35.6979 108.42 35.7258 108.444C35.7945 108.49 35.8509 108.552 35.8899 108.625C35.9404 108.721 35.9711 108.827 35.9801 108.936C35.9883 109.094 35.9883 109.254 35.9801 109.412C35.9884 109.562 35.9884 109.713 35.9801 109.863C35.9665 109.968 35.936 110.071 35.8899 110.166C35.8481 110.232 35.792 110.288 35.7258 110.33C35.6623 110.363 35.592 110.38 35.5206 110.379H29.2596V117.054H36.6448C36.7175 117.052 36.7891 117.072 36.85 117.112C36.9187 117.158 36.9751 117.22 37.0141 117.292C37.0699 117.391 37.1068 117.5 37.1207 117.612C37.147 117.783 37.1618 117.956 37.1618 118.129ZM53.6472 118.785C53.6635 118.849 53.6635 118.917 53.6472 118.982C53.602 119.05 53.5358 119.102 53.4585 119.129C53.3273 119.169 53.1927 119.196 53.0564 119.211C52.8266 119.228 52.5969 119.228 52.3671 119.211C52.162 119.228 51.9568 119.228 51.7517 119.211C51.6192 119.202 51.489 119.171 51.366 119.121C51.2787 119.08 51.2027 119.018 51.1445 118.941C51.0866 118.851 51.0397 118.754 51.005 118.654L49.2489 114.291C49.052 113.791 48.8386 113.332 48.6253 112.913C48.4195 112.519 48.1599 112.154 47.8539 111.831C47.5527 111.526 47.1925 111.286 46.7954 111.126C46.3334 110.944 45.8393 110.857 45.343 110.871H43.7018V118.818C43.7012 118.888 43.6782 118.957 43.6361 119.014C43.5828 119.08 43.5115 119.128 43.431 119.154C43.3082 119.194 43.1818 119.221 43.0535 119.236C42.8542 119.252 42.6539 119.252 42.4545 119.236C42.2552 119.252 42.0548 119.252 41.8555 119.236C41.7279 119.217 41.6018 119.19 41.478 119.154C41.4028 119.135 41.336 119.092 41.2884 119.031C41.2407 118.97 41.215 118.895 41.2154 118.818V101.515C41.1943 101.365 41.2102 101.211 41.2617 101.068C41.3131 100.926 41.3987 100.797 41.5108 100.695C41.6914 100.553 41.9129 100.475 42.1427 100.474H47.2795C47.5549 100.478 47.8293 100.505 48.1001 100.556C48.7622 100.661 49.4059 100.86 50.0121 101.146C50.5405 101.392 51.0147 101.74 51.407 102.171C51.7705 102.586 52.0492 103.068 52.2276 103.59C52.4146 104.159 52.5088 104.754 52.5066 105.353C52.5124 105.91 52.4265 106.464 52.2522 106.993C52.0961 107.473 51.848 107.919 51.5219 108.305C51.1955 108.69 50.8107 109.022 50.3813 109.289C49.9173 109.584 49.4184 109.821 48.8961 109.994C49.1937 110.125 49.4702 110.299 49.7166 110.511C49.98 110.728 50.2172 110.976 50.4223 111.249C50.6546 111.564 50.8572 111.898 51.0296 112.249C51.2265 112.618 51.4152 113.069 51.6122 113.512L53.2533 117.612C53.3502 117.851 53.4355 118.094 53.5077 118.342C53.5816 118.479 53.63 118.629 53.6472 118.785ZM49.9382 105.664C49.9625 105.011 49.791 104.366 49.4459 103.811C49.0542 103.256 48.4688 102.867 47.8047 102.72C47.5368 102.646 47.2617 102.599 46.9841 102.581C46.5862 102.54 46.186 102.524 45.7861 102.532H43.6854V108.821H46.1061C46.6784 108.829 47.2484 108.749 47.7965 108.584C48.2331 108.443 48.6375 108.217 48.9863 107.919C49.3006 107.639 49.5427 107.288 49.692 106.894C49.8449 106.507 49.9282 106.097 49.9382 105.681V105.664ZM69.6896 118.785C69.7059 118.849 69.7059 118.917 69.6896 118.982C69.6444 119.05 69.5781 119.102 69.5008 119.129C69.3697 119.169 69.235 119.196 69.0987 119.211C68.8665 119.228 68.6334 119.228 68.4012 119.211C68.1992 119.228 67.9961 119.228 67.794 119.211C67.6615 119.202 67.5313 119.171 67.4083 119.121C67.3192 119.082 67.2425 119.02 67.1868 118.941C67.1289 118.851 67.0821 118.754 67.0473 118.654L65.2912 114.291C65.0861 113.791 64.881 113.332 64.6594 112.913C64.4614 112.514 64.201 112.148 63.8881 111.831C63.5914 111.525 63.2335 111.284 62.8377 111.126C62.3729 110.944 61.8761 110.857 61.3771 110.871H59.7359V118.818C59.7394 118.889 59.7159 118.959 59.6703 119.014C59.6217 119.081 59.5525 119.13 59.4733 119.154C59.3506 119.194 59.2241 119.221 59.0959 119.236C58.8965 119.252 58.6962 119.252 58.4968 119.236C58.2975 119.252 58.0972 119.252 57.8978 119.236C57.7696 119.221 57.6431 119.194 57.5204 119.154C57.439 119.13 57.3672 119.081 57.3152 119.014C57.2765 118.956 57.2565 118.887 57.2578 118.818V101.515C57.2367 101.365 57.2525 101.211 57.304 101.068C57.3555 100.926 57.441 100.797 57.5532 100.695C57.7306 100.554 57.9501 100.476 58.1768 100.474H63.3218L64.1424 100.556C64.8045 100.661 65.4482 100.86 66.0544 101.146C66.5786 101.395 67.0496 101.743 67.4412 102.171C67.8104 102.581 68.0894 103.065 68.2617 103.59C68.4587 104.155 68.5571 104.752 68.5489 105.353C68.5506 105.909 68.4648 106.463 68.2946 106.993C68.1299 107.469 67.8827 107.914 67.5642 108.305C67.2356 108.688 66.8511 109.02 66.4236 109.289C65.9552 109.576 65.4573 109.813 64.9384 109.994C65.236 110.125 65.5126 110.299 65.759 110.511C66.024 110.724 66.2595 110.972 66.4565 111.249C66.6944 111.561 66.8996 111.896 67.0719 112.249C67.2606 112.618 67.4576 113.069 67.6463 113.512L69.2875 117.612C69.427 117.956 69.509 118.202 69.55 118.342C69.6239 118.479 69.6723 118.629 69.6896 118.785ZM65.9559 105.664C65.9802 105.011 65.8087 104.366 65.4636 103.811C65.0691 103.258 64.4849 102.87 63.8224 102.72C63.5536 102.649 63.279 102.603 63.0018 102.581C62.6066 102.54 62.2092 102.524 61.812 102.532H59.7195V108.821H62.1812C62.7535 108.829 63.3236 108.749 63.8716 108.584C64.3075 108.441 64.7116 108.216 65.0615 107.919C65.3733 107.649 65.6121 107.304 65.759 106.919C65.9067 106.523 65.9723 106.102 65.9559 105.681V105.664ZM88.6285 109.617C88.6441 111.002 88.4646 112.382 88.0951 113.717C87.7839 114.846 87.2419 115.899 86.5032 116.808C85.7875 117.669 84.8719 118.342 83.8363 118.768C82.6519 119.25 81.3812 119.485 80.1027 119.457C78.8589 119.482 77.622 119.268 76.4593 118.826C75.4764 118.438 74.6051 117.812 73.9237 117.005C73.2185 116.134 72.7092 115.122 72.4303 114.037C72.0825 112.698 71.9169 111.319 71.9379 109.937C71.9215 108.584 72.1021 107.236 72.4713 105.935C72.7987 104.81 73.3576 103.765 74.1125 102.868C74.836 102.016 75.7533 101.35 76.7876 100.925C79.1413 100.03 81.7377 100.007 84.1071 100.859C85.0928 101.242 85.9691 101.862 86.6591 102.663C87.3673 103.525 87.8822 104.529 88.169 105.607C88.5063 106.916 88.6613 108.265 88.6285 109.617ZM86.0027 109.789C86.0128 108.798 85.9193 107.809 85.7237 106.837C85.562 105.998 85.2447 105.197 84.7882 104.475C84.3503 103.808 83.7447 103.268 83.0322 102.909C82.1862 102.512 81.2583 102.321 80.3243 102.351C79.3855 102.319 78.4537 102.525 77.6163 102.95C76.9031 103.351 76.2933 103.912 75.8357 104.59C75.369 105.296 75.0378 106.083 74.8592 106.911C74.6584 107.84 74.5594 108.789 74.5638 109.74C74.5552 110.755 74.6459 111.768 74.8346 112.766C74.9897 113.613 75.3043 114.422 75.7618 115.152C76.1886 115.817 76.7867 116.355 77.4933 116.71C78.3479 117.107 79.2838 117.298 80.2258 117.268C81.1755 117.295 82.1172 117.087 82.9665 116.661C83.6875 116.271 84.2995 115.707 84.7472 115.021C85.2154 114.295 85.5438 113.489 85.7155 112.643C85.9229 111.705 86.0329 110.749 86.0437 109.789H86.0027ZM104.999 118.785C105.015 118.849 105.015 118.917 104.999 118.982C104.954 119.05 104.888 119.102 104.81 119.129C104.679 119.169 104.545 119.196 104.408 119.211C104.176 119.228 103.943 119.228 103.711 119.211C103.509 119.228 103.306 119.228 103.104 119.211C102.971 119.202 102.841 119.171 102.718 119.121C102.629 119.082 102.552 119.02 102.496 118.941C102.438 118.851 102.392 118.754 102.357 118.654L100.601 114.291C100.396 113.791 100.19 113.332 99.9689 112.913C99.7567 112.51 99.4795 112.144 99.1484 111.831C98.8517 111.525 98.4938 111.284 98.098 111.126C97.6361 110.944 97.142 110.857 96.6456 110.871H95.0044V118.818C95.0057 118.887 94.9857 118.956 94.947 119.014C94.8936 119.08 94.8223 119.128 94.7418 119.154C94.6191 119.194 94.4926 119.221 94.3644 119.236C94.165 119.252 93.9647 119.252 93.7654 119.236C93.566 119.252 93.3657 119.252 93.1663 119.236C93.0381 119.221 92.9116 119.194 92.7889 119.154C92.7075 119.13 92.6357 119.081 92.5837 119.014C92.545 118.956 92.525 118.887 92.5263 118.818V101.515C92.5052 101.365 92.521 101.211 92.5725 101.068C92.624 100.926 92.7095 100.797 92.8217 100.695C93.0022 100.553 93.2238 100.475 93.4535 100.474H98.5904C98.8657 100.478 99.1402 100.505 99.4109 100.556C100.073 100.661 100.717 100.86 101.323 101.146C101.85 101.395 102.323 101.743 102.718 102.171C103.087 102.581 103.366 103.065 103.538 103.59C103.735 104.155 103.834 104.752 103.826 105.353C103.827 105.909 103.742 106.463 103.571 106.993C103.407 107.469 103.159 107.914 102.841 108.305C102.515 108.69 102.13 109.022 101.7 109.289C101.232 109.576 100.734 109.813 100.215 109.994C100.513 110.125 100.789 110.299 101.036 110.511C101.301 110.724 101.536 110.972 101.733 111.249C101.971 111.561 102.176 111.896 102.349 112.249C102.562 112.66 102.753 113.081 102.923 113.512L104.564 117.612C104.704 117.956 104.786 118.202 104.827 118.342C104.912 118.477 104.971 118.627 104.999 118.785ZM101.265 105.664C101.29 105.011 101.118 104.366 100.773 103.811C100.379 103.258 99.7945 102.87 99.1319 102.72C98.8631 102.649 98.5885 102.603 98.3114 102.581C97.9162 102.54 97.5188 102.524 97.1215 102.532H95.0701V108.821H97.5318C98.1041 108.829 98.6742 108.749 99.2222 108.584C99.6588 108.443 100.063 108.217 100.412 107.919C100.721 107.645 100.963 107.302 101.118 106.919C101.241 106.518 101.29 106.099 101.265 105.681V105.664Z" fill="#444444"/>
<path d="M117.083 61.659L140.53 101.274C141.54 102.98 141.123 105.279 139.6 106.41C139.058 106.812 138.422 107.027 137.771 107.027H90.8771C89.0493 107.027 87.5676 105.368 87.5676 103.321C87.5676 102.593 87.7592 101.881 88.1185 101.274L111.566 61.659C112.575 59.953 114.629 59.4866 116.153 60.6172C116.522 60.8913 116.838 61.2455 117.083 61.659Z" fill="#FAFAFA"/>
<path fill-rule="evenodd" clip-rule="evenodd" d="M138.437 102.513L114.99 62.8979C114.902 62.7503 114.801 62.643 114.703 62.5705C114.513 62.4299 114.346 62.4144 114.205 62.4464C114.056 62.4801 113.839 62.5936 113.659 62.8979L90.2118 102.513C90.0819 102.732 90.0001 103.014 90.0001 103.321C90.0001 103.758 90.1581 104.105 90.3512 104.321C90.5405 104.533 90.7303 104.595 90.8771 104.595H137.771C137.879 104.595 138.01 104.561 138.15 104.457C138.605 104.119 138.856 103.222 138.437 102.513ZM140.53 101.274L117.083 61.659C116.838 61.2455 116.522 60.8913 116.153 60.6172C114.629 59.4866 112.575 59.953 111.566 61.659L88.1185 101.274C87.7592 101.881 87.5676 102.593 87.5676 103.321C87.5676 105.368 89.0493 107.027 90.8771 107.027H137.771C138.422 107.027 139.058 106.812 139.6 106.41C141.123 105.279 141.54 102.98 140.53 101.274Z" fill="#444444"/>
<path d="M114.121 94.4011C112.89 94.4011 112.423 93.2215 112.423 91.7659L111.892 76.419C111.892 75.7201 112.127 75.0498 112.545 74.5556C112.963 74.0614 113.53 73.7838 114.121 73.7838C114.712 73.7838 115.279 74.0614 115.697 74.5556C116.115 75.0498 116.35 75.7201 116.35 76.419L115.819 91.7659C115.819 93.2592 115.352 94.4011 114.121 94.4011Z" fill="#A4A4A4"/>
<path d="M115.713 98.6299C115.713 97.5903 115 96.7476 114.121 96.7476C113.242 96.7476 112.529 97.5903 112.529 98.6299C112.529 99.6695 113.242 100.512 114.121 100.512C115 100.512 115.713 99.6695 115.713 98.6299Z" fill="#A4A4A4"/>
</svg>
