<svg width="150" height="150" viewBox="0 0 150 150" fill="none" xmlns="http://www.w3.org/2000/svg">
<path d="M33.7505 13.7843C33.7505 9.30604 37.3812 5.67569 41.8598 5.67569H122.431C126.91 5.67569 130.54 9.30605 130.54 13.7843V136.998C130.54 141.476 126.91 145.107 122.431 145.107H41.8598C37.3812 145.107 33.7505 141.476 33.7505 136.998V13.7843Z" fill="#FAFAFA"/>
<path d="M33.7505 13.7843C33.7505 9.30604 37.3812 5.67569 41.8598 5.67569H45.4826V145.107H41.8598C37.3812 145.107 33.7505 141.476 33.7505 136.998V13.7843Z" fill="#EEEEEE"/>
<path d="M33.7298 132.972H53.5205C57.1034 132.972 60.008 130.068 60.008 126.485V94.0507C60.008 91.0282 57.9406 88.4884 55.1427 87.7682V81.0768C55.1427 69.1466 45.5994 59.4452 33.7298 59.1887V68.9234C40.2239 69.177 45.4108 74.5213 45.4108 81.077V87.5638H33.7298V132.972Z" fill="#DDDDDD"/>
<path d="M93.0455 62.6489C92.267 62.4444 90.9179 61.8757 90.3423 61.6105V67.0245H93.0455V62.6489Z" fill="#DDDDDD"/>
<path d="M98.6191 64.2892C97.8406 64.0848 96.4915 63.5161 95.9159 63.2509V67.0245H98.6191V64.2892Z" fill="#DDDDDD"/>
<path d="M68.5873 63.9087C68.5873 63.9087 73.0343 67.4473 78.5019 67.4473L78.4348 74.5735C80.4938 75.4979 83.5977 76.4686 87.5548 76.4694V74.7333C90.0665 75.8907 103.538 76.4693 107.067 76.4693L107.058 82.6079L80.9166 82.608C80.7013 82.7136 80.4591 82.773 80.203 82.773H66.7254C65.8297 82.773 65.1036 82.0469 65.1036 81.1512V80.2938C65.1036 79.3981 65.8297 78.6721 66.7254 78.6721H68.7524L68.5873 63.9087Z" fill="#DDDDDD"/>
<path d="M62.8487 90.1546C62.1691 90.1546 61.6183 90.7054 61.6183 91.3849C61.6183 92.0643 62.1691 92.6151 62.8487 92.6151H109.158C109.838 92.6151 110.389 92.0643 110.389 91.3849C110.389 90.7054 109.838 90.1546 109.158 90.1546H62.8487Z" fill="#DDDDDD"/>
<path d="M61.6177 97.1262C61.6177 96.4467 62.1685 95.8959 62.848 95.8959H109.158C109.837 95.8959 110.388 96.4467 110.388 97.1262C110.388 97.8056 109.837 98.3564 109.158 98.3564H62.848C62.1685 98.3564 61.6177 97.8056 61.6177 97.1262Z" fill="#DDDDDD"/>
<path d="M61.6177 102.867C61.6177 102.188 62.1685 101.637 62.848 101.637H109.158C109.837 101.637 110.388 102.188 110.388 102.867C110.388 103.547 109.837 104.098 109.158 104.098H62.848C62.1685 104.098 61.6177 103.547 61.6177 102.867Z" fill="#DDDDDD"/>
<path d="M61.6177 108.609C61.6177 107.929 62.1685 107.378 62.848 107.378H99.4036C100.083 107.378 100.634 107.929 100.634 108.609C100.634 109.288 100.083 109.839 99.4036 109.839H62.848C62.1685 109.839 61.6177 109.288 61.6177 108.609Z" fill="#DDDDDD"/>
<path d="M70.6769 57.3381C70.6769 56.8902 71.04 56.5272 71.4879 56.5272H75.4398C75.8876 56.5272 76.2507 56.8902 76.2507 57.3381V57.3567C76.2507 57.8045 75.8876 58.1676 75.4398 58.1676H71.4879C71.04 58.1676 70.6769 57.8045 70.6769 57.3567V57.3381Z" fill="#444444"/>
<path d="M70.6769 62.2591C70.6769 61.8113 71.04 61.4483 71.4879 61.4483H75.4398C75.8876 61.4483 76.2507 61.8113 76.2507 62.2591V62.2778C76.2507 62.7256 75.8876 63.0887 75.4398 63.0887H71.4879C71.04 63.0887 70.6769 62.7256 70.6769 62.2778V62.2591Z" fill="#444444"/>
<path fill-rule="evenodd" clip-rule="evenodd" d="M77.4158 51.5875L69.512 51.5875L69.512 77.8706L77.4158 77.8706L77.4158 51.5875ZM69.512 49.9657C68.6163 49.9657 67.8902 50.6918 67.8902 51.5875V77.8706C67.8902 78.7662 68.6163 79.4923 69.512 79.4923H77.4158C78.3116 79.4923 79.0377 78.7662 79.0377 77.8706V51.5875C79.0377 50.6918 78.3116 49.9657 77.4158 49.9657H69.512Z" fill="#444444"/>
<path fill-rule="evenodd" clip-rule="evenodd" d="M105.981 67.9912H88.3234L88.3233 81.9716H105.981V67.9912ZM88.3234 66.3695C87.4276 66.3695 86.7015 67.0956 86.7015 67.9912V81.9716C86.7015 82.8673 87.4276 83.5933 88.3233 83.5933H105.981C106.877 83.5933 107.603 82.8673 107.603 81.9716V67.9912C107.603 67.0956 106.877 66.3695 105.981 66.3695H88.3234Z" fill="#444444"/>
<path fill-rule="evenodd" clip-rule="evenodd" d="M92.0467 56.5085H91.1101V66.388H92.0467V56.5085ZM91.1101 54.8868C90.2144 54.8868 89.4882 55.6129 89.4882 56.5085V66.388C89.4882 67.2837 90.2144 68.0097 91.1101 68.0097H92.0467C92.9424 68.0097 93.6686 67.2837 93.6686 66.388V56.5085C93.6686 55.6129 92.9424 54.8868 92.0467 54.8868H91.1101Z" fill="#444444"/>
<path fill-rule="evenodd" clip-rule="evenodd" d="M97.6211 59.7892H96.6845V66.3879H97.6211V59.7892ZM96.6845 58.1675C95.7887 58.1675 95.0626 58.8935 95.0626 59.7892V66.3879C95.0626 67.2836 95.7887 68.0096 96.6845 68.0096H97.6211C98.5168 68.0096 99.2429 67.2836 99.2429 66.3879V59.7892C99.2429 58.8935 98.5168 58.1675 97.6211 58.1675H96.6845Z" fill="#444444"/>
<path fill-rule="evenodd" clip-rule="evenodd" d="M91.1101 71.2718V72.9495H92.0467V71.2718H91.1101ZM90.2992 69.6501C89.8513 69.6501 89.4882 70.0132 89.4882 70.461V73.7604C89.4882 74.2082 89.8513 74.5712 90.2992 74.5712H92.8576C93.3055 74.5712 93.6686 74.2082 93.6686 73.7604V70.461C93.6686 70.0132 93.3055 69.6501 92.8576 69.6501H90.2992Z" fill="#444444"/>
<path fill-rule="evenodd" clip-rule="evenodd" d="M96.6845 71.2718V72.9495H97.6211V71.2718H96.6845ZM95.8735 69.6501C95.4257 69.6501 95.0626 70.0132 95.0626 70.461V73.7604C95.0626 74.2082 95.4257 74.5712 95.8735 74.5712H98.432C98.8799 74.5712 99.2429 74.2082 99.2429 73.7604V70.461C99.2429 70.0132 98.8799 69.6501 98.432 69.6501H95.8735Z" fill="#444444"/>
<path fill-rule="evenodd" clip-rule="evenodd" d="M102.258 71.2718V72.9495H103.195V71.2718H102.258ZM101.447 69.6501C100.999 69.6501 100.636 70.0132 100.636 70.461V73.7604C100.636 74.2082 100.999 74.5712 101.447 74.5712H104.006C104.453 74.5712 104.816 74.2082 104.816 73.7604V70.461C104.816 70.0132 104.453 69.6501 104.006 69.6501H101.447Z" fill="#444444"/>
<path d="M77.6435 72.1013C77.6435 71.6535 78.0065 71.2905 78.4544 71.2905H87.2833C87.7312 71.2905 88.0943 71.6535 88.0943 72.1013V72.12C88.0943 72.5678 87.7312 72.9308 87.2833 72.9308H78.4544C78.0065 72.9308 77.6435 72.5678 77.6435 72.12V72.1013Z" fill="#444444"/>
<path d="M80.431 82.7637C80.431 82.3159 80.7941 81.9529 81.242 81.9529H89.3742C89.8221 81.9529 90.1851 82.3159 90.1851 82.7637V82.7824C90.1851 83.2302 89.8221 83.5932 89.3742 83.5932H81.242C80.7941 83.5932 80.431 83.2302 80.431 82.7824V82.7637Z" fill="#444444"/>
<path fill-rule="evenodd" clip-rule="evenodd" d="M80.8994 79.4737H66.0284L66.0284 81.9715L80.8994 81.9715L80.8994 79.4737ZM66.0284 77.8519C65.1326 77.8519 64.4065 78.578 64.4065 79.4737V81.9715C64.4065 82.8672 65.1326 83.5932 66.0284 83.5932H80.8994C81.7951 83.5932 82.5212 82.8672 82.5212 81.9715V79.4737C82.5212 78.578 81.7951 77.8519 80.8994 77.8519H66.0284Z" fill="#444444"/>
<path d="M45.4824 4.85556H47.6818V145.927H45.4824V4.85556Z" fill="#444444"/>
<path fill-rule="evenodd" clip-rule="evenodd" d="M41.8598 3.24326H122.431C128.253 3.24326 132.973 7.96272 132.973 13.7845V136.998C132.973 142.82 128.253 147.54 122.431 147.54H41.8598C36.0376 147.54 31.3177 142.82 31.3177 136.998V13.7845C31.3177 7.96271 36.0376 3.24326 41.8598 3.24326ZM41.8598 5.67585C37.3812 5.67585 33.7505 9.3062 33.7505 13.7845V136.998C33.7505 141.477 37.3812 145.107 41.8598 145.107H122.431C126.91 145.107 130.54 141.477 130.54 136.998V13.7845C130.54 9.30621 126.91 5.67585 122.431 5.67585H41.8598Z" fill="#444444"/>
<path d="M32.3576 146.337C32.3576 145.658 32.9084 145.107 33.5879 145.107H131.455C132.134 145.107 132.685 145.658 132.685 146.337C132.685 147.017 132.134 147.568 131.455 147.568H33.5879C32.9084 147.568 32.3576 147.017 32.3576 146.337Z" fill="#444444"/>
<path d="M17.0291 146.337C17.0291 145.658 17.58 145.107 18.2595 145.107H26.9463C27.6258 145.107 28.1766 145.658 28.1766 146.337C28.1766 147.017 27.6258 147.568 26.9463 147.568H18.2595C17.58 147.568 17.0291 147.017 17.0291 146.337Z" fill="#444444"/>
<path d="M3.24329 90.8072C3.24329 87.2246 6.14782 84.3203 9.73074 84.3203H50.2773C53.8602 84.3203 56.7647 87.2246 56.7647 90.8072V123.242C56.7647 126.824 53.8602 129.729 50.2773 129.729H9.73074C6.14782 129.729 3.24329 126.824 3.24329 123.242V90.8072Z" fill="#FAFAFA"/>
<path fill-rule="evenodd" clip-rule="evenodd" d="M32.4363 104.592C33.4212 103.853 34.0582 102.675 34.0582 101.348C34.0582 99.1092 32.2429 97.2941 30.0036 97.2941C27.7642 97.2941 25.9489 99.1092 25.9489 101.348C25.9489 102.675 26.5859 103.852 27.5707 104.592V112.7C27.5707 114.044 28.6599 115.133 30.0035 115.133C31.3471 115.133 32.4363 114.044 32.4363 112.7V104.592Z" fill="#EEEEEE"/>
<path fill-rule="evenodd" clip-rule="evenodd" d="M24.7325 101.348C24.7325 98.4375 27.0925 96.0778 30.0036 96.0778C32.9147 96.0778 35.2746 98.4375 35.2746 101.348C35.2746 102.844 34.6509 104.194 33.6527 105.152V112.7C33.6527 114.716 32.0189 116.349 30.0035 116.349C27.9881 116.349 26.3543 114.716 26.3543 112.7V105.152C25.3562 104.194 24.7325 102.844 24.7325 101.348ZM30.0036 98.5104C28.4361 98.5104 27.1653 99.781 27.1653 101.348C27.1653 102.276 27.6092 103.1 28.3013 103.62L28.7871 103.984V112.7C28.7871 113.372 29.3317 113.917 30.0035 113.917C30.6753 113.917 31.2199 113.372 31.2199 112.7V103.985L31.7058 103.62C32.398 103.1 32.8419 102.276 32.8419 101.348C32.8419 99.781 31.5711 98.5104 30.0036 98.5104Z" fill="#444444"/>
<path d="M8.10846 77.8333C8.10846 65.742 17.9112 55.94 30.0036 55.94C42.096 55.94 51.8987 65.742 51.8987 77.8333V87.5637C51.8987 87.5931 51.8987 87.6224 51.8986 87.6517V84.3203H42.1677V77.8333C42.1677 71.1159 36.7217 65.6704 30.0037 65.6704C23.2857 65.6704 17.8398 71.1159 17.8398 77.8333V84.3203H8.10846V77.8333Z" fill="#EEEEEE"/>
<path fill-rule="evenodd" clip-rule="evenodd" d="M50.2773 86.7529H9.73074C7.49141 86.7529 5.67608 88.5681 5.67608 90.8072V123.242C5.67608 125.481 7.49141 127.296 9.73074 127.296H50.2773C52.5166 127.296 54.332 125.481 54.332 123.242V90.8072C54.332 88.5681 52.5166 86.7529 50.2773 86.7529ZM9.73074 84.3203C6.14782 84.3203 3.24329 87.2246 3.24329 90.8072V123.242C3.24329 126.824 6.14782 129.729 9.73074 129.729H50.2773C53.8602 129.729 56.7647 126.824 56.7647 123.242V90.8072C56.7647 87.2246 53.8602 84.3203 50.2773 84.3203H9.73074Z" fill="#444444"/>
<path d="M10.542 77.8333C10.542 67.0855 19.2556 58.3726 30.0043 58.3726C40.7531 58.3726 49.4667 67.0855 49.4667 77.8333V85.1311H51.8995V77.8333C51.8995 65.742 42.0967 55.94 30.0043 55.94C17.912 55.94 8.10917 65.742 8.10917 77.8333V85.1311H10.542V77.8333Z" fill="#444444"/>
<path d="M15.4077 85.1311H17.8405V77.8333C17.8405 71.1159 23.2865 65.6704 30.0044 65.6704C36.7224 65.6704 42.1684 71.1159 42.1684 77.8333V85.1311H44.6012V77.8333C44.6012 69.7724 38.066 63.2378 30.0044 63.2378C21.9429 63.2378 15.4077 69.7724 15.4077 77.8333V85.1311Z" fill="#444444"/>
</svg>
