<svg width="150" height="150" viewBox="0 0 150 150" fill="none" xmlns="http://www.w3.org/2000/svg">
<path d="M27.973 5.28406H105C109.46 5.28406 113.108 8.97417 113.108 13.4843V138.948C113.108 143.458 109.46 147.148 105 147.148H27.973C23.5136 147.148 19.8649 143.458 19.8649 138.948V13.4843C19.8649 8.97417 23.5136 5.28406 27.973 5.28406Z" fill="#FAFAFA"/>
<path d="M26.8379 6.51416H106.135C109.297 6.51416 111.892 9.13824 111.892 12.3363V24.5547H21.0811V12.3363C21.0811 9.13824 23.6757 6.51416 26.8379 6.51416Z" fill="#EEEEEE"/>
<path fill-rule="evenodd" clip-rule="evenodd" d="M27.9731 148.378H105C110.108 148.378 114.324 144.114 114.324 138.948V13.4844C114.324 8.3182 110.108 4.05408 105 4.05408H27.9731C22.865 4.05408 18.6487 8.3182 18.6487 13.4844V138.948C18.6487 144.114 22.865 148.378 27.9731 148.378ZM21.0812 13.4844C21.0812 9.63024 24.1623 6.51415 27.9731 6.51415H105C108.811 6.51415 111.892 9.63024 111.892 13.4844V138.948C111.892 142.802 108.811 145.918 105 145.918H27.9731C24.1623 145.918 21.0812 142.802 21.0812 138.948V13.4844Z" fill="#444444"/>
<path d="M12.5677 145.918H118.784C119.433 145.918 120 146.492 120 147.148C120 147.804 119.433 148.378 118.784 148.378H12.5677C11.919 148.378 11.3514 147.804 11.3514 147.148C11.3514 146.492 11.919 145.918 12.5677 145.918Z" fill="#444444"/>
<path d="M127.703 145.918H144.73C145.378 145.918 145.946 146.492 145.946 147.148C145.946 147.804 145.378 148.378 144.73 148.378H127.703C127.054 148.378 126.487 147.804 126.487 147.148C126.487 146.492 127.054 145.918 127.703 145.918Z" fill="#444444"/>
<path d="M29.5136 49.5654C33.0001 51.9435 37.6217 53.0915 43.4595 53.0915C49.2974 53.0915 55.3785 53.9116 61.7028 55.6336V65.7199H29.5136V49.5654Z" fill="#DDDDDD"/>
<path d="M71.6758 49.5654C75.1623 51.9435 79.7839 53.0915 85.6217 53.0915C91.4596 53.0915 97.5406 53.9116 103.865 55.6336V65.7199H71.6758V49.5654Z" fill="#DDDDDD"/>
<path d="M29.5136 89.7466C30.0812 86.2205 32.919 84.4985 38.1082 84.4985C45.5677 84.4985 46.2974 91.9607 51.0812 95.1588C52.865 96.3068 56.3514 96.5528 61.7028 95.8968V105.983H29.5136V89.7466Z" fill="#DDDDDD"/>
<path fill-rule="evenodd" clip-rule="evenodd" d="M60.4055 118.037H30.4055C29.7568 118.037 29.1893 118.611 29.1893 119.268C29.1893 119.924 29.7568 120.498 30.4055 120.498H60.4055C61.0541 120.498 61.6217 119.924 61.6217 119.268C61.6217 118.611 61.0541 118.037 60.4055 118.037ZM60.4055 123.778H30.4055C29.7568 123.778 29.1893 124.352 29.1893 125.008C29.1893 125.664 29.7568 126.238 30.4055 126.238H60.4055C61.0541 126.238 61.6217 125.664 61.6217 125.008C61.6217 124.352 61.0541 123.778 60.4055 123.778ZM30.4055 129.518H60.4055C61.0541 129.518 61.6217 130.092 61.6217 130.748C61.6217 131.404 61.0541 131.978 60.4055 131.978H30.4055C29.7568 131.978 29.1893 131.404 29.1893 130.748C29.1893 130.092 29.7568 129.518 30.4055 129.518ZM44.1893 135.258H30.4055C29.7568 135.258 29.1893 135.832 29.1893 136.488C29.1893 137.144 29.7568 137.718 30.4055 137.718H44.1893C44.8379 137.718 45.4055 137.144 45.4055 136.488C45.4055 135.832 44.8379 135.258 44.1893 135.258Z" fill="#DDDDDD"/>
<path fill-rule="evenodd" clip-rule="evenodd" d="M102.568 118.037H72.5677C71.919 118.037 71.3514 118.611 71.3514 119.268C71.3514 119.924 71.919 120.498 72.5677 120.498H102.568C103.216 120.498 103.784 119.924 103.784 119.268C103.784 118.611 103.216 118.037 102.568 118.037ZM102.568 123.778H72.5677C71.919 123.778 71.3514 124.352 71.3514 125.008C71.3514 125.664 71.919 126.238 72.5677 126.238H102.568C103.216 126.238 103.784 125.664 103.784 125.008C103.784 124.352 103.216 123.778 102.568 123.778ZM72.5677 129.518H102.568C103.216 129.518 103.784 130.092 103.784 130.748C103.784 131.404 103.216 131.978 102.568 131.978H72.5677C71.919 131.978 71.3514 131.404 71.3514 130.748C71.3514 130.092 71.919 129.518 72.5677 129.518ZM91.2163 135.258H72.5677C71.919 135.258 71.3514 135.832 71.3514 136.488C71.3514 137.144 71.919 137.718 72.5677 137.718H91.2163C91.865 137.718 92.4325 137.144 92.4325 136.488C92.4325 135.832 91.865 135.258 91.2163 135.258Z" fill="#DDDDDD"/>
<path fill-rule="evenodd" clip-rule="evenodd" d="M32.0271 67.196H58.7838C61.2163 67.196 63.2433 65.1459 63.2433 62.6859V38.9052C63.2433 36.4451 61.2163 34.395 58.7838 34.395H32.0271C29.5947 34.395 27.5676 36.4451 27.5676 38.9052V62.6859C27.5676 65.1459 29.5947 67.196 32.0271 67.196ZM30.0001 38.9052C30.0001 37.7571 30.892 36.8551 32.0271 36.8551H58.7838C59.919 36.8551 60.8109 37.7571 60.8109 38.9052V62.6859C60.8109 63.8339 59.919 64.7359 58.7838 64.7359H32.0271C30.892 64.7359 30.0001 63.8339 30.0001 62.6859V38.9052Z" fill="#444444"/>
<path fill-rule="evenodd" clip-rule="evenodd" d="M74.1892 67.196H100.946C103.378 67.196 105.405 65.1459 105.405 62.6859V38.9052C105.405 36.4451 103.378 34.395 100.946 34.395H74.1892C71.7568 34.395 69.7298 36.4451 69.7298 38.9052V62.6859C69.7298 65.1459 71.7568 67.196 74.1892 67.196ZM72.1622 38.9052C72.1622 37.7571 73.0541 36.8551 74.1892 36.8551H100.946C102.081 36.8551 102.973 37.7571 102.973 38.9052V62.6859C102.973 63.8339 102.081 64.7359 100.946 64.7359H74.1892C73.0541 64.7359 72.1622 63.8339 72.1622 62.6859V38.9052Z" fill="#444444"/>
<path fill-rule="evenodd" clip-rule="evenodd" d="M32.0271 108.197H58.7838C61.0541 108.197 62.4325 106.475 62.4325 103.687V79.9064C62.4325 77.1183 61.0541 75.3962 58.7838 75.3962H32.0271C29.5947 75.3962 27.5676 77.4463 27.5676 79.9064V103.687C27.5676 106.147 29.5947 108.197 32.0271 108.197ZM30.0001 79.9064C30.0001 78.7583 30.892 77.8563 32.0271 77.8563H58.7838C59.1082 77.8563 60.0001 77.8563 60.0001 79.9064V103.687C60.0001 105.737 59.1082 105.737 58.7838 105.737H32.0271C30.892 105.737 30.0001 104.835 30.0001 103.687V79.9064Z" fill="#444444"/>
<rect x="19.4595" y="22.9147" width="94.0541" height="2.46007" fill="#444444"/>
<path fill-rule="evenodd" clip-rule="evenodd" d="M27.5676 15.5344C27.5676 17.3384 29.0271 18.8145 30.8109 18.8145C32.5947 18.8145 34.0541 17.3384 34.0541 15.5344C34.0541 13.7303 32.5947 12.2543 30.8109 12.2543C29.0271 12.2543 27.5676 13.7303 27.5676 15.5344ZM29.1892 15.5344C29.1892 14.6323 29.919 13.8943 30.8109 13.8943C31.7028 13.8943 32.4325 14.6323 32.4325 15.5344C32.4325 16.4364 31.7028 17.1744 30.8109 17.1744C29.919 17.1744 29.1892 16.4364 29.1892 15.5344Z" fill="#444444"/>
<path fill-rule="evenodd" clip-rule="evenodd" d="M38.919 15.5344C38.919 17.3384 40.3784 18.8145 42.1622 18.8145C43.946 18.8145 45.4055 17.3384 45.4055 15.5344C45.4055 13.7303 43.946 12.2543 42.1622 12.2543C40.3784 12.2543 38.919 13.7303 38.919 15.5344ZM40.5406 15.5344C40.5406 14.6323 41.2703 13.8943 42.1622 13.8943C43.0541 13.8943 43.7838 14.6323 43.7838 15.5344C43.7838 16.4364 43.0541 17.1744 42.1622 17.1744C41.2703 17.1744 40.5406 16.4364 40.5406 15.5344Z" fill="#444444"/>
<path d="M110.503 23.3247C110.955 23.0962 111.419 22.8806 111.892 22.6781V58.5532C111.419 58.344 110.955 58.1089 110.503 57.8477L109.935 57.5197L109.449 57.9297C109.124 58.1757 108.82 58.4014 108.516 58.627C108.212 58.8524 107.908 59.0778 107.584 59.3237C106.948 59.8061 106.139 59.9382 105.405 59.7199V38.9051C105.405 36.5508 103.549 34.5719 101.257 34.4062C101.574 33.3655 102.007 32.3338 102.557 31.3609L102.881 30.7869L102.476 30.2949C102.233 29.967 102.009 29.6592 101.787 29.3519C101.564 29.0444 101.341 28.7368 101.097 28.4088C100.431 27.5104 100.441 26.2702 101.126 25.3747H106.216V22.9147H103.53L104.341 22.0946C105.233 21.1926 106.611 21.1106 107.584 21.8486C108.035 22.1337 108.447 22.4586 108.874 22.7954C109.061 22.943 109.251 23.0928 109.449 23.2427L109.935 23.6527L110.503 23.3247Z" fill="#DDDDDD"/>
<path fill-rule="evenodd" clip-rule="evenodd" d="M69.7298 58.5085C69.6589 58.3848 69.5884 58.261 69.5178 58.1373L69.5163 58.1347C69.2123 57.6017 68.9082 57.0687 68.5839 56.5357C67.7731 55.2236 66.1514 54.6496 64.692 55.2236L63.2433 55.8359V62.6859C63.2433 65.1459 61.2163 67.196 58.7838 67.196H56.3688C55.377 68.1359 54.468 69.1472 53.665 70.2301L53.2596 70.7221L52.6109 70.5581C52.3563 70.4894 52.1053 70.4208 51.857 70.3529L51.8441 70.3493C50.9112 70.0941 50.0178 69.8497 49.1244 69.6561C47.665 69.2461 46.0433 70.0661 45.4758 71.5421L43.8832 75.3962H58.7838C61.0541 75.3962 62.4325 77.1183 62.4325 79.9064V103.687C62.4325 106.475 61.0541 108.197 58.7838 108.197H58.2379L58.5298 108.443L58.3677 109.099C58.2987 109.361 58.2297 109.619 58.1615 109.874L58.1612 109.875C57.9089 110.818 57.6672 111.722 57.4758 112.625C57.0704 114.101 57.8812 115.741 59.3406 116.315L64.7731 118.612C66.1514 119.186 67.8541 118.612 68.665 117.299C69.3136 116.233 69.8812 115.249 70.5298 114.101L70.8541 113.527L71.5028 113.609C73.5298 113.855 75.6379 113.855 77.665 113.609L78.3136 113.527L78.6379 114.101C79.2055 115.167 79.8541 116.233 80.5028 117.299C81.3136 118.612 82.9352 119.186 84.3947 118.612L89.8271 116.315C91.2866 115.741 92.0163 114.101 91.692 112.625C91.5298 112.051 91.3879 111.457 91.246 110.862C91.1041 110.268 90.9622 109.673 90.8001 109.099L90.6379 108.443L91.1244 108.033C92.746 106.721 94.2055 105.245 95.4217 103.605L95.8271 103.113L96.4758 103.277C97.6109 103.605 98.8271 103.933 99.9622 104.179C101.422 104.589 103.043 103.769 103.611 102.293L105.881 96.7989C106.368 95.1588 105.8 93.4368 104.503 92.6168C103.976 92.2888 103.449 91.9813 102.922 91.6738C102.395 91.3662 101.868 91.0587 101.341 90.7307L100.773 90.4027L100.854 89.7467C101.097 87.6966 101.097 85.5645 100.854 83.5145L100.773 82.8585L101.341 82.5305C101.748 82.2769 102.156 82.0352 102.559 81.7967C103.198 81.4182 103.825 81.0467 104.422 80.6444C105.719 79.8244 106.287 78.1843 105.719 76.7083L103.449 71.2141C102.881 69.7381 101.26 69.0001 99.8001 69.3281C99.2325 69.4921 98.6446 69.6356 98.0568 69.7791C97.469 69.9226 96.8812 70.0661 96.3136 70.2301L95.665 70.3941L95.2595 69.9021C94.4968 68.9378 93.678 68.0302 92.8031 67.196H74.1892C71.7568 67.196 69.7298 65.1459 69.7298 62.6859V58.5085ZM75.8109 99.1769C82.3039 99.1769 87.5676 93.8534 87.5676 87.2866C87.5676 80.7197 82.3039 75.3962 75.8109 75.3962C69.3178 75.3962 64.0541 80.7197 64.0541 87.2866C64.0541 93.8534 69.3178 99.1769 75.8109 99.1769Z" fill="#DDDDDD"/>
<path d="M90.496 64.7359H74.1892C73.0541 64.7359 72.1622 63.8339 72.1622 62.6859V60.1472C73.9587 59.9834 75.8026 60.0096 77.5839 60.2258L78.2325 60.3078L78.5568 59.7338C78.8812 59.2008 79.1852 58.6677 79.4893 58.1347C79.7933 57.6017 80.0974 57.0687 80.4217 56.5357C81.2325 55.1416 82.8541 54.6496 84.3136 55.2236L89.5839 57.2737C91.0433 57.8477 91.8541 59.4878 91.4487 60.9638C91.2055 62.1118 90.8812 63.3419 90.5568 64.4899L90.496 64.7359Z" fill="#DDDDDD"/>
<path d="M102.973 57.6946L101.341 56.0437C100.449 55.1416 100.368 53.7476 101.097 52.7636C101.379 52.3074 101.7 51.8907 102.034 51.4587C102.179 51.2695 102.328 51.0773 102.476 50.8775L102.881 50.3855L102.557 49.8115C101.989 48.6634 101.503 47.4334 101.097 46.2034L100.935 45.6293L100.287 45.5473C99.9217 45.5063 99.5366 45.4448 99.1514 45.3833C98.7663 45.3218 98.3812 45.2603 98.0163 45.2193C96.8001 45.0553 95.9082 43.9893 95.9082 42.7593V38.4131C95.9082 37.831 96.108 37.2855 96.4474 36.8551H100.946C102.081 36.8551 102.973 37.7571 102.973 38.9051V57.6946Z" fill="#DDDDDD"/>
<path d="M55.4593 105.737H58.7838C59.1082 105.737 60 105.737 60 103.687V79.9064C60 77.8563 59.1082 77.8563 58.7838 77.8563H42.9989C42.8456 79.0846 43.3764 80.3023 44.5028 80.9724C45.0298 81.3004 45.5569 81.608 46.0839 81.9155C46.6109 82.223 47.138 82.5305 47.665 82.8585L48.2325 83.1865L48.1514 83.8425C47.9082 85.8926 47.9082 88.0246 48.1514 90.0747L48.2325 90.7307L47.665 91.0587C47.1379 91.3867 46.6109 91.6943 46.0838 92.0018C45.5568 92.3093 45.0298 92.6168 44.5028 92.9448C43.2055 93.7648 42.6379 95.4048 43.2055 96.8809L45.4758 102.375C46.0433 103.851 47.665 104.589 49.1244 104.261C49.692 104.097 50.2798 103.954 50.8677 103.81C51.4555 103.667 52.0433 103.523 52.6109 103.359L53.2596 103.195L53.665 103.687C54.2321 104.404 54.8302 105.09 55.4593 105.737Z" fill="#DDDDDD"/>
<path d="M58.2866 64.7359L58.7838 64.7359C59.919 64.7359 60.8109 63.8339 60.8109 62.6859V56.864L59.2596 57.5197C57.8001 58.0937 57.0704 59.7338 57.3947 61.2098C57.5568 61.7838 57.6987 62.3784 57.8406 62.9729C57.9825 63.5674 58.1244 64.1619 58.2866 64.7359Z" fill="#DDDDDD"/>
<path fill-rule="evenodd" clip-rule="evenodd" d="M105.365 90.6076C105.892 90.9151 106.419 91.2226 106.946 91.5506C108.243 92.3707 108.811 94.0927 108.324 95.7328L106.054 101.227C105.487 102.703 103.865 103.523 102.405 103.113C101.27 102.867 100.054 102.539 98.9189 102.211L98.2703 102.047L97.8649 102.539C96.6487 104.179 95.1892 105.655 93.5676 106.967L93.0811 107.377L93.2433 108.033C93.4054 108.607 93.5473 109.202 93.6892 109.796C93.8311 110.391 93.973 110.985 94.1352 111.559C94.4595 113.035 93.7298 114.675 92.2703 115.249L86.8379 117.545C85.3784 118.119 83.7568 117.545 82.946 116.233C82.2973 115.167 81.6487 114.101 81.0811 113.035L80.7568 112.461L80.1081 112.543C78.0811 112.789 75.973 112.789 73.946 112.543L73.2973 112.461L72.973 113.035C72.3243 114.183 71.7568 115.167 71.1081 116.233C70.2973 117.545 68.5946 118.119 67.2162 117.545L61.7838 115.249C60.3244 114.675 59.5135 113.035 59.9189 111.559C60.1104 110.656 60.3521 109.752 60.6044 108.808C60.6727 108.553 60.7418 108.295 60.8108 108.033L60.973 107.377L60.4865 106.967C58.8649 105.737 57.4054 104.261 56.1081 102.621L55.7027 102.129L55.0541 102.293C54.4865 102.457 53.8987 102.6 53.3108 102.744C52.723 102.887 52.1352 103.031 51.5676 103.195C50.1081 103.523 48.4865 102.785 47.9189 101.309L45.6487 95.8148C45.0811 94.3387 45.6487 92.6987 46.946 91.8786C47.473 91.5506 48 91.2431 48.5271 90.9356C49.0541 90.6281 49.5811 90.3206 50.1081 89.9926L50.6757 89.6646L50.5946 89.0085C50.3514 86.9585 50.3514 84.8264 50.5946 82.7764L50.6757 82.1203L50.1081 81.7923C49.5811 81.4643 49.0541 81.1568 48.5271 80.8493C48 80.5418 47.473 80.2343 46.946 79.9063C45.5676 79.0863 45.0811 77.4462 45.6487 75.9702L47.9189 70.476C48.4865 69 50.1081 68.1799 51.5676 68.5899C52.461 68.7836 53.3545 69.028 54.2874 69.2832C54.5398 69.3523 54.7951 69.4221 55.0541 69.492L55.7027 69.656L56.1081 69.164C57.3244 67.5239 58.7838 66.0479 60.4054 64.7358L60.8919 64.3258L60.7298 63.6698C60.5676 63.0958 60.4257 62.5013 60.2838 61.9067C60.1419 61.3122 60 60.7177 59.8379 60.1437C59.5135 58.6676 60.2433 57.0276 61.7027 56.4536L67.1352 54.1575C68.5946 53.5835 70.2162 54.1575 71.0271 55.4696C71.3514 56.0026 71.6554 56.5356 71.9595 57.0686C72.2635 57.6016 72.5676 58.1346 72.8919 58.6676L73.2162 59.2417L73.8649 59.1597C75.8919 58.9137 78 58.9137 80.0271 59.1597L80.6757 59.2417L81 58.6676C81.3243 58.1346 81.6284 57.6016 81.9325 57.0686C82.2365 56.5356 82.5406 56.0026 82.8649 55.4696C83.6757 54.0755 85.2973 53.5835 86.7568 54.1575L92.0271 56.2076C93.4865 56.7816 94.2973 58.4216 93.8919 59.8977C93.6487 61.0457 93.3243 62.2758 93 63.4238L92.8379 64.0798L93.3243 64.4898C94.946 65.7199 96.4054 67.1959 97.7027 68.8359L98.1081 69.328L98.7568 69.164C99.3243 69 99.9122 68.8565 100.5 68.713C101.088 68.5694 101.676 68.4259 102.243 68.2619C103.703 67.9339 105.324 68.6719 105.892 70.148L108.162 75.6422C108.73 77.1182 108.162 78.7582 106.865 79.5783C106.268 79.9806 105.641 80.3521 105.002 80.7305C104.599 80.9692 104.191 81.2106 103.784 81.4643L103.216 81.7923L103.297 82.4483C103.541 84.4984 103.541 86.6305 103.297 88.6805L103.216 89.3366L103.784 89.6646C104.311 89.9926 104.838 90.3001 105.365 90.6076ZM77.4325 97.5368C83.9255 97.5368 89.1892 92.2133 89.1892 85.6464C89.1892 79.0796 83.9255 73.7561 77.4325 73.7561C70.9394 73.7561 65.6757 79.0796 65.6757 85.6464C65.6757 92.2133 70.9394 97.5368 77.4325 97.5368Z" fill="#444444"/>
<path fill-rule="evenodd" clip-rule="evenodd" d="M140.382 37.7436C140.8 37.8439 141.219 37.9443 141.642 38.0586C142.684 38.3483 143.414 39.3985 143.412 40.609L142.975 44.7952C142.886 45.9112 141.951 46.7987 140.881 46.8199C140.063 46.8857 139.173 46.9126 138.339 46.9228L137.867 46.9446L137.691 47.3609C137.195 48.7208 136.502 50.0194 135.666 51.2401L135.419 51.6175L135.66 52.0286C135.885 52.3842 136.1 52.7578 136.315 53.1314C136.53 53.5051 136.745 53.8787 136.97 54.2343C137.485 55.1677 137.319 56.4279 136.446 57.1156L133.226 59.7832C132.352 60.4709 131.139 60.4142 130.327 59.6915C129.674 59.1023 129.022 58.5131 128.424 57.9072L128.089 57.5848L127.666 57.7732C126.343 58.3549 124.915 58.7866 123.492 59.0351L123.037 59.1124L122.932 59.5676C122.722 60.478 122.535 61.2607 122.309 62.1156C122.023 63.1703 120.984 63.9078 119.936 63.8013L115.796 63.3585C114.693 63.2686 113.815 62.3238 113.795 61.241C113.743 60.5897 113.726 59.9282 113.708 59.2374C113.703 59.0505 113.698 58.8615 113.693 58.67L113.671 58.1925L113.26 58.0144C111.915 57.5133 110.631 56.8124 109.424 55.9672L109.051 55.717L108.644 55.9609C108.293 56.1882 107.923 56.4057 107.554 56.6233C107.184 56.8409 106.815 57.0585 106.463 57.2858C105.541 57.8068 104.294 57.639 103.614 56.7555L100.977 53.499C100.297 52.6155 100.353 51.3884 101.067 50.5673C101.359 50.2372 101.654 49.921 101.95 49.6048C102.245 49.2886 102.54 48.9724 102.832 48.6423L103.15 48.3039L102.964 47.8762C102.389 46.5374 101.962 45.0933 101.717 43.6549L101.64 43.194L101.19 43.088C100.767 42.9738 100.349 42.8734 99.9303 42.7731C99.5118 42.6727 99.0932 42.5723 98.6706 42.4581C97.5728 42.1849 96.915 41.1737 97.0039 40.0577L97.4417 35.8715C97.5306 34.7555 98.4648 33.868 99.5354 33.8468C100.179 33.795 100.833 33.7776 101.516 33.7594C101.701 33.7545 101.888 33.7496 102.078 33.7438L102.55 33.7221L102.726 33.3058C103.221 31.9459 103.914 30.6473 104.75 29.4265L104.997 29.0492L104.756 28.6381C104.531 28.2825 104.316 27.9088 104.101 27.5352C103.886 27.1616 103.671 26.788 103.446 26.4324C102.931 25.499 103.097 24.2387 103.971 23.5511L107.19 20.8834C108.064 20.1958 109.277 20.2525 110.089 20.9752C110.416 21.2698 110.728 21.5685 111.041 21.8673C111.354 22.1661 111.666 22.4648 111.993 22.7594L112.327 23.0818L112.75 22.8935C114.074 22.3117 115.502 21.88 116.924 21.6316L117.38 21.5543L117.484 21.0991C117.597 20.6716 117.697 20.2484 117.796 19.8251C117.895 19.4018 117.994 18.9785 118.107 18.551C118.377 17.4408 119.377 16.7755 120.481 16.8654L124.461 17.1747C125.564 17.2647 126.442 18.2095 126.463 19.2923C126.528 20.1197 126.554 21.0192 126.565 21.8632L126.586 22.3408L126.998 22.5189C128.342 23.02 129.626 23.7209 130.833 24.5661L131.206 24.8163L131.613 24.5724C131.965 24.3451 132.334 24.1275 132.703 23.9099C133.073 23.6923 133.442 23.4748 133.794 23.2475C134.717 22.7264 135.963 22.8942 136.643 23.7778L139.28 27.0342C139.96 27.9178 139.904 29.1449 139.19 29.9659C138.866 30.3606 138.516 30.7406 138.159 31.1278C137.934 31.372 137.706 31.619 137.48 31.8743L137.162 32.2127L137.348 32.6405C137.923 33.9792 138.35 35.4233 138.596 36.8617L138.672 37.3227L139.122 37.4286C139.545 37.5429 139.963 37.6432 140.382 37.7436ZM122.85 48.1568C127.248 46.8272 129.747 42.1436 128.432 37.6957C127.118 33.2477 122.487 30.7199 118.089 32.0495C113.691 33.3791 111.191 38.0627 112.506 42.5107C113.821 46.9586 118.452 49.4865 122.85 48.1568Z" fill="#444444"/>
<path fill-rule="evenodd" clip-rule="evenodd" d="M102.73 100.407L103.541 100.653L106.216 94.0107L105.487 93.6007C105.114 93.3812 104.742 93.1497 104.366 92.9154C103.758 92.537 103.138 92.1512 102.487 91.7966C101.432 91.1406 100.784 89.9106 100.946 88.6806C101.189 86.7125 101.189 84.6624 100.946 82.6944C100.784 81.4643 101.351 80.2343 102.487 79.5783C102.973 79.2913 103.48 78.9838 103.987 78.6763C104.493 78.3687 105 78.0612 105.487 77.7742L106.216 77.3642L103.541 70.722L102.73 70.968C102.162 71.132 101.595 71.2755 101.027 71.419C100.459 71.5625 99.8919 71.706 99.3244 71.8701C98.1081 72.2801 96.8919 71.788 96.0811 70.804C94.946 69.246 93.4865 67.8519 91.946 66.6219C90.973 65.8839 90.5676 64.5718 90.8919 63.3418C91.2163 62.1938 91.5406 61.0457 91.7838 59.8977L92.0271 59.0777L85.4595 56.3716L85.0541 57.1096C84.8371 57.4859 84.6082 57.8622 84.3765 58.243C84.0023 58.8582 83.6209 59.4853 83.2703 60.1437C82.6217 61.2097 81.4054 61.8657 80.1892 61.7017C78.2433 61.4557 76.2163 61.4557 74.2703 61.7017C73.0541 61.8657 71.8379 61.2917 71.1892 60.1437C70.9054 59.6517 70.6014 59.1392 70.2973 58.6267C69.9933 58.1141 69.6892 57.6016 69.4054 57.1096L69 56.3716L62.4325 59.0777L62.6757 59.8977C62.8379 60.4717 62.9798 61.0457 63.1217 61.6197C63.2636 62.1938 63.4054 62.7678 63.5676 63.3418C63.8919 64.5718 63.4865 65.8019 62.5136 66.6219C60.973 67.7699 59.5946 69.246 58.3784 70.804C57.6487 71.788 56.3514 72.1981 55.1352 71.8701C54.0001 71.542 52.8649 71.214 51.7298 70.968L50.919 70.722L48.2433 77.3642L48.973 77.7742C49.3451 77.9937 49.7171 78.2252 50.0937 78.4595C50.7019 78.838 51.322 79.2238 51.973 79.5783C53.0271 80.2343 53.6757 81.4643 53.5136 82.6944C53.2703 84.6624 53.2703 86.7125 53.5136 88.6806C53.6757 89.9106 53.0271 91.1406 51.973 91.7966C51.4865 92.0837 50.9798 92.3912 50.473 92.6987C49.9663 93.0062 49.4595 93.3137 48.973 93.6007L48.2433 94.0107L50.919 100.653L51.7298 100.407C52.2973 100.243 52.8649 100.099 53.4325 99.9559C54 99.8124 54.5676 99.6689 55.1352 99.5049C56.3514 99.1769 57.5676 99.5869 58.3784 100.571C59.5136 102.129 60.973 103.523 62.5136 104.753C63.4865 105.491 63.8919 106.803 63.5676 108.033C63.2433 109.181 62.919 110.329 62.6757 111.477L62.4325 112.297L69 115.003L69.4054 114.265C69.6225 113.889 69.8513 113.513 70.083 113.132C70.4572 112.517 70.8387 111.89 71.1892 111.231C71.8379 110.165 73.0541 109.509 74.2703 109.673C76.2163 109.919 78.2433 109.919 80.1892 109.673C81.4054 109.509 82.6217 110.165 83.2703 111.231C83.5541 111.723 83.8582 112.236 84.1622 112.748C84.4663 113.261 84.7703 113.773 85.0541 114.265L85.4595 115.003L92.0271 112.297L91.7838 111.477C91.6217 110.903 91.4798 110.329 91.3379 109.755C91.196 109.181 91.0541 108.607 90.8919 108.033C90.5676 106.803 90.973 105.573 91.946 104.753C93.4865 103.605 94.8649 102.129 96.0811 100.571C96.8109 99.5869 98.1081 99.1769 99.3244 99.5049C100.459 99.8329 101.595 100.161 102.73 100.407ZM77.4325 99.9969C85.2689 99.9969 91.6217 93.572 91.6217 85.6465C91.6217 77.7209 85.2689 71.296 77.4325 71.296C69.596 71.296 63.2433 77.7209 63.2433 85.6465C63.2433 93.572 69.596 99.9969 77.4325 99.9969Z" fill="#EEEEEE"/>
<path fill-rule="evenodd" clip-rule="evenodd" d="M140.559 44.9206L141.157 44.9212L141.64 39.8743L141.063 39.746C140.767 39.6735 140.469 39.5929 140.167 39.5113C139.679 39.3796 139.182 39.2452 138.67 39.1384C137.825 38.9099 137.139 38.2096 137.003 37.3433C136.774 35.9604 136.363 34.5719 135.805 33.2886C135.448 32.4887 135.587 31.5393 136.224 30.8626C136.496 30.5686 136.778 30.2565 137.06 29.9445C137.341 29.6324 137.623 29.3203 137.895 29.0263L138.307 28.5991L135.165 24.6481L134.665 24.9808C134.314 25.2081 133.958 25.4215 133.602 25.6349C133.246 25.8484 132.891 26.0618 132.539 26.2891C131.797 26.8159 130.875 26.7317 130.129 26.2312C129.048 25.4083 127.781 24.763 126.491 24.2453C125.684 23.9446 125.147 23.139 125.12 22.2394C125.11 21.3955 125.1 20.5514 125.035 19.724L125.035 19.1188L120.045 18.6307L119.918 19.2136C119.847 19.5129 119.767 19.8147 119.686 20.1201C119.556 20.6134 119.423 21.1163 119.318 21.634C119.092 22.4889 118.399 23.1823 117.543 23.3202C116.175 23.5521 114.802 23.9672 113.534 24.5323C112.743 24.8924 111.804 24.7527 111.135 24.1079C110.844 23.8328 110.536 23.5479 110.227 23.263C109.918 22.9782 109.61 22.6933 109.319 22.4181L108.897 22.0012L104.99 25.179L105.319 25.6847C105.544 26.0402 105.755 26.4 105.966 26.7597C106.177 27.1195 106.388 27.4792 106.613 27.8348C107.079 28.6015 107.05 29.5177 106.555 30.2724C105.742 31.3654 105.104 32.6474 104.592 33.9518C104.295 34.7677 103.498 35.3111 102.609 35.338C101.774 35.3483 100.939 35.3586 100.121 35.4244L99.5229 35.4238L99.0404 40.4706L99.6168 40.5989C99.9127 40.6714 100.211 40.752 100.513 40.8336C101.001 40.9654 101.498 41.0997 102.01 41.2065C102.855 41.435 103.541 42.1353 103.677 43.0017C103.906 44.3845 104.317 45.7731 104.876 47.0563C105.232 47.8562 105.039 48.8222 104.456 49.4824C104.184 49.7764 103.902 50.0884 103.621 50.4005C103.339 50.7126 103.057 51.0246 102.785 51.3187L102.373 51.7458L105.515 55.6968L106.015 55.3642C106.367 55.1369 106.722 54.9234 107.078 54.71C107.434 54.4966 107.789 54.2832 108.141 54.0559C108.899 53.5846 109.805 53.6133 110.551 54.1138C111.632 54.9366 112.9 55.582 114.189 56.0997C114.996 56.4003 115.533 57.206 115.56 58.1055C115.57 58.9495 115.58 59.7935 115.645 60.6209L115.645 61.2262L120.635 61.7142L120.762 61.1313C120.833 60.832 120.913 60.5303 120.994 60.2248C121.124 59.7316 121.257 59.2287 121.363 58.711C121.588 57.8561 122.281 57.1627 123.138 57.0247C124.505 56.7929 125.878 56.3778 127.147 55.8127C127.938 55.4525 128.893 55.6478 129.545 56.237C129.836 56.5122 130.145 56.7971 130.453 57.082C130.762 57.3668 131.07 57.6517 131.361 57.9268L131.783 58.3437L135.69 55.1659L135.361 54.6603C135.136 54.3047 134.925 53.9449 134.714 53.5852C134.503 53.2255 134.292 52.8657 134.067 52.5101C133.602 51.7434 133.63 50.8273 134.125 50.0726C134.938 48.9795 135.576 47.6975 136.088 46.3931C136.386 45.5772 137.182 45.0338 138.072 45.007C138.906 44.9967 139.741 44.9864 140.559 44.9206ZM123.342 49.8232C128.65 48.2184 131.667 42.5658 130.08 37.1976C128.493 31.8294 122.904 28.7785 117.596 30.3832C112.288 31.988 109.272 37.6406 110.858 43.0088C112.445 48.377 118.034 51.4279 123.342 49.8232Z" fill="#EEEEEE"/>
</svg>
