<svg width="16" height="16" viewBox="0 0 16 16" fill="currentColor" xmlns="http://www.w3.org/2000/svg">
<path d="M12.5 8.32145C12.5 8.49912 12.3562 8.64289 12.1786 8.64289H8.64286V12.1786C8.64286 12.3563 8.49909 12.5 8.32142 12.5H7.67858C7.50091 12.5 7.35714 12.3563 7.35714 12.1786V8.64286H3.82144C3.64377 8.64286 3.5 8.49909 3.5 8.32142V7.67858C3.5 7.50091 3.64377 7.35714 3.82144 7.35714H7.35714V3.82144C7.35714 3.64377 7.50091 3.5 7.67858 3.5H8.32142C8.49909 3.5 8.64286 3.64377 8.64286 3.82144V7.35714H12.1786C12.3562 7.35714 12.5 7.50091 12.5 7.67858V8.32145Z" />
<path fill-rule="evenodd" clip-rule="evenodd" d="M8 15C11.866 15 15 11.866 15 8C15 4.13401 11.866 1 8 1C4.13401 1 1 4.13401 1 8C1 11.866 4.13401 15 8 15ZM8 16C12.4183 16 16 12.4183 16 8C16 3.58172 12.4183 0 8 0C3.58172 0 0 3.58172 0 8C0 12.4183 3.58172 16 8 16Z" />
</svg>
