<svg width="14" height="16" viewBox="0 0 14 16" fill="currentColor" xmlns="http://www.w3.org/2000/svg">
<path d="M1.99372 15.9999H11.3395C12.4401 16.0088 13.3241 15.1377 13.3332 14.0533C13.3332 14.0444 13.3332 14.0444 13.3332 14.0355V1.9645C13.3422 0.88006 12.4581 0.00895624 11.3575 6.74256e-05C11.3485 6.74256e-05 11.3485 6.74256e-05 11.3395 6.74256e-05H1.99372C0.893151 -0.00882139 0.00908946 0.862282 6.84286e-05 1.94672C6.84286e-05 1.95561 6.84286e-05 1.95561 6.84286e-05 1.9645V14.0355C-0.0089526 15.1199 0.875108 15.991 1.97567 15.9999C1.9847 15.9999 1.9847 15.9999 1.99372 15.9999ZM0.920214 1.9645C0.920214 1.37783 1.39833 0.906726 1.99372 0.906726H11.3395C11.9349 0.906726 12.413 1.37783 12.413 1.9645V14.0355C12.413 14.6222 11.9349 15.0933 11.3395 15.0933H1.99372C1.39833 15.0933 0.920214 14.6222 0.920214 14.0355V1.9645Z" />
<path d="M10.1672 13.3871C10.0319 13.3871 9.88754 13.3248 9.80635 13.2093C9.77027 13.1648 6.5227 8.80932 5.28682 7.10267C4.98913 6.70267 4.69143 6.48934 4.39374 6.48045C3.99681 6.47156 3.61793 6.81823 3.50968 6.96045C3.50066 6.96934 3.49163 6.98711 3.47359 6.996L0.884558 9.54709C0.704138 9.72487 0.424486 9.72487 0.244065 9.54709C0.0636448 9.36932 0.0636448 9.09376 0.244065 8.91599L2.81506 6.38267C2.93233 6.24045 3.55478 5.57379 4.40276 5.59157C4.99815 5.60935 5.53941 5.93823 6.0085 6.58712C7.23536 8.28488 10.492 12.6404 10.528 12.6848C10.6724 12.8804 10.6363 13.1648 10.4288 13.3071C10.3476 13.3604 10.2574 13.3871 10.1672 13.3871Z" />
<path d="M12.6119 10.4626C12.4676 10.4626 12.3232 10.3915 12.242 10.2671C12.242 10.2582 11.8812 9.75154 10.7897 8.47155C10.5281 8.16933 10.2484 8.00933 9.96875 7.99155C9.50868 7.96488 9.12077 8.31155 9.12077 8.32044C9.11175 8.32933 9.10273 8.33821 9.08469 8.3471L8.09238 9.12043C7.89392 9.27154 7.61426 9.23598 7.46091 9.04932C7.30755 8.85377 7.34363 8.57821 7.53308 8.4271L8.50735 7.67155C8.63364 7.556 9.22001 7.076 10.0139 7.11156C10.5551 7.13822 11.0513 7.40489 11.4753 7.91155C12.6029 9.23598 12.9728 9.76042 12.9818 9.7782C13.1261 9.98265 13.072 10.2582 12.8645 10.3915C12.7833 10.4449 12.7021 10.4626 12.6119 10.4626Z" />
<path d="M9.12976 6.13377C8.04723 6.13377 7.17219 5.27155 7.17219 4.2049C7.17219 3.13824 8.04723 2.27602 9.12976 2.27602C10.2123 2.27602 11.0873 3.13824 11.0873 4.2049C11.0873 5.27155 10.2033 6.13377 9.12976 6.13377ZM9.12976 3.1649C8.55241 3.1649 8.07429 3.62712 8.07429 4.2049C8.07429 4.77378 8.54339 5.24489 9.12976 5.24489C9.71612 5.24489 10.1852 4.78267 10.1852 4.2049C10.1852 3.62712 9.7071 3.1649 9.12976 3.1649Z" />
</svg>
