<svg width="16" height="16" viewBox="0 0 16 16" fill="currentColor" xmlns="http://www.w3.org/2000/svg">
<path d="M3.68428 14.755C3.26152 14.58 2.87398 14.3 2.52168 13.95C2.06369 13.495 1.74661 12.97 1.60569 12.375C1.46477 11.78 1.46477 11.15 1.60569 10.555C1.74661 9.96 2.06369 9.435 2.52168 8.98L9.7439 1.805C10.2724 1.28 10.9417 1 11.7168 1C12.4919 1 13.126 1.28 13.6897 1.805C14.2534 2.33 14.5 2.995 14.5 3.765C14.5 4.535 14.2182 5.165 13.6897 5.69L7.55962 11.815C7.17209 12.2 6.71409 12.375 6.15041 12.375C5.58672 12.375 5.12873 12.2 4.74119 11.815C4.35366 11.43 4.17751 10.975 4.17751 10.415C4.17751 9.855 4.35366 9.4 4.74119 9.015L9.42683 4.325C9.49729 4.255 9.56775 4.22 9.63821 4.22C9.70867 4.22 9.81436 4.255 9.84959 4.325L10.0257 4.465C10.0962 4.535 10.1314 4.605 10.1314 4.71C10.1314 4.815 10.0962 4.885 10.0257 4.92L5.34011 9.61C5.12873 9.82 5.02304 10.1 5.02304 10.38C5.02304 10.66 5.12873 10.94 5.34011 11.15C5.55149 11.36 5.83333 11.465 6.11518 11.465C6.39702 11.465 6.67886 11.36 6.89024 11.15L13.0203 5.095C13.3726 4.71 13.584 4.255 13.584 3.73C13.584 3.205 13.4079 2.785 13.0203 2.4C12.6328 2.015 12.2453 1.875 11.7168 1.875C11.1883 1.875 10.7304 2.05 10.3428 2.435L3.15583 9.575C2.62737 10.1 2.38076 10.73 2.38076 11.465C2.38076 12.2 2.62737 12.83 3.15583 13.355C3.68428 13.88 4.31843 14.125 5.05827 14.125C5.7981 14.125 6.43225 13.88 6.9607 13.355L12.9499 7.405C13.0203 7.335 13.0908 7.3 13.1612 7.3C13.2317 7.3 13.3374 7.335 13.4079 7.405L13.5488 7.58C13.6192 7.65 13.6545 7.72 13.6545 7.79C13.6545 7.86 13.6192 7.965 13.5488 8L7.55962 13.95C7.24255 14.3 6.85501 14.545 6.39702 14.72C5.93902 14.895 5.51626 15 5.05827 15C4.60027 15 4.14228 14.93 3.68428 14.755Z" />
</svg>
