<svg width="16" height="16" viewBox="0 0 16 16" fill="currentColor" xmlns="http://www.w3.org/2000/svg">
<path d="M11.4267 4.49887H14V12.8115C14 13.4149 13.7899 13.9283 13.3698 14.3561C12.9497 14.7839 12.4464 15 11.8556 15H4.14442C3.55361 15 3.05033 14.7839 2.6302 14.3561C2.21007 13.9283 2 13.4104 2 12.8115V4.49887H4.5733C4.5733 3.85944 4.72648 3.27404 5.02845 2.73368C5.33042 2.19781 5.74617 1.77002 6.27571 1.46381C6.80525 1.15761 7.37418 1 8 1C8.62582 1 9.19912 1.1531 9.72867 1.46381C10.2582 1.77453 10.6696 2.19781 10.9759 2.73368C11.2779 3.27404 11.4267 3.85944 11.4267 4.49887ZM13.1422 12.8115V5.37247H11.4267V6.68286C11.4267 6.80894 11.3873 6.91701 11.3042 6.99807C11.221 7.07912 11.1203 7.11965 10.9978 7.11965C10.8709 7.11965 10.7702 7.07912 10.6915 6.99807C10.6127 6.91701 10.5689 6.81344 10.5689 6.68286V5.37247H5.4267V6.68286C5.4267 6.80894 5.38731 6.91701 5.30416 6.99807C5.22101 7.07912 5.12035 7.11965 4.99781 7.11965C4.8709 7.11965 4.77024 7.07912 4.69147 6.99807C4.61269 6.91701 4.56893 6.81344 4.56893 6.68286V5.37247H2.85777V12.807C2.85777 13.1718 2.98468 13.4825 3.23414 13.7346C3.48359 13.9913 3.78556 14.1174 4.14442 14.1174H11.86C12.2188 14.1174 12.5208 13.9913 12.7702 13.7346C13.0153 13.487 13.1422 13.1763 13.1422 12.8115ZM8 1.87359C7.28665 1.87359 6.67834 2.13027 6.17943 2.63911C5.68053 3.15246 5.4267 3.76938 5.4267 4.49887H10.5689C10.5689 3.76938 10.3195 3.14796 9.82057 2.63911C9.32166 2.13027 8.71335 1.87359 8 1.87359Z" />
</svg>
