<svg width="16" height="16" viewBox="0 0 16 16" fill="currentColor" xmlns="http://www.w3.org/2000/svg">
<path d="M13.3839 10.0508C13.7857 10.4883 14 10.9531 14 11.4453C14 11.9375 13.8125 12.375 13.4643 12.7305C13.1161 13.0859 12.6875 13.25 12.2054 13.25H9.71429C9.71429 13.7422 9.52679 14.1797 9.20536 14.5078C8.88393 14.8359 8.48214 15 8 15C7.51786 15 7.08929 14.8359 6.76786 14.5078C6.44643 14.1797 6.28571 13.7422 6.28571 13.25H3.79464C3.28571 13.25 2.85714 13.0859 2.50893 12.7305C2.16071 12.375 2 11.9375 2 11.4453C2 10.9531 2.1875 10.4883 2.61607 10.0508C2.80357 9.85938 2.9375 9.69531 3.04464 9.53125C3.20536 9.28516 3.3125 8.98438 3.39286 8.60156C3.47321 8.16406 3.52679 7.58984 3.52679 6.87891C3.52679 6.14062 3.6875 5.45703 4.00893 4.80078C4.33036 4.14453 4.78571 3.625 5.375 3.1875C5.9375 2.75 6.58036 2.47656 7.30357 2.36719C7.19643 2.23047 7.14286 2.06641 7.14286 1.875C7.14286 1.65625 7.22321 1.4375 7.38393 1.27344C7.54464 1.10938 7.75893 1 8 1C8.21429 1 8.42857 1.10938 8.58929 1.27344C8.75 1.4375 8.85714 1.65625 8.85714 1.875C8.85714 2.06641 8.80357 2.23047 8.69643 2.36719C9.39286 2.47656 10.0357 2.75 10.625 3.1875C11.1875 3.625 11.6429 4.14453 11.9643 4.80078C12.2857 5.45703 12.4732 6.14062 12.4732 6.87891C12.4732 7.58984 12.5 8.16406 12.6071 8.60156C12.6607 8.98438 12.7946 9.28516 12.9554 9.53125C13.0357 9.69531 13.1696 9.85938 13.3839 10.0508ZM8 13.9062C8.16071 13.9062 8.32143 13.8516 8.45536 13.7148C8.5625 13.6055 8.64286 13.4414 8.64286 13.25H7.35714C7.35714 13.4414 7.41071 13.6055 7.54464 13.7148C7.65179 13.8516 7.8125 13.9062 8 13.9062ZM12.2054 11.9375C12.4196 11.9375 12.5804 11.8555 12.6607 11.6367C12.7411 11.418 12.7143 11.2266 12.5536 11.0625C12.2321 10.7344 12.0179 10.4609 11.8571 10.2148C11.6429 9.88672 11.4821 9.47656 11.375 8.98438C11.2411 8.4375 11.1875 7.72656 11.1875 6.87891C11.1875 6.30469 11.0268 5.75781 10.7589 5.26562C10.4643 4.77344 10.0625 4.36328 9.58036 4.0625C9.09821 3.78906 8.5625 3.625 8 3.625C7.41071 3.625 6.875 3.78906 6.39286 4.0625C5.91071 4.36328 5.50893 4.77344 5.24107 5.26562C4.94643 5.75781 4.8125 6.30469 4.8125 6.87891C4.8125 7.72656 4.73214 8.41016 4.625 8.95703C4.51786 9.44922 4.35714 9.88672 4.14286 10.2148C3.98214 10.4609 3.74107 10.7344 3.44643 11.0625C3.28571 11.2266 3.23214 11.418 3.3125 11.6367C3.39286 11.8555 3.55357 11.9375 3.79464 11.9375H12.2054Z" />
</svg>
