<svg width="16" height="16" viewBox="0 0 16 16" fill="currentColor" xmlns="http://www.w3.org/2000/svg">
<path d="M2.35714 14.5C2.14286 14.5 1.92857 14.4286 1.75 14.25C1.57143 14.0714 1.5 13.8929 1.5 13.6429V5.64286C1.5 5.35714 1.57143 5.07143 1.71429 4.82143L3.14286 2.10714C3.21429 1.92857 3.28571 1.78571 3.46429 1.67857C3.64286 1.53571 3.78571 1.5 3.96429 1.5H12.0357C12.2143 1.5 12.3571 1.53571 12.5357 1.64286C12.6786 1.75 12.7857 1.89286 12.8214 2.07143L14.2857 4.78571C14.4286 5.03571 14.5 5.32143 14.5 5.60714V13.6429C14.5 13.8571 14.4286 14.0714 14.25 14.25C14.0714 14.4286 13.8929 14.5 13.6429 14.5H2.35714ZM2.25 13.75H13.75V6H9.78571V8C9.78571 8.21429 9.71428 8.42857 9.53571 8.60714C9.35714 8.78571 9.17857 8.85714 8.92857 8.85714H7.03571C6.82143 8.85714 6.60714 8.78571 6.42857 8.60714C6.25 8.42857 6.17857 8.25 6.17857 8V6H2.25V13.75ZM6.96429 8.10714H9.03571V6.03571H6.96429V8.10714ZM9.75 5.28571H13.7143L12.1071 2.25H9.35714L9.75 5.28571ZM7 5.28571H9L8.60714 2.25H7.35714L7 5.28571ZM2.28571 5.28571H6.25L6.64286 2.25H3.89286L2.28571 5.28571Z" />
</svg>
