<svg width="16" height="16" viewBox="0 0 16 16" fill="currentColor" xmlns="http://www.w3.org/2000/svg">
<path d="M12.1433 1C12.51 1 12.84 1.13965 13.1333 1.38404C13.3533 1.62843 13.5 1.94264 13.5 2.32668V13.6733C13.5 14.0224 13.3533 14.3367 13.0967 14.616C12.84 14.8603 12.51 15 12.1067 15H3.89333C3.52667 15 3.19667 14.8603 2.90333 14.616C2.64667 14.3367 2.5 14.0224 2.5 13.6733V2.32668C2.5 1.97756 2.64667 1.66334 2.90333 1.38404C3.16 1.13965 3.49 1 3.89333 1H12.1433ZM3.89333 1.87282C3.74667 1.87282 3.63667 1.90773 3.56333 2.01247C3.49 2.11721 3.41667 2.18703 3.41667 2.32668V4.49127H12.5833V2.32668C12.5833 2.18703 12.5467 2.08229 12.4367 2.01247C12.3267 1.94264 12.2533 1.87282 12.1067 1.87282H3.89333ZM12.1433 14.0923C12.29 14.0923 12.4 14.0574 12.4733 13.9526C12.5467 13.8479 12.62 13.7781 12.62 13.6384V5.36409H3.45333V13.6733C3.45333 13.813 3.49 13.9177 3.6 13.9875C3.71 14.0574 3.78333 14.1272 3.93 14.1272H12.1433V14.0923ZM6.16667 6.55112C6.16667 6.44638 6.13 6.37656 6.05667 6.30673C5.98333 6.27182 5.91 6.23691 5.83667 6.23691H4.66333C4.55333 6.23691 4.48 6.27182 4.40667 6.34165C4.37 6.41147 4.33333 6.4813 4.33333 6.55112V7.63342C4.33333 7.73815 4.37 7.80798 4.44333 7.87781C4.51667 7.94763 4.59 7.98254 4.66333 7.98254H5.8C5.91 7.98254 5.98333 7.94763 6.05667 7.87781C6.13 7.80798 6.16667 7.73815 6.16667 7.63342V6.55112ZM6.16667 9.16958C6.16667 9.06484 6.13 8.99501 6.05667 8.92519C5.98333 8.85536 5.91 8.82045 5.8 8.82045H4.66333C4.55333 8.82045 4.48 8.85536 4.40667 8.92519C4.37 9.02993 4.33333 9.09975 4.33333 9.16958V10.2519C4.33333 10.3566 4.37 10.4264 4.44333 10.4963C4.51667 10.5661 4.59 10.601 4.7 10.601H5.83667C5.94667 10.601 6.02 10.5661 6.09333 10.4963C6.13 10.4264 6.16667 10.3566 6.16667 10.2868V9.16958ZM6.16667 11.788C6.16667 11.6833 6.13 11.6135 6.05667 11.5436C5.98333 11.5087 5.91 11.4738 5.83667 11.4738H4.66333C4.55333 11.4738 4.48 11.5087 4.40667 11.5786C4.37 11.6484 4.33333 11.7182 4.33333 11.788V12.8703C4.33333 12.9751 4.37 13.0449 4.44333 13.1147C4.51667 13.1845 4.59 13.2195 4.66333 13.2195H5.8C5.91 13.2195 5.98333 13.1845 6.05667 13.1147C6.13 13.0449 6.16667 12.9751 6.16667 12.8703V11.788ZM8.91667 6.55112C8.91667 6.44638 8.88 6.37656 8.80667 6.30673C8.73333 6.27182 8.66 6.23691 8.58667 6.23691H7.45C7.34 6.23691 7.26667 6.27182 7.19333 6.34165C7.12 6.41147 7.08333 6.4813 7.08333 6.58604V7.66833C7.08333 7.77307 7.12 7.84289 7.19333 7.91272C7.26667 7.98254 7.34 8.01746 7.45 8.01746H8.58667C8.69667 8.01746 8.77 7.98254 8.84333 7.91272C8.91667 7.84289 8.95333 7.77307 8.95333 7.66833V6.55112H8.91667ZM8.91667 9.16958C8.91667 9.06484 8.88 8.99501 8.80667 8.92519C8.73333 8.85536 8.66 8.82045 8.55 8.82045H7.41333C7.30333 8.82045 7.23 8.85536 7.15667 8.92519C7.08333 8.99501 7.04667 9.06484 7.04667 9.16958V10.2519C7.04667 10.3566 7.08333 10.4264 7.15667 10.4963C7.23 10.5661 7.30333 10.601 7.41333 10.601H8.55C8.66 10.601 8.73333 10.5661 8.80667 10.4963C8.88 10.4264 8.91667 10.3566 8.91667 10.2519V9.16958ZM8.91667 11.788C8.91667 11.6833 8.88 11.6135 8.80667 11.5436C8.73333 11.5087 8.66 11.4738 8.58667 11.4738H7.45C7.34 11.4738 7.26667 11.5087 7.19333 11.5786C7.12 11.6484 7.08333 11.7182 7.08333 11.8229V12.9052C7.08333 13.01 7.12 13.0798 7.19333 13.1496C7.26667 13.2195 7.34 13.2544 7.45 13.2544H8.58667C8.69667 13.2544 8.77 13.2195 8.84333 13.1496C8.91667 13.0798 8.95333 13.01 8.95333 12.9052V11.788H8.91667ZM11.6667 6.55112C11.6667 6.44638 11.63 6.37656 11.5567 6.30673C11.4833 6.23691 11.41 6.202 11.3 6.202H10.1633C10.0533 6.202 9.98 6.23691 9.90667 6.30673C9.83333 6.37656 9.79667 6.44638 9.79667 6.55112V7.63342C9.79667 7.73815 9.83333 7.80798 9.90667 7.87781C9.98 7.94763 10.0533 7.98254 10.1633 7.98254H11.3C11.41 7.98254 11.4833 7.94763 11.5567 7.87781C11.63 7.80798 11.6667 7.73815 11.6667 7.63342V6.55112ZM11.6667 9.16958C11.6667 9.06484 11.63 8.99501 11.5567 8.92519C11.4833 8.85536 11.41 8.82045 11.3 8.82045H10.1633C10.0533 8.82045 9.98 8.85536 9.90667 8.92519C9.87 9.02993 9.83333 9.09975 9.83333 9.16958V12.8703C9.83333 12.9751 9.87 13.0449 9.94333 13.1147C10.0167 13.1845 10.09 13.2195 10.2 13.2195H11.3367C11.4467 13.2195 11.52 13.1845 11.5933 13.1147C11.6667 13.0449 11.7033 12.9751 11.7033 12.8703V9.16958H11.6667Z" />
</svg>
