<svg width="16" height="16" viewBox="0 0 16 16" fill="currentColor" xmlns="http://www.w3.org/2000/svg">
<path d="M12.7027 2.75414C13.0595 2.75414 13.3514 2.88652 13.6108 3.1513C13.8703 3.41608 14 3.71395 14 4.07801V13.6761C14 14.0402 13.8703 14.3381 13.6108 14.6028C13.3514 14.8676 13.0595 15 12.7027 15H3.2973C2.94054 15 2.64865 14.8676 2.38919 14.6028C2.12973 14.3381 2 14.0402 2 13.6761V4.07801C2 3.71395 2.12973 3.41608 2.38919 3.1513C2.61622 2.88652 2.94054 2.75414 3.2973 2.75414H4.59459V1.33097C4.59459 1.23168 4.62703 1.16548 4.69189 1.09929C4.75676 1.0331 4.78919 1 4.88649 1H5.11351C5.21081 1 5.27568 1.0331 5.34054 1.09929C5.40541 1.16548 5.43784 1.23168 5.43784 1.33097V2.75414H10.5622V1.33097C10.5622 1.23168 10.5946 1.16548 10.6595 1.09929C10.7243 1.0331 10.7892 1 10.8865 1H11.0811C11.1784 1 11.2432 1.0331 11.3081 1.09929C11.373 1.16548 11.4054 1.23168 11.4054 1.33097V2.75414H12.7027ZM3.2973 3.61466C3.16757 3.61466 3.07027 3.64775 2.97297 3.74705C2.90811 3.81324 2.84324 3.94563 2.84324 4.04492V5.36879H13.1243V4.04492C13.1243 3.91253 13.0919 3.81324 12.9946 3.74705C12.9297 3.64775 12.8324 3.61466 12.7027 3.61466H3.2973ZM12.7027 14.1064C12.8324 14.1064 12.9297 14.0733 12.9946 13.974C13.0595 13.9078 13.1243 13.7754 13.1243 13.6761V6.22931H2.84324V13.643C2.84324 13.7754 2.87568 13.8747 2.97297 13.9409C3.03784 14.0071 3.16757 14.0733 3.26486 14.0733H12.7027V14.1064ZM5.95676 9.73759C6.05405 9.73759 6.11892 9.70449 6.18378 9.6383C6.24865 9.5721 6.28108 9.50591 6.28108 9.40662V8.31442C6.28108 8.21513 6.24865 8.14894 6.18378 8.08274C6.11892 8.01655 6.05405 7.98345 5.95676 7.98345H4.88649C4.78919 7.98345 4.72432 8.01655 4.65946 8.08274C4.59459 8.14894 4.56216 8.21513 4.56216 8.31442V9.40662C4.56216 9.50591 4.59459 9.5721 4.65946 9.6383C4.72432 9.70449 4.78919 9.73759 4.88649 9.73759H5.95676ZM5.95676 12.3522C6.05405 12.3522 6.11892 12.3191 6.18378 12.253C6.24865 12.1868 6.28108 12.1206 6.28108 12.0213V10.9291C6.28108 10.8298 6.24865 10.7636 6.18378 10.6974C6.11892 10.6312 6.05405 10.5981 5.95676 10.5981H4.88649C4.78919 10.5981 4.72432 10.6312 4.65946 10.6974C4.59459 10.7636 4.56216 10.8298 4.56216 10.9291V12.0213C4.56216 12.1206 4.59459 12.1868 4.65946 12.253C4.72432 12.3191 4.78919 12.3522 4.88649 12.3522H5.95676ZM8.51892 9.73759C8.61622 9.73759 8.68108 9.70449 8.74595 9.6383C8.81081 9.5721 8.84324 9.50591 8.84324 9.40662V8.31442C8.84324 8.21513 8.81081 8.14894 8.74595 8.08274C8.68108 8.01655 8.61622 7.98345 8.51892 7.98345H7.44865C7.35135 7.98345 7.28649 8.01655 7.22162 8.08274C7.15676 8.14894 7.12432 8.21513 7.12432 8.31442V9.40662C7.12432 9.50591 7.15676 9.5721 7.22162 9.6383C7.28649 9.70449 7.35135 9.73759 7.44865 9.73759H8.51892ZM8.51892 12.3522C8.61622 12.3522 8.68108 12.3191 8.74595 12.253C8.81081 12.1868 8.84324 12.1206 8.84324 12.0213V10.9291C8.84324 10.8298 8.81081 10.7636 8.74595 10.6974C8.68108 10.6312 8.61622 10.5981 8.51892 10.5981H7.44865C7.35135 10.5981 7.28649 10.6312 7.22162 10.6974C7.15676 10.7636 7.12432 10.8298 7.12432 10.9291V12.0213C7.12432 12.1206 7.15676 12.1868 7.22162 12.253C7.28649 12.3191 7.35135 12.3522 7.44865 12.3522H8.51892ZM11.0811 9.73759C11.1784 9.73759 11.2432 9.70449 11.3081 9.6383C11.373 9.5721 11.4054 9.50591 11.4054 9.40662V8.31442C11.4054 8.21513 11.373 8.14894 11.3081 8.08274C11.2432 8.01655 11.1784 7.98345 11.0811 7.98345H10.0108C9.91351 7.98345 9.84865 8.01655 9.78378 8.08274C9.71892 8.14894 9.68649 8.21513 9.68649 8.31442V9.40662C9.68649 9.50591 9.71892 9.5721 9.78378 9.6383C9.84865 9.70449 9.91351 9.73759 10.0108 9.73759H11.0811ZM11.0811 12.3522C11.1784 12.3522 11.2432 12.3191 11.3081 12.253C11.373 12.1868 11.4054 12.1206 11.4054 12.0213V10.9291C11.4054 10.8298 11.373 10.7636 11.3081 10.6974C11.2432 10.6312 11.1784 10.5981 11.0811 10.5981H10.0108C9.91351 10.5981 9.84865 10.6312 9.78378 10.6974C9.71892 10.7636 9.68649 10.8298 9.68649 10.9291V12.0213C9.68649 12.1206 9.71892 12.1868 9.78378 12.253C9.84865 12.3191 9.91351 12.3522 10.0108 12.3522H11.0811Z" />
</svg>
