<svg width="16" height="16" viewBox="0 0 16 16" fill="currentColor" xmlns="http://www.w3.org/2000/svg">
<path fill-rule="evenodd" clip-rule="evenodd" d="M8.05775 10.4484L7.899 10.4229C6.17152 10.1464 4.8578 8.81995 4.5611 7.05305L4.58123 6.83407L4.74246 6.82672C5.32888 6.79998 5.79364 6.30993 5.79364 5.71795V3.10988C5.79364 2.49793 5.29923 2 4.69162 2H2.10202C1.49441 2 1 2.49793 1 3.10988V6.36996C1 10.5771 4.39864 14 8.57601 14H11.813C12.4206 14 12.915 13.5021 12.915 12.8901V10.2821C12.915 9.67011 12.4206 9.17217 11.813 9.17217H9.22341C8.6326 9.17217 8.14512 9.64436 8.12189 10.2388L8.05775 10.4484ZM9.82081 4.41391C9.82081 4.92597 9.40814 5.34158 8.89971 5.34158C8.39128 5.34158 7.97861 4.92597 7.97861 4.41391C7.97861 3.90186 8.39128 3.48625 8.89971 3.48625C9.40814 3.48625 9.82081 3.90186 9.82081 4.41391ZM12.4104 4.41391C12.4104 4.92597 11.9977 5.34158 11.4893 5.34158C10.9809 5.34158 10.5682 4.92597 10.5682 4.41391C10.5682 3.90186 10.9809 3.48625 11.4893 3.48625C11.9977 3.48625 12.4104 3.90186 12.4104 4.41391ZM14.0789 5.34158C14.5873 5.34158 15 4.92597 15 4.41391C15 3.90186 14.5873 3.48625 14.0789 3.48625C13.5705 3.48625 13.1578 3.90186 13.1578 4.41391C13.1578 4.92597 13.5705 5.34158 14.0789 5.34158ZM1.95925 2.91573L1.90925 2.96609V6.36996C1.90925 10.0724 4.89979 13.0843 8.57601 13.0843H11.9565L12.0057 10.1382L9.08064 10.0879L9.03064 10.9341C9.03064 11.1868 8.82691 11.3919 8.57601 11.3919C5.77587 11.3919 3.63452 9.23872 3.58957 6.37723C3.58775 6.25438 3.63474 6.13615 3.72055 6.04789C3.80533 5.96114 3.92215 5.91209 4.04422 5.91209H4.83439L4.88439 2.96609L1.95925 2.91573Z" />
</svg>
