<svg width="16" height="16" viewBox="0 0 16 16" fill="currentColor" xmlns="http://www.w3.org/2000/svg">
<path d="M13.1709 1C13.3891 1 13.5636 1.09032 13.7382 1.22581C13.9127 1.36129 14 1.5871 14 1.8129V14.1871C14 14.4129 13.9127 14.6387 13.7382 14.7742C13.5636 14.9097 13.3891 15 13.1709 15C12.9964 15 2.96 15 2.82909 15C2.61091 15 2.43636 14.9097 2.26182 14.7742C2.08727 14.6387 2 14.4581 2 14.2323V1.8129C2 1.5871 2.08727 1.36129 2.26182 1.22581C2.39273 1.09032 2.56727 1 2.78545 1C2.96 1 3.09091 1.04516 3.22182 1.18065L4.4 2.03871L5.40364 1.27097C5.66545 1.09032 5.92727 1 6.18909 1C6.45091 1 6.71273 1.09032 6.93091 1.22581L7.97818 1.99355L9.02545 1.22581C9.24364 1.09032 9.46182 1 9.76727 1C10.0727 1 10.2909 1.09032 10.5091 1.22581L11.5127 1.99355L12.6909 1.13548C12.8655 1.04516 12.9964 1 13.1709 1ZM13.1273 14.0968V1.90323L11.5564 3.03226L10.0291 1.90323C9.94182 1.90323 9.85455 1.85806 9.76727 1.85806C9.68 1.85806 9.59273 1.90323 9.50546 1.94839L7.97818 3.07742L6.45091 1.94839C6.36364 1.90323 6.27636 1.85806 6.18909 1.85806C6.10182 1.85806 6.01455 1.90323 5.97091 1.94839L4.44364 3.07742L2.87273 1.94839V14.1419H13.1273V14.0968ZM11.2073 4.92903C11.2509 4.92903 11.2945 4.97419 11.3382 5.01935C11.3818 5.06452 11.4255 5.10968 11.4255 5.15484V5.60645C11.4255 5.65161 11.3818 5.69677 11.3382 5.74194C11.2945 5.7871 11.2509 5.83226 11.2073 5.83226H4.79273C4.74909 5.83226 4.70545 5.83226 4.66182 5.74194C4.61818 5.69677 4.57455 5.65161 4.57455 5.60645V5.15484C4.57455 5.10968 4.57455 5.06452 4.61818 5.01935C4.66182 4.97419 4.70545 4.92903 4.74909 4.92903H11.2073ZM11.2073 7.59355C11.2509 7.59355 11.2945 7.63871 11.3382 7.68387C11.3818 7.72903 11.4255 7.77419 11.4255 7.81936V8.27097C11.4255 8.31613 11.3818 8.36129 11.3382 8.40645C11.2945 8.45161 11.2509 8.49677 11.2073 8.49677H4.79273C4.74909 8.49677 4.70545 8.45161 4.66182 8.40645C4.61818 8.36129 4.57455 8.31613 4.57455 8.27097V7.81936C4.57455 7.77419 4.61818 7.72903 4.66182 7.68387C4.70545 7.63871 4.74909 7.59355 4.79273 7.59355H11.2073ZM11.2073 10.2129C11.2509 10.2129 11.2945 10.2581 11.3382 10.3032C11.3818 10.3484 11.4255 10.3935 11.4255 10.4387V10.8903C11.4255 10.9355 11.3818 10.9806 11.3382 11.0258C11.2945 11.071 11.2509 11.1161 11.2073 11.1161H4.79273C4.74909 11.1161 4.70545 11.1161 4.66182 11.0258C4.61818 10.9806 4.57455 10.9355 4.57455 10.8903V10.4387C4.57455 10.3935 4.61818 10.3484 4.66182 10.3032C4.70545 10.2581 4.74909 10.2129 4.79273 10.2129H11.2073Z" />
</svg>
