<svg width="16" height="16" viewBox="0 0 16 16" fill="currentColor" xmlns="http://www.w3.org/2000/svg">
<path d="M14.4286 3.6327C14.6057 3.6327 14.7532 3.69431 14.8713 3.84834C14.9894 4.00237 15.0189 4.1564 14.9894 4.34123L13.9564 9.63981C13.9269 9.76303 13.8678 9.88626 13.7498 9.97867C13.6317 10.0711 13.5137 10.1327 13.3956 10.1327H5.30896L5.60409 11.7654H12.8054C12.9529 11.7654 13.071 11.7962 13.189 11.8886C13.3071 11.981 13.3661 12.0735 13.3956 12.2275C13.6908 12.5355 13.8678 12.936 13.8678 13.3981C13.8678 13.8602 13.6908 14.2299 13.3956 14.5379C13.1005 14.846 12.7168 15 12.2741 15C11.8314 15 11.4773 14.846 11.1526 14.5379C10.8575 14.2299 10.7099 13.8294 10.7099 13.3673C10.7099 13.09 10.7689 12.8128 10.9165 12.5663H7.3749C7.52246 12.8128 7.58149 13.09 7.58149 13.3673C7.58149 13.8294 7.43392 14.1991 7.13879 14.5379C6.84365 14.846 6.45998 15 6.01728 15C5.57458 15 5.22042 14.846 4.89577 14.5379C4.60064 14.2299 4.45307 13.8602 4.45307 13.3981C4.45307 12.9668 4.60064 12.5972 4.86626 12.2891L3.21351 2.80095H1.29513C1.20659 2.80095 1.14757 2.77014 1.08854 2.70853C1.02951 2.64692 1 2.58531 1 2.49289V2.30806C1 2.21564 1.02951 2.15403 1.08854 2.09242C1.14757 2.03081 1.20659 2 1.29513 2H3.36107C3.50864 2 3.62669 2.06161 3.74475 2.15403C3.83329 2.24645 3.92183 2.36967 3.95134 2.49289L4.15793 3.6019H14.4286V3.6327ZM13.2186 9.33175L14.1925 4.46445H4.27599L5.16139 9.33175H13.2186ZM6.84365 13.3673C6.84365 13.1517 6.75511 12.9668 6.60755 12.782C6.45998 12.5972 6.2829 12.5355 6.04679 12.5355C5.8402 12.5355 5.66312 12.628 5.48604 12.782C5.30896 12.936 5.24993 13.1209 5.24993 13.3673C5.24993 13.6137 5.33847 13.7678 5.48604 13.9526C5.63361 14.1374 5.81069 14.1991 6.04679 14.1991C6.25339 14.1991 6.43047 14.1066 6.60755 13.9526C6.78463 13.7986 6.84365 13.6137 6.84365 13.3673ZM12.3036 14.1991C12.5102 14.1991 12.6873 14.1066 12.8644 13.9526C13.0415 13.7986 13.1005 13.6137 13.1005 13.3673C13.1005 13.1209 13.012 12.9668 12.8644 12.782C12.7168 12.5972 12.5397 12.5355 12.3036 12.5355C12.097 12.5355 11.92 12.628 11.7429 12.782C11.5658 12.936 11.5068 13.1209 11.5068 13.3673C11.5068 13.6137 11.5953 13.7678 11.7429 13.9526C11.8904 14.1374 12.097 14.1991 12.3036 14.1991Z" />
</svg>
