<svg width="16" height="16" viewBox="0 0 16 16" fill="currentColor" xmlns="http://www.w3.org/2000/svg">
<path d="M7.41713 5C5.5299 5 4 6.567 4 8.5C4 10.433 5.5299 12 7.41713 12V10.8333C6.15898 10.8333 5.13904 9.78864 5.13904 8.5C5.13904 7.21135 6.15898 6.16667 7.41713 6.16667V5Z" />
<path d="M11.9733 5C10.0861 5 8.55617 6.567 8.55617 8.5C8.55617 10.433 10.0861 12 11.9733 12V10.8333C10.9118 10.8333 10.0199 10.0897 9.76699 9.08333H12V7.91667H9.76699C10.0199 6.91029 10.9118 6.16667 11.9733 6.16667V5Z" />
<path fill-rule="evenodd" clip-rule="evenodd" d="M13.7382 1.22581C13.5636 1.09032 13.3891 1 13.1709 1C12.9964 1 12.8655 1.04516 12.6909 1.13548L11.5127 1.99355L10.5091 1.22581C10.2909 1.09032 10.0727 1 9.76727 1C9.46182 1 9.24364 1.09032 9.02545 1.22581L7.97818 1.99355L6.93091 1.22581C6.71273 1.09032 6.45091 1 6.18909 1C5.92727 1 5.66545 1.09032 5.40364 1.27097L4.4 2.03871L3.22182 1.18065C3.09091 1.04516 2.96 1 2.78545 1C2.56727 1 2.39273 1.09032 2.26182 1.22581C2.08727 1.36129 2 1.5871 2 1.8129V14.2323C2 14.4581 2.08727 14.6387 2.26182 14.7742C2.43636 14.9097 2.61091 15 2.82909 15H13.1709C13.3891 15 13.5636 14.9097 13.7382 14.7742C13.9127 14.6387 14 14.4129 14 14.1871V1.8129C14 1.5871 13.9127 1.36129 13.7382 1.22581ZM13.1273 1.90323V14.1419H2.87273V1.94839L4.44364 3.07742L5.97091 1.94839C6.01455 1.90323 6.10182 1.85806 6.18909 1.85806C6.27636 1.85806 6.36364 1.90323 6.45091 1.94839L7.97818 3.07742L9.50546 1.94839C9.59273 1.90323 9.68 1.85806 9.76727 1.85806C9.81091 1.85806 9.85455 1.86935 9.89818 1.88065C9.94182 1.89194 9.98545 1.90323 10.0291 1.90323L11.5564 3.03226L13.1273 1.90323Z" />
</svg>
