<svg width="14" height="14" viewBox="0 0 14 14" fill="currentColor" xmlns="http://www.w3.org/2000/svg">
<path fill-rule="evenodd" clip-rule="evenodd" d="M8.15227 7L12.7614 11.6091C13.0795 11.9273 13.0795 12.4432 12.7614 12.7614C12.4432 13.0795 11.9273 13.0795 11.6091 12.7614L7 8.15227L2.39091 12.7614C2.07272 13.0795 1.55683 13.0795 1.23864 12.7614C0.920452 12.4432 0.920452 11.9273 1.23864 11.6091L5.84773 7L1.23864 2.39091C0.920452 2.07272 0.920452 1.55683 1.23864 1.23864C1.55683 0.920452 2.07272 0.920452 2.39091 1.23864L7 5.84773L11.6091 1.23864C11.9273 0.920452 12.4432 0.920452 12.7614 1.23864C13.0795 1.55683 13.0795 2.07272 12.7614 2.39091L8.15227 7Z" />
</svg>
