<svg width="16" height="16" viewBox="0 0 16 16" fill="currentColor" xmlns="http://www.w3.org/2000/svg">
<path d="M8 1C9.26341 1 10.4244 1.30732 11.4829 1.9561C12.5415 2.60488 13.3951 3.42439 14.0439 4.51707C14.6927 5.60976 15 6.73659 15 8C15 9.26341 14.6927 10.4244 14.0439 11.4829C13.3951 12.5415 12.5756 13.3951 11.4829 14.0439C10.3902 14.6927 9.26341 15 8 15C6.73659 15 5.57561 14.6927 4.51707 14.0439C3.45854 13.4293 2.60488 12.5756 1.9561 11.4829C1.34146 10.4244 1 9.26341 1 8C1 6.73659 1.30732 5.57561 1.9561 4.51707C2.57073 3.45854 3.42439 2.60488 4.51707 1.9561C5.57561 1.30732 6.73659 1 8 1ZM8 14.0439C9.09268 14.0439 10.1171 13.7707 11.039 13.2244C11.961 12.678 12.7122 11.9268 13.2585 11.0049C13.8049 10.0829 14.078 9.05854 14.078 7.96585C14.078 6.87317 13.8049 5.84878 13.2585 4.92683C12.7122 4.00488 11.961 3.25366 11.039 2.70732C10.1171 2.16098 9.09268 1.8878 8 1.8878C6.90732 1.8878 5.88293 2.16098 4.96098 2.70732C4.03903 3.25366 3.28781 4.00488 2.74147 4.92683C2.19512 5.84878 1.92195 6.87317 1.92195 7.96585C1.92195 9.05854 2.19512 10.0829 2.74147 11.0049C3.28781 11.9268 4.03903 12.678 4.96098 13.2244C5.84878 13.7707 6.87317 14.0439 8 14.0439ZM9.12683 7.82927C9.50244 7.93171 9.80976 8.13659 10.0146 8.40976C10.2537 8.71707 10.3561 9.05854 10.3561 9.43415C10.3561 9.9122 10.1854 10.2878 9.87805 10.6293C9.53659 10.9707 9.16098 11.1073 8.68293 11.1073H8.4439V12.2341C8.4439 12.3024 8.40976 12.3366 8.37561 12.4049C8.34147 12.439 8.27317 12.4732 8.20488 12.4732H7.76098C7.69268 12.4732 7.65854 12.439 7.59024 12.4049C7.5561 12.3707 7.52195 12.3024 7.52195 12.2341V11.1073H7.38537C6.83902 11.1073 6.36098 10.9366 5.91707 10.5951C5.84878 10.561 5.84878 10.4927 5.84878 10.4244C5.84878 10.3561 5.88293 10.2878 5.91707 10.2537L6.25854 9.94634C6.29268 9.87805 6.32683 9.87805 6.39512 9.87805C6.46342 9.87805 6.49756 9.9122 6.53171 9.94634C6.80488 10.1171 7.07805 10.2195 7.41951 10.2195H8.68293C8.8878 10.2195 9.05854 10.1512 9.22927 9.98049C9.4 9.8439 9.46829 9.63902 9.46829 9.43415C9.46829 9.26341 9.4 9.12683 9.29756 8.9561C9.19512 8.81951 9.05854 8.71707 8.88781 8.64878L6.87317 8.10244C6.49756 8 6.19025 7.79512 5.98537 7.52195C5.78049 7.24878 5.6439 6.87317 5.6439 6.49756C5.6439 6.01951 5.81463 5.6439 6.12195 5.30244C6.46341 4.96098 6.83902 4.82439 7.31707 4.82439H7.5561V3.69756C7.5561 3.62927 7.59025 3.59512 7.62439 3.52683C7.65854 3.49268 7.72683 3.45854 7.79513 3.45854H8.23902C8.30732 3.45854 8.34146 3.49268 8.40976 3.52683C8.4439 3.56098 8.47805 3.62927 8.47805 3.69756V4.82439H8.61464C9.16098 4.82439 9.63903 4.99512 10.0829 5.33659C10.1512 5.37073 10.1512 5.43902 10.1512 5.50732C10.1512 5.57561 10.1171 5.6439 10.0829 5.67805L9.74147 5.98537C9.70732 6.01951 9.67317 6.05366 9.60488 6.05366C9.53658 6.05366 9.50244 6.05366 9.46829 6.01951C9.19512 5.84878 8.92195 5.74634 8.58049 5.74634H7.31707C7.07805 5.74634 6.90732 5.81463 6.77073 5.98537C6.63415 6.12195 6.53171 6.32683 6.53171 6.53171C6.53171 6.70244 6.6 6.83902 6.70244 7.00976C6.80488 7.14634 6.94147 7.24878 7.1122 7.28293L9.12683 7.82927Z" />
</svg>
