<svg width="16" height="16" viewBox="0 0 16 16" fill="currentColor" xmlns="http://www.w3.org/2000/svg">
<path d="M13.2417 2C13.7062 2 14.1374 2.16548 14.4692 2.52955C14.8009 2.86052 15 3.29078 15 3.75414V11.5981C15 12.0615 14.8341 12.4917 14.4692 12.8227C14.1374 13.1537 13.7062 13.3522 13.2417 13.3522H9.32701L5.90995 15.9338C5.8436 15.9669 5.77725 16 5.7109 16C5.64455 16 5.54502 15.9669 5.47867 15.9007C5.41232 15.8345 5.37915 15.7683 5.37915 15.669V13.3853H2.75829C2.29384 13.3853 1.86256 13.2199 1.53081 12.8558C1.19905 12.4917 1 12.0946 1 11.5981V3.75414C1 3.29078 1.16588 2.86052 1.53081 2.52955C1.86256 2.19858 2.29384 2 2.75829 2H13.2417V2ZM14.1374 11.5981V3.75414C14.1374 3.52246 14.0379 3.32388 13.872 3.1253C13.7062 2.95981 13.5071 2.86052 13.2417 2.86052H2.75829C2.52607 2.86052 2.32701 2.95981 2.12796 3.1253C1.92891 3.29078 1.86256 3.52246 1.86256 3.75414V11.5981C1.86256 11.8298 1.96209 12.0284 2.12796 12.227C2.29384 12.4255 2.49289 12.4917 2.75829 12.4917H6.27488V14.5768L9.02844 12.4917H13.2749C13.5071 12.4917 13.7062 12.3924 13.9052 12.227C14.0379 12.0615 14.1374 11.8298 14.1374 11.5981ZM11.2844 5.93853C11.3507 5.93853 11.3839 5.97163 11.4502 6.00473C11.4834 6.03783 11.5166 6.10402 11.5166 6.17021V6.60047C11.5166 6.66667 11.4834 6.69976 11.4502 6.76596C11.4171 6.79905 11.3507 6.83215 11.2844 6.83215H4.71564C4.64929 6.83215 4.61611 6.79905 4.54976 6.76596C4.51659 6.73286 4.48341 6.66667 4.48341 6.60047V6.17021C4.48341 6.10402 4.51659 6.07092 4.54976 6.00473C4.58294 5.97163 4.64929 5.93853 4.71564 5.93853H11.2844ZM8.66351 8.55319C8.72986 8.55319 8.76303 8.58629 8.82938 8.61939C8.86256 8.65248 8.89573 8.71868 8.89573 8.78487V9.21513C8.89573 9.28132 8.86256 9.31442 8.82938 9.38061C8.79621 9.41371 8.72986 9.44681 8.66351 9.44681H4.71564C4.64929 9.44681 4.61611 9.41371 4.54976 9.38061C4.51659 9.34752 4.48341 9.28132 4.48341 9.21513V8.78487C4.48341 8.71868 4.51659 8.68558 4.54976 8.61939C4.58294 8.58629 4.64929 8.55319 4.71564 8.55319H8.66351Z" />
</svg>
