<svg width="16" height="16" viewBox="0 0 16 16" fill="currentColor" xmlns="http://www.w3.org/2000/svg">
<path d="M3.94269 2.7191C4.16155 2.95932 4.16155 3.34879 3.94269 3.58901L2.9862 4.63883H13.9608C14.2703 4.63883 14.5211 4.91418 14.5211 5.25384C14.5211 5.5935 14.2703 5.86885 13.9608 5.86885H2.9862L3.94276 6.91875C4.16158 7.15892 4.16158 7.54833 3.94276 7.78851C3.72393 8.02868 3.36915 8.02868 3.15032 7.78851L1.16924 5.61411L1.17045 5.61278C1.16173 5.60401 1.15315 5.59504 1.14472 5.58587C1.09713 5.53404 1.05309 5.47713 1.02919 5.40838C1.01367 5.36372 1 5.30878 1 5.25384C1 5.20553 1.01057 5.15498 1.02368 5.11088C1.04951 5.02397 1.10384 4.95233 1.1643 4.88945C1.18178 4.87127 1.1999 4.854 1.21861 4.83766L3.15025 2.71896C3.36914 2.47888 3.72388 2.47894 3.94269 2.7191Z" />
<path d="M12.0573 8.28941C11.8385 8.52963 11.8385 8.9191 12.0573 9.15931L13.0138 10.2091H2.03921C1.72974 10.2091 1.47887 10.4845 1.47887 10.8241C1.47887 11.1638 1.72974 11.4392 2.03921 11.4392H13.0138L12.0572 12.489C11.8384 12.7292 11.8384 13.1186 12.0572 13.3588C12.2761 13.599 12.6309 13.599 12.8497 13.3588L14.8308 11.1844L14.8295 11.1831C14.8383 11.1743 14.8468 11.1653 14.8553 11.1562C14.9029 11.1043 14.9469 11.0474 14.9708 10.9787C14.9863 10.934 15 10.8791 15 10.8241C15 10.7758 14.9894 10.7253 14.9763 10.6812C14.9505 10.5943 14.8962 10.5226 14.8357 10.4598C14.8182 10.4416 14.8001 10.4243 14.7814 10.408L12.8497 8.28926C12.6309 8.04918 12.2761 8.04925 12.0573 8.28941Z" />
</svg>
