<svg width="16" height="16" viewBox="0 0 16 16" fill="currentColor" xmlns="http://www.w3.org/2000/svg">
<path d="M8.04128 2.10444C7.94236 1.94028 8.00831 1.74328 8.17317 1.64478C9.82181 0.758299 11.5364 0.791132 12.6575 1.71045C13.5477 2.43277 13.9104 3.61475 13.6137 4.96089L14.471 4.30424C14.6028 4.20574 14.8337 4.20574 14.9326 4.3699C15.0315 4.50124 15.0315 4.73106 14.8666 4.82956L13.2839 6.04438C13.218 6.07721 13.152 6.11004 13.0861 6.11004C13.0531 6.11004 13.0531 6.11004 13.0202 6.11004C12.9212 6.07721 12.8553 6.04438 12.7893 5.94588L11.8661 4.40274C11.7672 4.23857 11.8331 4.04158 11.965 3.94308C12.1299 3.84458 12.3277 3.91025 12.4266 4.04158L12.9542 4.89523C13.218 3.74608 12.9542 2.79393 12.2288 2.20294C11.3056 1.44779 9.88775 1.48062 8.46993 2.20294C8.30506 2.33427 8.10722 2.26861 8.04128 2.10444ZM8.07425 13.7601C8.17317 13.9242 8.10723 14.1212 7.97533 14.2197C6.39265 15.1719 4.67807 15.2704 3.49105 14.4167C2.53484 13.7272 2.13917 12.5781 2.337 11.232L1.54566 11.9543C1.41377 12.0856 1.21593 12.0528 1.08404 11.9214C0.952151 11.7901 0.985124 11.5931 1.11701 11.4618L2.60079 10.1485C2.66673 10.0828 2.73268 10.0828 2.79862 10.0828C2.83159 10.0828 2.83159 10.0828 2.86457 10.0828C2.96349 10.0828 3.02943 10.1485 3.09538 10.2141L4.11753 11.7244C4.21645 11.8886 4.18348 12.0856 4.01861 12.1841C3.85375 12.2826 3.65591 12.2498 3.55699 12.0856L2.99646 11.1991C2.79862 12.3483 3.09538 13.3004 3.85375 13.8586C4.80996 14.5481 6.26075 14.4496 7.61263 13.6287C7.7775 13.5631 7.97533 13.5959 8.07425 13.7601ZM13.0202 6.99767H9.31942L9.3283 3.37788C9.3283 3.11521 9.13826 2.88002 8.90745 2.88002H3.20494C2.94116 2.84719 2.73268 3.08018 2.73268 3.34284L2.72716 8.60413C2.72716 8.8668 2.95797 9.06379 3.18878 9.06379H6.84875L6.85426 12.7751C6.85426 13.0378 7.0297 13.1814 7.26051 13.1814H13.0252C13.289 13.1814 13.4488 13.0049 13.4488 12.7751V7.45733C13.4818 7.19466 13.2839 6.99767 13.0202 6.99767ZM6.84875 7.45733V8.24026L3.55471 8.2402V3.70355H8.49589V6.99767H7.31037C7.07956 6.96484 6.84875 7.19466 6.84875 7.45733ZM12.6135 12.3579H7.67228V7.82125H12.6135V12.3579Z" />
</svg>
