<svg width="16" height="16" viewBox="0 0 16 16" fill="currentColor" xmlns="http://www.w3.org/2000/svg">
<path d="M15 13.7882C15 14.1071 14.8724 14.3941 14.6492 14.6492C14.426 14.9043 14.139 15 13.7882 15H2.21185C1.89294 15 1.60592 14.8724 1.3508 14.6492C1.09567 14.426 1 14.1071 1 13.7882V10.9499C1 10.631 1.12756 10.344 1.3508 10.0888C1.57403 9.83371 1.86105 9.73804 2.21185 9.73804H4.92255L3.3918 8.20729C3.16856 7.98405 3.07289 7.69704 3.07289 7.41002C3.07289 7.12301 3.20046 6.86788 3.3918 6.64465C3.58314 6.42141 3.83827 6.32574 4.15718 6.32574H5.59226V2.08428C5.59226 1.76538 5.68793 1.51025 5.91116 1.31891C6.1344 1.12756 6.38952 1 6.67654 1H9.29157C9.61048 1 9.8656 1.09567 10.0569 1.31891C10.2483 1.54214 10.3759 1.79727 10.3759 2.08428V6.32574H11.8428C12.1617 6.32574 12.4169 6.42141 12.6082 6.64465C12.7995 6.86788 12.9271 7.12301 12.9271 7.41002C12.9271 7.69704 12.8314 7.95216 12.6082 8.20729L11.0774 9.73804H13.7882C14.1071 9.73804 14.3941 9.8656 14.6492 10.0888C14.9043 10.3121 15 10.5991 15 10.9499V13.7882ZM14.0114 10.7267C13.9476 10.6629 13.8838 10.631 13.7882 10.631H10.2164L8.78132 12.0661C8.58998 12.2893 8.33485 12.385 8.01595 12.385C7.69704 12.385 7.44191 12.2893 7.25057 12.0661L5.7836 10.631H2.21185C2.11617 10.631 2.05239 10.6629 1.98861 10.7267C1.92483 10.7904 1.89294 10.8542 1.89294 10.9499V13.7882C1.89294 13.8838 1.92483 13.9476 1.98861 14.0114C2.05239 14.0752 2.11617 14.1071 2.21185 14.1071H13.7882C13.8838 14.1071 13.9476 14.0752 14.0114 14.0114C14.0752 13.9476 14.1071 13.8838 14.1071 13.7882V10.9499C14.1071 10.8542 14.0752 10.7904 14.0114 10.7267ZM7.98405 11.492C8.04784 11.492 8.07973 11.4601 8.14351 11.4282L11.9704 7.56948C12.0342 7.50569 12.0661 7.41002 12.0342 7.31435C12.0023 7.21868 11.9385 7.18679 11.8428 7.18679H9.51481V2.08428C9.51481 2.0205 9.48292 1.98861 9.45103 1.92483C9.41913 1.89294 9.35535 1.86105 9.29157 1.86105H6.67654C6.61276 1.86105 6.58087 1.89294 6.51708 1.92483C6.48519 1.95672 6.4533 2.0205 6.4533 2.08428V7.18679H4.15718C4.0615 7.18679 3.99772 7.21868 3.96583 7.31435C3.93394 7.41002 3.93394 7.4738 4.02961 7.56948L7.85649 11.4282C7.88838 11.492 7.95216 11.492 7.98405 11.492ZM10.6629 12.4169C10.5672 12.5125 10.5034 12.6401 10.5034 12.7995C10.5034 12.959 10.5672 13.0866 10.6629 13.1822C10.7585 13.2779 10.8861 13.3417 11.0456 13.3417C11.205 13.3417 11.3326 13.2779 11.4282 13.1822C11.5239 13.0866 11.5877 12.959 11.5877 12.7995C11.5877 12.6401 11.5239 12.5125 11.4282 12.4169C11.3326 12.3212 11.205 12.2574 11.0456 12.2574C10.8861 12.2574 10.7904 12.3212 10.6629 12.4169ZM13.1822 13.1822C13.0866 13.2779 12.959 13.3417 12.7995 13.3417C12.6401 13.3417 12.5125 13.2779 12.4169 13.1822C12.3212 13.0866 12.2574 12.959 12.2574 12.7995C12.2574 12.6401 12.3212 12.5125 12.4169 12.4169C12.5125 12.3212 12.6401 12.2574 12.7995 12.2574C12.959 12.2574 13.0866 12.3212 13.1822 12.4169C13.2779 12.5125 13.3417 12.6401 13.3417 12.7995C13.3417 12.959 13.3098 13.0866 13.1822 13.1822Z" />
</svg>
