<svg width="16" height="16" viewBox="0 0 16 16" fill="currentColor" xmlns="http://www.w3.org/2000/svg">
<path d="M13.6761 2.5C14.0402 2.5 14.3381 2.63836 14.6028 2.91509C14.8676 3.19182 15 3.50314 15 3.88365V12.1164C15 12.4969 14.8676 12.8082 14.6028 13.0849C14.3381 13.3616 14.0402 13.5 13.6761 13.5H2.32388C1.95981 13.5 1.66194 13.3616 1.39716 13.0849C1.13239 12.7736 1 12.4623 1 12.0818V3.88365C1 3.50314 1.13239 3.19182 1.39716 2.91509C1.62884 2.63836 1.95981 2.5 2.32388 2.5H13.6761ZM2.32388 3.39937C2.19149 3.39937 2.0922 3.46855 1.99291 3.53774C1.92671 3.64151 1.86052 3.74528 1.86052 3.88365V5.05975C2.48936 5.61321 3.87943 6.78931 5.99764 8.55346L6.22931 8.7956C6.59338 9.10692 6.89125 9.34906 7.08983 9.48742C7.4208 9.72956 7.71868 9.86792 7.95035 9.86792C8.18203 9.86792 8.47991 9.72956 8.81087 9.48742C9.00946 9.34906 9.30733 9.14151 9.6714 8.7956L9.93617 8.55346C12.0875 6.75472 13.4775 5.61321 14.1064 5.02516V3.88365C14.1064 3.74528 14.0733 3.64151 13.974 3.57233C13.9078 3.50314 13.7754 3.43396 13.6761 3.43396H2.32388V3.39937ZM13.6761 12.5314C13.8085 12.5314 13.9078 12.4969 13.974 12.3931C14.0402 12.3239 14.1064 12.1855 14.1064 12.0818V6.23585C13.4775 6.75472 12.2861 7.75786 10.5319 9.24528L10.2671 9.45283C9.83688 9.83333 9.47281 10.1101 9.24113 10.283C8.77778 10.5597 8.38062 10.6981 8.01655 10.6981C7.65248 10.6981 7.25532 10.5597 6.79196 10.283C6.52719 10.1101 6.16312 9.83333 5.76596 9.45283L5.50118 9.21069C3.74705 7.75786 2.55556 6.75472 1.92671 6.20126V12.0472C1.92671 12.1855 1.95981 12.2893 2.0591 12.3585C2.0922 12.4969 2.19149 12.5314 2.32388 12.5314H13.6761Z" />
</svg>
