<svg width="16" height="16" viewBox="0 0 16 16" fill="currentColor" xmlns="http://www.w3.org/2000/svg">
<path d="M14.4704 2.52156C14.8014 2.85233 15 3.28234 15 3.7785C15 4.27466 14.8345 4.67159 14.4704 5.03544L4.87234 14.6279L1.76123 14.9917C1.52955 15.0248 1.36407 14.9587 1.23168 14.7933C1.0331 14.6279 1 14.4625 1 14.231L1.36407 11.1217L10.9622 1.52924C11.2931 1.19846 11.7234 1 12.2199 1C12.7163 1 13.1135 1.16539 13.4775 1.52924L14.4704 2.52156ZM4.44208 13.8009L4.97163 13.2386V12.2794H3.64775V10.9563H2.72104L2.19149 11.4855L2.026 13.1063L2.85343 13.9333L4.44208 13.8009ZM11.8558 6.35854L9.6052 4.10927L3.48227 10.2286H4.44208V11.5517H5.76596V12.5109L11.8558 6.35854ZM13.8747 4.37389C14.0402 4.20851 14.1064 4.01004 14.1064 3.74542C14.1064 3.4808 14.0071 3.31542 13.8747 3.15003L12.8487 2.12463C12.6832 1.95924 12.4846 1.89309 12.2199 1.89309C11.9551 1.89309 11.7565 1.95924 11.591 2.12463L10.234 3.4808L12.4846 5.73006L13.8747 4.37389Z" />
</svg>
