<svg width="16" height="16" viewBox="0 0 16 16" fill="currentColor" xmlns="http://www.w3.org/2000/svg">
<path d="M6.07143 15C5.80769 15 5.57692 14.968 5.31319 14.9359C4.68681 14.8078 4.12637 14.5515 3.63187 14.135C3.13736 13.6865 2.80769 13.1739 2.57692 12.5973C2.41209 12.1487 2.34615 11.6682 2.37912 11.2197L1.65385 12.0526C1.58791 12.1167 1.52198 12.1487 1.45604 12.1487C1.35714 12.1487 1.29121 12.1167 1.22527 12.0847L1.12637 11.9886C1.06044 11.9245 1.02747 11.8604 1.02747 11.7963C1.02747 11.7002 1.06044 11.6362 1.09341 11.5721L2.57692 9.90618C2.64286 9.8421 2.70879 9.81007 2.77473 9.81007C2.87363 9.81007 2.93956 9.8421 3.00549 9.87414L4.71978 11.3158C4.78571 11.3799 4.81868 11.4439 4.81868 11.508C4.81868 11.6041 4.78571 11.6682 4.75275 11.7323L4.65385 11.8284C4.58791 11.8924 4.52198 11.9245 4.45604 11.9245C4.35714 11.9245 4.29121 11.8924 4.22527 11.8604L3.17033 10.9634C3.1044 11.4119 3.13736 11.8284 3.26923 12.2769C3.43407 12.7895 3.73077 13.2059 4.12637 13.5584C4.52198 13.8787 4.95055 14.103 5.44506 14.1991C5.64286 14.2311 5.84066 14.2632 6.03846 14.2632C6.33516 14.2632 6.5989 14.2311 6.8956 14.135C7.35714 14.0069 7.78571 13.7506 8.14835 13.3982C8.18132 13.3661 8.24725 13.3021 8.34615 13.3021C8.44506 13.3021 8.51099 13.3341 8.57692 13.3661L8.67582 13.4622C8.74176 13.5263 8.77473 13.5904 8.77473 13.6545C8.77473 13.7185 8.77472 13.7826 8.67582 13.8787C8.21429 14.3272 7.68681 14.6476 7.09341 14.8078C6.7967 14.9359 6.43407 15 6.07143 15ZM11.4451 14.1991C9.17033 14.1991 7.35714 12.405 7.35714 10.2265C7.35714 9.52174 7.55494 8.88101 7.88462 8.30435C7.12637 9.26545 5.97253 9.87414 4.62088 9.87414C2.34615 9.8421 0.5 8.04805 0.5 5.86957C0.5 3.69108 2.34615 1.86499 4.58791 1.86499C6.82967 1.86499 8.67582 3.65904 8.67582 5.83753C8.67582 6.54233 8.47802 7.18307 8.14835 7.75973C8.90659 6.79863 10.0604 6.18993 11.4121 6.18993C13.6868 6.18993 15.5 7.98398 15.5 10.1625C15.5 12.341 13.6868 14.1991 11.4451 14.1991ZM11.4451 6.92677C9.5989 6.92677 8.08242 8.40046 8.08242 10.1945C8.08242 11.9886 9.56594 13.4943 11.4451 13.4943C13.3242 13.4943 14.8077 12.0206 14.8077 10.2265C14.8077 8.43249 13.2912 6.92677 11.4451 6.92677ZM4.58791 2.56979C2.74176 2.56979 1.22527 4.04348 1.22527 5.86957C1.22527 7.69565 2.74176 9.1373 4.58791 9.1373C6.43407 9.1373 7.95055 7.66362 7.95055 5.86957C7.95055 4.07551 6.46703 2.56979 4.58791 2.56979ZM11.2802 13.3021C11.1813 13.3021 11.1154 13.27 11.0495 13.2059C10.9835 13.1419 10.9506 13.0778 10.9506 12.9817V12.5652C10.7527 12.5652 10.5549 12.5332 10.3571 12.4371C10.1593 12.373 9.99451 12.2449 9.82967 12.1167C9.76374 12.0206 9.73077 11.9565 9.73077 11.8924C9.73077 11.7963 9.76374 11.7323 9.82967 11.6682L9.96154 11.54C9.99451 11.476 10.0934 11.476 10.1923 11.476C10.2912 11.476 10.3901 11.508 10.4231 11.6041C10.5549 11.7323 10.7198 11.7963 10.9506 11.7963H11.8077C11.9396 11.7963 12.0385 11.7643 12.1044 11.6682C12.2033 11.5721 12.2363 11.4439 12.2363 11.3158C12.2363 11.1876 12.2033 11.0915 12.1374 10.9954C12.0714 10.8993 12.0055 10.8673 11.9066 10.8352L10.5549 10.4188C10.2912 10.3227 10.0604 10.1625 9.89561 9.93821C9.73077 9.71396 9.63187 9.45767 9.63187 9.16934C9.63187 8.81693 9.76374 8.49657 9.99451 8.24027C10.2253 7.98398 10.5549 7.85583 10.8846 7.85583H10.9176V7.40732C10.9176 7.31121 10.9506 7.24714 11.0165 7.18307C11.0824 7.11899 11.1484 7.08696 11.2473 7.08696H11.4451C11.544 7.08696 11.6099 7.11899 11.6758 7.18307C11.7418 7.24714 11.7747 7.31121 11.7747 7.40732V7.8238C11.9725 7.8238 12.1703 7.85583 12.3681 7.95194C12.5659 8.01602 12.7308 8.14416 12.8956 8.27231C12.9615 8.33638 12.9945 8.43249 12.9945 8.5286C12.9945 8.59268 12.9615 8.65675 12.8956 8.72082L12.7637 8.84897C12.7308 8.91304 12.6319 8.91304 12.533 8.91304C12.4341 8.91304 12.3681 8.88101 12.3022 8.81693C12.1374 8.65675 11.9725 8.59268 11.7747 8.59268H10.9176C10.7857 8.59268 10.7198 8.62471 10.6209 8.72082C10.522 8.81693 10.489 8.94508 10.489 9.07323C10.489 9.20137 10.522 9.29748 10.5879 9.39359C10.6538 9.4897 10.7198 9.52174 10.8187 9.55378L12.1703 9.97025C12.4341 10.0664 12.6648 10.2265 12.8297 10.4508C12.9945 10.6751 13.0934 10.9313 13.0934 11.2197C13.0934 11.5721 12.9615 11.8924 12.7308 12.1167C12.5 12.373 12.1703 12.5011 11.8407 12.5011H11.8077V12.9176C11.8077 13.0137 11.7747 13.0778 11.7088 13.1419C11.6429 13.2059 11.5769 13.238 11.478 13.238H11.2802V13.3021ZM5.18132 8.5286C4.52198 8.5286 3.92857 8.36842 3.43407 8.01602C2.97253 7.69565 2.67582 7.24714 2.51099 6.73455H2.28022C2.21429 6.73455 2.14835 6.70252 2.08242 6.67048C2.01648 6.60641 1.98352 6.54233 1.98352 6.47826V6.38215C1.98352 6.31808 2.01648 6.254 2.08242 6.18993C2.14835 6.12586 2.21429 6.12586 2.28022 6.12586H2.37912C2.37912 6.06178 2.37912 5.99771 2.37912 5.9016C2.37912 5.80549 2.37912 5.74142 2.37912 5.67735H2.28022C2.21429 5.67735 2.14835 5.64531 2.08242 5.61327C2.01648 5.5492 1.98352 5.48513 1.98352 5.42105V5.32494C1.98352 5.26087 2.01648 5.1968 2.08242 5.13272C2.14835 5.06865 2.21429 5.06865 2.28022 5.06865H2.51099C2.67582 4.55606 3.00549 4.13959 3.46703 3.78719C3.96154 3.43478 4.52198 3.24256 5.18132 3.24256C5.37912 3.24256 5.57692 3.2746 5.77473 3.30664C5.84066 3.30664 5.90659 3.37071 5.93956 3.43478C5.97253 3.49886 6.00549 3.56293 5.97253 3.627L5.90659 3.81922C5.90659 3.85126 5.87363 3.91533 5.77473 3.9794C5.74176 4.01144 5.67582 4.04348 5.60989 4.04348H5.57692C5.41209 4.01144 5.28022 3.9794 5.14835 3.9794C4.68681 3.9794 4.29121 4.10755 3.96154 4.33181C3.6978 4.52403 3.5 4.78032 3.36813 5.06865H5.31319C5.41209 5.06865 5.47802 5.10069 5.54396 5.16476C5.60989 5.22883 5.60989 5.32494 5.60989 5.38902V5.45309C5.57692 5.5492 5.54396 5.58124 5.47802 5.64531C5.41209 5.67735 5.37912 5.70938 5.31319 5.70938H3.23626C3.23626 5.83753 3.23626 5.99771 3.23626 6.15789H5.11538C5.21429 6.15789 5.28022 6.18993 5.34615 6.254C5.41209 6.35011 5.41209 6.41419 5.41209 6.47826L5.37912 6.57437C5.37912 6.63844 5.34615 6.70252 5.28022 6.76659C5.21429 6.79863 5.18132 6.83066 5.11538 6.83066H3.36813C3.5 7.15103 3.6978 7.37529 3.96154 7.56751C4.29121 7.79176 4.68681 7.91991 5.14835 7.91991C5.31319 7.91991 5.47802 7.88787 5.64286 7.85583C5.67582 7.85583 5.70879 7.85583 5.70879 7.85583C5.77473 7.85583 5.80769 7.85583 5.84066 7.88787C5.90659 7.91991 5.93956 7.98398 5.97253 8.04805L6.0055 8.24027C6.0055 8.30435 6.00549 8.36842 5.97253 8.43249C5.93956 8.49657 5.87363 8.5286 5.77473 8.56064C5.64286 8.49657 5.41209 8.5286 5.18132 8.5286ZM13.0604 6.44622C12.9615 6.44622 12.8956 6.41419 12.8297 6.35011L11.2143 4.78032C11.1484 4.71625 11.1154 4.65217 11.1154 4.55606C11.1154 4.45995 11.1484 4.39588 11.2143 4.33181L11.3132 4.2357C11.3791 4.17162 11.4451 4.13959 11.544 4.13959C11.6429 4.13959 11.7088 4.17162 11.7747 4.2357L12.7637 5.1968C12.8626 4.78032 12.8626 4.33181 12.7637 3.8833C12.6319 3.37071 12.3681 2.9222 11.9725 2.53776C11.6099 2.18535 11.1813 1.9611 10.7198 1.83295C10.456 1.76888 10.1923 1.73684 9.92857 1.73684C9.6978 1.73684 9.5 1.76888 9.26923 1.80092C8.77473 1.89703 8.34615 2.12128 7.98352 2.47368C7.95055 2.50572 7.88462 2.53776 7.78571 2.53776C7.68681 2.53776 7.62088 2.50572 7.55494 2.44165L7.42308 2.37757C7.35714 2.3135 7.32418 2.24943 7.32418 2.15332C7.32418 2.08924 7.35714 2.02517 7.42308 1.92906C7.91758 1.51259 8.44506 1.22426 9.07143 1.09611C9.33517 1.03204 9.63187 1 9.92857 1C10.2582 1 10.5879 1.03204 10.9176 1.12815C11.544 1.28833 12.0714 1.6087 12.533 2.05721C12.9945 2.50572 13.3242 3.05034 13.489 3.65904C13.6209 4.10755 13.6538 4.5881 13.5879 5.03661L14.3791 4.26773C14.4451 4.20366 14.511 4.17162 14.6099 4.17162C14.7088 4.17162 14.7747 4.20366 14.8407 4.26773L14.9396 4.36384C15.0055 4.42792 15.0385 4.49199 15.0385 4.5881C15.0385 4.68421 15.0055 4.74828 14.9396 4.81236L13.3242 6.38215C13.2253 6.41419 13.1593 6.44622 13.0604 6.44622Z" />
</svg>
