<svg width="16" height="16" viewBox="0 0 16 16" fill="currentColor" xmlns="http://www.w3.org/2000/svg">
<path d="M6.16312 9.52459L6.29551 9.65574C6.3617 9.72131 6.46099 9.7541 6.52719 9.7541C6.59338 9.7541 6.69267 9.72131 6.75887 9.65574L14.0402 2.54098L14.0733 2.57377V6.11475C14.0733 6.21311 14.1064 6.27869 14.1726 6.34426C14.2388 6.40984 14.305 6.44262 14.4043 6.44262H14.669C14.7683 6.44262 14.8345 6.40984 14.9007 6.34426C14.9669 6.27869 15 6.21311 15 6.11475V1.32787C15 1.22951 14.9669 1.16393 14.9007 1.09836C14.8345 1.03279 14.7352 1 14.669 1H9.86998C9.77069 1 9.70449 1.03279 9.6383 1.09836C9.5721 1.16393 9.53901 1.22951 9.53901 1.32787V1.59016C9.53901 1.68852 9.5721 1.7541 9.6383 1.81967C9.70449 1.88525 9.77069 1.91803 9.86998 1.91803H13.4113L13.4444 1.95082L6.16312 9.06557C6.09693 9.13115 6.06383 9.19672 6.06383 9.29508C6.06383 9.39344 6.09693 9.45902 6.16312 9.52459ZM13.2128 6.77049V13.6885C13.2128 14.0492 13.0804 14.3443 12.8156 14.6066C12.5508 14.8689 12.253 15 11.8889 15H2.32388C1.95981 15 1.66194 14.8689 1.39716 14.6066C1.13239 14.3443 1 14.0492 1 13.6885V4.18033C1 3.81967 1.13239 3.52459 1.39716 3.2623C1.62884 3 1.95981 2.86885 2.32388 2.86885H9.10875C9.6714 2.86885 9.6714 3.72131 9.10875 3.72131H2.32388C2.19149 3.72131 2.0922 3.78689 1.99291 3.85246C1.89362 3.91803 1.86052 4.04918 1.86052 4.18033V13.6885C1.86052 13.8197 1.89362 13.918 1.99291 13.9836C2.0922 14.0492 2.19149 14.1148 2.32388 14.1148H11.922C12.0544 14.1148 12.1537 14.082 12.2199 13.9836C12.2861 13.8852 12.3522 13.7869 12.3522 13.6885V6.77049C12.3522 6.21311 13.2128 6.21311 13.2128 6.77049Z" />
</svg>
