<svg width="16" height="16" viewBox="0 0 16 16" fill="currentColor" xmlns="http://www.w3.org/2000/svg">
<path d="M15 13.3811C15 13.553 14.93 13.7249 14.825 13.8281C14.685 13.9656 14.545 14 14.37 14H1.665C1.49 14 1.315 13.9312 1.21 13.8281C1.07 13.7249 1 13.553 1 13.3811V2.6533C1 2.48138 1.07 2.30946 1.175 2.2063C1.315 2.06877 1.49 2 1.665 2H3.87C4.045 2 4.22 2.06877 4.325 2.17192C4.43 2.30946 4.5 2.48138 4.5 2.6533V7.63897L8.805 5.54155C9.015 5.4384 9.225 5.4384 9.435 5.57593C9.645 5.71347 9.75 5.88539 9.75 6.12607V7.67335L14.055 5.57593C14.265 5.47278 14.475 5.47278 14.685 5.61032C14.895 5.74785 15 5.91977 15 6.16046V13.3811ZM3.625 2.8596H1.875V13.1748H14.125V6.43553L9.19 8.84241C9.12 8.87679 9.05 8.87679 8.98 8.84241C8.91 8.80802 8.875 8.73925 8.875 8.67049V6.43553L3.94 8.84241C3.87 8.87679 3.8 8.87679 3.73 8.84241C3.66 8.80802 3.625 8.73925 3.625 8.67049V2.8596Z" />
</svg>
