<svg width="16" height="16" viewBox="0 0 16 16" fill="currentColor" xmlns="http://www.w3.org/2000/svg">
<path d="M7.9999 5.47794C8.63077 5.47794 9.14139 4.99443 9.14139 4.39706C9.14139 3.79969 8.63077 3.31618 7.9999 3.31618C7.36904 3.31618 6.85842 3.79969 6.85842 4.39706C6.85842 4.99443 7.36904 5.47794 7.9999 5.47794Z" />
<path fill-rule="evenodd" clip-rule="evenodd" d="M7.50542 12.5368C7.59337 12.7203 7.78677 12.8382 7.9999 12.8382C8.21351 12.8382 8.40632 12.7206 8.49459 12.5364C9.09719 11.2842 9.71905 9.90754 10.2416 8.6523C11.1166 6.55019 11.5874 5.07812 11.5874 4.39706C11.5874 2.5241 9.97788 1 7.9999 1C6.02193 1 4.41237 2.5241 4.41237 4.39706C4.41237 5.07805 4.88323 6.54975 5.75854 8.65229C6.28039 9.9058 6.8939 11.2643 7.50542 12.5368ZM7.9499 11.1714C7.9499 11.1714 5.4995 5.14921 5.4995 4.39706C5.4995 3.0915 6.62114 2.02942 8.00089 2.02942C9.3253 2.08089 10.5003 3.0915 10.5003 4.39706C10.5003 5.14954 7.9499 11.1714 7.9499 11.1714Z" />
<path d="M4.29102 8.92647L4.34538 8.97794L4.29102 9.95588L3.8065 9.92469L1.89276 13.9706L14.0569 14.0423L12.2431 9.95588L11.6292 9.90441L11.6835 8.92647H12.0639C12.5873 8.92647 13.058 9.22041 13.2634 9.67553L14.8935 13.2779C15.0674 13.6598 15.0265 14.096 14.7841 14.444C14.541 14.7927 14.1347 15 13.6947 15H2.30494C1.86558 15 1.4596 14.7931 1.21599 14.4449C0.973452 14.0955 0.932552 13.6592 1.10659 13.2771L2.73685 9.67512C2.94175 9.22035 3.41242 8.92647 3.93575 8.92647H4.29102Z" />
</svg>
