<svg width="16" height="16" viewBox="0 0 16 16" fill="currentColor" xmlns="http://www.w3.org/2000/svg">
<path fill-rule="evenodd" clip-rule="evenodd" d="M13.6667 12.9C13.6667 12.5143 13.368 12.2 13 12.2C12.632 12.2 12.3333 12.5143 12.3333 12.9C12.3333 13.2857 12.632 13.6 13 13.6C13.368 13.6 13.6667 13.2857 13.6667 12.9ZM11 12.9C11 11.9886 11.5587 11.2193 12.3333 10.9295V1H13.6667V10.9295C14.4413 11.2193 15 11.9886 15 12.9C15 14.0578 14.1027 15 13 15C11.8973 15 11 14.0578 11 12.9ZM10 5.9C10 6.8114 9.44133 7.5807 8.66667 7.8705V15H7.33333V7.8705C6.55867 7.5807 6 6.8114 6 5.9C6 4.9886 6.55867 4.2193 7.33333 3.9295V1H8.66667V3.9295C9.44133 4.2193 10 4.9886 10 5.9ZM7.33333 5.9C7.33333 6.2857 7.632 6.6 8 6.6C8.368 6.6 8.66667 6.2857 8.66667 5.9C8.66667 5.5143 8.368 5.2 8 5.2C7.632 5.2 7.33333 5.5143 7.33333 5.9ZM5 12.9C5 14.0578 4.10267 15 3 15C1.89733 15 1 14.0578 1 12.9C1 11.9886 1.55867 11.2193 2.33333 10.9295V1H3.66667V10.9295C4.44133 11.2193 5 11.9886 5 12.9ZM2.33333 12.9C2.33333 13.2857 2.632 13.6 3 13.6C3.368 13.6 3.66667 13.2857 3.66667 12.9C3.66667 12.5143 3.368 12.2 3 12.2C2.632 12.2 2.33333 12.5143 2.33333 12.9Z" />
</svg>
