<svg width="16" height="16" viewBox="0 0 16 16" fill="currentColor" xmlns="http://www.w3.org/2000/svg">
    <path d="M13.6867 2C14.053 2 14.3612 2.12303 14.6158 2.37349C14.8705 2.62395 15 2.92274 15 3.27865V12.7213C15 13.0773 14.8705 13.3804 14.6158 13.6265C14.3612 13.877 14.053 14 13.6867 14H2.31334C1.94703 14 1.6388 13.877 1.38417 13.6265C1.12955 13.3804 1 13.0773 1 12.7213V3.27865C1 2.92274 1.12955 2.61955 1.38417 2.37349C1.6388 2.12743 1.94703 2 2.31334 2H13.6867ZM14.1244 12.7213V3.27865C14.1244 3.15562 14.0842 3.05016 13.9994 2.97107C13.919 2.89198 13.8117 2.85244 13.6867 2.85244H2.31334C2.18379 2.85244 2.08105 2.89198 2.00064 2.97107C1.91576 3.05456 1.87556 3.15562 1.87556 3.27865V12.7213C1.87556 12.8444 1.91576 12.9498 2.00064 13.0289C2.08105 13.108 2.18826 13.1476 2.31334 13.1476H13.6867C13.8162 13.1476 13.919 13.108 13.9994 13.0289C14.0842 12.9498 14.1244 12.8444 14.1244 12.7213ZM4.05999 7.36067C3.64008 7.36067 3.28271 7.21567 2.97894 6.92127C2.67518 6.62688 2.53223 6.27536 2.53223 5.86672C2.53223 5.45807 2.68411 5.10655 2.98341 4.81216C3.28271 4.51776 3.64454 4.37276 4.06445 4.37276C4.48437 4.37276 4.8462 4.51776 5.1455 4.81216C5.4448 5.10655 5.59668 5.45807 5.59668 5.86672C5.59668 6.27536 5.4448 6.62688 5.1455 6.92127C4.8462 7.21567 4.4799 7.36067 4.05999 7.36067ZM9.71985 6.71915C9.84939 6.59612 10.0013 6.5346 10.1844 6.5346C10.3676 6.5346 10.5195 6.59612 10.649 6.71915L13.0568 9.06554C13.1863 9.18858 13.2489 9.34237 13.2489 9.51813V11.9744C13.2489 12.0622 13.2176 12.1369 13.1551 12.2029C13.0925 12.2688 13.0121 12.2951 12.9228 12.2951H3.07722C2.98787 12.2951 2.90747 12.2644 2.84493 12.2029C2.78239 12.1413 2.75112 12.0666 2.75112 11.9744V11.2274C2.75112 11.0472 2.81366 10.8978 2.9432 10.7748L5.35099 8.42841C5.48054 8.30538 5.63242 8.24387 5.81557 8.24387C5.99872 8.24387 6.15061 8.30538 6.28015 8.42841L7.12891 9.25449L9.71985 6.71915ZM4.05999 5.22519C3.87683 5.22519 3.72495 5.28671 3.59541 5.40974C3.47033 5.53717 3.40779 5.69096 3.40779 5.86672C3.40779 6.04248 3.47033 6.19627 3.59987 6.3193C3.72942 6.44233 3.8813 6.50385 4.06445 6.50385C4.24761 6.50385 4.39949 6.44233 4.52904 6.3193C4.65412 6.19627 4.71666 6.04248 4.71666 5.86672C4.71666 5.69096 4.65412 5.53717 4.52904 5.41413C4.39949 5.28671 4.24314 5.22519 4.05999 5.22519ZM12.3733 11.4427V9.60161L10.1844 7.46613L7.12444 10.454L5.8111 9.17539L3.62221 11.3109V11.4427H12.3733Z" />
</svg>