<svg width="16" height="16" viewBox="0 0 16 16" fill="currentColor" xmlns="http://www.w3.org/2000/svg">
<path d="M14.6028 7.15603C14.8676 7.4208 15 7.71868 15 8.08274C15 8.44681 14.8676 8.74468 14.6028 9.00946L9.00946 14.6028C8.74468 14.8676 8.44681 15 8.08274 15C7.71868 15 7.4208 14.8676 7.15603 14.6028L1.39716 8.81087C1.13239 8.5461 1 8.24823 1 7.88416V2.32388C1 1.95981 1.13239 1.66194 1.39716 1.39716C1.62884 1.13239 1.95981 1 2.32388 1H7.88416C8.24823 1 8.5461 1.13239 8.81087 1.39716L14.6028 7.15603ZM13.974 8.41371C14.0733 8.34752 14.1064 8.24823 14.1064 8.11584C14.1064 7.98345 14.0733 7.88416 13.974 7.81797L8.18203 2.026C8.11584 1.92671 8.01655 1.89362 7.88416 1.89362H2.32388C2.19149 1.86052 2.0922 1.92671 1.99291 1.99291C1.92671 2.0922 1.86052 2.19149 1.86052 2.32388V7.88416C1.86052 8.01655 1.89362 8.11584 1.99291 8.18203L7.78487 13.974C7.85106 14.0733 7.95035 14.1064 8.08274 14.1064C8.21513 14.1064 8.31442 14.0733 8.38061 13.974L13.974 8.41371ZM4.93853 3.61466C5.3026 3.61466 5.60047 3.74705 5.86525 4.01182C6.13002 4.2766 6.26241 4.57447 6.26241 4.93853C6.26241 5.3026 6.13002 5.60047 5.86525 5.86525C5.60047 6.13002 5.3026 6.26241 4.93853 6.26241C4.57447 6.26241 4.2766 6.13002 4.01182 5.86525C3.74705 5.60047 3.61466 5.3026 3.61466 4.93853C3.61466 4.57447 3.74705 4.2766 4.01182 4.01182C4.2435 3.74705 4.57447 3.61466 4.93853 3.61466ZM4.93853 4.37589C4.80615 4.37589 4.67376 4.44208 4.54137 4.54137C4.44208 4.64066 4.37589 4.77305 4.37589 4.93853C4.37589 5.07092 4.44208 5.20331 4.54137 5.3357C4.64066 5.43499 4.77305 5.50118 4.93853 5.50118C5.07092 5.50118 5.20331 5.43499 5.3357 5.3357C5.43499 5.23641 5.50118 5.10402 5.50118 4.93853C5.50118 4.80615 5.43499 4.67376 5.3357 4.54137C5.20331 4.44208 5.07092 4.37589 4.93853 4.37589Z" />
</svg>
