<svg width="16" height="16" viewBox="0 0 16 16" fill="currentColor" xmlns="http://www.w3.org/2000/svg">
<path d="M7.06883 13.961C6.61274 14.4163 6.08065 14.7228 5.46806 14.876C4.85548 15.0293 4.24737 15.0293 3.63478 14.876C3.0222 14.7228 2.4901 14.4163 2.03401 13.961C1.57793 13.5058 1.27387 12.9694 1.11737 12.3609C0.960875 11.7479 0.960875 11.1394 1.11737 10.5264C1.27387 9.91339 1.57793 9.38152 2.03401 8.92627L4.30549 6.65454C4.39492 6.56439 4.51118 6.54636 4.64532 6.60045C4.78393 6.65454 4.85101 6.7492 4.85101 6.88892C4.85101 7.02865 4.85995 7.15486 4.87783 7.27205C4.89572 7.38925 4.86889 7.48841 4.79735 7.56053L2.74497 9.63844C2.23523 10.1297 1.98036 10.7337 1.98036 11.4459C1.98036 12.1581 2.23076 12.7621 2.73156 13.2669C3.23235 13.7672 3.84047 14.0196 4.55142 14.0196C5.26238 14.0196 5.86602 13.7627 6.35787 13.2534L8.54887 11.0898C9.04072 10.5805 9.28665 9.97199 9.28665 9.26884C9.28665 8.56568 9.04072 7.96169 8.54887 7.44784C8.32977 7.22698 8.0749 7.0557 7.78425 6.92949C7.6367 6.8754 7.56963 6.77624 7.57857 6.6275C7.58751 6.48326 7.61881 6.33451 7.67247 6.19028C7.69035 6.10013 7.74401 6.03703 7.83791 6.00097C7.93181 5.96491 8.02124 5.96491 8.11067 6.00097C8.53098 6.18126 8.90211 6.43818 9.23299 6.76722C9.68908 7.22247 9.99761 7.75885 10.163 8.36735C10.3285 8.98036 10.3285 9.58886 10.163 10.2019C9.99761 10.8149 9.68908 11.3467 9.23299 11.802L7.06883 13.961ZM7.89157 9.99453C7.981 10.0306 8.0749 10.0306 8.16433 9.99453C8.25375 9.95847 8.31188 9.89536 8.32977 9.80522C8.38342 9.66098 8.41472 9.51223 8.42367 9.368C8.43261 9.22376 8.36554 9.12009 8.21798 9.066C7.92734 8.93979 7.67247 8.76401 7.45337 8.54765C6.96151 8.03831 6.71559 7.42981 6.71559 6.72666C6.71559 6.0235 6.96151 5.41951 7.45337 4.90567L9.64436 2.74211C10.1362 2.23278 10.7399 1.97585 11.4508 1.97585C12.1618 1.97585 12.7699 2.22827 13.2707 2.72859C13.7715 3.22891 14.0219 3.83741 14.0219 4.54958C14.0219 5.26175 13.767 5.86124 13.2573 6.35705L11.2049 8.43497C11.1333 8.50708 11.1065 8.60174 11.1244 8.72344C11.1423 8.84063 11.1512 8.97135 11.1512 9.10657C11.1512 9.24179 11.2183 9.34095 11.3569 9.39504C11.4955 9.44913 11.6073 9.4311 11.6967 9.34095L13.9682 7.06471C14.4243 6.60947 14.7284 6.07308 14.8849 5.46458C15.0414 4.85158 15.0414 4.24308 14.8849 3.63007C14.7284 3.02157 14.4198 2.48519 13.9682 2.02994C13.5121 1.57469 12.98 1.26819 12.3675 1.11494C11.7549 0.961687 11.1468 0.961687 10.5342 1.11494C9.92159 1.26819 9.38949 1.57469 8.93341 2.02994L6.77371 4.1935C6.31763 4.64874 6.0091 5.18513 5.84366 5.79363C5.67822 6.40663 5.67822 7.01513 5.84366 7.62814C6.0091 8.24115 6.31763 8.77302 6.77371 9.22827C7.09566 9.55731 7.47126 9.80972 7.89157 9.99453Z" />
</svg>
