<svg width="16" height="16" viewBox="0 0 16 16" fill="currentColor" xmlns="http://www.w3.org/2000/svg">
<path d="M12.1519 1.02824L4.46612 2.12407C4.2278 2.12407 3.45327 2.3067 3.066 2.70242C2.67874 3.12857 2.5 3.58517 2.5 4.13308V13.478C2.5 13.8129 2.73832 14.0868 3.066 14.1173L12.5689 15C12.6583 15 12.7179 14.9696 12.7775 14.9087C12.837 14.8478 12.8668 14.7869 12.8668 14.6956V14.4825C12.8668 14.3912 12.837 14.3303 12.7775 14.2695C12.7179 14.2086 12.6583 14.1781 12.5689 14.1781L7.1472 13.6911H12.8072C12.9562 13.6911 13.1051 13.5693 13.1051 13.3867V13.2041C13.1051 13.0519 12.986 12.8997 12.8072 12.8997H7.4153L12.7179 12.3213C13.1945 12.23 13.4924 11.6212 13.4924 11.2559V2.42846C13.5818 1.57616 12.8668 0.845606 12.1519 1.02824ZM12.7179 11.0429C12.7179 11.3777 12.4796 11.6516 12.1519 11.6821L3.9597 12.504C3.60222 12.5648 3.27453 12.2604 3.27453 11.8952V4.13308C3.27453 3.79824 3.39369 3.52429 3.63201 3.28077C3.87033 3.03725 4.19801 2.94594 4.46612 2.9155L12.0029 1.78923C12.3902 1.72835 12.7179 2.03275 12.7179 2.42846V11.0429ZM7.17699 4.68099C7.17699 4.46791 7.26636 4.31572 7.44509 4.13308C7.62383 3.98088 7.80257 3.88956 8.04089 3.85912C8.27921 3.82868 8.48773 3.88956 8.63668 4.01132C8.78563 4.13308 8.90479 4.28528 8.90479 4.49835C8.90479 4.71143 8.81542 4.89407 8.63668 5.04626C8.45794 5.19846 8.27921 5.28978 8.04089 5.32022C7.80257 5.35066 7.59404 5.28978 7.44509 5.16802C7.26636 5.04626 7.17699 4.89407 7.17699 4.68099ZM9.50059 9.03385V9.58176C9.50059 9.70352 9.38143 9.79484 9.26227 9.79484L6.70035 10.0688C6.58119 10.0688 6.46203 10.0079 6.46203 9.88615V9.33824C6.46203 9.21648 6.58119 9.12516 6.70035 9.12516L6.96846 9.09473C7.08762 9.09473 7.20678 8.97297 7.20678 8.88165V7.05527C7.20678 6.93352 7.08762 6.87264 6.96846 6.87264L6.70035 6.90308C6.58119 6.90308 6.46203 6.8422 6.46203 6.72044V6.14209C6.46203 6.02033 6.58119 5.92901 6.70035 5.92901L8.51752 5.71594C8.63668 5.71594 8.75584 5.77681 8.75584 5.89857V8.69901C8.75584 8.82077 8.875 8.88165 8.99416 8.88165L9.26227 8.85121C9.41122 8.85121 9.50059 8.94253 9.50059 9.03385Z" />
</svg>
