<svg width="16" height="16" viewBox="0 0 16 16" fill="currentColor" xmlns="http://www.w3.org/2000/svg">
<path fill-rule="evenodd" clip-rule="evenodd" d="M6.12422 13.25C6.12422 13.6875 5.75821 14.125 5.20919 14.125C4.66017 14.125 4.29416 13.6875 4.29416 13.25C4.29416 12.8125 4.75167 12.375 5.20919 12.375C5.6667 12.375 6.12422 12.8125 6.12422 13.25ZM5.20919 12.9875C5.02618 12.9875 4.93468 13.075 4.93468 13.25C4.93468 13.425 5.02618 13.5125 5.20919 13.5125C5.39219 13.5125 5.4837 13.425 5.4837 13.25C5.4837 13.075 5.39219 12.9875 5.20919 12.9875Z" />
<path fill-rule="evenodd" clip-rule="evenodd" d="M2.18954 1H8.22876C8.86928 1 9.4183 1.525 9.4183 2.1375V13.8625C9.4183 14.475 8.86928 15 8.22876 15H2.18954C1.54902 15 1 14.475 1 13.8625V2.1375C1 1.525 1.54902 1 2.18954 1ZM8.68628 13.8625V12.2875H1.73203V13.8625C1.73203 14.125 1.91503 14.3 2.18954 14.3H8.22876C8.50327 14.3 8.68628 14.125 8.68628 13.8625ZM8.68628 11.5V3.1H1.73203V11.5H8.68628ZM8.68628 2.4V2.1375C8.68628 1.9625 8.50327 1.7 8.22876 1.7H2.18954C1.91503 1.7 1.73203 1.875 1.73203 2.1375V2.4H8.68628Z" />
<path d="M13.2614 4.14999C13.0784 3.97499 12.8039 3.97499 12.6209 4.14999C12.4379 4.32499 12.4379 4.58749 12.6209 4.76249C13.5359 5.63749 13.9935 6.77499 13.9935 7.91249C13.9935 9.13749 13.5359 10.275 12.6209 11.0625C12.5294 11.15 12.5294 11.2375 12.5294 11.4125C12.5294 11.4562 12.5523 11.5219 12.5752 11.5875C12.598 11.6531 12.6209 11.7187 12.6209 11.7625C12.7124 11.85 12.8039 11.85 12.9869 11.85C13.0784 11.85 13.2614 11.85 13.3529 11.7625C14.451 10.7125 15 9.39999 15 7.91249C14.9085 6.51249 14.3595 5.11249 13.2614 4.14999Z" />
<path d="M11.0653 5.20004C11.2483 5.02504 11.5228 5.02504 11.7058 5.20004C12.4379 5.90004 12.8954 6.95004 12.9869 8.08754C12.9869 9.13754 12.6209 10.1 11.7973 10.8875C11.7058 10.975 11.5228 10.975 11.4313 10.975C11.2483 10.975 11.1568 10.975 11.0653 10.8875C11.0653 10.8438 11.0424 10.7782 11.0196 10.7125C10.9967 10.6469 10.9738 10.5813 10.9738 10.5375C10.9738 10.3625 10.9738 10.275 11.0653 10.1875C11.6143 9.57504 11.9804 8.78754 11.9804 8.00004C11.9804 7.12504 11.6143 6.33754 11.0653 5.90004C11.0653 5.85629 11.0424 5.79066 11.0196 5.72504C10.9967 5.65941 10.9738 5.59379 10.9738 5.55004C10.9738 5.37504 10.9738 5.28754 11.0653 5.20004Z" />
</svg>
