<svg width="14" height="16" viewBox="0 0 14 16" fill="currentColor" xmlns="http://www.w3.org/2000/svg">
<path d="M2.72486 3.33378H9.61693C9.86951 3.36933 10.1041 3.20045 10.1401 2.95156C10.1762 2.70267 10.0048 2.47156 9.75224 2.43601C9.70714 2.42712 9.66203 2.42712 9.62595 2.43601H2.72486C2.47227 2.40045 2.23772 2.56934 2.20164 2.81823C2.16555 3.06711 2.33695 3.29822 2.58954 3.33378C2.64367 3.34267 2.68877 3.34267 2.72486 3.33378Z" />
<path d="M1.99372 15.9999H11.3395C12.4401 16.0088 13.3241 15.1377 13.3332 14.0533C13.3332 14.0444 13.3332 14.0444 13.3332 14.0355V1.9645C13.3422 0.88006 12.4581 0.00895624 11.3575 6.74256e-05C11.3485 6.74256e-05 11.3485 6.74256e-05 11.3395 6.74256e-05H1.99372C0.893151 -0.00882139 0.00908946 0.862282 6.84285e-05 1.94672C6.84285e-05 1.95561 6.84285e-05 1.95561 6.84285e-05 1.9645V14.0355C-0.0089526 15.1199 0.875109 15.991 1.97567 15.9999C1.9847 15.9999 1.9847 15.9999 1.99372 15.9999ZM0.920214 1.9645C0.920214 1.37783 1.39833 0.906726 1.99372 0.906726H11.3395C11.9349 0.906726 12.413 1.37783 12.413 1.9645V14.0355C12.413 14.6222 11.9349 15.0933 11.3395 15.0933H1.99372C1.39833 15.0933 0.920214 14.6222 0.920214 14.0355V1.9645Z" />
<path d="M6.66706 9.04931H2.72487C2.47228 9.04931 2.27382 8.85376 2.27382 8.60487V4.87157C2.27382 4.62268 2.47228 4.42713 2.72487 4.42713H6.66706C6.91965 4.42713 7.11811 4.62268 7.11811 4.87157V8.60487C7.11811 8.85376 6.91965 9.04931 6.66706 9.04931ZM3.17592 8.16043H6.21601V5.31601H3.17592V8.16043Z" />
<path d="M10.5551 9.04931H8.29985C8.04726 9.04931 7.84879 8.85376 7.84879 8.60487V4.87157C7.84879 4.62268 8.04726 4.42713 8.29985 4.42713H10.5551C10.8077 4.42713 11.0062 4.62268 11.0062 4.87157V8.60487C11.0062 8.85376 10.7987 9.04931 10.5551 9.04931ZM8.7509 8.16043H10.1041V5.31601H8.7509V8.16043Z" />
<path d="M4.98013 14.0181H2.72487C2.47228 14.0181 2.27382 13.8226 2.27382 13.5737V9.8404C2.27382 9.59151 2.47228 9.39596 2.72487 9.39596H4.98013C5.23272 9.39596 5.43118 9.59151 5.43118 9.8404V13.5737C5.43118 13.8137 5.23272 14.0181 4.98013 14.0181ZM3.17592 13.1293H4.52908V10.2848H3.17592V13.1293Z" />
<path d="M10.5551 14.0181H6.61291C6.36032 14.0181 6.16186 13.8226 6.16186 13.5737V9.8404C6.16186 9.59151 6.36032 9.39596 6.61291 9.39596H10.5551C10.8077 9.39596 11.0062 9.59151 11.0062 9.8404V13.5737C11.0062 13.8137 10.7987 14.0181 10.5551 14.0181ZM7.06396 13.1293H10.104V10.2848H7.06396V13.1293Z" />
</svg>
