<svg width="16" height="16" viewBox="0 0 16 16" fill="currentColor" xmlns="http://www.w3.org/2000/svg">
<path d="M11.7667 2.74564C12.1 2.74564 12.4 2.88529 12.6667 3.12968C12.8667 3.37406 13 3.68828 13 4.07232V13.6733C13 14.0224 12.8667 14.3367 12.6333 14.616C12.4 14.8603 12.1 15 11.7333 15H4.26667C3.93333 15 3.63333 14.8603 3.36667 14.616C3.13333 14.3367 3 14.0224 3 13.6733V4.07232C3 3.72319 3.13333 3.40898 3.36667 3.12968C3.6 2.88529 3.9 2.74564 4.26667 2.74564H6.6C6.56667 2.67581 6.56667 2.60599 6.56667 2.53616C6.56667 2.11721 6.7 1.76808 7 1.45387C7.3 1.13965 7.6 1 8 1C8.4 1 8.73333 1.13965 9.03333 1.45387C9.33333 1.76808 9.46667 2.11721 9.46667 2.53616C9.46667 2.60599 9.46667 2.67581 9.43333 2.74564H11.7667ZM12.1667 13.6733V4.07232C12.1667 3.93267 12.1333 3.82793 12.0333 3.75811C11.9333 3.68828 11.8667 3.61845 11.7333 3.61845H10.4667V4.17706C10.4667 4.2818 10.4333 4.35162 10.3667 4.42145C10.3333 4.45636 10.2667 4.49127 10.2 4.49127H5.8C5.73333 4.49127 5.66667 4.45636 5.6 4.38653C5.53333 4.31671 5.5 4.24688 5.5 4.17706V3.61845H4.26667C4.13333 3.61845 4.03333 3.65337 3.96667 3.75811C3.9 3.86284 3.83333 3.93267 3.83333 4.07232V13.6733C3.83333 13.813 3.86667 13.9177 3.96667 13.9875C4.06667 14.0574 4.13333 14.1272 4.26667 14.1272H11.7667C11.9 14.1272 12 14.0923 12.0667 13.9875C12.1333 13.8828 12.1667 13.7781 12.1667 13.6733ZM10.6333 7.21446L10.8667 7.42394C10.9333 7.49377 10.9333 7.56359 10.9333 7.66833C10.9333 7.77307 10.9 7.84289 10.8667 7.87781L7.33333 11.5436C7.26667 11.6135 7.2 11.6135 7.1 11.6135C7 11.6135 6.93333 11.5786 6.9 11.5436L5.16667 9.69327C5.1 9.62344 5.06667 9.55362 5.06667 9.48379C5.06667 9.37905 5.1 9.30923 5.16667 9.2394L5.36667 9.02993C5.43333 8.9601 5.5 8.92519 5.6 8.92519C5.7 8.92519 5.76667 8.9601 5.83333 9.02993L7.13333 10.3915L10.2 7.21446C10.2667 7.14464 10.3333 7.14464 10.4333 7.14464C10.5333 7.14464 10.5667 7.14464 10.6333 7.21446ZM8 1.87282C7.83333 1.87282 7.66667 1.94264 7.56667 2.04738C7.43333 2.18703 7.4 2.32668 7.4 2.50125C7.4 2.67581 7.46667 2.85037 7.56667 2.95511C7.66667 3.12968 7.83333 3.1995 8 3.1995C8.16667 3.1995 8.33333 3.12968 8.43333 3.02494C8.56667 2.88529 8.6 2.74564 8.6 2.57107C8.6 2.39651 8.53333 2.22195 8.43333 2.11721C8.33333 1.94264 8.16667 1.87282 8 1.87282Z" />
</svg>
