<svg width="17" height="16" viewBox="0 0 17 16" fill="currentColor" xmlns="http://www.w3.org/2000/svg">
<path fill-rule="evenodd" clip-rule="evenodd" d="M11.4829 1.9561C10.4244 1.30732 9.26342 1 8 1C6.73659 1 5.57561 1.30732 4.51707 1.9561C3.42439 2.60488 2.57073 3.45854 1.9561 4.51707C1.30732 5.57561 1 6.73659 1 8C1 9.26342 1.34146 10.4244 1.9561 11.4829C2.60488 12.5756 3.45854 13.4293 4.51707 14.0439C5.57561 14.6927 6.73659 15 8 15C9.26342 15 10.3902 14.6927 11.4829 14.0439C12.5756 13.3951 13.3951 12.5415 14.0439 11.4829C14.6927 10.4244 15 9.26342 15 8C15 6.73659 14.6927 5.60976 14.0439 4.51707C13.3951 3.42439 12.5415 2.60488 11.4829 1.9561ZM4.96098 2.70732C5.88293 2.16098 6.90732 1.8878 8 1.8878C9.09268 1.8878 10.1171 2.16098 11.039 2.70732C11.961 3.25366 12.7122 4.00488 13.2585 4.92683C13.8049 5.84878 14.078 6.87317 14.078 7.96585C14.078 9.05854 13.8049 10.0829 13.2585 11.0049C12.7122 11.9268 11.961 12.678 11.039 13.2244C10.1171 13.7707 9.09268 14.0439 8 14.0439C6.90732 14.0439 5.88293 13.7707 4.96098 13.2244C4.03903 12.678 3.28781 11.9268 2.74146 11.0049C2.19512 10.0829 1.92195 9.05854 1.92195 7.96585C1.92195 6.87317 2.19512 5.84878 2.74146 4.92683C3.28781 4.00488 4.03903 3.25366 4.96098 2.70732ZM5 9C5.55228 9 6 8.55228 6 8C6 7.44772 5.55228 7 5 7C4.44772 7 4 7.44772 4 8C4 8.55228 4.44772 9 5 9ZM9 8C9 8.55228 8.55228 9 8 9C7.44772 9 7 8.55228 7 8C7 7.44772 7.44772 7 8 7C8.55228 7 9 7.44772 9 8ZM11 9C11.5523 9 12 8.55228 12 8C12 7.44772 11.5523 7 11 7C10.4477 7 10 7.44772 10 8C10 8.55228 10.4477 9 11 9Z" />
</svg>
