<svg width="13" height="16" viewBox="0 0 13 16" fill="currentColor" xmlns="http://www.w3.org/2000/svg">
<path d="M2.99069 4.2224H9.71056C9.77413 4.23146 9.83889 4.22663 9.90046 4.20823C9.96202 4.18982 10.019 4.15828 10.0674 4.11572C10.1159 4.07317 10.1548 4.0206 10.1814 3.96156C10.208 3.90252 10.2218 3.8384 10.2218 3.77351C10.2218 3.70863 10.208 3.6445 10.1814 3.58547C10.1548 3.52643 10.1159 3.47386 10.0674 3.4313C10.019 3.38875 9.96202 3.3572 9.90046 3.3388C9.83889 3.3204 9.77413 3.31556 9.71056 3.32463H2.99069C2.92712 3.31556 2.86236 3.3204 2.8008 3.3388C2.73923 3.3572 2.68229 3.38875 2.63383 3.4313C2.58536 3.47386 2.5465 3.52643 2.51987 3.58547C2.49324 3.6445 2.47945 3.70863 2.47945 3.77351C2.47945 3.8384 2.49324 3.90252 2.51987 3.96156C2.5465 4.0206 2.58536 4.07317 2.63383 4.11572C2.68229 4.15828 2.73923 4.18982 2.8008 4.20823C2.86236 4.22663 2.92712 4.23146 2.99069 4.2224Z" />
<path d="M2.99067 6.48904H9.71054C9.82951 6.48904 9.94361 6.44128 10.0277 6.35627C10.1119 6.27125 10.1591 6.15594 10.1591 6.03571C10.1591 5.91548 10.1119 5.80018 10.0277 5.71516C9.94361 5.63014 9.82951 5.58238 9.71054 5.58238H2.99067C2.8717 5.58238 2.7576 5.63014 2.67348 5.71516C2.58935 5.80018 2.54209 5.91548 2.54209 6.03571C2.54209 6.15594 2.58935 6.27125 2.67348 6.35627C2.7576 6.44128 2.8717 6.48904 2.99067 6.48904Z" />
<path d="M2.99067 8.75569H6.05156C6.17053 8.75569 6.28462 8.70792 6.36875 8.62291C6.45287 8.53789 6.50013 8.42258 6.50013 8.30235C6.50013 8.18212 6.45287 8.06681 6.36875 7.9818C6.28462 7.89678 6.17053 7.84902 6.05156 7.84902H2.99067C2.8717 7.84902 2.7576 7.89678 2.67348 7.9818C2.58936 8.06681 2.54209 8.18212 2.54209 8.30235C2.54209 8.42258 2.58936 8.53789 2.67348 8.62291C2.7576 8.70792 2.8717 8.75569 2.99067 8.75569Z" />
<path d="M8.72544 12.5157C8.68228 12.5546 8.6481 12.6027 8.6253 12.6564C8.60251 12.7102 8.59165 12.7683 8.5935 12.8268C8.59095 12.8866 8.60145 12.9463 8.62425 13.0016C8.64705 13.0569 8.68159 13.1065 8.72544 13.1468C8.76637 13.1897 8.8156 13.2237 8.87006 13.2467C8.92453 13.2696 8.98308 13.281 9.04208 13.2801C9.09991 13.282 9.15746 13.271 9.21064 13.248C9.26383 13.2249 9.31137 13.1904 9.34992 13.1468C9.39537 13.1073 9.43156 13.0581 9.4559 13.0028C9.48024 12.9474 9.49211 12.8873 9.49065 12.8268C9.49272 12.7675 9.48108 12.7084 9.45665 12.6544C9.43222 12.6004 9.39568 12.5529 9.34992 12.5157C9.26623 12.4337 9.15425 12.3878 9.03768 12.3878C8.92111 12.3878 8.80913 12.4337 8.72544 12.5157Z" />
<path d="M1.94386 16H11.0561C11.3117 16.0012 11.565 15.9511 11.8014 15.8528C12.0378 15.7545 12.2525 15.6099 12.4332 15.4272C12.614 15.2446 12.7571 15.0276 12.8544 14.7887C12.9517 14.5498 13.0011 14.2938 13 14.0355V1.96446C13.0011 1.70616 12.9517 1.45018 12.8544 1.21131C12.7571 0.972443 12.614 0.755417 12.4332 0.572767C12.2525 0.390118 12.0378 0.245463 11.8014 0.147157C11.565 0.0488518 11.3117 -0.0011565 11.0561 2.02962e-05H1.94386C1.68826 -0.0011565 1.43497 0.0488518 1.19861 0.147157C0.962245 0.245463 0.747495 0.390118 0.566761 0.572767C0.386026 0.755417 0.242889 0.972443 0.145614 1.21131C0.0483395 1.45018 -0.00114437 1.70616 2.00834e-05 1.96446V14.0355C-0.00114437 14.2938 0.0483395 14.5498 0.145614 14.7887C0.242889 15.0276 0.386026 15.2446 0.566761 15.4272C0.747495 15.6099 0.962245 15.7545 1.19861 15.8528C1.43497 15.9511 1.68826 16.0012 1.94386 16ZM0.897175 1.96446C0.897175 1.68392 1.00745 1.41487 1.20374 1.2165C1.40003 1.01813 1.66626 0.906685 1.94386 0.906685H11.0561C11.1936 0.906685 11.3297 0.934045 11.4567 0.987203C11.5837 1.04036 11.6991 1.11828 11.7963 1.2165C11.8935 1.31472 11.9705 1.43133 12.0231 1.55967C12.0758 1.688 12.1028 1.82555 12.1028 1.96446V14.0355C12.1028 14.1744 12.0758 14.312 12.0231 14.4403C11.9705 14.5687 11.8935 14.6853 11.7963 14.7835C11.6991 14.8817 11.5837 14.9596 11.4567 15.0128C11.3297 15.066 11.1936 15.0933 11.0561 15.0933H1.94386C1.66626 15.0933 1.40003 14.9819 1.20374 14.7835C1.00745 14.5851 0.897175 14.3161 0.897175 14.0355V1.96446Z" />
</svg>
