<svg width="16" height="16" viewBox="0 0 16 16" fill="currentColor" xmlns="http://www.w3.org/2000/svg">
<path d="M10.2934 9.85788C10.6186 10.5903 10.7369 11.3532 10.6778 12.0856C10.6482 12.8791 10.4117 13.581 9.9681 14.1913C9.87939 14.2828 9.79068 14.3439 9.6724 14.3744C9.55412 14.4049 9.43584 14.3744 9.34713 14.2828L5.85788 11.5974L3.87669 14.3134L3.13744 14.9542C3.04873 15.0153 2.96002 15.0153 2.87131 14.9542C2.7826 14.8932 2.75303 14.8016 2.7826 14.6796L3.19658 13.8251L5.20734 11.048L1.68851 8.39306C1.5998 8.30151 1.54066 8.20996 1.51109 8.08789C1.48152 7.96582 1.51109 7.84375 1.5998 7.7522C2.04335 7.14186 2.63475 6.68411 3.374 6.43997C4.05411 6.16532 4.76379 6.07377 5.56218 6.19583L7.0111 4.63947L6.21271 4.02912C6.0353 3.90706 5.97615 3.75447 5.94659 3.57137C5.91702 3.38827 5.97616 3.23568 6.06487 3.0831L7.36594 1.28259C7.48422 1.13001 7.63207 1.03846 7.80949 1.00794C7.98691 0.977421 8.13476 1.03846 8.28261 1.13001L14.2262 5.70756C14.374 5.82963 14.4627 5.98221 14.4923 6.16532C14.5219 6.34842 14.4627 6.501 14.374 6.65359L13.0434 8.45409C12.9251 8.60668 12.7772 8.69823 12.5998 8.72875C12.4224 8.75927 12.2746 8.69823 12.1267 8.60668L11.3283 7.99634L10.2934 9.85788ZM2.57561 7.93531L9.52455 13.2758C9.79068 12.757 9.87939 12.1772 9.82025 11.5363C9.79068 10.9565 9.61326 10.3767 9.28799 9.79684L11.0622 6.62307L12.452 7.69117L13.4869 6.25687L7.92777 1.98448L6.89282 3.4493L8.28261 4.5174L5.85788 7.17238C5.23691 7.01979 4.64551 7.01979 4.11325 7.14186C3.49228 7.26393 2.98959 7.53858 2.57561 7.93531Z" />
</svg>
