<svg width="16" height="16" viewBox="0 0 16 16" fill="currentColor" xmlns="http://www.w3.org/2000/svg">
<path d="M14.5625 9.93182C14.8807 10.1705 15 10.5284 15 10.9261C15 11.3239 14.8409 11.642 14.5227 11.8807L12.0568 13.8295C11.7386 14.0682 11.3409 14.2273 10.9432 14.2273H1.19886C1.15909 14.2273 1.11932 14.1875 1.07954 14.1477C1.03977 14.108 1 14.0682 1 14.0284V13.6307C1 13.5909 1.03977 13.5511 1.07954 13.5114C1.11932 13.4716 1.15909 13.4318 1.19886 13.4318H10.9432C11.2216 13.4318 11.4205 13.3523 11.6193 13.233L14.0852 11.2841C14.2045 11.2045 14.2841 11.0455 14.2841 10.8864C14.2841 10.7273 14.2443 10.608 14.125 10.4886C14.0455 10.4091 13.9261 10.3295 13.767 10.3295C13.6477 10.3295 13.5284 10.3693 13.4091 10.4489L11.8977 11.642C11.6989 11.8011 11.5 11.8409 11.2216 11.8409H6.84659C6.72727 11.8409 6.64773 11.8011 6.56818 11.7216C6.48864 11.642 6.44886 11.5625 6.44886 11.4432C6.44886 11.3239 6.48864 11.2443 6.56818 11.1648C6.64773 11.0852 6.72727 11.0455 6.84659 11.0455H8.99432C9.15341 11.0455 9.3125 11.0057 9.39204 10.8864C9.47159 10.767 9.55114 10.6477 9.55114 10.4886C9.55114 10.3295 9.51136 10.1705 9.39204 10.0909C9.27272 10.0114 9.15341 9.93182 8.99432 9.93182H5.41477C5.05682 9.93182 4.77841 10.0511 4.5 10.25L3.34659 11.0852H1.19886C1.15909 11.0852 1.11932 11.0455 1.07954 11.0057C1.03977 10.9659 1 10.9261 1 10.8864V10.4886C1 10.4489 1.03977 10.4091 1.07954 10.3693C1.11932 10.3295 1.15909 10.2898 1.19886 10.2898H3.06818L4.02272 9.57386C4.42045 9.25568 4.89772 9.09659 5.41477 9.09659H8.95455C9.3125 9.09659 9.59091 9.21591 9.86932 9.41477C10.1477 9.61364 10.3068 9.89205 10.3466 10.25C10.3864 10.5284 10.3466 10.767 10.267 11.0057H11.2614C11.3409 11.0057 11.3807 11.0057 11.4205 10.9659L12.9318 9.77273C13.1705 9.57386 13.4489 9.49432 13.767 9.49432C14.0455 9.57386 14.3239 9.69318 14.5625 9.93182ZM5.97159 5.07955C4.97727 5.07955 4.14204 5.875 4.14204 6.90909C4.14204 7.90341 4.9375 8.73864 5.97159 8.73864C6.96591 8.73864 7.80113 7.94318 7.80113 6.90909C7.76136 5.875 6.96591 5.07955 5.97159 5.07955ZM5.97159 8.02273C5.33523 8.02273 4.81818 7.50568 4.81818 6.90909C4.81818 6.3125 5.33523 5.79545 5.97159 5.79545C6.60795 5.79545 7.125 6.3125 7.125 6.90909C7.125 7.50568 6.56818 8.02273 5.97159 8.02273ZM8.11932 1.5C7.125 1.5 6.28977 2.29545 6.28977 3.32955C6.28977 4.32386 7.08523 5.15909 8.11932 5.15909C9.11364 5.15909 9.94886 4.36364 9.94886 3.32955C9.90909 2.29545 9.11364 1.5 8.11932 1.5ZM8.11932 4.44318C7.48295 4.44318 6.96591 3.92614 6.96591 3.32955C6.96591 2.73295 7.48295 2.21591 8.11932 2.21591C8.75568 2.21591 9.27273 2.73295 9.27273 3.32955C9.27273 3.92614 8.75568 4.44318 8.11932 4.44318ZM10.2273 5.07955C9.23295 5.07955 8.39772 5.875 8.39772 6.90909C8.39772 7.90341 9.19318 8.73864 10.2273 8.73864C11.2216 8.73864 12.0568 7.94318 12.0568 6.90909C12.0568 5.875 11.2614 5.07955 10.2273 5.07955ZM10.2273 8.02273C9.59091 8.02273 9.07387 7.50568 9.07387 6.90909C9.07387 6.3125 9.59091 5.79545 10.2273 5.79545C10.8636 5.79545 11.3807 6.3125 11.3807 6.90909C11.3807 7.50568 10.8636 8.02273 10.2273 8.02273Z" />
</svg>
