<svg width="16" height="16" viewBox="0 0 16 16" fill="currentColor" xmlns="http://www.w3.org/2000/svg">
<path d="M8.8073 1C9.30664 1 9.70407 1.17123 10.0098 1.51818C10.3104 1.86514 10.3868 2.23914 10.2442 2.64017L9.55631 4.9382H11.4874C11.8594 4.9382 12.1855 5.03733 12.4555 5.2401C12.7256 5.44287 12.8988 5.6952 12.9702 6.00611C13.0415 6.31703 12.9854 6.60541 12.7969 6.88027L8.05829 14.3196C7.91053 14.5404 7.7271 14.7071 7.49781 14.8243C7.26853 14.9414 7.01886 15 6.74881 15C6.26985 15 5.88261 14.8333 5.58199 14.4953C5.28136 14.1574 5.19474 13.7789 5.31703 13.3598L6.50423 9.30898H4.50178C4.06359 9.30898 3.69673 9.1693 3.39611 8.88542C3.09549 8.60154 2.96301 8.25909 3.00887 7.85806L3.63049 2.17605C3.67125 1.84712 3.8343 1.56775 4.11454 1.34245C4.39478 1.11715 4.73107 1 5.1285 1H8.8073ZM8.8073 1.87416H5.1285C5.00622 1.87416 4.88903 1.9102 4.78712 1.9823C4.68012 2.0589 4.62917 2.14902 4.62917 2.25716L4.00245 7.94818C3.98207 8.09237 4.02283 8.21403 4.12983 8.30415C4.23683 8.39427 4.35912 8.43933 4.50178 8.43933H7.80863L6.28004 13.5806C6.23928 13.7248 6.26475 13.8555 6.35647 13.9636C6.44818 14.0718 6.58576 14.1258 6.76409 14.1258C6.94243 14.1258 7.08 14.0538 7.187 13.9051L11.9256 6.46572C12.0071 6.32153 12.002 6.17284 11.9103 6.02865C11.8186 5.88445 11.6759 5.80785 11.4874 5.80785H8.24682L9.30664 2.41487C9.3474 2.2887 9.31683 2.16254 9.21492 2.04538C9.10792 1.93273 8.97035 1.87416 8.8073 1.87416Z" />
</svg>
