<svg width="16" height="16" viewBox="0 0 16 16" fill="currentColor" xmlns="http://www.w3.org/2000/svg">
<path d="M13.0875 3.69484C13.3625 3.92488 13.5 4.25352 13.5 4.61502V13.6854C13.5 14.0469 13.3625 14.3756 13.0875 14.6056C12.8125 14.8685 12.5031 15 12.125 15H3.875C3.49687 15 3.15312 14.8685 2.9125 14.6056C2.6375 14.3756 2.5 14.0469 2.5 13.6854V2.31455C2.5 1.95305 2.6375 1.62441 2.9125 1.39437C3.15312 1.13146 3.49687 1 3.875 1H9.71875C10.0969 1 10.4406 1.13146 10.6812 1.39437L13.0875 3.69484ZM12.125 14.1455C12.2625 14.1455 12.3656 14.1127 12.4688 14.0141C12.5719 13.9155 12.6062 13.8169 12.6062 13.6854V5.37089H9.61562C9.40938 5.37089 9.27187 5.30516 9.13437 5.17371C8.99687 5.04225 8.92812 4.87793 8.92812 4.71362V1.88732H3.875C3.7375 1.88732 3.63437 1.92019 3.53125 1.98592C3.42812 2.05164 3.42812 2.1831 3.42812 2.31455V13.6854C3.42812 13.8169 3.4625 13.9155 3.56562 14.0141C3.66875 14.1127 3.7375 14.1455 3.875 14.1455H12.125ZM10.75 7.44132C10.75 7.34272 10.7156 7.277 10.6469 7.21127C10.5781 7.14554 10.5094 7.11268 10.4062 7.11268H5.59375C5.49062 7.11268 5.42187 7.14554 5.35312 7.21127C5.28437 7.277 5.25 7.37559 5.25 7.44132V7.67136C5.25 7.76995 5.28437 7.83568 5.35312 7.90141C5.42187 7.96714 5.49062 8 5.59375 8H10.4062C10.5094 8 10.5781 7.96714 10.6469 7.90141C10.7156 7.83568 10.75 7.76995 10.75 7.67136V7.44132ZM10.75 9.21596C10.75 9.11737 10.7156 9.05164 10.6469 8.98592C10.5781 8.92019 10.5094 8.88732 10.4062 8.88732H5.59375C5.49062 8.88732 5.42187 8.92019 5.35312 8.98592C5.28437 9.05164 5.25 9.11737 5.25 9.21596V9.44601C5.25 9.5446 5.28437 9.61033 5.35312 9.67606C5.42187 9.74178 5.49062 9.77465 5.59375 9.77465H10.4062C10.5094 9.77465 10.5781 9.74178 10.6469 9.67606C10.7156 9.61033 10.75 9.5446 10.75 9.44601V9.21596ZM10.75 10.9577C10.75 10.8592 10.7156 10.7934 10.6469 10.7277C10.5781 10.662 10.5094 10.6291 10.4062 10.6291H5.59375C5.49062 10.6291 5.42187 10.662 5.35312 10.7277C5.28437 10.7934 5.25 10.8592 5.25 10.9577V11.1878C5.25 11.2864 5.28437 11.3521 5.35312 11.4178C5.42187 11.4836 5.49062 11.5164 5.59375 11.5164H10.4062C10.5094 11.5164 10.5781 11.4836 10.6469 11.4178C10.7156 11.3521 10.75 11.2535 10.75 11.1878V10.9577ZM12.4344 4.31925L10.0281 2.01878C9.95937 1.95305 9.89062 1.92019 9.82187 1.88732V4.51643H12.5719C12.5375 4.41784 12.4687 4.35211 12.4344 4.31925Z" />
</svg>
