<svg width="16" height="16" viewBox="0 0 16 16" fill="currentColor" xmlns="http://www.w3.org/2000/svg">
<path d="M14.5459 4.06487C14.8486 4.36757 15 4.70811 15 5.12432V13.4865C15 13.9027 14.8486 14.2432 14.5459 14.5459C14.2432 14.8486 13.9027 15 13.4865 15H2.51351C2.0973 15 1.75676 14.8486 1.45405 14.5459C1.15135 14.2432 1 13.9027 1 13.4865V2.51351C1 2.0973 1.15135 1.75676 1.45405 1.45405C1.75676 1.15135 2.0973 1 2.51351 1H10.8757C11.2919 1 11.6324 1.15135 11.9351 1.45405L14.5459 4.06487ZM13.9784 13.4865V5.12432C13.9784 4.97297 13.9405 4.85946 13.827 4.78378L11.2162 2.17297C11.1405 2.0973 11.0649 2.05946 10.9892 2.02162V5.27568C10.9892 5.46486 10.9135 5.65405 10.7622 5.80541C10.6108 5.95676 10.4216 6.03243 10.2324 6.03243H3.72432C3.53513 6.03243 3.34594 5.95676 3.19459 5.80541C3.04324 5.65405 2.96757 5.46486 2.96757 5.27568V2.02162H2.47567C2.32432 2.02162 2.21081 2.05946 2.13514 2.17297C2.05946 2.28649 1.98378 2.4 1.98378 2.51351V13.4865C1.98378 13.6378 2.02162 13.7514 2.13514 13.827C2.24865 13.9027 2.36216 13.9784 2.47567 13.9784H13.4486C13.6 13.9784 13.7135 13.9405 13.7892 13.827C13.9405 13.7514 13.9784 13.6378 13.9784 13.4865ZM10.0054 2.02162H4.02703V5.01081H10.0054V2.02162ZM8 7.24324C8.75676 7.24324 9.4 7.50811 9.92973 8.03784C10.4595 8.56757 10.7243 9.21081 10.7243 9.96757C10.7243 10.7243 10.4595 11.3676 9.92973 11.8973C9.4 12.427 8.75676 12.6919 8 12.6919C7.24324 12.6919 6.6 12.427 6.07027 11.8973C5.54054 11.3676 5.27567 10.7243 5.27567 9.96757C5.27567 9.21081 5.54054 8.56757 6.07027 8.03784C6.6 7.50811 7.24324 7.24324 8 7.24324ZM8 11.7459C8.49189 11.7459 8.90811 11.5568 9.24865 11.2162C9.58919 10.8757 9.77838 10.4595 9.77838 9.96757C9.77838 9.47568 9.58919 9.05946 9.24865 8.71892C8.90811 8.37838 8.49189 8.18919 8 8.18919C7.50811 8.18919 7.09189 8.37838 6.75135 8.71892C6.41081 9.05946 6.22162 9.47568 6.22162 9.96757C6.22162 10.4595 6.41081 10.8757 6.75135 11.2162C7.09189 11.5568 7.50811 11.7459 8 11.7459Z" />
</svg>
