<svg width="16" height="16" viewBox="0 0 16 16" fill="currentColor" xmlns="http://www.w3.org/2000/svg">
<path fill-rule="evenodd" clip-rule="evenodd" d="M14.8027 13.8292C14.9253 13.9518 15 14.1319 15 14.3115C15 14.6855 14.6855 15 14.3115 15C14.1318 15 13.9556 14.9255 13.836 14.8007L10.4828 11.4571L10.1683 11.6749C9.20085 12.3446 8.03796 12.7049 6.85246 12.7049C3.61852 12.7049 1 10.0864 1 6.85246C1 3.61852 3.61852 1 6.85246 1C10.0864 1 12.7049 3.61852 12.7049 6.85246C12.7049 8.03796 12.3446 9.20085 11.6749 10.1683L11.4568 10.4833L14.8027 13.8292ZM6.85246 11.3279C9.32036 11.3279 11.3279 9.32036 11.3279 6.85246C11.3279 4.38455 9.32036 2.37705 6.85246 2.37705C4.38455 2.37705 2.37705 4.38455 2.37705 6.85246C2.37705 9.32036 4.38455 11.3279 6.85246 11.3279Z" />
</svg>
