<svg width="16" height="16" viewBox="0 0 16 16" fill="currentColor" xmlns="http://www.w3.org/2000/svg">
<path d="M13.7444 7.51375L2.76437 1.53791C2.66288 1.50327 2.55481 1.49216 2.44837 1.50544C2.34193 1.51871 2.23993 1.55602 2.15011 1.61452C2.08293 1.69229 2.03703 1.78605 2.01685 1.88672C1.99667 1.98739 2.0029 2.09156 2.03493 2.18912L3.95451 8.01174L2.03493 13.8344C1.99876 13.9188 1.99042 14.0126 2.01112 14.1021C2.03183 14.1916 2.08049 14.2722 2.15011 14.3323L2.1885 14.3707C2.26313 14.4463 2.36299 14.492 2.46914 14.499C2.57528 14.5061 2.68034 14.474 2.76437 14.409L13.7444 8.43311C13.8226 8.38445 13.8871 8.31671 13.9318 8.23629C13.9765 8.15587 14 8.06541 14 7.97343C14 7.88146 13.9765 7.791 13.9318 7.71058C13.8871 7.63016 13.8226 7.56242 13.7444 7.51375ZM11.4793 7.47545H4.87591L3.41703 3.10848L11.4793 7.47545ZM3.41703 12.915L4.87591 8.47142L11.5176 8.50973L3.41703 12.915Z" />
</svg>
