<svg width="16" height="16" viewBox="0 0 16 16" fill="currentColor" xmlns="http://www.w3.org/2000/svg">
<path d="M7.12391 2.74054C6.79607 2.74054 6.5303 2.48078 6.5303 2.16036C6.5303 1.83993 6.79607 1.58018 7.12391 1.58018H14.4064C14.7342 1.58018 15 1.83993 15 2.16036C15 2.48078 14.7342 2.74054 14.4064 2.74054H7.12391Z" />
<path d="M7.12391 6.6084C6.79607 6.6084 6.5303 6.34865 6.5303 6.02822C6.5303 5.7078 6.79607 5.44804 7.12391 5.44804H12.4229C12.7507 5.44804 13.0165 5.7078 13.0165 6.02822C13.0165 6.34865 12.7507 6.6084 12.4229 6.6084H7.12391Z" />
<path d="M6.5303 9.89609C6.5303 10.2165 6.79607 10.4763 7.12391 10.4763H10.5697C10.8975 10.4763 11.1633 10.2165 11.1633 9.89609C11.1633 9.57566 10.8975 9.31591 10.5697 9.31591H7.12391C6.79607 9.31591 6.5303 9.57566 6.5303 9.89609Z" />
<path d="M7.12391 14.3441C6.79607 14.3441 6.5303 14.0844 6.5303 13.7639C6.5303 13.4435 6.79607 13.1838 7.12391 13.1838H8.71649C9.04433 13.1838 9.3101 13.4435 9.3101 13.7639C9.3101 14.0844 9.04433 14.3441 8.71649 14.3441H7.12391Z" />
<path d="M6.06684 4.04691C5.83498 4.27352 5.45907 4.27352 5.22721 4.04691L4.21393 3.05655V14.4198C4.21393 14.7402 3.94816 15 3.62032 15C3.29248 15 3.02671 14.7402 3.02671 14.4198V3.05655L2.01335 4.04698C1.78154 4.27355 1.40568 4.27355 1.17386 4.04698C0.942045 3.8204 0.942045 3.45305 1.17386 3.22648L3.27259 1.17523L3.27387 1.17649C3.28233 1.16746 3.29099 1.15858 3.29985 1.14985C3.34986 1.10057 3.4048 1.05497 3.47116 1.03023C3.51427 1.01416 3.56729 1 3.62032 1C3.66695 1 3.71574 1.01095 3.7583 1.02452C3.84219 1.05126 3.91133 1.10752 3.97202 1.17012C3.98957 1.18822 4.00625 1.20698 4.02202 1.22635L6.06698 3.22641C6.29871 3.45304 6.29864 3.82035 6.06684 4.04691Z" />
</svg>
