<svg width="16" height="16" viewBox="0 0 16 16" fill="currentColor" xmlns="http://www.w3.org/2000/svg">
<path d="M7.12391 2.74054C6.79607 2.74054 6.5303 2.48078 6.5303 2.16036C6.5303 1.83993 6.79607 1.58018 7.12391 1.58018H14.4064C14.7342 1.58018 15 1.83993 15 2.16036C15 2.48078 14.7342 2.74054 14.4064 2.74054H7.12391Z" />
<path d="M7.12391 6.6084C6.79607 6.6084 6.5303 6.34865 6.5303 6.02822C6.5303 5.7078 6.79607 5.44804 7.12391 5.44804H12.4229C12.7507 5.44804 13.0165 5.7078 13.0165 6.02822C13.0165 6.34865 12.7507 6.6084 12.4229 6.6084H7.12391Z" />
<path d="M6.5303 9.89609C6.5303 10.2165 6.79607 10.4763 7.12391 10.4763H10.5697C10.8975 10.4763 11.1633 10.2165 11.1633 9.89609C11.1633 9.57566 10.8975 9.31591 10.5697 9.31591H7.12391C6.79607 9.31591 6.5303 9.57566 6.5303 9.89609Z" />
<path d="M7.12391 14.3441C6.79607 14.3441 6.5303 14.0844 6.5303 13.7639C6.5303 13.4435 6.79607 13.1838 7.12391 13.1838H8.71649C9.04433 13.1838 9.3101 13.4435 9.3101 13.7639C9.3101 14.0844 9.04433 14.3441 8.71649 14.3441H7.12391Z" />
<path d="M6.06684 11.9531C5.83498 11.7265 5.45907 11.7265 5.22721 11.9531L4.21393 12.9435V1.58018C4.21393 1.25976 3.94816 1 3.62032 1C3.29248 1 3.02671 1.25976 3.02671 1.58018V12.9435L2.01335 11.953C1.78154 11.7264 1.40568 11.7264 1.17386 11.953C0.942045 12.1796 0.942045 12.5469 1.17386 12.7735L3.27259 14.8248L3.27387 14.8235C3.28233 14.8325 3.29099 14.8414 3.29985 14.8502C3.34986 14.8994 3.4048 14.945 3.47116 14.9698C3.51427 14.9858 3.56729 15 3.62032 15C3.66695 15 3.71574 14.9891 3.7583 14.9755C3.84219 14.9487 3.91133 14.8925 3.97202 14.8299C3.98957 14.8118 4.00625 14.793 4.02202 14.7736L6.06698 12.7736C6.29871 12.547 6.29864 12.1797 6.06684 11.9531Z" />
</svg>
