<svg width="13" height="16" viewBox="0 0 13 16" fill="currentColor" xmlns="http://www.w3.org/2000/svg">
<path d="M1.9439 15.9999H11.0561C12.1292 16.0088 12.9911 15.1377 12.9999 14.0533C12.9999 14.0444 12.9999 14.0444 12.9999 14.0355V1.9645C13.0087 0.88006 12.1468 0.00895623 11.0737 6.74257e-05C11.0649 6.74257e-05 11.0649 6.74257e-05 11.0561 6.74257e-05H1.9439C0.870829 -0.00882139 0.00886231 0.862282 6.67185e-05 1.94672C6.67185e-05 1.95561 6.67185e-05 1.95561 6.67185e-05 1.9645V14.0355C-0.00872887 15.1199 0.853238 15.991 1.9263 15.9999C1.9351 15.9999 1.9351 15.9999 1.9439 15.9999ZM0.897216 1.9645C0.897216 1.37783 1.36338 0.906726 1.9439 0.906726H11.0561C11.6366 0.906726 12.1028 1.37783 12.1028 1.9645V14.0355C12.1028 14.6222 11.6366 15.0933 11.0561 15.0933H1.9439C1.36338 15.0933 0.897216 14.6222 0.897216 14.0355V1.9645Z" />
<path d="M6.38606 12.9159C6.30691 12.9159 6.21896 12.8893 6.14858 12.8448L2.49842 10.516C2.36649 10.4359 2.29612 10.2937 2.29612 10.1426V6.00932C2.29612 5.83156 2.40166 5.67155 2.56878 5.60043L6.3157 4.03601C6.42125 3.99156 6.54438 3.99156 6.64993 4.03601L10.4056 5.60043C10.5728 5.67155 10.6783 5.83156 10.6783 6.00932V10.3915C10.6783 10.5515 10.5904 10.7026 10.4496 10.7826L6.59716 12.8626C6.52679 12.8982 6.45643 12.9159 6.38606 12.9159ZM3.17569 9.89373L6.40365 11.9559L9.79876 10.1249V6.30265L6.48282 4.92488L3.17569 6.30265V9.89373Z" />
<path d="M6.35088 12.8982C6.1046 12.8982 5.91109 12.7026 5.91109 12.4537V7.84042L2.63914 6.35599C2.41926 6.25821 2.32249 5.99155 2.41926 5.76934C2.51601 5.5471 2.77987 5.44933 2.99976 5.5471L6.5268 7.15598C6.6851 7.2271 6.78187 7.3871 6.78187 7.56487V12.4626C6.79066 12.7026 6.59715 12.8982 6.35088 12.8982Z" />
<path d="M6.35086 8.0004C6.17495 8.0004 6.00784 7.89374 5.93747 7.71596C5.84952 7.48486 5.96386 7.22708 6.18374 7.13818L10.0714 5.59154C10.3001 5.50266 10.5551 5.61821 10.6431 5.84042C10.7311 6.06263 10.6167 6.3293 10.3968 6.4182L6.50919 7.97373C6.45641 7.99151 6.40365 8.0004 6.35086 8.0004Z" />
</svg>
