<svg width="16" height="16" viewBox="0 0 16 16" fill="currentColor" xmlns="http://www.w3.org/2000/svg">
<path d="M10.9838 2.78302H13.3514C13.5135 2.78302 13.6757 2.84906 13.8054 2.98113C13.9351 3.11321 14 3.2783 14 3.4434V3.50943C14 3.54245 13.9676 3.57547 13.9351 3.60849C13.9027 3.64151 13.8703 3.67453 13.8378 3.67453H13.1568V13.6792C13.1568 14.0425 13.027 14.3396 12.7676 14.6038C12.5081 14.8679 12.2162 15 11.8595 15H4.14054C3.78378 15 3.49189 14.8679 3.23243 14.6038C2.97297 14.3396 2.84324 14.0425 2.84324 13.6792V3.64151H2.16216C2.12973 3.64151 2.0973 3.60849 2.06486 3.57547C2.03243 3.54245 2 3.50943 2 3.47641V3.41038C2 3.24528 2.06486 3.08019 2.19459 2.94811C2.32432 2.81604 2.48649 2.75 2.64865 2.75H5.01621L5.92432 1.5283C6.18378 1.19811 6.50811 1 6.92973 1H9.07027C9.49189 1 9.84865 1.16509 10.0757 1.5283L10.9838 2.78302ZM12.2486 13.6462V3.64151H3.68649V13.6462C3.68649 13.7783 3.71892 13.8774 3.81621 13.9434C3.88108 14.0094 4.01081 14.0755 4.10811 14.0755H11.827C11.9568 14.0755 12.0541 14.0425 12.1189 13.9434C12.2162 13.8774 12.2486 13.7783 12.2486 13.6462ZM5.40541 12.4575C5.40541 12.5566 5.43783 12.6226 5.5027 12.6887C5.56756 12.7547 5.63243 12.7877 5.72973 12.7877H5.95676C6.05405 12.7877 6.11892 12.7547 6.18378 12.6887C6.24865 12.6226 6.28108 12.5566 6.28108 12.4575V5.25943C6.28108 5.16038 6.24865 5.09434 6.18378 5.0283C6.11892 4.96226 6.05405 4.92925 5.95676 4.92925H5.72973C5.63243 4.92925 5.56756 4.96226 5.5027 5.0283C5.43783 5.09434 5.40541 5.16038 5.40541 5.25943V12.4575ZM6.89729 1.89151C6.76756 1.89151 6.63784 1.95755 6.54054 2.0566L6.02162 2.75H9.88108L9.36216 2.0566C9.26486 1.95755 9.16756 1.89151 9.0054 1.89151H6.89729ZM7.54594 12.4575C7.54594 12.5566 7.57838 12.6226 7.64324 12.6887C7.70811 12.7547 7.77297 12.7877 7.87027 12.7877H8.09729C8.19459 12.7877 8.25946 12.7547 8.32432 12.6887C8.38919 12.6226 8.42162 12.5566 8.42162 12.4575V5.25943C8.42162 5.16038 8.38919 5.09434 8.32432 5.0283C8.25946 4.96226 8.19459 4.92925 8.09729 4.92925H7.87027C7.77297 4.92925 7.70811 4.96226 7.64324 5.0283C7.57838 5.09434 7.54594 5.16038 7.54594 5.25943V12.4575ZM9.68649 12.4575C9.68649 12.5566 9.71892 12.6226 9.78378 12.6887C9.84865 12.7547 9.91351 12.7877 10.0108 12.7877H10.2378C10.3351 12.7877 10.4 12.7547 10.4649 12.6887C10.5297 12.6226 10.5622 12.5566 10.5622 12.4575V5.25943C10.5622 5.16038 10.5297 5.09434 10.4649 5.0283C10.4 4.96226 10.3351 4.92925 10.2378 4.92925H10.0108C9.91351 4.92925 9.84865 4.96226 9.78378 5.0283C9.71892 5.09434 9.68649 5.16038 9.68649 5.25943V12.4575Z" />
</svg>
