<svg width="16" height="16" viewBox="0 0 16 16" fill="currentColor" xmlns="http://www.w3.org/2000/svg">
<path fill-rule="evenodd" clip-rule="evenodd" d="M10.5034 12.7995C10.5034 12.64 10.5672 12.5125 10.6629 12.4168C10.7904 12.3211 10.8861 12.2573 11.0456 12.2573C11.205 12.2573 11.3326 12.3211 11.4282 12.4168C11.5239 12.5125 11.5877 12.64 11.5877 12.7995C11.5877 12.9589 11.5239 13.0865 11.4282 13.1822C11.3326 13.2778 11.205 13.3416 11.0456 13.3416C10.8861 13.3416 10.7585 13.2778 10.6629 13.1822C10.5672 13.0865 10.5034 12.9589 10.5034 12.7995ZM12.7995 13.3416C12.959 13.3416 13.0866 13.2778 13.1822 13.1822C13.3098 13.0865 13.3417 12.9589 13.3417 12.7995C13.3417 12.64 13.2779 12.5125 13.1822 12.4168C13.0866 12.3211 12.959 12.2573 12.7995 12.2573C12.6401 12.2573 12.5125 12.3211 12.4169 12.4168C12.3212 12.5125 12.2574 12.64 12.2574 12.7995C12.2574 12.9589 12.3212 13.0865 12.4169 13.1822C12.5125 13.2778 12.6401 13.3416 12.7995 13.3416Z" />
<path d="M15 13.7881C15 14.107 14.8724 14.394 14.6492 14.6491C14.426 14.9043 14.139 14.9999 13.7882 14.9999H2.21185C1.89294 14.9999 1.60592 14.8724 1.3508 14.6491C1.09567 14.4259 1 14.107 1 13.7881V10.9498C1 10.6309 1.12756 10.3439 1.3508 10.0888C1.57403 9.83364 1.86105 9.73797 2.21185 9.73797H5V10.6309H2.21185C2.11617 10.6309 2.05239 10.6628 1.98861 10.7266C1.92483 10.7904 1.89294 10.8541 1.89294 10.9498V13.7881C1.89294 13.8838 1.92483 13.9475 1.98861 14.0113C2.05239 14.0751 2.11617 14.107 2.21185 14.107H13.7882C13.8838 14.107 13.9476 14.0751 14.0114 14.0113C14.0752 13.9475 14.1071 13.8838 14.1071 13.7881V10.9498C14.1071 10.8541 14.0752 10.7904 14.0114 10.7266C13.9476 10.6628 13.8838 10.6309 13.7882 10.6309H11.0456V9.73797H13.7882C14.1071 9.73797 14.3941 9.86553 14.6492 10.0888C14.9043 10.312 15 10.599 15 10.9498V13.7881Z" />
<path fill-rule="evenodd" clip-rule="evenodd" d="M3.3918 5.17768C3.16856 5.40091 3.07289 5.68793 3.07289 5.97494C3.07289 6.26196 3.20046 6.51708 3.3918 6.74032C3.58314 6.96355 3.83827 7.05923 4.15718 7.05923H5.59225V10.9157C5.59225 11.2346 5.68793 11.4897 5.91116 11.6811C6.1344 11.8724 6.38952 12 6.67654 12H9.29157C9.61048 12 9.8656 11.9043 10.0569 11.6811C10.2483 11.4579 10.3759 11.2027 10.3759 10.9157V7.05923H11.8428C12.1617 7.05923 12.4169 6.96355 12.6082 6.74032C12.7995 6.51708 12.9271 6.26196 12.9271 5.97494C12.9271 5.68793 12.8314 5.4328 12.6082 5.17768L8.78132 1.31891C8.58998 1.09567 8.33485 1 8.01595 1C7.69704 1 7.44191 1.09567 7.25057 1.31891L3.3918 5.17768ZM8.14351 1.95672C8.07973 1.92483 8.04784 1.89294 7.98405 1.89294C7.95216 1.89294 7.88838 1.89294 7.85649 1.95672L4.02961 5.81549C3.93394 5.91116 3.93394 5.97494 3.96583 6.07062C3.99772 6.16629 4.0615 6.19818 4.15718 6.19818H6.4533V10.9157C6.4533 10.9795 6.48519 11.0433 6.51708 11.0752C6.58087 11.1071 6.61276 11.139 6.67654 11.139H9.29157C9.35535 11.139 9.41913 11.1071 9.45103 11.0752C9.48292 11.0114 9.51481 10.9795 9.51481 10.9157V6.19818H11.8428C11.9385 6.19818 12.0023 6.16629 12.0342 6.07062C12.0661 5.97494 12.0342 5.87927 11.9704 5.81549L8.14351 1.95672Z" />
</svg>
