<svg width="16" height="16" viewBox="0 0 16 16" fill="currentColor" xmlns="http://www.w3.org/2000/svg">
<path d="M14 5.85075V13.1493C14 13.3731 13.9111 13.597 13.7333 13.7313C13.5556 13.8657 13.3778 14 13.1111 14H2.84444C2.62222 14 2.4 13.9104 2.22222 13.7313C2.04444 13.5522 2 13.3731 2 13.1493V5.85075C2 5.58209 2.08889 5.31343 2.22222 5.04478L3.55556 2.58209C3.6 2.40299 3.73333 2.26866 3.86667 2.13433C4 2.04478 4.13333 2 4.31111 2H11.6444C11.8222 2 12 2.04478 12.1333 2.1791C12.2667 2.26866 12.4 2.44776 12.4444 2.62687L13.7778 5.08955C13.9556 5.31343 14 5.58209 14 5.85075ZM2.84444 13.1493H13.1556V6.29851H2.84444V13.1493ZM4.31111 2.85075L2.97778 5.44776H7.6V2.85075H4.31111ZM8.66667 9.47761C8.93333 9.56716 9.11111 9.70149 9.24444 9.8806C9.37778 10.1045 9.46667 10.3284 9.46667 10.5522C9.46667 10.8657 9.37778 11.1343 9.15556 11.3582C8.97778 11.5821 8.71111 11.7164 8.4 11.7164V12.0746C8.4 12.1194 8.4 12.1642 8.31111 12.209C8.22222 12.2537 8.26667 12.2985 8.22222 12.2985H7.77778C7.73333 12.2985 7.68889 12.2985 7.64444 12.2537C7.6 12.209 7.55556 12.1642 7.55556 12.1194V11.7612C7.28889 11.7612 7.02222 11.6269 6.8 11.4478C6.75556 11.403 6.71111 11.3582 6.71111 11.3134C6.71111 11.2687 6.71111 11.1791 6.75556 11.1343L7.06667 10.8209C7.15556 10.7313 7.24444 10.7313 7.33333 10.7761C7.42222 10.8209 7.51111 10.8657 7.64444 10.8657H8.35556C8.44444 10.8657 8.48889 10.8209 8.53333 10.7761C8.57778 10.7313 8.62222 10.6418 8.62222 10.5522C8.62222 10.4179 8.57778 10.3284 8.44444 10.2836L7.33333 9.97015C7.06667 9.8806 6.88889 9.74627 6.75556 9.56716C6.62222 9.34328 6.53333 9.1194 6.53333 8.89552C6.53333 8.58209 6.62222 8.31343 6.84444 8.08955C7.02222 7.86567 7.28889 7.73134 7.6 7.73134V7.37313C7.6 7.32836 7.6 7.28358 7.68889 7.23881C7.77778 7.19403 7.77778 7.19403 7.82222 7.19403H8.26667C8.31111 7.19403 8.35556 7.19403 8.4 7.23881C8.44444 7.28358 8.48889 7.32836 8.48889 7.37313V7.73134C8.75556 7.73134 9.02222 7.86567 9.24444 8.04478C9.28889 8.08955 9.33333 8.13433 9.33333 8.1791C9.33333 8.22388 9.33333 8.31343 9.28889 8.35821L8.97778 8.67164C8.88889 8.76119 8.8 8.76119 8.71111 8.71642C8.62222 8.67164 8.53333 8.62687 8.4 8.62687H7.68889C7.6 8.62687 7.55556 8.67164 7.51111 8.71642C7.46667 8.76119 7.42222 8.85075 7.42222 8.9403C7.42222 9.07463 7.46667 9.16418 7.6 9.20896L8.66667 9.47761ZM8.44444 2.85075V5.40299H13.0667L11.6889 2.85075H8.44444Z" />
</svg>
