<svg width="16" height="16" viewBox="0 0 16 16" fill="currentColor" xmlns="http://www.w3.org/2000/svg">
<path d="M14.8228 7.90789C14.9409 8.08553 15 8.29276 15 8.5C15 8.70724 14.9409 8.91447 14.8228 9.09211C14.1139 10.2763 13.1688 11.2237 11.9873 11.9342C10.7764 12.6447 9.44726 13 8 13C6.55274 13 5.22363 12.6447 4.01266 11.9342C2.80169 11.2237 1.85654 10.2763 1.17722 9.09211C1.05907 8.91447 1 8.70724 1 8.5C1 8.29276 1.05907 8.08553 1.17722 7.90789C1.88608 6.72368 2.83122 5.77632 4.01266 5.06579C5.22363 4.35526 6.55274 4 8 4C9.44726 4 10.7764 4.35526 11.9873 5.06579C13.1688 5.77632 14.1435 6.72368 14.8228 7.90789ZM14.173 8.67763C14.2616 8.55921 14.2616 8.41118 14.173 8.29276C13.8186 7.67105 13.3755 7.13816 12.8439 6.63487C12.3122 6.13158 11.7215 5.74671 11.0717 5.45066C11.6329 6.13158 11.8987 6.90132 11.8987 7.78947C11.8987 8.47039 11.7215 9.12171 11.3671 9.68421C11.0127 10.2763 10.5401 10.7204 9.94937 11.0757C9.35865 11.4309 8.70886 11.5789 8 11.5789C7.29114 11.5789 6.64135 11.4013 6.05063 11.0757C5.45992 10.7204 4.98734 10.2763 4.63291 9.68421C4.27848 9.09211 4.10127 8.47039 4.10127 7.78947C4.10127 6.90132 4.36709 6.13158 4.92827 5.45066C4.27848 5.74671 3.68776 6.16118 3.15612 6.63487C2.62447 7.10855 2.1519 7.70066 1.79747 8.29276C1.70886 8.41118 1.70886 8.55921 1.79747 8.67763C2.41772 9.74342 3.3038 10.602 4.39662 11.2533C5.48945 11.9046 6.70042 12.2007 7.97046 12.2007C9.24051 12.2007 10.4515 11.875 11.5443 11.2533C12.6667 10.6316 13.5527 9.77303 14.173 8.67763ZM11.1013 7.81908C11.1013 7.25658 10.9536 6.75329 10.6878 6.27961C10.4219 5.80592 10.038 5.45066 9.5654 5.18421C9.09283 4.91776 8.56118 4.76974 8 4.76974C7.43882 4.76974 6.90717 4.91776 6.4346 5.18421C5.96202 5.45066 5.57806 5.80592 5.31224 6.27961C5.04641 6.75329 4.89873 7.25658 4.89873 7.81908C4.89873 8.38158 5.04641 8.88487 5.31224 9.35855C5.57806 9.83224 5.96202 10.1875 6.4346 10.4539C6.90717 10.7204 7.43882 10.8684 8 10.8684C8.56118 10.8684 9.09283 10.7204 9.5654 10.4539C10.038 10.1875 10.4219 9.83224 10.6878 9.35855C10.9536 8.88487 11.1013 8.35197 11.1013 7.81908ZM6.4346 7.70066C6.4346 8.14474 6.58228 8.5 6.87764 8.82566C7.173 9.12171 7.55696 9.26974 8 9.26974C8.44304 9.26974 8.79747 9.12171 9.12236 8.82566C9.41772 8.5296 9.5654 8.14474 9.5654 7.70066C9.5654 7.25658 9.41772 6.90132 9.12236 6.57566C8.827 6.27961 8.44304 6.13158 8 6.13158C7.73418 6.13158 7.49789 6.19079 7.2616 6.33882C7.43882 6.33882 7.5865 6.39803 7.70464 6.51645C7.82278 6.63487 7.88186 6.78289 7.88186 6.96053C7.88186 7.13816 7.82278 7.28618 7.70464 7.40461C7.5865 7.52303 7.43882 7.58224 7.2616 7.58224C7.08439 7.58224 6.93671 7.52303 6.81856 7.40461C6.70042 7.28618 6.64135 7.13816 6.64135 6.96053C6.49367 7.19737 6.4346 7.46382 6.4346 7.70066Z" />
</svg>
