<svg width="16" height="16" viewBox="0 0 16 16" fill="currentColor" xmlns="http://www.w3.org/2000/svg">
<path fill-rule="evenodd" clip-rule="evenodd" d="M5.66667 6.83333C6.3099 6.83333 6.83333 6.3099 6.83333 5.66667V2.16667C6.83333 1.52387 6.30964 1 5.66667 1H2.16667C1.52369 1 1 1.52387 1 2.16667V5.66667C1 6.3099 1.52343 6.83333 2.16667 6.83333H5.66667ZM5.66667 2.16667H2.16667V5.66654H5.66457L5.66667 2.16667Z" />
<path fill-rule="evenodd" clip-rule="evenodd" d="M15 5.66667C15 6.3099 14.4766 6.83333 13.8333 6.83333H10.3333C9.6901 6.83333 9.16667 6.3099 9.16667 5.66667V2.16667C9.16667 1.52387 9.69036 1 10.3333 1H13.8333C14.4763 1 15 1.52387 15 2.16667V5.66667ZM13.8333 2.16667H10.3333V5.66654H13.8312L13.8333 2.16667Z" />
<path fill-rule="evenodd" clip-rule="evenodd" d="M13.8333 15C14.4766 15 15 14.4766 15 13.8333V10.3333C15 9.69054 14.4763 9.16667 13.8333 9.16667H10.3333C9.69036 9.16667 9.16667 9.69054 9.16667 10.3333V13.8333C9.16667 14.4766 9.6901 15 10.3333 15H13.8333ZM13.8333 10.3333H10.3333V13.8332H13.8312L13.8333 10.3333Z" />
<path fill-rule="evenodd" clip-rule="evenodd" d="M5.66667 15C6.3099 15 6.83333 14.4766 6.83333 13.8333V10.3333C6.83333 9.69054 6.30964 9.16667 5.66667 9.16667H2.16667C1.52369 9.16667 1 9.69054 1 10.3333V13.8333C1 14.4766 1.52343 15 2.16667 15H5.66667ZM5.66667 10.3333H2.16667V13.8332H5.66457L5.66667 10.3333Z" />
</svg>
