<svg width="16" height="16" viewBox="0 0 16 16" fill="currentColor" xmlns="http://www.w3.org/2000/svg">
<path fill-rule="evenodd" clip-rule="evenodd" d="M4 1H2C1.44772 1 1 1.4494 1 2.00378V2.95471C1 3.50903 1.44772 3.9585 2 3.9585H4V1ZM3 2.00378H2V3.00757H3V2.00378Z" />
<path fill-rule="evenodd" clip-rule="evenodd" d="M5 3.9585H14C14.5523 3.9585 15 3.50903 15 2.95471V2.00378C15 1.4494 14.5523 1 14 1H5V3.9585ZM6 3.00757H14V2.00378H6V3.00757Z" />
<path fill-rule="evenodd" clip-rule="evenodd" d="M4 4.63867H2C1.44772 4.63867 1 5.08807 1 5.64246V6.59338C1 7.14777 1.44772 7.59717 2 7.59717H4V4.63867ZM3 5.64246H2V6.64624H3V5.64246Z" />
<path fill-rule="evenodd" clip-rule="evenodd" d="M5 4.63867H14C14.5523 4.63867 15 5.08807 15 5.64246V6.59338C15 7.14777 14.5523 7.59717 14 7.59717H5V4.63867ZM14 6.64624H6V5.64246H14V6.64624Z" />
<path fill-rule="evenodd" clip-rule="evenodd" d="M4 8.40283H2C1.44772 8.40283 1 8.85217 1 9.40662V10.3575C1 10.9119 1.44772 11.3613 2 11.3613H4V8.40283ZM3 9.40662H2V10.4103H3V9.40662Z" />
<path fill-rule="evenodd" clip-rule="evenodd" d="M5 8.40283H14C14.5523 8.40283 15 8.85217 15 9.40662V10.3575C15 10.9119 14.5523 11.3613 14 11.3613H5V8.40283ZM14 10.4103H6V9.40662H14V10.4103Z" />
<path fill-rule="evenodd" clip-rule="evenodd" d="M4 12.0415H2C1.44772 12.0415 1 12.4908 1 13.0453V13.9962C1 14.5505 1.44772 15 2 15H4V12.0415ZM3 13.0453H2V14.049H3V13.0453Z" />
<path fill-rule="evenodd" clip-rule="evenodd" d="M5 12.0415H14C14.5523 12.0415 15 12.4908 15 13.0453V13.9962C15 14.5505 14.5523 15 14 15H5V12.0415ZM14 14.049H6V13.0453H14V14.049Z" />
</svg>
