<svg width="16" height="16" viewBox="0 0 16 16" fill="currentColor" xmlns="http://www.w3.org/2000/svg">
<path d="M14.8608 4.03947C14.9536 4.17763 15 4.33882 15 4.5C15 4.66118 14.9536 4.82237 14.8608 4.96053C14.3038 5.88158 13.5612 6.61842 12.6329 7.17105C11.6814 7.72368 10.6371 8 9.5 8C8.36287 8 7.31857 7.72368 6.36709 7.17105C5.41561 6.61842 4.673 5.88158 4.13924 4.96053C4.04641 4.82237 4 4.66118 4 4.5C4 4.33882 4.04641 4.17763 4.13924 4.03947C4.6962 3.11842 5.43882 2.38158 6.36709 1.82895C7.31857 1.27632 8.36287 1 9.5 1C10.6371 1 11.6814 1.27632 12.6329 1.82895C13.5612 2.38158 14.327 3.11842 14.8608 4.03947ZM14.3502 4.63816C14.4198 4.54605 14.4198 4.43092 14.3502 4.33882C14.0717 3.85526 13.7236 3.44079 13.3059 3.04934C12.8882 2.65789 12.4241 2.35855 11.9135 2.12829C12.3544 2.65789 12.5633 3.25658 12.5633 3.94737C12.5633 4.47697 12.4241 4.98355 12.1456 5.42105C11.8671 5.88158 11.4958 6.22697 11.0316 6.50329C10.5675 6.7796 10.057 6.89474 9.5 6.89474C8.94304 6.89474 8.43249 6.75658 7.96835 6.50329C7.50422 6.22697 7.13291 5.88158 6.85443 5.42105C6.57595 4.96053 6.43671 4.47697 6.43671 3.94737C6.43671 3.25658 6.64557 2.65789 7.0865 2.12829C6.57595 2.35855 6.11181 2.68092 5.69409 3.04934C5.27637 3.41776 4.90506 3.87829 4.62658 4.33882C4.55696 4.43092 4.55696 4.54605 4.62658 4.63816C5.11392 5.46711 5.81013 6.13487 6.66878 6.64145C7.52743 7.14803 8.4789 7.37829 9.47679 7.37829C10.4747 7.37829 11.4262 7.125 12.2848 6.64145C13.1667 6.1579 13.8629 5.49013 14.3502 4.63816ZM11.9367 3.97039C11.9367 3.53289 11.8207 3.14145 11.6118 2.77303C11.403 2.40461 11.1013 2.12829 10.73 1.92105C10.3586 1.71382 9.94093 1.59868 9.5 1.59868C9.05907 1.59868 8.64135 1.71382 8.27004 1.92105C7.89873 2.12829 7.59705 2.40461 7.38819 2.77303C7.17932 3.14145 7.06329 3.53289 7.06329 3.97039C7.06329 4.40789 7.17932 4.79934 7.38819 5.16776C7.59705 5.53618 7.89873 5.8125 8.27004 6.01974C8.64135 6.22697 9.05907 6.34211 9.5 6.34211C9.94093 6.34211 10.3586 6.22697 10.73 6.01974C11.1013 5.8125 11.403 5.53618 11.6118 5.16776C11.8207 4.79934 11.9367 4.38487 11.9367 3.97039ZM8.27004 3.87829C8.27004 4.22368 8.38608 4.5 8.61814 4.75329C8.85021 4.98355 9.1519 5.09868 9.5 5.09868C9.8481 5.09868 10.1266 4.98355 10.3819 4.75329C10.6139 4.52303 10.73 4.22368 10.73 3.87829C10.73 3.53289 10.6139 3.25658 10.3819 3.00329C10.1498 2.77303 9.8481 2.65789 9.5 2.65789C9.29114 2.65789 9.10548 2.70395 8.91983 2.81908C9.05907 2.81908 9.17511 2.86513 9.26793 2.95724C9.36076 3.04934 9.40717 3.16447 9.40717 3.30263C9.40717 3.44079 9.36076 3.55592 9.26793 3.64803C9.17511 3.74013 9.05907 3.78618 8.91983 3.78618C8.78059 3.78618 8.66456 3.74013 8.57173 3.64803C8.4789 3.55592 8.43249 3.44079 8.43249 3.30263C8.31646 3.48684 8.27004 3.69408 8.27004 3.87829Z" />
<path d="M4.45809 6.95636L4.16029 7.33904C4.09888 7.43713 4.05793 7.53522 4.0784 7.65293C4.09888 7.77064 4.13982 7.86873 4.26265 7.9472L4.81538 8.33956L3.81228 9.34008C3.25954 9.26161 2.76823 9.32047 2.29738 9.49703C1.78559 9.65397 1.37616 9.94824 1.06909 10.3406C1.00768 10.3995 0.987205 10.4779 1.00768 10.5564C1.02815 10.6349 1.06909 10.6937 1.13051 10.7526L3.56662 12.4594L2.17455 14.2446L1.88795 14.7939C1.86748 14.8724 1.88795 14.9312 1.94937 14.9705C2.01078 15.0097 2.0722 15.0097 2.13361 14.9705L2.6454 14.5585L4.01699 12.8125L6.43263 14.5389C6.49404 14.5977 6.57593 14.6174 6.65782 14.5977C6.7397 14.5781 6.80112 14.5389 6.86253 14.48C7.1696 14.0877 7.33338 13.6364 7.35385 13.1264C7.39479 12.6555 7.31291 12.1651 7.08772 11.6943L7.80422 10.4976L8.35695 10.8899C8.45931 10.9488 8.56167 10.988 8.6845 10.9684C8.80733 10.9488 8.90968 10.8899 8.99157 10.7918L9.91279 9.63435C9.9742 9.53626 10.0151 9.43817 9.99467 9.32047C9.9742 9.20276 9.91279 9.10467 9.81043 9.02619L9.60661 8.88043C9.23867 8.88934 8.87581 8.86953 8.52088 8.82428L9.29864 9.37932L8.58214 10.3014L7.61998 9.61474L6.39169 11.655C6.61687 12.0278 6.7397 12.4005 6.76017 12.7732C6.80112 13.1852 6.7397 13.558 6.55546 13.8915L1.74465 10.4583C2.03125 10.2033 2.37927 10.0267 2.80917 9.94824C3.17766 9.86977 3.58709 9.86977 4.01699 9.96786L5.69566 8.26109L4.73349 7.57445L4.91231 7.33945C4.75302 7.2166 4.60137 7.08863 4.45809 6.95636Z" />
</svg>
