<svg width="16" height="16" viewBox="0 0 16 16" fill="currentColor" xmlns="http://www.w3.org/2000/svg">
<path d="M14.6429 7.26923C14.75 7.26923 14.8214 7.30769 14.8929 7.38461C14.9643 7.46154 15 7.53846 15 7.65385V13.6154C15 13.7308 14.9643 13.8077 14.8929 13.8846C14.8214 13.9615 14.75 14 14.6429 14H1.35714C1.25 14 1.17857 13.9615 1.10714 13.8846C1.03571 13.8077 1 13.6923 1 13.6154V7.61538C1 7.5 1.03571 7.42308 1.10714 7.34615C1.17857 7.26923 1.25 7.23077 1.35714 7.23077H4.5V2.38462C4.5 2.26923 4.53571 2.19231 4.60714 2.11538C4.67857 2.03846 4.75 2 4.85714 2H11.1429C11.25 2 11.3214 2.03846 11.3929 2.11538C11.4643 2.19231 11.5 2.26923 11.5 2.38462V7.23077H14.6429V7.26923ZM1.71429 8V13.2308H7.64286V8H5.89286V10.5L4.5 10L3.10714 10.5V8H1.71429ZM5.21429 8H3.78571V9.46154L4.5 9.23077L5.21429 9.46154V8ZM5.21429 2.76923V7.26923H10.8214V2.76923H9.42857V5.26923L8 4.76923L6.60714 5.26923V2.76923H5.21429ZM8.67857 2.76923H7.28571V4.23077L8 4L8.71429 4.23077V2.76923H8.67857ZM14.2857 13.2308V8H12.8929V10.5L11.5 10L10.1071 10.5V8H8.35714V13.2308H14.2857ZM10.7857 8V9.46154L11.5 9.23077L12.2143 9.46154V8H10.7857Z" />
</svg>
