<svg width="16" height="16" viewBox="0 0 16 16" fill="currentColor" xmlns="http://www.w3.org/2000/svg">
<path d="M8.72351 9.94702C9.00773 10.0397 9.19722 10.1788 9.33933 10.3642C9.48144 10.596 9.57618 10.8278 9.57618 11.0596C9.57618 11.3841 9.48144 11.6623 9.24459 11.894C9.05511 12.1258 8.77088 12.2649 8.43929 12.2649V12.6358C8.43929 12.6821 8.43929 12.7285 8.34455 12.7748C8.2498 12.8212 8.24981 12.8212 8.20243 12.8212H7.72873C7.68136 12.8212 7.63399 12.8212 7.58662 12.7748C7.53925 12.7285 7.49188 12.6821 7.49188 12.6358V12.2649C7.20765 12.2649 6.92343 12.1258 6.68658 11.9404C6.6392 11.894 6.59183 11.8477 6.59183 11.8013C6.59183 11.755 6.59183 11.6623 6.63921 11.6159L6.9708 11.2914C7.06554 11.1987 7.16028 11.1987 7.25502 11.245C7.34976 11.2914 7.44451 11.3377 7.58662 11.3377H8.34455C8.43929 11.3377 8.48666 11.2914 8.53403 11.245C8.5814 11.1987 8.62877 11.106 8.62877 11.0132C8.62877 10.8742 8.5814 10.7815 8.43929 10.7351L7.25502 10.3642C6.9708 10.2715 6.78132 10.1324 6.63921 9.94702C6.49709 9.71523 6.40235 9.48344 6.40235 9.25165C6.40235 8.92715 6.49709 8.64901 6.73395 8.41722C6.92343 8.18543 7.20765 8.04636 7.53925 8.04636V7.6755C7.53925 7.62914 7.53925 7.58278 7.63399 7.53642C7.72873 7.49007 7.72873 7.49007 7.7761 7.49007H8.2498C8.29718 7.49007 8.34455 7.49007 8.39192 7.53642C8.43929 7.58278 8.48666 7.62914 8.48666 7.6755V8.04636C8.77088 8.04636 9.0551 8.18543 9.29196 8.37086C9.33933 8.41722 9.3867 8.46358 9.3867 8.50993C9.3867 8.55629 9.3867 8.64901 9.33933 8.69536L9.00773 9.01987C8.91299 9.11258 8.81825 9.11258 8.72351 9.06623C8.62877 9.01987 8.53403 8.97351 8.39192 8.97351H7.63399C7.53925 8.97351 7.49188 9.01987 7.44451 9.06623C7.39713 9.11258 7.34976 9.2053 7.34976 9.29801C7.34976 9.43709 7.39713 9.5298 7.53925 9.57616L8.72351 9.94702ZM13.9816 13.6093L12.1342 5.2649C12.1342 4.84768 11.8026 4.56954 11.4236 4.56954H9.33933C9.67092 4.19868 9.90778 3.64238 9.90778 3.08609C9.86041 1.92715 9.05511 1 8.01295 1C7.01817 1 6.1655 1.92715 6.1655 3.08609C6.1655 3.68874 6.40235 4.19868 6.73395 4.56954H4.60227C4.17593 4.56954 3.89171 4.89404 3.89171 5.2649L2.04426 13.6093C1.85478 14.3046 2.28111 15 3.18115 15C3.22852 15 3.27589 15 3.32326 15H12.7974C13.4132 15 14.1238 14.4901 13.9816 13.6093ZM8.01295 1.83444C8.5814 1.83444 9.00773 2.43709 9.00773 3.08609C9.00773 3.78146 8.53403 4.33775 8.01295 4.33775C7.49188 4.33775 7.01817 3.78146 7.01817 3.08609C7.01817 2.39073 7.49188 1.83444 8.01295 1.83444ZM13.0816 14.0728C12.9869 14.1656 12.8921 14.2119 12.7974 14.2119H3.32326H3.27589C3.22852 14.2119 3.22852 14.2119 3.18115 14.2119C3.08641 14.2119 2.9443 14.2119 2.89693 14.1192C2.84956 14.0728 2.84956 13.9338 2.84956 13.8411V13.7947L4.69701 5.45033C4.69701 5.40397 4.69701 5.40397 4.69701 5.35762H11.2815C11.2815 5.40397 11.2815 5.40397 11.2815 5.45033L13.129 13.7483C13.1763 13.9338 13.129 14.0265 13.0816 14.0728Z" />
</svg>
