<svg width="16" height="16" viewBox="0 0 16 16" fill="currentColor" xmlns="http://www.w3.org/2000/svg">
<path d="M14.4785 13.0906C14.4238 13.3464 14.3144 13.5737 14.1229 13.7442C13.9313 13.9147 13.6851 14 13.4115 14H2.57691C2.30331 14 2.08443 13.9147 1.86555 13.7442C1.67403 13.5737 1.53723 13.3464 1.50987 13.0906C1.48251 12.8348 1.50987 12.579 1.61931 12.3233L7.06396 2.57549C7.20076 2.31972 7.39228 2.1492 7.63852 2.06394C7.88476 1.97869 8.131 1.97869 8.37724 2.06394C8.62348 2.1492 8.815 2.31972 8.9518 2.57549L14.3691 12.3233C14.4785 12.579 14.5333 12.8348 14.4785 13.0906ZM8.32252 2.94494C8.24044 2.83126 8.131 2.746 7.9942 2.746C7.8574 2.746 7.74796 2.80284 7.66588 2.94494L2.27595 12.6927C2.22123 12.8064 2.22123 12.9485 2.27595 13.0622C2.33067 13.1758 2.44011 13.2611 2.57691 13.2611H13.4115C13.5483 13.2611 13.6577 13.2043 13.7125 13.0622C13.7672 12.9485 13.7945 12.8064 13.7125 12.6927L8.32252 2.94494ZM7.55644 10.9023C7.447 11.016 7.36492 11.1865 7.36492 11.357C7.36492 11.556 7.42457 11.7003 7.55644 11.8373C7.66588 11.951 7.83004 12.0107 7.9942 12.0107C8.18572 12.0107 8.33568 11.9373 8.43196 11.8373C8.5414 11.7236 8.62348 11.5246 8.62348 11.357C8.62348 11.1403 8.5414 10.994 8.43196 10.8803C8.32252 10.7667 8.15836 10.7034 7.9942 10.7034C7.83004 10.7034 7.66588 10.7886 7.55644 10.9023ZM7.55644 10.9023C7.447 11.016 7.36492 11.1865 7.36492 11.357C7.36492 11.556 7.42457 11.7003 7.55644 11.8373C7.66588 11.951 7.83004 12.0107 7.9942 12.0107C8.18572 12.0107 8.33568 11.9373 8.43196 11.8373C8.5414 11.7236 8.62348 11.5246 8.62348 11.357C8.62348 11.1403 8.5414 10.994 8.43196 10.8803C8.32252 10.7667 8.15836 10.7034 7.9942 10.7034C7.83004 10.7034 7.66588 10.7886 7.55644 10.9023ZM8.24044 5.78686C8.24044 5.78686 8.4046 5.78686 8.45932 5.8437C8.51404 5.90053 8.51404 5.94849 8.51404 6.04263L8.34988 9.9929C8.34988 10.0782 8.32252 10.135 8.2678 10.1918C8.21308 10.2487 8.15836 10.2771 8.07628 10.2771H7.88476C7.80268 10.2771 7.74796 10.2487 7.69324 10.1918C7.63852 10.135 7.61116 10.0782 7.61116 10.0213L7.447 6.07105C7.447 5.9711 7.447 5.92895 7.50172 5.87211C7.55644 5.81528 7.63852 5.78686 7.7206 5.78686H8.24044Z" />
</svg>
