<svg width="16" height="16" viewBox="0 0 16 16" fill="currentColor" xmlns="http://www.w3.org/2000/svg">
<path d="M12.8439 3.13022C13.2994 3.13022 13.672 3.29743 14.0032 3.63183C14.3344 3.96624 14.5 4.34244 14.5 4.76045V12.8698C14.5 13.3296 14.3344 13.7058 14.0032 13.9984C13.672 14.3328 13.2994 14.5 12.8439 14.5H3.11465C2.65924 14.5 2.28662 14.3328 1.95541 13.9984C1.6656 13.7058 1.5 13.3296 1.5 12.8698V4.76045C1.5 4.30064 1.66561 3.92444 1.99682 3.63183C2.32803 3.29743 2.70064 3.13022 3.15605 3.13022H4.8121C5.18471 2.62862 5.64013 2.21061 6.21975 1.91801C6.79936 1.6254 7.37898 1.5 8.0414 1.5C8.70382 1.5 9.28344 1.6254 9.86306 1.91801C10.4427 2.21061 10.8981 2.58682 11.2707 3.13022H12.8439ZM13.672 12.8698V4.76045C13.672 4.55145 13.5892 4.34244 13.4236 4.17524C13.258 4.00804 13.0924 3.92444 12.8439 3.92444H11.6847C11.9331 4.46785 12.0573 4.96945 12.0573 5.55466C12.0573 6.26527 11.8917 6.97588 11.5191 7.60289C11.1465 8.2299 10.6497 8.73151 10.0287 9.10772C9.40764 9.48392 8.74522 9.65112 8 9.65112C7.25478 9.65112 6.59236 9.48392 5.97134 9.10772C5.35032 8.73151 4.8535 8.2299 4.48089 7.60289C4.10828 6.97588 3.94268 6.30707 3.94268 5.55466C3.94268 5.01125 4.06688 4.46785 4.31529 3.92444H3.15605C2.94904 3.92444 2.74204 4.00804 2.57643 4.17524C2.41083 4.34244 2.32803 4.50965 2.32803 4.76045V12.8698C2.32803 13.0788 2.41083 13.2878 2.57643 13.455C2.74204 13.6222 2.90764 13.7058 3.15605 13.7058H12.8854C13.0924 13.7058 13.2994 13.6222 13.465 13.455C13.6306 13.2878 13.672 13.1206 13.672 12.8698ZM7.9586 2.33601C7.37898 2.33601 6.84076 2.46141 6.34395 2.75402C5.84713 3.04662 5.43312 3.42283 5.18471 3.92444C4.89491 4.42604 4.7707 4.96945 4.7707 5.55466C4.7707 6.13987 4.89491 6.68328 5.18471 7.18489C5.47452 7.68649 5.84713 8.0627 6.34395 8.35531C6.84076 8.64791 7.37898 8.77331 7.9586 8.77331C8.53822 8.77331 9.07643 8.64791 9.57325 8.35531C10.0701 8.0627 10.4841 7.68649 10.7325 7.18489C11.0223 6.68328 11.1465 6.13987 11.1465 5.55466C11.1465 4.96945 11.0223 4.42604 10.7325 3.92444C10.4427 3.42283 10.0701 3.04662 9.57325 2.75402C9.11783 2.46141 8.57962 2.33601 7.9586 2.33601ZM7.9586 8.0209C7.62739 8.0209 7.33758 7.8955 7.08917 7.68649C6.84076 7.47749 6.71656 7.14309 6.71656 6.80868C6.71656 6.51608 6.79936 6.22347 7.00637 6.01447C7.25478 5.72186 7.58599 5.59646 8 5.59646L8.74522 3.79904C8.78662 3.71543 8.86943 3.63183 8.99363 3.59003C9.07643 3.54823 9.20064 3.54823 9.28344 3.59003C9.36624 3.63183 9.44905 3.71543 9.49045 3.79904C9.53185 3.88264 9.53185 4.00804 9.49045 4.09164L8.74522 5.88907C8.99363 6.13987 9.11784 6.43248 9.11784 6.76688C9.11784 7.10129 8.99363 7.39389 8.74522 7.64469C8.49682 7.8955 8.33121 8.0209 7.9586 8.0209ZM7.9586 6.39067C7.83439 6.39067 7.75159 6.43248 7.66879 6.51608C7.58599 6.59968 7.54459 6.68328 7.54459 6.80868C7.54459 6.93408 7.58599 7.01768 7.66879 7.10129C7.75159 7.18489 7.83439 7.22669 7.9586 7.22669C8.0828 7.22669 8.16561 7.18489 8.24841 7.10129C8.33121 7.01768 8.37261 6.93408 8.37261 6.80868C8.37261 6.68328 8.33121 6.59968 8.24841 6.51608C8.20701 6.43248 8.0828 6.39067 7.9586 6.39067Z" />
</svg>
