<svg width="10" height="10" viewBox="0 0 10 10" fill="none" xmlns="http://www.w3.org/2000/svg">
<path fill-rule="evenodd" clip-rule="evenodd" d="M10 2.77567C9.99704 2.82105 9.99739 2.8326 9.99004 2.87753C9.97343 2.97856 9.93696 3.07574 9.88339 3.16147C9.85631 3.20482 9.82481 3.24267 9.79121 3.28047L5.5053 7.7809C5.47362 7.81196 5.4664 7.82062 5.4318 7.84819C5.39294 7.87913 5.35104 7.90587 5.30697 7.92788C5.11442 8.02404 4.88595 8.02404 4.69341 7.92788C4.64933 7.90587 4.60744 7.87913 4.56858 7.84819C4.53401 7.82062 4.52676 7.81196 4.49511 7.7809L0.209206 3.28047C0.179633 3.2472 0.171347 3.23959 0.145131 3.20329C0.0762355 3.10795 0.0297335 2.99544 0.0103397 2.87753C-0.00344658 2.79333 -0.00344658 2.70681 0.0103397 2.62262C0.0214117 2.5553 0.0412697 2.48963 0.0691995 2.42794C0.175311 2.19361 0.395428 2.03047 0.641225 2.00392C0.738372 1.99346 0.837305 2.00415 0.930381 2.03516C1.00792 2.061 1.0811 2.10079 1.14589 2.1524C1.1805 2.17996 1.18771 2.18863 1.21939 2.21968L5.00021 6.18974L8.78102 2.21968L8.81666 2.18473C8.85023 2.15604 8.85806 2.14786 8.89434 2.12288C8.96235 2.07604 9.03796 2.04154 9.11696 2.02132C9.18018 2.00516 9.24547 1.99811 9.31047 2.00043C9.55744 2.00928 9.78763 2.1563 9.90875 2.38244C9.9486 2.45689 9.97621 2.53846 9.99004 2.62262C9.99739 2.66755 9.99704 2.6791 10 2.72448V2.77567Z" fill="currentColor"/>
</svg>
