<svg width="10" height="10" viewBox="0 0 10 10" fill="none" xmlns="http://www.w3.org/2000/svg">
<path fill-rule="evenodd" clip-rule="evenodd" d="M10 7.22433C9.99704 7.17895 9.99739 7.1674 9.99004 7.12247C9.97343 7.02144 9.93696 6.92426 9.88339 6.83853C9.85631 6.79518 9.82481 6.75733 9.79121 6.71953L5.5053 2.2191C5.47362 2.18804 5.4664 2.17938 5.4318 2.15181C5.39294 2.12087 5.35104 2.09413 5.30697 2.07212C5.11442 1.97596 4.88595 1.97596 4.69341 2.07212C4.64933 2.09413 4.60744 2.12087 4.56858 2.15181C4.53401 2.17938 4.52676 2.18804 4.49511 2.2191L0.209206 6.71953C0.179633 6.7528 0.171347 6.76041 0.145131 6.79671C0.0762355 6.89205 0.0297335 7.00456 0.0103397 7.12247C-0.00344658 7.20667 -0.00344658 7.29319 0.0103397 7.37738C0.0214117 7.4447 0.0412697 7.51037 0.0691995 7.57206C0.175311 7.80639 0.395428 7.96953 0.641225 7.99608C0.738372 8.00654 0.837305 7.99585 0.930381 7.96484C1.00792 7.939 1.0811 7.89921 1.14589 7.8476C1.1805 7.82004 1.18771 7.81137 1.21939 7.78032L5.00021 3.81026L8.78102 7.78032L8.81666 7.81527C8.85023 7.84396 8.85806 7.85214 8.89434 7.87712C8.96235 7.92396 9.03796 7.95846 9.11696 7.97868C9.18018 7.99484 9.24547 8.00189 9.31047 7.99957C9.55744 7.99072 9.78763 7.8437 9.90875 7.61756C9.9486 7.54311 9.97621 7.46154 9.99004 7.37738C9.99739 7.33245 9.99704 7.3209 10 7.27552V7.22433Z" fill="currentColor"/>
</svg>
