<svg width="10" height="10" viewBox="0 0 10 10" fill="none" xmlns="http://www.w3.org/2000/svg">
<path fill-rule="evenodd" clip-rule="evenodd" d="M2.77567 10C2.82105 9.99704 2.8326 9.99739 2.87753 9.99004C2.97856 9.97343 3.07574 9.93696 3.16147 9.88339C3.20482 9.85631 3.24267 9.82481 3.28047 9.79121L7.7809 5.5053C7.81196 5.47362 7.82062 5.4664 7.84819 5.4318C7.87913 5.39294 7.90587 5.35104 7.92788 5.30697C8.02404 5.11442 8.02404 4.88595 7.92788 4.69341C7.90587 4.64933 7.87913 4.60744 7.84819 4.56858C7.82062 4.53401 7.81196 4.52676 7.7809 4.49511L3.28047 0.209206C3.2472 0.179633 3.23959 0.171347 3.20329 0.145131C3.10795 0.0762355 2.99544 0.0297335 2.87753 0.0103397C2.79333 -0.00344658 2.70681 -0.00344658 2.62262 0.0103397C2.5553 0.0214117 2.48963 0.0412697 2.42794 0.0691995C2.19361 0.175311 2.03047 0.395428 2.00392 0.641225C1.99346 0.738372 2.00415 0.837305 2.03516 0.930381C2.061 1.00792 2.10079 1.0811 2.1524 1.14589C2.17996 1.1805 2.18863 1.18771 2.21968 1.21939L6.18974 5.00021L2.21968 8.78102L2.18473 8.81666C2.15604 8.85023 2.14786 8.85806 2.12288 8.89434C2.07604 8.96235 2.04154 9.03796 2.02132 9.11696C2.00516 9.18018 1.99811 9.24547 2.00043 9.31047C2.00928 9.55744 2.1563 9.78763 2.38244 9.90875C2.45689 9.9486 2.53846 9.97621 2.62262 9.99004C2.66755 9.99739 2.6791 9.99704 2.72448 10C2.74154 10 2.75861 10 2.77567 10Z" fill="currentColor"/>
</svg>
