<svg width="10" height="10" viewBox="0 0 10 10" fill="none" xmlns="http://www.w3.org/2000/svg">
<path fill-rule="evenodd" clip-rule="evenodd" d="M7.22433 10C7.17895 9.99704 7.1674 9.99739 7.12247 9.99004C7.02144 9.97343 6.92426 9.93696 6.83853 9.88339C6.79518 9.85631 6.75733 9.82481 6.71953 9.79121L2.2191 5.5053C2.18804 5.47362 2.17938 5.4664 2.15181 5.4318C2.12087 5.39294 2.09413 5.35104 2.07212 5.30697C1.97596 5.11442 1.97596 4.88595 2.07212 4.69341C2.09413 4.64933 2.12087 4.60744 2.15181 4.56858C2.17938 4.53401 2.18804 4.52676 2.2191 4.49511L6.71953 0.209206C6.7528 0.179633 6.76041 0.171347 6.79671 0.145131C6.89205 0.0762355 7.00456 0.0297335 7.12247 0.0103397C7.20667 -0.00344658 7.29319 -0.00344658 7.37738 0.0103397C7.4447 0.0214117 7.51037 0.0412697 7.57206 0.0691995C7.80639 0.175311 7.96953 0.395428 7.99608 0.641225C8.00654 0.738372 7.99585 0.837305 7.96484 0.930381C7.939 1.00792 7.89921 1.0811 7.8476 1.14589C7.82004 1.1805 7.81137 1.18771 7.78032 1.21939L3.81026 5.00021L7.78032 8.78102L7.81527 8.81666C7.84396 8.85023 7.85214 8.85806 7.87712 8.89434C7.92396 8.96235 7.95846 9.03796 7.97868 9.11696C7.99484 9.18018 8.00189 9.24547 7.99957 9.31047C7.99072 9.55744 7.8437 9.78763 7.61756 9.90875C7.54311 9.9486 7.46154 9.97621 7.37738 9.99004C7.33245 9.99739 7.3209 9.99704 7.27552 10C7.25846 10 7.24139 10 7.22433 10Z" fill="currentColor"/>
</svg>
