<svg width="20" height="30" viewBox="0 0 20 30" fill="currentColor" xmlns="http://www.w3.org/2000/svg">
    <g clip-path="url(#clip0)">
        <path d="M14.9449 29.6956C14.8529 29.7973 14.6691 29.899 14.4853 29.899C14.3015 29.899 14.2096 29.7973 14.0257 29.6956L13.6581 29.2888C13.5662 29.1871 13.4743 28.9837 13.4743 28.7803C13.4743 28.5769 13.5662 28.4752 13.6581 28.3735L16.875 24.8142H6.19485C5.82721 24.8142 5.55147 24.7125 5.36765 24.4074C5.09191 24.204 5 23.899 5 23.4922V0.610819C5 0.305735 5.09191 0.102345 5.36765 0.000649806C5.64338 -0.101045 5.82721 0.000649795 6.01103 0.20404L6.5625 0.814209C6.65441 1.0176 6.74632 1.11929 6.74632 1.32268V22.882H16.875L13.6581 19.3227C13.5662 19.221 13.4743 19.0176 13.4743 18.9159C13.4743 18.8142 13.5662 18.6108 13.6581 18.4074L14.0257 18.0007C14.1176 17.899 14.3015 17.7973 14.4853 17.7973C14.6691 17.7973 14.761 17.899 14.9449 18.0007L19.8162 23.3905C19.9081 23.4922 20 23.6956 20 23.899C20 24.1023 19.9081 24.204 19.8162 24.4074L14.9449 29.6956Z"/>
    </g>
    <defs>
        <clipPath id="clip0">
            <rect width="20" height="30" fill="white"/>
        </clipPath>
    </defs>
</svg>
