<svg width="12" height="12" viewBox="0 0 12 12" fill="none" xmlns="http://www.w3.org/2000/svg">
    <circle cx="6" cy="6" r="6" fill="#888888"/>
    <path fill-rule="evenodd" clip-rule="evenodd" d="M6.65842 5.99998L9.29219 8.63375C9.47401 8.81557 9.47401 9.11036 9.29219 9.29219C9.11036 9.47401 8.81557 9.47401 8.63375 9.29219L5.99998 6.65842L3.36622 9.29219C3.1844 9.47401 2.8896 9.47401 2.70778 9.29219C2.52596 9.11036 2.52596 8.81557 2.70778 8.63375L5.34154 5.99998L2.70778 3.36622C2.52596 3.1844 2.52596 2.8896 2.70778 2.70778C2.8896 2.52596 3.1844 2.52596 3.36622 2.70778L5.99998 5.34154L8.63375 2.70778C8.81557 2.52596 9.11036 2.52596 9.29219 2.70778C9.47401 2.8896 9.47401 3.1844 9.29219 3.36622L6.65842 5.99998Z" fill="white"/>
</svg>
