<svg width="16" height="16" viewBox="0 0 16 16" fill="currentColor" xmlns="http://www.w3.org/2000/svg">
<path fill-rule="evenodd" clip-rule="evenodd" d="M11.4267 4.49887H14V12.8115C14 13.4149 13.7899 13.9283 13.3698 14.3561C12.9497 14.7839 12.4464 15 11.8556 15H4.14442C3.55361 15 3.05033 14.7839 2.6302 14.3561C2.21007 13.9283 2 13.4104 2 12.8115V4.49887H4.5733C4.5733 3.85944 4.72648 3.27404 5.02845 2.73368C5.33042 2.19781 5.74617 1.77002 6.27571 1.46381C6.80525 1.15761 7.37418 1 8 1C8.62582 1 9.19912 1.1531 9.72867 1.46381C10.2582 1.77453 10.6696 2.19781 10.9759 2.73368C11.2779 3.27404 11.4267 3.85944 11.4267 4.49887ZM7.97331 1.87C7.25996 1.87 6.65164 2.12667 6.15274 2.63551C5.65383 3.14886 5.4 3.76578 5.4 4.49528H10.5422C10.5422 3.76578 10.2928 3.14436 9.79388 2.63551C9.29497 2.12667 8.68665 1.87 7.97331 1.87Z" />
</svg>
