<svg width="16" height="16" viewBox="0 0 16 16" fill="currentColor" xmlns="http://www.w3.org/2000/svg">
<path d="M6.28108 5.43784H2.03243L2 5.40541L3.52432 2.58378C3.58919 2.42162 3.68649 2.25946 3.81622 2.16216C3.94595 2.06486 4.14054 2 4.33513 2H7.15676L6.28108 5.43784ZM9.71892 6.28108H14V13.1243C14 13.3514 13.9027 13.5459 13.7405 13.7405C13.5784 13.9027 13.3838 14 13.1243 14H2.84324C2.61622 14 2.42162 13.9027 2.22703 13.7405C2.0973 13.5459 2 13.3514 2 13.1243V6.28108H6.28108V8.42162C6.28108 8.55135 6.31351 8.64865 6.41081 8.71351C6.47568 8.77838 6.60541 8.84324 6.7027 8.84324H9.26486C9.39459 8.84324 9.49189 8.81081 9.55676 8.71351C9.62162 8.64865 9.68649 8.51892 9.68649 8.42162V6.28108H9.71892ZM13.9676 5.43784H9.71892L8.84324 2H11.6649C11.827 2 12.0216 2.06486 12.1514 2.16216C12.2811 2.25946 12.4108 2.42162 12.4432 2.58378L13.9676 5.43784Z" />
</svg>
