<svg width="16" height="16" viewBox="0 0 16 16" fill="currentColor" xmlns="http://www.w3.org/2000/svg">
<path d="M13.7382 1.22581C13.5636 1.09032 13.3891 1 13.1709 1C12.9964 1 12.8655 1.04516 12.7345 1.18065L11.5564 2.03871L10.5527 1.27097C10.2909 1.09032 10.0291 1 9.76727 1C9.50545 1 9.24364 1.09032 9.02545 1.22581L7.97818 1.99355L6.93091 1.22581C6.71273 1.09032 6.49455 1 6.18909 1C5.92727 1 5.66545 1.09032 5.44727 1.22581L4.44364 1.99355L3.26545 1.18065C3.09091 1.04516 2.96 1 2.78545 1C2.56727 1 2.39273 1.09032 2.26182 1.22581C2.08727 1.40645 2 1.5871 2 1.8129V14.1871C2 14.4129 2.08727 14.6387 2.26182 14.7742C2.43636 14.9097 2.61091 15 2.82909 15C3.00364 15 13.04 15 13.1709 15C13.3891 15 13.5636 14.9097 13.7382 14.7742C13.9127 14.6387 14 14.4129 14 14.1871V1.8129C13.9564 1.5871 13.8691 1.40645 13.7382 1.22581ZM11.3818 10.8903C11.3818 10.9355 11.3382 10.9806 11.2945 11.0258C11.2509 11.071 11.2073 11.1161 11.1636 11.1161H4.79273C4.74909 11.1161 4.70545 11.1161 4.66182 11.0258C4.61818 10.9806 4.57455 10.9355 4.57455 10.8903V10.4387C4.57455 10.3935 4.61818 10.3484 4.66182 10.3032C4.70545 10.2581 4.74909 10.2129 4.79273 10.2129H11.2073C11.2509 10.2129 11.2945 10.2581 11.3382 10.3032C11.3818 10.3484 11.4255 10.3935 11.4255 10.4387V10.8903H11.3818ZM11.3818 8.22581C11.3818 8.27097 11.3382 8.31613 11.2945 8.36129C11.2509 8.40645 11.2073 8.45161 11.1636 8.45161H4.79273C4.74909 8.45161 4.70545 8.40645 4.66182 8.36129C4.61818 8.31613 4.57455 8.27097 4.57455 8.22581V7.77419C4.57455 7.72903 4.61818 7.68387 4.66182 7.63871C4.70545 7.59355 4.74909 7.54839 4.79273 7.54839H11.2073C11.2509 7.54839 11.2945 7.59355 11.3382 7.63871C11.3818 7.68387 11.4255 7.72903 11.4255 7.77419V8.22581H11.3818ZM11.3818 5.60645C11.3818 5.65161 11.3382 5.69677 11.2945 5.74194C11.2509 5.7871 11.2073 5.83226 11.1636 5.83226H4.79273C4.74909 5.83226 4.70545 5.83226 4.66182 5.74194C4.61818 5.69677 4.57455 5.65161 4.57455 5.60645V5.15484C4.57455 5.10968 4.57455 5.06452 4.61818 5.01935C4.66182 4.97419 4.70545 4.92903 4.74909 4.92903H11.1636C11.2073 4.92903 11.2509 4.97419 11.2945 5.01935C11.3382 5.06452 11.3818 5.10968 11.3818 5.15484V5.60645Z" />
</svg>
