<svg width="16" height="16" viewBox="0 0 16 16" fill="currentColor" xmlns="http://www.w3.org/2000/svg">
<path d="M13.8211 9.05213C13.7916 9.19431 13.7326 9.30806 13.6147 9.39336C13.4968 9.47867 13.3789 9.50711 13.2611 9.50711H6.15789L6.30526 10.2464H12.8484C13.0253 10.2464 13.1726 10.3033 13.2905 10.4455C13.4084 10.5877 13.4379 10.7299 13.4084 10.9005L13.2611 11.4976C13.4968 11.6114 13.7032 11.7536 13.8211 11.981C13.9389 12.2085 14.0274 12.436 14.0274 12.6635C14.0274 13.0332 13.88 13.346 13.6147 13.6019C13.3495 13.8578 13.0253 14 12.6421 14C12.2589 14 11.9347 13.8578 11.6695 13.6019C11.4042 13.346 11.2568 13.0332 11.2568 12.6635C11.2568 12.2938 11.4042 11.981 11.6695 11.7251H6.62947C6.89474 11.981 7.04211 12.2938 7.04211 12.6635C7.04211 13.0332 6.89474 13.346 6.62947 13.6019C6.36421 13.8578 6.04 14 5.65684 14C5.27368 14 4.94947 13.8578 4.68421 13.6019C4.41895 13.346 4.27158 13.0332 4.27158 12.6635C4.27158 12.436 4.33053 12.2085 4.44842 12.0095C4.56632 11.8104 4.74316 11.6398 4.94947 11.5261L3.29895 3.50711H1.58947C1.44211 3.50711 1.29474 3.45024 1.17684 3.33649C1.05895 3.22275 1 3.08057 1 2.93839V2.56872C1 2.42654 1.05895 2.28436 1.17684 2.17062C1.29474 2.05687 1.41263 2 1.58947 2H4.09474C4.21263 2 4.33053 2.05687 4.44842 2.14218C4.56632 2.22749 4.62526 2.34123 4.65474 2.45498L4.86105 3.50711H14.4105C14.6168 3.50711 14.7642 3.56398 14.8821 3.70616C15 3.84834 15.0295 3.99052 14.9705 4.16114L13.8211 9.05213Z" />
</svg>
