<svg width="16" height="16" viewBox="0 0 16 16" fill="currentColor" xmlns="http://www.w3.org/2000/svg">
<path fill-rule="evenodd" clip-rule="evenodd" d="M13.1709 1C13.3891 1 13.5636 1.09032 13.7382 1.22581C13.9127 1.36129 14 1.5871 14 1.8129V14.1871C14 14.4129 13.9127 14.6387 13.7382 14.7742C13.5636 14.9097 13.3891 15 13.1709 15H2.82909C2.61091 15 2.43636 14.9097 2.26182 14.7742C2.08727 14.6387 2 14.4581 2 14.2323V1.8129C2 1.5871 2.08727 1.36129 2.26182 1.22581C2.39273 1.09032 2.56727 1 2.78545 1C2.96 1 3.09091 1.04516 3.22182 1.18065L4.4 2.03871L5.40364 1.27097C5.66545 1.09032 5.92727 1 6.18909 1C6.45091 1 6.71273 1.09032 6.93091 1.22581L7.97818 1.99355L9.02545 1.22581C9.24364 1.09032 9.46182 1 9.76727 1C10.0727 1 10.2909 1.09032 10.5091 1.22581L11.5127 1.99355L12.6909 1.13548C12.8655 1.04516 12.9964 1 13.1709 1ZM4 8.5C4 6.567 5.5299 5 7.41713 5V6.16667C6.15898 6.16667 5.13904 7.21135 5.13904 8.5C5.13904 9.78864 6.15898 10.8333 7.41713 10.8333V12C5.5299 12 4 10.433 4 8.5ZM8.55618 8.5C8.55618 6.567 10.0861 5 11.9733 5V6.16667C10.9118 6.16667 10.0199 6.91029 9.76699 7.91667H12V9.08333H9.76699C10.0199 10.0897 10.9118 10.8333 11.9733 10.8333V12C10.0861 12 8.55618 10.433 8.55618 8.5Z" />
</svg>
