<svg width="16" height="16" viewBox="0 0 16 16" fill="currentColor" xmlns="http://www.w3.org/2000/svg">
<path d="M8 2C9.08293 2 10.078 2.26341 10.9854 2.81951C11.8927 3.34634 12.6244 4.07805 13.1805 5.01463C13.7073 5.92195 14 6.91707 14 8C14 9.08293 13.7366 10.078 13.1805 10.9854C12.6537 11.8927 11.922 12.6244 10.9854 13.1805C10.078 13.7073 9.08293 14 8 14C6.91707 14 5.92195 13.7366 5.01463 13.1805C4.10732 12.6537 3.37561 11.922 2.81951 10.9854C2.26341 10.0488 2 9.05366 2 8C2 6.94634 2.26341 5.92195 2.81951 5.01463C3.34634 4.10732 4.07805 3.37561 5.01463 2.81951C5.92195 2.26341 6.91707 2 8 2ZM8.5561 11.0732C8.99512 11.0732 9.40488 10.8976 9.72683 10.5756C10.0488 10.2537 10.1951 9.8439 10.1951 9.37561C10.1951 8.99512 10.078 8.6439 9.87317 8.35122C9.66829 8.05854 9.37561 7.82439 9.02439 7.73659L7.29756 7.20976C7.18049 7.18049 7.09268 7.12195 7.03415 7.00488C6.97561 6.8878 6.94634 6.77073 6.94634 6.65366C6.94634 6.50732 7.00488 6.39024 7.09268 6.27317C7.18049 6.1561 7.29756 6.09756 7.4439 6.09756H8.52683C8.70244 6.09756 8.87805 6.12683 8.99512 6.21463C9.08293 6.27317 9.17073 6.27317 9.25854 6.27317C9.34634 6.27317 9.43415 6.2439 9.49268 6.18537L9.78537 5.89268C9.87317 5.80488 9.90244 5.71707 9.90244 5.6C9.90244 5.48293 9.8439 5.36585 9.72683 5.30732C9.37561 5.07317 9.02439 4.9561 8.61463 4.9561V4.51707C8.61463 4.4 8.58537 4.3122 8.49756 4.25366C8.43902 4.19512 8.32195 4.13659 8.23415 4.13659H7.85366C7.73659 4.13659 7.64878 4.16585 7.59024 4.25366C7.53171 4.3122 7.47317 4.42927 7.47317 4.51707V4.89756C7.03415 4.89756 6.62439 5.07317 6.30244 5.39512C5.98049 5.74634 5.83415 6.12683 5.83415 6.59512C5.83415 6.97561 5.95122 7.32683 6.1561 7.61951C6.36098 7.9122 6.65366 8.14634 7.00488 8.23415L8.73171 8.76098C8.84878 8.79024 8.93658 8.84878 8.99512 8.96585C9.05366 9.08293 9.08293 9.2 9.08293 9.31707C9.08293 9.46341 9.02439 9.58049 8.93659 9.69756C8.84878 9.81463 8.73171 9.87317 8.58537 9.87317H7.50244C7.32683 9.87317 7.15122 9.8439 7.03415 9.7561C6.94634 9.69756 6.85854 9.69756 6.77073 9.69756C6.68293 9.69756 6.59512 9.72683 6.53659 9.78537L6.2439 10.078C6.1561 10.1659 6.12683 10.2537 6.12683 10.3707C6.12683 10.4878 6.18537 10.6049 6.30244 10.6634C6.65366 10.8976 7.00488 11.0146 7.41463 11.0146V11.3951C7.41463 11.5122 7.4439 11.6 7.53171 11.6585C7.61951 11.7171 7.70732 11.7756 7.79512 11.7756H8.17561C8.29268 11.7756 8.38049 11.7463 8.43902 11.6585C8.49756 11.6 8.5561 11.4829 8.5561 11.3951V11.0732Z" />
</svg>
