<svg width="16" height="16" viewBox="0 0 16 16" fill="none" xmlns="http://www.w3.org/2000/svg">
  <circle cx="8" cy="8" r="5.75" fill="#1BB934"/>
  <path fill-rule="evenodd" clip-rule="evenodd" d="M10.9854 2.81951C10.078 2.26341 9.08293 2 8 2C6.91707 2 5.92195 2.26341 5.01463 2.81951C4.07805 3.37561 3.34634 4.10732 2.81951 5.01463C2.26341 5.92195 2 6.91707 2 8C2 9.08293 2.29268 10.078 2.81951 10.9854C3.37561 11.922 4.10732 12.6537 5.01463 13.1805C5.92195 13.7366 6.91707 14 8 14C9.08293 14 10.0488 13.7366 10.9854 13.1805C11.922 12.6244 12.6244 11.8927 13.1805 10.9854C13.7366 10.078 14 9.08293 14 8C14 6.91707 13.7366 5.95122 13.1805 5.01463C12.6244 4.07805 11.8927 3.37561 10.9854 2.81951ZM5.39512 3.46341C6.18537 2.99512 7.06342 2.76098 8 2.76098C8.93659 2.76098 9.81463 2.99512 10.6049 3.46341C11.3951 3.93171 12.039 4.57561 12.5073 5.36585C12.9756 6.1561 13.2098 7.03415 13.2098 7.97073C13.2098 8.90732 12.9756 9.78537 12.5073 10.5756C12.039 11.3659 11.3951 12.0098 10.6049 12.478C9.81463 12.9463 8.93659 13.1805 8 13.1805C7.06342 13.1805 6.18537 12.9463 5.39512 12.478C4.60488 12.0098 3.96098 11.3659 3.49268 10.5756C3.02439 9.78537 2.79024 8.90732 2.79024 7.97073C2.79024 7.03415 3.02439 6.1561 3.49268 5.36585C3.96098 4.57561 4.60488 3.93171 5.39512 3.46341ZM7.21413 10.6354C7.34376 10.7398 7.51755 10.7536 7.65816 10.685C7.71751 10.6584 7.77145 10.6175 7.8144 10.563L11.4568 5.94084C11.5984 5.76111 11.5669 5.50133 11.3865 5.36062C11.206 5.2199 10.9449 5.25153 10.8033 5.43126L7.41335 9.73308L5.13072 7.89445C4.95272 7.75107 4.69145 7.77854 4.54715 7.9558C4.40286 8.13307 4.43019 8.393 4.60819 8.53638L7.21413 10.6354Z" fill="white"/>
</svg>