<svg width="16" height="16" viewBox="0 0 16 16" fill="none" xmlns="http://www.w3.org/2000/svg">
  <circle cx="8" cy="8" r="5.75" fill="#E00000"/>
  <path d="M8 2C9.08293 2 10.078 2.26341 10.9854 2.81951C11.8927 3.37561 12.6244 4.07805 13.1805 5.01463C13.7366 5.95122 14 6.91707 14 8C14 9.08293 13.7366 10.078 13.1805 10.9854C12.6244 11.8927 11.922 12.6244 10.9854 13.1805C10.0488 13.7366 9.08293 14 8 14C6.91707 14 5.92195 13.7366 5.01463 13.1805C4.10732 12.6537 3.37561 11.922 2.81951 10.9854C2.29268 10.078 2 9.08293 2 8C2 6.91707 2.26341 5.92195 2.81951 5.01463C3.34634 4.10732 4.07805 3.37561 5.01463 2.81951C5.92195 2.26341 6.91707 2 8 2ZM8 2.76098C7.06342 2.76098 6.18537 2.99512 5.39512 3.46341C4.60488 3.93171 3.96098 4.57561 3.49268 5.36585C3.02439 6.1561 2.79024 7.03415 2.79024 7.97073C2.79024 8.90732 3.02439 9.78537 3.49268 10.5756C3.96098 11.3659 4.60488 12.0098 5.39512 12.478C6.18537 12.9463 7.06342 13.1805 8 13.1805C8.93659 13.1805 9.81463 12.9463 10.6049 12.478C11.3951 12.0098 12.039 11.3659 12.5073 10.5756C12.9756 9.78537 13.2098 8.90732 13.2098 7.97073C13.2098 7.03415 12.9756 6.1561 12.5073 5.36585C12.039 4.57561 11.3951 3.93171 10.6049 3.46341C9.81463 2.99512 8.93659 2.76098 8 2.76098ZM8 10.0195C8.20488 10.0195 8.35122 10.078 8.46829 10.2244C8.58537 10.3415 8.67317 10.5171 8.67317 10.6927C8.67317 10.8976 8.61463 11.0439 8.46829 11.161C8.35122 11.278 8.17561 11.3659 8 11.3659C7.79512 11.3659 7.64878 11.3073 7.53171 11.161C7.41463 11.0439 7.32683 10.8683 7.32683 10.6927C7.32683 10.4878 7.38537 10.3415 7.53171 10.2244C7.64878 10.078 7.79512 10.0195 8 10.0195ZM7.73659 4.89756C7.64878 4.89756 7.56098 4.92683 7.50244 4.98537C7.4439 5.0439 7.41463 5.10244 7.4439 5.19024L7.61951 9.25854C7.61951 9.31707 7.64878 9.37561 7.70732 9.43415C7.76585 9.49268 7.82439 9.52195 7.9122 9.52195H8.11707C8.20488 9.52195 8.26341 9.49268 8.32195 9.43415C8.38049 9.37561 8.40976 9.31707 8.40976 9.22927L8.58537 5.16098C8.61463 5.07317 8.58537 5.01463 8.52683 4.9561C8.46829 4.89756 8.35122 4.89756 8.26341 4.89756H7.73659Z" fill="white"/>
</svg>