<svg width="16" height="16" viewBox="0 0 16 16" fill="currentColor" xmlns="http://www.w3.org/2000/svg">
<path d="M13.1469 5.2406C13.346 5.12168 13.5166 5.09195 13.7156 5.21087C13.9147 5.32979 14 5.50817 14 5.71628V12.4055C14 12.5541 13.9431 12.7028 13.8294 12.8217C13.7156 12.9406 13.5735 13.0001 13.4313 13.0001H2.56872C2.42654 13.0001 2.28436 12.9406 2.17062 12.8217C2.05687 12.7028 2 12.5541 2 12.4055V2.59466C2 2.44601 2.05687 2.29736 2.17062 2.17844C2.28436 2.05952 2.3981 2.00006 2.56872 2.00006H5.18483C5.32701 2.00006 5.46919 2.05952 5.58294 2.17844C5.69668 2.29736 5.75355 2.44601 5.75355 2.59466V7.41087L9.0237 5.2406C9.22275 5.12168 9.39336 5.09195 9.59242 5.21087C9.79147 5.32979 9.87678 5.50817 9.87678 5.71628V7.38114L13.1469 5.2406Z" />
</svg>
