<svg width="16" height="16" viewBox="0 0 16 16" fill="none" xmlns="http://www.w3.org/2000/svg">
  <circle cx="8" cy="8" r="5.75" fill="#3391CB"/>
  <path fill-rule="evenodd" clip-rule="evenodd" d="M7.99998 6.499C7.37972 6.499 6.87498 5.9937 6.87498 5.3768C6.87498 4.7543 7.37972 4.25012 7.99998 4.25012C8.62025 4.25012 9.12498 4.7543 9.12498 5.3768C9.12498 5.9937 8.62025 6.499 7.99998 6.499ZM7.43752 5.37852C7.43752 5.06446 7.69044 4.81265 8.0017 4.81265C8.31295 4.81265 8.56588 5.06446 8.56588 5.37852C8.56588 5.68697 8.31295 5.93933 8.0017 5.93933C7.69044 5.93933 7.43752 5.68697 7.43752 5.37852Z" fill="white"/>
  <path fill-rule="evenodd" clip-rule="evenodd" d="M7.15624 11.7501H8.84373C8.99898 11.7501 9.12498 11.6258 9.12498 11.4683V7.53185C9.12498 7.37381 8.99898 7.25007 8.84373 7.25007H7.15624C7.00099 7.25007 6.87498 7.37381 6.87498 7.53185V11.4683C6.87498 11.6258 7.00099 11.7501 7.15624 11.7501ZM7.43752 11.1876H8.55915V7.8126H7.43752V11.1876Z" fill="white"/>
  <path fill-rule="evenodd" clip-rule="evenodd" d="M14 8C14 11.3137 11.3137 14 8 14C4.68629 14 2 11.3137 2 8C2 4.68629 4.68629 2 8 2C11.3137 2 14 4.68629 14 8ZM13.25 8C13.25 10.8995 10.8995 13.25 8 13.25C5.10051 13.25 2.75 10.8995 2.75 8C2.75 5.10051 5.10051 2.75 8 2.75C10.8995 2.75 13.25 5.10051 13.25 8Z" fill="white"/>
</svg>