<svg width="16" height="16" viewBox="0 0 16 16" fill="currentColor" xmlns="http://www.w3.org/2000/svg">
<path d="M2 3.13475C2 2.8227 2.11348 2.56738 2.34043 2.34043C2.53901 2.11348 2.8227 2 3.13475 2H7.90071C8.21277 2 8.46809 2.11348 8.69504 2.34043L13.6596 7.30497C13.8865 7.53192 14 7.78723 14 8.09929C14 8.41135 13.8865 8.66667 13.6596 8.89362L8.86525 13.6596C8.6383 13.8865 8.38298 14 8.07092 14C7.75887 14 7.50355 13.8865 7.2766 13.6596L2.34043 8.69504C2.11348 8.46809 2 8.21277 2 7.90071V3.13475ZM3.8156 3.8156C3.61702 4.04255 3.50355 4.29787 3.50355 4.60993C3.50355 4.92199 3.61702 5.1773 3.84397 5.40426C4.07092 5.63121 4.32624 5.74468 4.6383 5.74468C4.95035 5.74468 5.20567 5.63121 5.43262 5.40426C5.65957 5.1773 5.77305 4.92199 5.77305 4.60993C5.77305 4.29787 5.65957 4.04255 5.43262 3.8156C5.20567 3.58865 4.95035 3.47518 4.6383 3.47518C4.29787 3.50355 4.04255 3.61702 3.8156 3.8156Z" />
</svg>
