<svg width="16" height="16" viewBox="0 0 16 16" fill="currentColor" xmlns="http://www.w3.org/2000/svg">
<path fill-rule="evenodd" clip-rule="evenodd" d="M13.8295 2.18941C12.2627 0.609858 9.71508 0.602627 8.13932 2.17326L2.18656 8.10666C0.610793 9.6773 0.603582 12.231 2.17045 13.8106C3.73732 15.3901 6.28492 15.3974 7.86068 13.8267L13.8134 7.89334C15.3892 6.3227 15.3964 3.76897 13.8295 2.18941ZM5.82915 13.9014C6.35414 13.77 6.81015 13.5071 7.20102 13.1166L9.05572 11.2648C9.44659 10.8744 9.711 10.4182 9.85279 9.8924C9.99457 9.36662 9.99457 8.84472 9.85279 8.31894C9.711 7.79704 9.44659 7.33698 9.05572 6.94652C8.77215 6.6643 8.45409 6.44394 8.09388 6.2893C8.01724 6.25838 7.9406 6.25838 7.86013 6.2893C7.77966 6.32023 7.73367 6.37436 7.71835 6.45167C7.67236 6.57539 7.64554 6.70296 7.63787 6.82667C7.63021 6.95425 7.68769 7.0393 7.81415 7.0857C8.06323 7.19394 8.28165 7.34085 8.46942 7.53028C8.89095 7.971 9.10171 8.48905 9.10171 9.09214C9.10171 9.69523 8.89095 10.2171 8.46942 10.654L6.59173 12.5097C6.17021 12.9465 5.65288 13.1669 5.04359 13.1669C4.4343 13.1669 3.91314 12.9504 3.48395 12.5213C3.05477 12.0883 2.84017 11.5702 2.84017 10.9594C2.84017 10.3486 3.0586 9.83054 3.49545 9.40915L5.25435 7.62693C5.31566 7.56508 5.33866 7.48003 5.32333 7.37951C5.308 7.27899 5.30033 7.17075 5.30033 7.0509C5.30033 6.93106 5.24285 6.84987 5.12406 6.80348C5.0091 6.75709 4.90947 6.77255 4.83283 6.84987L2.88616 8.79832C2.49529 9.18879 2.23471 9.64497 2.10059 10.1707C1.96647 10.6965 1.96647 11.2184 2.10059 11.7442C2.23471 12.2661 2.49529 12.7262 2.88616 13.1166C3.27702 13.5071 3.73304 13.77 4.25802 13.9014C4.78301 14.0329 5.30417 14.0329 5.82915 13.9014ZM8.13987 9.71456C8.06323 9.74549 7.98276 9.74549 7.90612 9.71456C7.5459 9.55606 7.22401 9.33956 6.94811 9.05735C6.55724 8.66688 6.29283 8.2107 6.15105 7.68492C6.00926 7.15915 6.00926 6.63724 6.15105 6.11147C6.29283 5.58956 6.55724 5.12951 6.94811 4.73905L8.79898 2.88338C9.18985 2.49291 9.64586 2.23003 10.1708 2.09858C10.6958 1.96714 11.217 1.96714 11.742 2.09858C12.267 2.23003 12.723 2.49291 13.1138 2.88338C13.5009 3.27384 13.7653 3.73389 13.8994 4.2558C14.0335 4.78157 14.0335 5.30348 13.8994 5.82925C13.7653 6.35116 13.5047 6.81121 13.1138 7.20167L11.1672 9.15399C11.0905 9.23131 10.9947 9.24678 10.8759 9.20039C10.7571 9.15399 10.6997 9.06894 10.6997 8.95296C10.6997 8.83698 10.692 8.72487 10.6767 8.62436C10.6613 8.51997 10.6843 8.43879 10.7456 8.37693L12.5045 6.59472C12.9414 6.16946 13.1598 5.65528 13.1598 5.04446C13.1598 4.43363 12.9452 3.91173 12.516 3.4826C12.0869 3.05348 11.5657 2.83698 10.9564 2.83698C10.3471 2.83698 9.82979 3.05735 9.40827 3.4942L7.53058 5.34987C7.10905 5.79059 6.89829 6.30863 6.89829 6.91173C6.89829 7.51482 7.10905 8.03673 7.53058 8.47358C7.71835 8.65915 7.93677 8.80992 8.18585 8.91817C8.31231 8.96456 8.36979 9.05348 8.36213 9.17719C8.35446 9.3009 8.32764 9.42848 8.28165 9.55219C8.26633 9.62951 8.21651 9.68363 8.13987 9.71456Z" />
</svg>
