<svg width="16" height="16" viewBox="0 0 16 16" fill="currentColor" xmlns="http://www.w3.org/2000/svg">
<path d="M11.6042 2.02427L4.95177 2.96354C4.7455 2.96354 4.0751 3.12009 3.7399 3.45927C3.40471 3.82454 3.25 4.21591 3.25 4.68554V12.6955C3.25 12.9825 3.45628 13.2173 3.7399 13.2434L11.9651 14C12.0425 14 12.0941 13.9739 12.1456 13.9217C12.1972 13.8695 12.223 13.8174 12.223 13.7391V13.5565C12.223 13.4782 12.1972 13.426 12.1456 13.3738C12.0941 13.3216 12.0425 13.2955 11.9651 13.2955L4.59079 12.6433L12.1714 12.6955C12.3003 12.6955 12.4293 12.5911 12.4293 12.4345V12.278C12.4293 12.1475 12.3261 12.0171 12.1714 12.0171L4.69393 11.9388L12.0683 11.13C12.4808 11.0517 12.7387 10.5299 12.7387 10.2168V3.17227C12.8418 2.49391 12.223 1.86772 11.6042 2.02427ZM7.29816 5.15518C7.29816 4.97254 7.37551 4.84209 7.53022 4.68554C7.68492 4.55509 7.83963 4.47681 8.0459 4.45072C8.25218 4.42463 8.43267 4.47681 8.56159 4.58118C8.69052 4.68554 8.79365 4.816 8.79365 4.99863C8.79365 5.18127 8.7163 5.33782 8.56159 5.46827C8.40689 5.59872 8.25218 5.677 8.0459 5.70309C7.83963 5.72918 7.65914 5.677 7.53022 5.57263C7.37551 5.46827 7.29816 5.33782 7.29816 5.15518ZM9.30934 8.88618V9.35582C9.30934 9.46018 9.2062 9.53845 9.10307 9.53845L6.88561 9.77327C6.78247 9.77327 6.67933 9.72109 6.67933 9.61673V9.14709C6.67933 9.04273 6.78247 8.96445 6.88561 8.96445L7.11766 8.93836C7.2208 8.93836 7.32394 8.834 7.32394 8.75573V7.19027C7.32394 7.08591 7.2208 7.03372 7.11766 7.03372L6.88561 7.05982C6.78247 7.05982 6.67933 7.00763 6.67933 6.90327V6.40754C6.67933 6.30318 6.78247 6.22491 6.88561 6.22491L8.45846 6.04227C8.56159 6.04227 8.66473 6.09445 8.66473 6.19882V8.59918C8.66473 8.70354 8.76787 8.75573 8.87101 8.75573L9.10307 8.72963C9.23199 8.72963 9.30934 8.80791 9.30934 8.88618Z" />
</svg>
