<svg width="16" height="16" viewBox="0 0 16 16" fill="currentColor" xmlns="http://www.w3.org/2000/svg">
<path d="M12.1321 3.84397C11.9057 3.61702 11.6509 3.50355 11.3396 3.50355H9.4717C9.4717 3.10638 9.33019 2.73759 9.01887 2.4539C8.73585 2.17021 8.36792 2 7.9717 2C7.57547 2 7.20755 2.14184 6.92453 2.4539C6.64151 2.73759 6.4717 3.10638 6.4717 3.50355H4.63208C4.32075 3.50355 4.06604 3.61702 3.83962 3.84397C3.61321 4.07092 3.5 4.32624 3.5 4.6383V12.8652C3.5 13.1773 3.61321 13.4326 3.83962 13.6596C4.06604 13.8865 4.32075 14 4.63208 14H11.3679C11.6792 14 11.934 13.8865 12.1604 13.6596C12.3868 13.4326 12.5 13.1773 12.5 12.8652V4.6383C12.4717 4.32624 12.3585 4.07092 12.1321 3.84397ZM7.57547 3.13475C7.68868 3.02128 7.83019 2.96454 7.9717 2.96454C8.11321 2.96454 8.25472 3.02128 8.36793 3.13475C8.48113 3.24823 8.53774 3.39007 8.53774 3.53191C8.53774 3.67376 8.48113 3.8156 8.36793 3.92908C8.25472 4.04255 8.11321 4.09929 7.9717 4.09929C7.83019 4.09929 7.68868 4.04255 7.57547 3.92908C7.46226 3.8156 7.40566 3.67376 7.40566 3.53191C7.40566 3.39007 7.46226 3.24823 7.57547 3.13475ZM5.73585 5.17731C5.73585 5.14894 5.76415 5.12057 5.79245 5.0922C5.82076 5.06383 5.84906 5.03546 5.87736 5.03546H10.066C10.0943 5.03546 10.1226 5.06383 10.1509 5.0922C10.1792 5.12057 10.2075 5.14894 10.2075 5.17731V5.63121C10.2075 5.65957 10.1792 5.68794 10.1509 5.71631C10.1226 5.74468 10.0943 5.77305 10.066 5.77305H5.87736C5.84906 5.77305 5.82076 5.74468 5.79245 5.71631C5.76415 5.68794 5.73585 5.65957 5.73585 5.63121V5.17731ZM10.8868 8.49645L7.54717 11.8156C7.49057 11.8723 7.43396 11.8723 7.34906 11.8723C7.26415 11.8723 7.20755 11.844 7.15094 11.7872L5.22642 9.85816C5.19811 9.82979 5.14151 9.74468 5.14151 9.68794C5.14151 9.60284 5.16981 9.5461 5.22642 9.48936L5.87736 8.83688C5.93396 8.78014 6.01887 8.78014 6.07547 8.78014C6.16038 8.78014 6.21698 8.80851 6.27359 8.83688L7.34906 9.91489L9.81132 7.44681C9.86792 7.39007 9.95283 7.39007 10.0094 7.39007C10.0943 7.39007 10.1509 7.41844 10.2075 7.44681L10.8585 8.12766C10.9151 8.1844 10.9434 8.24114 10.9434 8.32624C11 8.38298 10.9717 8.43972 10.8868 8.49645Z" />
</svg>
