<svg width="16" height="16" viewBox="0 0 16 16" fill="currentColor" xmlns="http://www.w3.org/2000/svg">
<path d="M9.4208 1H5.27479C5.13697 1 5.00489 1.04119 4.89005 1.12357C4.76945 1.21111 4.71203 1.31409 4.71203 1.43766L4.00572 7.94079C3.98275 8.10555 4.02869 8.24458 4.14928 8.34755C4.26987 8.45053 4.40768 8.50202 4.56847 8.50202H8.29529L6.57257 14.377C6.52663 14.5417 6.55534 14.6911 6.6587 14.8146C6.76207 14.9382 6.91711 15 7.1181 15C7.31908 15 7.47412 14.9176 7.59472 14.7477L12.9351 6.24678C13.027 6.08202 13.0213 5.9121 12.9179 5.74733C12.8146 5.58257 12.6538 5.49504 12.4413 5.49504H8.78913L9.98355 1.61787C10.0295 1.4737 9.99504 1.32953 9.88019 1.19566C9.7596 1.06694 9.60455 1 9.4208 1Z" />
</svg>
