<svg width="30" height="30" viewBox="0 0 30 30" fill="none" xmlns="http://www.w3.org/2000/svg">
<path d="M22.9843 5.54033C19.5084 5.88832 17.6428 5.18488 14.0883 5.95046C10.443 6.73344 7.24196 8.7319 5.59727 10.4072C2.11889 13.9468 1.95442 17.5336 1.8955 18.4732C1.80713 19.8552 1.7114 19.9819 1.98878 19.532C4.75775 15.0405 7.83356 12.3261 11.0861 10.9019C15.5808 8.93324 20.883 8.91335 24.8377 6.79558C24.9015 6.76078 23.2151 8.07072 19.8545 9.31603C16.2092 10.6657 12.5982 10.6583 8.14286 13.9741C6.81238 14.9659 5.78138 16.1217 4.90749 17.1781C5.13824 16.947 4.79702 17.2701 5.01304 17.0514C1.91269 20.5909 0.238543 25.1073 0.000432197 26.4148C-0.0241154 26.549 1.00197 26.0494 1.81204 25.694C2.01824 24.2026 2.26126 23.2158 3.04678 21.4708C13.887 26.7528 27.4201 6.95964 30 3C27.2801 4.86423 24.5873 5.37876 22.9843 5.54033Z" fill="url(#paint0_linear)"/>
<defs>
<linearGradient id="paint0_linear" x1="26.2811" y1="32.3199" x2="1.24506" y2="-5.79199" gradientUnits="userSpaceOnUse">
<stop offset="0.3439" stop-color="#AECB30"/>
<stop offset="0.6424" stop-color="#277933"/>
<stop offset="0.8459" stop-color="#081B13"/>
</linearGradient>
</defs>
</svg>
