<svg width="16" height="16" viewBox="0 0 16 16" fill="currentColor" xmlns="http://www.w3.org/2000/svg">
<path fill-rule="evenodd" clip-rule="evenodd" d="M0 2.88571C0 3.21708 0.325611 3.48571 0.727273 3.48571H15.2727C15.6744 3.48571 16 3.21708 16 2.88571C16 2.55433 15.6744 2.28571 15.2727 2.28571H0.727273C0.325611 2.28571 0 2.55433 0 2.88571ZM2.18182 6.48571C2.18182 6.81708 2.50743 7.08571 2.90909 7.08571H13.0909C13.4926 7.08571 13.8182 6.81708 13.8182 6.48571C13.8182 6.15433 13.4926 5.88571 13.0909 5.88571H2.90909C2.50743 5.88571 2.18182 6.15433 2.18182 6.48571ZM5.09091 10.6857C4.68925 10.6857 4.36364 10.4171 4.36364 10.0857C4.36364 9.75433 4.68925 9.48571 5.09091 9.48571H10.9091C11.3108 9.48571 11.6364 9.75433 11.6364 10.0857C11.6364 10.4171 11.3108 10.6857 10.9091 10.6857H5.09091ZM6.54545 13.6857C6.54545 14.0171 6.87107 14.2857 7.27273 14.2857H8.72727C9.12893 14.2857 9.45455 14.0171 9.45455 13.6857C9.45455 13.3543 9.12893 13.0857 8.72727 13.0857H7.27273C6.87107 13.0857 6.54545 13.3543 6.54545 13.6857Z" />
</svg>
