<svg width="16" height="16" viewBox="0 0 16 16" fill="currentColor" xmlns="http://www.w3.org/2000/svg">
<path fill-rule="evenodd" clip-rule="evenodd" d="M8 15.5C11.0376 15.5 13.5 13.0376 13.5 10C13.5 6.96243 11.0376 4.5 8 4.5C4.96243 4.5 2.5 6.96243 2.5 10C2.5 13.0376 4.96243 15.5 8 15.5ZM8 14.5C10.4853 14.5 12.5 12.4853 12.5 10C12.5 7.51472 10.4853 5.5 8 5.5C5.51471 5.5 3.5 7.51472 3.5 10C3.5 12.4853 5.51471 14.5 8 14.5Z" />
<path fill-rule="evenodd" clip-rule="evenodd" d="M8 4.77326L5.25 1.84945L6.25 0.949817H9.75L10.75 1.84945L8 4.77326ZM8 5.44798L4.5 1.84945L6 0.5H10L11.5 1.84945L8 5.44798Z" />
<path d="M5.25 1.62454H11V2.07436H5.25V1.62454Z" />
<path d="M6.75 1.9606L7.23296 1.84418L8.28491 5.37606L7.80194 5.49248L6.75 1.9606Z" />
<path d="M8.74805 1.8517L9.23101 1.96812L8.17907 5.5L7.6961 5.38358L8.74805 1.8517Z" />
</svg>
