<svg width="16" height="16" viewBox="0 0 16 16" fill="currentColor" xmlns="http://www.w3.org/2000/svg">
<path fill-rule="evenodd" clip-rule="evenodd" d="M3.38052 6.78177C3.7673 4.05559 6.08785 2 8.83117 2C12.7833 2 16 5.25904 16 9.26316V11.7895C16 12.0799 15.7672 12.3158 15.4805 12.3158H14.2768L14.2029 12.5254C13.8934 13.4033 13.0809 14 12.1558 14C11.2307 14 10.4183 13.4032 10.1097 12.5256L10.0359 12.3158H6.79624L6.72237 12.5254C6.41291 13.4033 5.60039 14 4.67532 14C3.75019 14 2.93781 13.4032 2.62919 12.5256L2.55542 12.3158H0.519481C0.232816 12.3158 0 12.0799 0 11.7895V10.1053C0 8.42198 1.35157 7.05263 3.01299 7.05263H3.34209L3.38052 6.78177ZM4.37758 7.05263H8.31169V3.06676L7.9377 3.14406C6.1895 3.50536 4.81049 4.90252 4.45387 6.67372L4.37758 7.05263ZM14.2029 11.0536L14.2768 11.2632H14.961V9.26316C14.961 8.9842 14.9373 8.70105 14.8914 8.37626L14.8531 8.10526H3.01299C1.92407 8.10526 1.03896 9.00201 1.03896 10.1053V11.2632H2.55542L2.62919 11.0534C2.93781 10.1757 3.75019 9.57895 4.67532 9.57895C5.60039 9.57895 6.41291 10.1757 6.72237 11.0536L6.79624 11.2632H10.0359L10.1097 11.0534C10.4183 10.1757 11.2307 9.57895 12.1558 9.57895C13.0809 9.57895 13.8934 10.1757 14.2029 11.0536ZM11.013 11.7895C11.013 12.4279 11.5257 12.9474 12.1558 12.9474C12.786 12.9474 13.2987 12.4279 13.2987 11.7895C13.2987 11.1511 12.786 10.6316 12.1558 10.6316C11.5257 10.6316 11.013 11.1511 11.013 11.7895ZM4.67532 12.9474C4.04521 12.9474 3.53247 12.4279 3.53247 11.7895C3.53247 11.1511 4.04521 10.6316 4.67532 10.6316C5.30544 10.6316 5.81818 11.1511 5.81818 11.7895C5.81818 12.4279 5.30544 12.9474 4.67532 12.9474ZM9.35065 7.05263V3.07124L9.70678 3.12323C11.7392 3.41989 13.4826 4.7357 14.3613 6.60081L14.5741 7.05263H9.35065Z" />
</svg>
