<svg width="16" height="16" viewBox="0 0 16 16" fill="currentColor" xmlns="http://www.w3.org/2000/svg">
<path fill-rule="evenodd" clip-rule="evenodd" d="M8.67642 4.86497L15.0683 14.4526C15.159 14.5891 15.1676 14.7643 15.0904 14.9084C15.0131 15.0527 14.8627 15.1428 14.6989 15.1428H1.58681C1.42294 15.1428 1.27245 15.0526 1.19536 14.9082C1.11807 14.7638 1.12657 14.5888 1.21748 14.4526L7.60933 4.86497L5.58809 1.83315C5.45235 1.62909 5.50738 1.35354 5.71092 1.21784C5.91489 1.08128 6.19036 1.13659 6.32686 1.34067L8.14288 4.06466L9.95876 1.34089C10.0945 1.13664 10.3704 1.08126 10.5744 1.21756C10.7787 1.35345 10.8338 1.62959 10.6976 1.83329L8.67642 4.86497ZM8.39013 13.7087H8.96239L9.13312 13.8794V14.4517L8.39013 13.7087ZM7.73389 13.7782C7.75577 13.8306 7.78814 13.8788 7.82864 13.9197L8.16394 14.255H6.05855L7.69898 11.7944V13.6063C7.69898 13.6656 7.71089 13.7241 7.73389 13.7782ZM10.2275 14.255L8.58678 11.7944V13.1624H9.23556C9.48091 13.1624 9.67946 13.3609 9.67946 13.6063V14.255H10.2275ZM8.14288 5.66527L13.8696 14.255H11.2943L8.51221 10.082C8.49318 10.0604 8.48318 10.049 8.47631 10.0421C8.39091 9.94285 8.27312 9.88438 8.14288 9.88438C8.01122 9.88438 7.89227 9.94413 7.80862 10.0428C7.80172 10.0498 7.79179 10.0613 7.77245 10.0836L4.99146 14.255H2.41638L8.14288 5.66527Z" />
</svg>
