<svg width="16" height="16" viewBox="0 0 16 16" fill="currentColor" xmlns="http://www.w3.org/2000/svg">
<path fill-rule="evenodd" clip-rule="evenodd" d="M10.1816 9.1816C10.4331 9.1816 10.6361 8.97862 10.6361 8.72707V1.45453C10.6361 1.20341 10.4328 1 10.1816 1H5.81805C5.56723 1 5.36353 1.20371 5.36353 1.45453V2.45451H2.90904C2.65821 2.45451 2.45451 2.65821 2.45451 2.90904V5.36353H1.45453C1.20371 5.36353 1 5.56723 1 5.81805V8.72707C1 8.97833 1.20341 9.1816 1.45453 9.1816H10.1816ZM14.9996 2.45487H13.0906C12.8555 2.45487 12.6592 2.63406 12.6379 2.86863L11.9484 10.4547H1V11.3637H12.3633C12.5986 11.3637 12.7947 11.1844 12.8161 10.95L13.5055 3.36393H14.9996V2.45487ZM2.90904 12.6364C2.25677 12.6364 1.72725 13.166 1.72725 13.8182C1.72725 14.4705 2.25677 15 2.90904 15C3.5613 15 4.09082 14.4705 4.09082 13.8182C4.09082 13.166 3.5613 12.6364 2.90904 12.6364ZM9.72705 13.8182C9.72705 13.166 10.2566 12.6364 10.9088 12.6364C11.5611 12.6364 12.0906 13.166 12.0906 13.8182C12.0906 14.4705 11.5611 15 10.9088 15C10.2566 15 9.72705 14.4705 9.72705 13.8182ZM5.36353 6.27258H1.90905V8.27255H5.36353V6.27258ZM3.36356 3.36356H5.36353V5.36353H3.36356V3.36356ZM9.72705 1.90905H6.27258V8.27255H9.72705V1.90905Z" />
</svg>
