<svg width="16" height="16" viewBox="0 0 16 16" fill="currentColor" xmlns="http://www.w3.org/2000/svg">
<path fill-rule="evenodd" clip-rule="evenodd" d="M2.47921 8.91457C2.09529 9.3299 1.81818 9.89315 1.81818 10.5C1.81818 11.1068 2.09529 11.6701 2.47921 12.0854C2.7123 12.3376 2.96115 12.5114 3.18182 12.612V8.388C2.96115 8.48859 2.7123 8.66239 2.47921 8.91457ZM1.86625 8.39618C2.34166 7.88186 2.98949 7.5 3.59091 7.5H4V13.5H3.59091C2.98949 13.5 2.34166 13.1181 1.86625 12.6038C1.37744 12.075 1 11.3339 1 10.5C1 9.6661 1.37744 8.92501 1.86625 8.39618Z" />
<path fill-rule="evenodd" clip-rule="evenodd" d="M6 7.83333V13.1667C6 13.903 5.32843 14.5 4.5 14.5C3.67157 14.5 3 13.903 3 13.1667V7.83333C3 7.09695 3.67157 6.5 4.5 6.5C5.32843 6.5 6 7.09695 6 7.83333ZM4.5 7.3C4.16863 7.3 3.9 7.53878 3.9 7.83333V13.1667C3.9 13.4612 4.16863 13.7 4.5 13.7C4.83137 13.7 5.1 13.4612 5.1 13.1667V7.83333C5.1 7.53878 4.83137 7.3 4.5 7.3Z" />
<path fill-rule="evenodd" clip-rule="evenodd" d="M13.5208 8.91457C13.9047 9.3299 14.1818 9.89315 14.1818 10.5C14.1818 11.1068 13.9047 11.6701 13.5208 12.0854C13.2877 12.3376 13.0389 12.5114 12.8182 12.612V8.388C13.0389 8.48859 13.2877 8.66239 13.5208 8.91457ZM14.1338 8.39618C13.6583 7.88186 13.0105 7.5 12.4091 7.5H12V13.5H12.4091C13.0105 13.5 13.6583 13.1181 14.1338 12.6038C14.6226 12.075 15 11.3339 15 10.5C15 9.6661 14.6226 8.92501 14.1338 8.39618Z" />
<path fill-rule="evenodd" clip-rule="evenodd" d="M10 7.83333V13.1667C10 13.903 10.6716 14.5 11.5 14.5C12.3284 14.5 13 13.903 13 13.1667V7.83333C13 7.09695 12.3284 6.5 11.5 6.5C10.6716 6.5 10 7.09695 10 7.83333ZM11.5 7.3C11.8314 7.3 12.1 7.53878 12.1 7.83333V13.1667C12.1 13.4612 11.8314 13.7 11.5 13.7C11.1686 13.7 10.9 13.4612 10.9 13.1667V7.83333C10.9 7.53878 11.1686 7.3 11.5 7.3Z" />
<path d="M12.9 8.5C12.9656 8.17689 13 7.84247 13 7.5C13 4.73858 10.7614 2.5 8 2.5C5.23858 2.5 3 4.73858 3 7.5C3 7.84247 3.03443 8.17689 3.10002 8.5H2.08296C2.0284 8.17479 2 7.84071 2 7.5C2 4.18629 4.68629 1.5 8 1.5C11.3137 1.5 14 4.18629 14 7.5C14 7.84071 13.9716 8.17479 13.917 8.5H12.9Z" />
</svg>
