<svg width="16" height="16" viewBox="0 0 16 16" fill="currentColor" xmlns="http://www.w3.org/2000/svg">
<path fill-rule="evenodd" clip-rule="evenodd" d="M15 5.79919C15 5.90276 14.9848 6.00633 14.9239 6.07537L13.6917 7.61162V13.4287H13.7525C13.9199 13.4287 14.0111 13.584 14.0111 13.7739V15.2238C14.0111 15.4137 13.9199 15.5 13.7525 15.5H2.20572C2.02316 15.5 1.82539 15.4137 1.82539 15.2238V13.7739C1.82539 13.584 2.03837 13.4287 2.20572 13.4287H2.28178V7.55984L1.07994 6.07537C1.01909 6.00633 0.988664 5.90276 1.00388 5.79919C1.01909 5.69563 1.06473 5.60932 1.1408 5.55754L7.83459 0.551784C7.94109 0.482739 8.06279 0.482739 8.16928 0.551784L14.8631 5.55754C14.9391 5.60932 14.9848 5.69563 15 5.79919ZM13.3874 14.8096H2.43392V14.1191H13.3874V14.8096ZM6.38934 10.4079C6.38934 9.44131 7.13479 8.6473 7.98673 8.6473C8.83866 8.6473 9.58411 9.42405 9.58411 10.4079V13.4287H13.0831V6.90391L7.98673 3.24453L2.89031 6.90391V13.4287H6.38934V10.4079ZM8.97558 10.4079V13.4287H6.99787V10.4079C6.99787 9.82106 7.46948 9.33774 7.98673 9.33774C8.50397 9.33774 8.97558 9.8038 8.97558 10.4079ZM13.5243 6.4206C13.5852 6.47238 13.6308 6.54143 13.646 6.61047L14.2089 5.8855L7.98673 1.22497L1.76454 5.8855L2.31221 6.55869C2.32742 6.5069 2.37306 6.45512 2.4187 6.4206L7.81938 2.55409C7.91066 2.48504 8.03236 2.48504 8.13886 2.55409L13.5243 6.4206Z" />
<path d="M3.75 8H5.75V12H3.75V8Z" />
<path d="M10.25 8H12.25V12H10.25V8Z" />
</svg>
