<svg width="16" height="16" viewBox="0 0 16 16" fill="currentColor" xmlns="http://www.w3.org/2000/svg">
<path fill-rule="evenodd" clip-rule="evenodd" d="M10.1879 7.07775C10.2042 6.35987 9.61622 5.76674 8.89201 5.76674H7.10799C6.3867 5.76674 5.79697 6.35646 5.79697 7.07775V8.84665C5.79697 9.56794 6.3867 10.1577 7.10799 10.1577H8.87689C9.59818 10.1577 10.1879 9.56794 10.1879 8.84665V7.07775ZM9.38013 7.07775V8.86177L9.39503 8.87667C9.38706 9.14641 9.16357 9.36501 8.89201 9.36501H7.10799C6.83144 9.36501 6.60475 9.13832 6.60475 8.86177V7.07775C6.60475 6.8012 6.83144 6.57451 7.10799 6.57451H8.87689C9.15344 6.57451 9.38013 6.8012 9.38013 7.07775Z" />
<path fill-rule="evenodd" clip-rule="evenodd" d="M15 5.80778C15 5.97408 14.8639 6.11015 14.6976 6.11015H12.5356V7.69762H14.6976C14.8639 7.69762 15 7.83369 15 8C15 8.16631 14.8639 8.30238 14.6976 8.30238H12.5356V9.88985H14.6976C14.8639 9.88985 15 10.0259 15 10.1922C15 10.3585 14.8639 10.4946 14.6976 10.4946H12.5356V10.6911C12.5356 11.689 11.7192 12.5054 10.7214 12.5054H10.4946V14.6976C10.4946 14.8639 10.3585 15 10.1922 15C10.0259 15 9.88985 14.8639 9.88985 14.6976V12.5054H8.30238V14.6976C8.30238 14.8639 8.16631 15 8 15C7.83369 15 7.69762 14.8639 7.69762 14.6976V12.5054H6.11015V14.6976C6.11015 14.8639 5.97408 15 5.80778 15C5.64147 15 5.5054 14.8639 5.5054 14.6976V12.5054H5.27862C4.28078 12.5054 3.46436 11.689 3.46436 10.6911V10.4946H1.30238C1.13607 10.4946 1 10.3585 1 10.1922C1 10.0259 1.13607 9.88985 1.30238 9.88985H3.46436V8.30238H1.30238C1.13607 8.30238 1 8.16631 1 8C1 7.83369 1.13607 7.69762 1.30238 7.69762H3.46436V6.09503H1.30238C1.13607 6.09503 1 5.95896 1 5.79266C1 5.62635 1.13607 5.49028 1.30238 5.49028H3.46436V5.23326C3.46436 4.23542 4.28078 3.41901 5.27862 3.41901H5.5054V1.30238C5.5054 1.13607 5.64147 1 5.80778 1C5.97408 1 6.11015 1.13607 6.11015 1.30238V3.41901H7.69762V1.30238C7.69762 1.13607 7.83369 1 8 1C8.16631 1 8.30238 1.13607 8.30238 1.30238V3.41901H9.88985V1.30238C9.88985 1.13607 10.0259 1 10.1922 1C10.3585 1 10.4946 1.13607 10.4946 1.30238V3.43413H10.7214C11.7192 3.43413 12.5356 4.25054 12.5356 5.24838V5.5054H14.6976C14.8639 5.5054 15 5.64147 15 5.80778ZM10.7214 11.9006C11.3866 11.9006 11.9309 11.3564 11.9309 10.6911V5.24838C11.9309 4.58315 11.3866 4.03888 10.7214 4.03888H5.27862C4.61339 4.03888 4.06911 4.58315 4.06911 5.24838V10.6911C4.06911 11.3564 4.61339 11.9006 5.27862 11.9006H10.7214Z" />
</svg>
