<svg width="16" height="16" viewBox="0 0 16 16" fill="currentColor" xmlns="http://www.w3.org/2000/svg">
<path fill-rule="evenodd" clip-rule="evenodd" d="M6.9181 7.97722L6.85939 7.91694L12.5165 2.10873C12.6481 1.96384 12.6443 1.74268 12.5107 1.6055C12.3771 1.46833 12.1617 1.46443 12.0235 1.59668L6.37127 7.4093L6.31268 7.34914C6.17273 7.21275 5.95667 7.21275 5.81886 7.347L5.10148 8.08349C4.67046 7.73513 4.04534 7.7665 3.64963 8.17361L3.2846 8.5484L3.3508 8.51419L0.131145 11.1282C0.0532902 11.1925 0.00586274 11.2875 0.000507506 11.3897C-0.00484773 11.4918 0.0323746 11.5915 0.102881 11.6639L2.722 14.3464C2.78758 14.4138 2.87676 14.4518 2.98252 14.4519C3.08839 14.4462 3.18113 14.3973 3.24358 14.3173L5.75836 11.0911L5.7833 11.0035L6.1151 10.7112C6.51155 10.305 6.5421 9.66324 6.2028 9.22071L6.91805 8.48636C7.0549 8.34568 7.0549 8.11785 6.9181 7.97722ZM6.13881 7.86033H5.97795L5.36309 8.4916V8.65676L5.64128 8.94237H5.80214L6.417 8.3111V8.14594L6.13881 7.86033ZM3.47328 9.30352L0.876902 11.4288L1.00578 11.5611L2.37917 10.4349C2.47792 10.3545 2.61097 10.3343 2.72819 10.3819C2.84541 10.4295 2.92899 10.5376 2.94746 10.6657C2.96592 10.7937 2.91646 10.9221 2.81794 11.0023L1.50439 12.0779L1.65956 12.2372L2.25442 11.6266C2.34188 11.5302 2.4736 11.4905 2.59791 11.5231C2.72221 11.5557 2.81928 11.6554 2.85102 11.783C2.88277 11.9106 2.84413 12.0459 2.75316 12.1328L2.15551 12.7464L2.31079 12.9058L3.36242 11.5553C3.48655 11.4128 3.69751 11.3947 3.84299 11.514C3.98848 11.6334 4.01777 11.8487 3.90596 12.0095L2.80929 13.4193L2.93817 13.5516L5.00841 10.8856L3.47328 9.30352ZM4.0006 8.82309L4.14669 8.67519C4.30236 8.5231 4.54895 8.52275 4.70648 8.67556L5.62678 9.62691C5.78101 9.78553 5.78101 10.0421 5.62699 10.2005L5.48235 10.3459L4.0006 8.82309Z" />
<path fill-rule="evenodd" clip-rule="evenodd" d="M15.7163 8.91228C16.09 9.31132 16.0946 9.94116 15.7296 10.347L11.9706 14.2064C11.7811 14.4009 11.5418 14.5 11.2785 14.5C11.0152 14.5 10.7758 14.4009 10.5864 14.2064C10.281 13.8928 10.2147 13.4139 10.4079 13.0322C9.49077 11.9113 9.48539 10.2651 10.3918 9.13808L3.53329 2.09645C3.40881 1.96865 3.40881 1.77138 3.53329 1.64358C3.65776 1.51578 3.84991 1.51578 3.97431 1.6435L10.8343 8.67322C11.9314 7.78081 13.4964 7.8019 14.5726 8.72905C14.9444 8.5307 15.4108 8.5987 15.7163 8.91228ZM10.8101 12.528L14.0832 9.15452C13.1674 8.42778 11.8524 8.50493 11.0145 9.36485C10.1894 10.2248 10.1143 11.5751 10.8101 12.528ZM15.2949 9.37129C15.3558 9.42484 15.3877 9.51061 15.3877 9.62284C15.3779 9.70705 15.3357 9.8062 15.2719 9.8839L11.5162 13.7399C11.3883 13.8712 11.1554 13.8712 11.0275 13.7399C10.9582 13.6688 10.9282 13.5907 10.9282 13.4822C10.9282 13.3859 10.9626 13.3028 11.0335 13.2179L14.7865 9.36515C14.8558 9.29402 14.9318 9.26326 15.0375 9.26326C15.1313 9.26326 15.2122 9.29849 15.2949 9.37129Z" />
<path d="M10.7164 11.5644C10.5587 10.8729 10.7612 10.1373 11.2504 9.63506C11.3748 9.50727 11.567 9.50727 11.6915 9.63506C11.8159 9.76286 11.8159 9.96014 11.6915 10.0879C11.3466 10.442 11.2142 10.9313 11.3364 11.4081C11.3783 11.5802 11.2746 11.7532 11.0791 11.7998H11.0259C10.8803 11.7998 10.7567 11.7092 10.7164 11.5644Z" />
</svg>
