<svg width="16" height="16" viewBox="0 0 16 16" fill="currentColor" xmlns="http://www.w3.org/2000/svg">
<path fill-rule="evenodd" clip-rule="evenodd" d="M14.3099 8.55103C15.1536 8.14557 15.6357 7.19582 15.4663 6.2352C15.288 5.22482 14.4396 4.49007 13.4486 4.48776C13.2141 4.48683 12.982 4.52789 12.7625 4.60827V3.47602C12.7586 2.38742 11.9098 1.50601 10.8602 1.5L5.07329 1.5C4.01805 1.50101 3.16302 2.38721 3.16204 3.48071V4.58452C2.55421 4.3893 1.88564 4.49592 1.35834 4.88724C0.742385 5.34436 0.419171 6.11574 0.517372 6.8943C0.609231 7.62258 1.05588 8.24655 1.69321 8.55135V13.6403H2.73632V14.5H5.05915L5.24028 14.3907L5.65167 13.6403H10.2336L10.645 14.3907L10.8261 14.5H13.1474V13.6403H14.3099V8.55103ZM3.12841 14.1367H4.81685L4.9477 14.0281L5.20262 13.5962H3.12558L3.12841 14.1367ZM11.1023 14.1744L10.9161 14.0681L10.6531 13.5967H12.7606V14.1744H11.1023ZM4.60925 6.50449C4.57637 5.91457 4.31787 5.37624 3.89584 5.00147L3.8929 3.48082C3.89381 2.80548 4.42189 2.25826 5.07352 2.2575L10.8591 2.2575C11.5068 2.26205 12.0309 2.80834 12.0316 3.48114V5.07464C11.6557 5.45001 11.4304 5.96043 11.4035 6.50321L11.4033 8.68529H4.60925V6.50449ZM4.61082 9.44278V10.6163H11.3954V9.44278H4.61082ZM13.8331 7.923L13.5495 8.01308L13.579 8.05379V12.8828H2.42406V8.01263L2.16585 7.9297C1.5266 7.72612 1.13439 7.06101 1.25105 6.37903C1.36771 5.69705 1.95663 5.21223 2.62396 5.24881C3.29128 5.28539 3.82758 5.83188 3.87419 6.52281L3.87368 11.3673H12.1247V6.51752C12.164 5.83697 12.6976 5.28385 13.3665 5.24249C14.0355 5.20112 14.6287 5.68457 14.7476 6.36811C14.8666 7.05164 14.4738 7.71946 13.8331 7.923Z" />
</svg>
