<svg width="16" height="16" viewBox="0 0 16 16" fill="currentColor" xmlns="http://www.w3.org/2000/svg">
<path fill-rule="evenodd" clip-rule="evenodd" d="M11.2667 14.1765H13.6C14.3717 14.1765 15 13.6221 15 12.9412V5.52941C15 4.84796 14.3721 4.29412 13.6 4.29412H8.46667V1.82353H11.2667V1H4.73333V1.82353H7.53333V4.29412H2.4C1.62791 4.29412 1 4.84796 1 5.52941V12.9412C1 13.6221 1.62827 14.1765 2.4 14.1765H4.73333V15H5.66667V14.1765H10.3333V15H11.2667V14.1765ZM1.93333 5.99265C1.93333 5.5094 2.38105 5.11765 2.93333 5.11765H13.0668C13.619 5.11765 14.0667 5.50928 14.0668 5.99245L14.0684 12.4777C14.0685 12.9611 13.6208 13.3529 13.0684 13.3529H2.93333C2.38105 13.3529 1.93333 12.9612 1.93333 12.4779V5.99265ZM11.2667 7.58824H9.4V6.76471H12.2V8.41177H11.2667V7.58824Z" />
</svg>
