<svg width="16" height="16" viewBox="0 0 16 16" fill="currentColor" xmlns="http://www.w3.org/2000/svg">
<path d="M14.0908 10.446L12.2866 9.43283C12.3558 8.96174 12.4062 8.48007 12.406 7.98051C12.4043 5.1938 11.1827 2.76085 10.4546 1.55896C10.0039 0.813681 8.82002 0.813681 8.36938 1.55896C7.93904 2.27064 7.3409 3.42009 6.92102 4.81211L5.49904 3.13758L5.82706 2.85901C6.01163 2.70264 6.03384 2.42664 5.87747 2.24292C5.72195 2.05835 5.44595 2.03614 5.26138 2.19251L4.6014 2.75311C4.60097 2.75348 4.60043 2.75354 4.60001 2.75391C4.59958 2.75428 4.59937 2.75482 4.59894 2.75519L3.93863 3.31617C3.75406 3.47254 3.73184 3.74854 3.88822 3.93225C3.97452 4.03479 4.09757 4.08692 4.22147 4.08692C4.32144 4.08692 4.42227 4.05274 4.5043 3.98267L4.83286 3.70357L6.65506 5.84936C6.5145 6.52547 6.42435 7.24004 6.42477 7.98308C6.42488 8.3331 6.44443 8.67735 6.47957 9.01439C5.95769 8.98475 5.49765 8.69951 5.24109 8.22271C5.08728 7.93902 4.62415 7.93902 4.47034 8.22271C4.19946 8.726 3.70471 9.02593 3.14673 9.02593C2.58875 9.02593 2.094 8.726 1.82312 8.22271C1.70862 8.00994 1.44288 7.93218 1.23011 8.04497C1.01734 8.16033 0.937871 8.42522 1.05237 8.63799C1.47876 9.4284 2.26148 9.90093 3.14673 9.90093C3.80896 9.90093 4.4148 9.63604 4.85571 9.17119C5.29663 9.63604 5.90247 9.90093 6.5647 9.90093C6.58125 9.90093 6.5961 9.89511 6.61255 9.89447C6.74499 10.5978 6.93576 11.2579 7.15494 11.8588C6.97282 11.9421 6.77554 11.9927 6.5647 11.9927C6.00671 11.9927 5.51196 11.6928 5.24109 11.1895C5.08728 10.9058 4.62415 10.9058 4.47034 11.1895C4.19946 11.6928 3.70471 11.9927 3.14673 11.9927C2.58875 11.9927 2.094 11.6928 1.82312 11.1895C1.70777 10.9767 1.44202 10.899 1.23011 11.0118C1.01734 11.1271 0.937871 11.392 1.05237 11.6048C1.47876 12.3952 2.26148 12.8677 3.14673 12.8677C3.80896 12.8677 4.4148 12.6028 4.85571 12.138C5.51378 12.8317 6.59952 13.0026 7.47537 12.6601C7.78641 13.3735 8.11336 13.9718 8.37622 14.4054C8.60159 14.7781 8.99135 15 9.41881 15C9.41881 15 9.41881 15 9.41966 15C9.84637 15 10.236 14.7772 10.4605 14.4054C10.5835 14.2021 10.7223 13.9513 10.8651 13.6812C11.2169 14.1381 11.7175 14.4575 12.2938 14.557C12.4254 14.5792 12.5579 14.5903 12.6895 14.5903C13.2329 14.5903 13.7619 14.3989 14.184 14.04C14.7086 13.5957 15.006 12.9463 15 12.2584C14.994 11.5706 14.6856 10.9254 14.0908 10.446ZM9.11984 2.01301C9.18585 1.90423 9.29202 1.84169 9.41197 1.84169C9.53192 1.84169 9.63809 1.90423 9.7041 2.01301C10.3851 3.13694 11.5271 5.40711 11.5288 7.98051C11.5289 8.40536 11.487 8.81599 11.4304 9.21942C11.208 9.2231 10.9903 9.26658 10.7849 9.36217L7.60974 5.62308C7.99458 4.06993 8.65948 2.77474 9.11984 2.01301ZM9.71008 13.9514C9.64407 14.0602 9.5379 14.1228 9.41881 14.1228C9.29886 14.1228 9.19269 14.0602 9.12668 13.9514C8.44565 12.8275 7.30287 10.559 7.30202 7.98308C7.3017 7.55225 7.34228 7.13473 7.39847 6.72489L10.1187 9.92822C9.82971 10.3522 9.74992 10.8878 9.93374 11.3911L10.3976 12.654C10.1558 13.1735 9.91281 13.6159 9.71008 13.9514ZM13.6183 13.3735C13.6183 13.3735 13.6183 13.3735 13.6175 13.3735C13.291 13.6504 12.8621 13.7657 12.4425 13.6948C12.0213 13.6222 11.6564 13.3675 11.4744 13.0668L10.7558 11.092C10.6974 10.9311 10.7021 10.785 10.7355 10.6545L12.1136 12.2772C12.1999 12.3798 12.3229 12.4319 12.4468 12.4319C12.5468 12.4319 12.6476 12.3977 12.7296 12.3276C12.9142 12.1713 12.9364 11.8953 12.7801 11.7115L11.4037 10.0908C11.4238 10.089 11.4409 10.0795 11.4616 10.0795C11.5786 10.0795 11.7034 10.1085 11.8299 10.1794L13.5987 11.1655C13.9302 11.4373 14.1216 11.838 14.125 12.2661C14.1284 12.6934 13.9439 13.0967 13.6183 13.3735Z" />
</svg>
