<svg width="16" height="16" viewBox="0 0 16 16" fill="currentColor" xmlns="http://www.w3.org/2000/svg">
<path fill-rule="evenodd" clip-rule="evenodd" d="M2.26546 10.0842L2.51546 9.07368H13.4845L13.7345 10.0842H2.26546ZM4.49996 6.04211H11.5V8.06316H4.49996V6.04211ZM4.49996 3.51579H11.5V5.03158H4.49996V3.51579ZM14.485 8.44615C14.4295 8.2208 14.2295 8.06316 14 8.06316H12.5V6.04211H14V5.03158H12.5V3.51579H14V2.50526H12.5V2H11.5V2.50526H4.49996V2H3.49996V2.50526H1.99996V3.51579H3.49996V5.03158H1.99996V6.04211H3.49996V8.06316H1.99996C1.77046 8.06316 1.57046 8.2208 1.51496 8.44615L1.01496 10.4672C0.977455 10.6178 1.01146 10.7779 1.10596 10.9002C1.20096 11.023 1.34596 11.0947 1.49996 11.0947H2.49996V14H3.49996V11.0947H12.5V14H13.5V11.0947H14.5C14.654 11.0947 14.7995 11.023 14.894 10.9002C14.989 10.7779 15.0225 10.6178 14.985 10.4672L14.485 8.44615Z" />
</svg>
