<svg width="16" height="16" viewBox="0 0 16 16" fill="currentColor" xmlns="http://www.w3.org/2000/svg">
<path d="M15.4368 8.69019C15.4684 8.8205 15.5 8.9508 15.5 9.0811V11.0356C15.5 11.5568 15.3737 12.078 15.1211 12.5341C14.8684 12.9902 14.4895 13.3485 14.0474 13.6091C13.6053 13.8697 13.1 14 12.5947 14H11.6474C10.8895 14 10.2263 13.7394 9.65789 13.2182C9.08947 12.697 8.80526 12.0455 8.71053 11.2637L8.61579 9.70003H7.35263L7.25789 11.2637C7.19474 12.0455 6.87895 12.697 6.31053 13.2182C5.74211 13.7394 5.11053 14 4.32105 14H3.37368C2.86842 14 2.36316 13.8697 1.92105 13.6091C1.47895 13.3485 1.1 12.9902 0.847368 12.5341C0.626316 12.1106 0.5 11.5894 0.5 11.0682V9.11368C0.5 8.98337 0.531579 8.8205 0.563158 8.72277L1.73158 3.64099C1.79474 3.34781 1.92105 3.05463 2.11053 2.8266C2.3 2.59857 2.52105 2.40312 2.77368 2.27282C2.99474 2.14252 3.27895 2.04479 3.56316 2.01222C3.84737 1.97964 4.13158 2.01222 4.41579 2.10994L5.01579 2.33797C5.07895 2.37055 5.11053 2.40312 5.14211 2.4357C5.17368 2.46827 5.17368 2.53342 5.14211 2.59857L5.01579 2.98948C4.98421 3.05463 4.95263 3.08721 4.92105 3.11978C4.85789 3.15236 4.82632 3.15236 4.76316 3.11978L4.25789 2.92433C3.87895 2.79403 3.53158 2.8266 3.21579 2.98948C2.9 3.15236 2.67895 3.44554 2.58421 3.80387L1.47895 8.46217C2.23684 8.20156 3.02632 8.07126 3.78421 8.07126C4.92105 8.07126 5.99474 8.36444 7.03684 8.91822H8.9C9.94211 8.36444 11.0158 8.07126 12.1526 8.07126C12.9421 8.07126 13.7 8.20156 14.4579 8.46217L13.4789 3.83644C13.4158 3.60842 13.3211 3.44554 13.1947 3.28266C13.0684 3.11978 12.8789 2.98948 12.6579 2.92433C12.4053 2.8266 12.1211 2.85918 11.8368 2.95691L11.2684 3.15236C11.2053 3.18493 11.1737 3.15236 11.1105 3.15236C11.0474 3.11978 11.0158 3.08721 11.0158 3.02206L10.8895 2.63115C10.8579 2.566 10.8895 2.53342 10.8895 2.46827C10.8895 2.40312 10.9526 2.33797 10.9842 2.33797L11.5842 2.10994C11.8684 2.01222 12.1526 1.97964 12.4368 2.01222C12.7211 2.04479 13.0053 2.10994 13.2579 2.27282C13.5105 2.40312 13.7316 2.59857 13.9211 2.8266C14.1105 3.05463 14.2368 3.31524 14.3 3.64099L15.4368 8.69019ZM6.43684 11.2311L6.56316 9.60231C5.67895 9.14625 4.76316 8.91822 3.81579 8.91822C2.96316 8.91822 2.14211 9.0811 1.35263 9.43943V11.0682C1.35263 11.6546 1.54211 12.1758 1.95263 12.5667C2.36316 12.9902 2.83684 13.1856 3.43684 13.1856H4.38421C4.92105 13.1856 5.39474 12.9902 5.80526 12.6318C6.18421 12.2409 6.40526 11.7849 6.43684 11.2311ZM14.6789 11.0682V9.43943C13.8895 9.11368 13.0684 8.91822 12.2158 8.91822C11.2684 8.91822 10.3526 9.14625 9.46842 9.60231L9.59474 11.2311C9.62632 11.7849 9.84737 12.2409 10.2579 12.6318C10.6684 13.0227 11.1421 13.1856 11.6789 13.1856H12.6263C13.1947 13.1856 13.7 12.9902 14.1105 12.5667C14.4579 12.1432 14.6789 11.6546 14.6789 11.0682Z" />
</svg>
