<svg width="16" height="16" viewBox="0 0 16 16" fill="currentColor" xmlns="http://www.w3.org/2000/svg">
<path fill-rule="evenodd" clip-rule="evenodd" d="M14 11.9957C14 12.2361 13.8182 12.4163 13.5758 12.4163H5.21212C4.30303 12.4163 3.63636 13.1373 3.57576 13.9785C3.81818 14.0987 4.12121 14.2189 4.42424 14.2189H13.1515V13.0773C13.1515 12.5966 14 12.5966 14 13.0773V14.5794C14 14.8197 13.8182 15 13.5758 15H4.42424C3.0303 15 2 13.9185 2 12.5966V3.46352C2 2.20172 2.90909 1.12017 4.18182 1H13.5758C13.8182 1 14 1.18026 14 1.4206V11.9957ZM13.0545 1.8412H7.45455V9.8927C7.45455 10.2532 6.9697 10.4335 6.72727 10.133L5.63636 8.81116L4.54545 10.133C4.30303 10.4335 3.81818 10.2532 3.81818 9.8927V1.96137C3.21212 2.20172 2.78788 2.80258 2.78788 3.46352V12.5966C2.78788 12.7768 2.84848 13.0172 2.90909 13.1974C3.27273 12.2361 4.18182 11.6352 5.21212 11.6352H13.0545V1.8412ZM4.60606 1.8412H6.66667V8.75107L5.93939 7.96996C5.75758 7.7897 5.45455 7.7897 5.33333 7.96996L4.60606 8.81116V1.8412Z" />
</svg>
