<svg width="16" height="16" viewBox="0 0 16 16" fill="currentColor" xmlns="http://www.w3.org/2000/svg">
<path d="M13.3081 4.83198C13.8057 4.83198 14.2038 5.05962 14.5355 5.47696C14.8673 5.89431 15 6.42547 15 7.03252C15 7.63957 14.8341 8.24661 14.5355 8.81572C14.237 9.38482 13.8389 9.84011 13.3744 10.1436C12.8768 10.4472 12.346 10.4851 11.8815 10.3333C12.2464 10.8266 12.5118 11.3198 12.7109 11.8509C12.91 12.3442 13.0095 12.8374 13.0095 13.2547C13.0095 13.9377 12.7773 14.4309 12.2796 14.7344C11.9479 14.9241 11.5166 15 10.9526 15C10.6872 15 10.3886 14.9621 10.09 14.8862C9.92417 14.8103 9.65877 14.7344 9.32701 14.6206C8.76303 14.393 8.33175 14.2791 8.03318 14.2791C7.7346 14.2791 7.30332 14.393 6.70616 14.6206C6.34123 14.7344 6.04265 14.8482 5.8436 14.8862C5.54502 14.9621 5.24645 15 4.94787 15C4.18483 15 3.6872 14.7724 3.35545 14.3171C3.1564 14.0135 3.05687 13.6721 3.05687 13.2547C3.05687 12.8374 3.1564 12.3442 3.35545 11.8509C3.5545 11.3577 3.81991 10.8645 4.18483 10.3333C3.6872 10.4851 3.18957 10.4472 2.69194 10.1436C2.22749 9.84011 1.82938 9.42276 1.53081 8.81572C1.16588 8.28455 1 7.67751 1 7.07046C1 6.46341 1.1327 5.97019 1.43128 5.55285C1.72986 5.09756 2.16114 4.86992 2.69194 4.86992C3.18957 4.86992 3.65403 5.05962 4.05213 5.43902C3.78673 4.79404 3.62085 4.18699 3.62085 3.57995C3.62085 2.85908 3.78673 2.25203 4.15166 1.75881C4.48341 1.26558 4.94787 1 5.54502 1C6.20853 1 6.77251 1.34146 7.23697 1.98645C7.66825 2.55556 7.90047 3.20054 8 3.99729C8.09953 3.23848 8.33175 2.55556 8.76303 1.98645C9.26066 1.34146 9.82464 1 10.455 1C11.019 1 11.4834 1.26558 11.8483 1.75881C12.2133 2.25203 12.3791 2.85908 12.3791 3.57995C12.3791 4.18699 12.2464 4.83198 11.9479 5.43902C12.3791 5.02168 12.8104 4.83198 13.3081 4.83198ZM1.86256 7.03252C1.86256 7.37398 1.92891 7.75339 2.09479 8.13279C2.26066 8.51219 2.45972 8.81572 2.72512 9.0813C2.99052 9.34688 3.2891 9.4607 3.58768 9.4607C3.75355 9.4607 3.88626 9.42276 4.01896 9.30894C4.28436 9.11924 4.41706 8.73984 4.41706 8.28455C4.41706 7.94309 4.35071 7.56368 4.18483 7.18428C4.01896 6.80488 3.81991 6.50135 3.5545 6.23577C3.2891 5.97019 2.99052 5.85637 2.69194 5.85637C2.39336 5.85637 2.16114 6.00813 2.02844 6.31165C1.92891 6.50135 1.86256 6.729 1.86256 7.03252ZM10.9194 14.0135C11.4171 14.0135 11.7488 13.9377 11.9147 13.7859C12.0474 13.6721 12.1137 13.5203 12.1137 13.2547C12.1137 12.6856 11.8815 12.0406 11.4502 11.3577C11.019 10.6369 10.455 10.0677 9.82465 9.57452C9.16114 9.04336 8.56398 8.77778 8.03318 8.77778C7.50237 8.77778 6.87204 9.04336 6.24171 9.57452C5.61137 10.0677 5.04739 10.6369 4.61611 11.3577C4.18483 12.0786 3.95261 12.6856 3.95261 13.2547C3.95261 13.4444 3.98578 13.6341 4.05213 13.71C4.21801 13.8997 4.51659 13.9756 4.94787 13.9756C5.18009 13.9756 5.41232 13.9377 5.67773 13.8618C5.8436 13.8238 6.07583 13.748 6.40758 13.5962C6.73934 13.4824 7.00474 13.4065 7.17062 13.3306C7.46919 13.2547 7.76777 13.2168 8.03318 13.2168C8.29858 13.2168 8.56398 13.2547 8.86256 13.3306C9.02844 13.3686 9.26066 13.4444 9.59242 13.5962C9.92417 13.71 10.1564 13.7859 10.2891 13.8618C10.4882 13.9756 10.7204 14.0135 10.9194 14.0135ZM5.54502 1.98645C5.21327 1.98645 4.94787 2.13821 4.78199 2.44173C4.61611 2.74526 4.51659 3.12466 4.51659 3.54201C4.51659 4.11111 4.68246 4.64228 4.98104 5.1355C5.3128 5.70461 5.67773 5.97019 6.14218 5.97019C6.47393 5.97019 6.73934 5.81843 6.90521 5.47696C7.07109 5.1355 7.17062 4.79404 7.17062 4.37669C7.17062 3.80759 7.00474 3.27642 6.70616 2.7832C6.37441 2.28997 5.9763 1.98645 5.54502 1.98645ZM8 4.83198C7.93365 5.5149 7.70142 6.00813 7.36967 6.38753C7.03791 6.76694 6.63981 6.95664 6.17536 6.99458C5.74408 7.03252 5.3128 6.84282 4.91469 6.5393C5.11374 6.95664 5.24645 7.41192 5.3128 7.86721C5.37915 8.32249 5.34597 8.77778 5.18009 9.19512C5.64455 8.73984 6.14218 8.43631 6.63981 8.17073C7.13744 7.94309 7.6019 7.82927 8 7.82927C8.3981 7.82927 8.86256 7.94309 9.36019 8.17073C9.85782 8.39837 10.3223 8.73984 10.8199 9.19512C10.6872 8.77778 10.6209 8.32249 10.6872 7.86721C10.7536 7.41192 10.8863 6.95664 11.0853 6.5393C10.6872 6.84282 10.2559 6.99458 9.82465 6.99458C9.39336 6.99458 8.99526 6.80488 8.63033 6.42547C8.29858 6.04607 8.06635 5.5149 8 4.83198ZM10.455 1.98645C10.0237 1.98645 9.62559 2.25203 9.29384 2.7832C8.99526 3.27642 8.82938 3.80759 8.82938 4.37669C8.82938 4.79404 8.92891 5.17344 9.09479 5.47696C9.26066 5.78049 9.52607 5.97019 9.85782 5.97019C10.2891 5.97019 10.6872 5.70461 11.019 5.1355C11.3175 4.64228 11.4834 4.11111 11.4834 3.54201C11.4834 3.12466 11.3839 2.74526 11.218 2.44173C11.0521 2.17615 10.7867 1.98645 10.455 1.98645ZM12.3791 9.4607C12.6777 9.4607 12.9763 9.34688 13.2417 9.0813C13.5071 8.81572 13.7062 8.51219 13.872 8.13279C14.0379 7.75339 14.1043 7.37398 14.1043 7.03252C14.1043 6.729 14.0379 6.50135 13.9384 6.27371C13.8057 5.97019 13.5735 5.81843 13.2749 5.81843C12.9763 5.81843 12.6777 5.93225 12.4123 6.19783C12.1469 6.46341 11.9147 6.76694 11.782 7.14634C11.6161 7.52574 11.5498 7.90515 11.5498 8.24661C11.5498 8.73984 11.6825 9.0813 11.9479 9.271C12.0806 9.38482 12.2133 9.4607 12.3791 9.4607Z" />
</svg>
