<svg width="16" height="16" viewBox="0 0 16 16" fill="currentColor" xmlns="http://www.w3.org/2000/svg">
<path fill-rule="evenodd" clip-rule="evenodd" d="M13.4534 13.8172C13.3677 13.9322 13.2337 14 13.0909 14H11.1818V13.0769H12.488L11.917 11.0462H9.45455C9.20371 11.0462 9 10.8393 9 10.5846V8.83077H7.27273C6.62117 8.83077 6.09091 8.29235 6.09091 7.63077V7.35385H4.36364C4.1128 7.35385 3.90909 7.147 3.90909 6.89231V5.87692H1V4.95385H3.90909V3.93846C3.90909 3.68377 4.1128 3.47692 4.36364 3.47692H6.09091V3.2C6.09091 2.53888 6.62144 2 7.27273 2H11.6364C13.4908 2 15 3.53239 15 5.41538C15 6.9665 13.959 8.30844 12.4923 8.70341L12.2236 8.77575L13.5276 13.4122C13.5671 13.551 13.5396 13.7009 13.4534 13.8172ZM9 7.90769V2.92308H7V7.90769H9ZM11.6364 7.90769H9.90909V2.92308H11.6364C12.9899 2.92308 14.0909 4.04103 14.0909 5.41538C14.0909 6.78974 12.9899 7.90769 11.6364 7.90769ZM9.90909 8.83077H11.2939L11.6566 10.1231H9.90909V8.83077ZM6.09091 4.4V6.43077H4.81818V4.4H6.09091Z" />
</svg>
