<svg width="16" height="16" viewBox="0 0 16 16" fill="currentColor" xmlns="http://www.w3.org/2000/svg">
<path fill-rule="evenodd" clip-rule="evenodd" d="M6.51149 3.65527C5.76487 3.65527 5.15962 4.18449 5.15962 4.83732V11.1115C5.15962 11.7643 5.76487 12.2935 6.51149 12.2935C7.25811 12.2935 7.86337 11.7643 7.86337 11.1115V4.83732C7.86337 4.52382 7.72094 4.22316 7.46741 4.00149C7.21389 3.77981 6.87003 3.65527 6.51149 3.65527ZM7.23942 4.83732C7.23942 4.4858 6.91352 4.20083 6.51149 4.20083C6.10947 4.20083 5.78356 4.4858 5.78356 4.83732V9.40184C5.97344 9.22546 6.2347 9.12103 6.51149 9.11088C6.74027 9.11088 7.07304 8.72899 7.23942 8.41984V4.83732ZM6.51149 11.748C6.10947 11.748 5.78356 11.463 5.78356 11.1115V10.3475C5.94994 10.0383 6.28271 9.65644 6.51149 9.65644C6.78828 9.64629 7.04955 9.54186 7.23942 9.36547V11.1115C7.23942 11.463 6.91352 11.748 6.51149 11.748Z" />
<path fill-rule="evenodd" clip-rule="evenodd" d="M10.9603 2.83638C12.1529 2.83927 13.1902 3.55138 13.4764 4.56365L14.9736 9.76364C15.0381 9.98227 14.9829 10.2147 14.8241 10.3928C14.6652 10.5708 14.4208 10.6743 14.1626 10.6727C13.7949 10.669 13.5775 9.96561 13.4764 9.65644L12.0208 4.56365C11.885 4.1693 11.1402 4.31537 10.6276 4.3091C11.0227 5.43637 11.3138 7.00001 11.5634 9.00001C11.9792 12.3818 12.0208 13.8 12.0208 13.8364V14.7455C12.0099 14.8889 11.8734 15.0003 11.7089 15H1.31191C1.13965 15 1 14.8779 1 14.7273V13.8182C1 13.8 1.04159 12.3636 1.45747 8.98182C1.5961 7.75758 1.76938 6.69092 1.97732 5.78183L1.02079 3.20001C0.98721 3.11697 1.00156 3.02485 1.05933 2.95269C1.1171 2.88053 1.21118 2.83721 1.31191 2.83638H3.01702C3.34972 2.33941 3.71708 2.04244 4.1191 1.94547C4.24804 1.39312 4.8052 0.997298 5.44992 1.00001H7.52932C8.17404 0.997298 8.7312 1.39312 8.86014 1.94547C9.26215 2.04244 9.62952 2.33941 9.96222 2.83638H10.9603ZM1.62382 14.4727H6.51041H11.397C11.397 12.6457 11.1666 10.8463 10.9395 9.03637C10.2325 3.1091 9.06808 2.47274 8.58981 2.47274H4.43101C3.95275 2.47274 2.78829 3.1091 2.06049 9.05455C1.8461 10.8589 1.62382 12.653 1.62382 14.4727Z" />
</svg>
