<svg width="16" height="16" viewBox="0 0 16 16" fill="currentColor" xmlns="http://www.w3.org/2000/svg">
<path fill-rule="evenodd" clip-rule="evenodd" d="M11.7209 11.224L11.1785 11.0898L11.6 10.7206C12.7986 9.67094 13.5 8.16254 13.5 6.54167C13.5 3.4864 11.0323 1 8.00001 1C4.96772 1 2.50003 3.4864 2.50003 6.54167C2.50003 8.16254 3.20139 9.67094 4.39998 10.7206L4.82155 11.0898L4.27912 11.224C4.15333 11.2551 4.04888 11.3374 3.99282 11.4503L2.54579 14.3663C2.47861 14.5026 2.48577 14.6639 2.56451 14.7925C2.64364 14.9213 2.78371 15 2.93424 15H13.0658C13.2161 15 13.3555 14.9215 13.4346 14.7929C13.5138 14.6635 13.5211 14.5024 13.4538 14.367L12.0065 11.4503C11.9503 11.337 11.8463 11.255 11.7209 11.224ZM3.63678 14.125L4.64993 12.0833H11.3501L12.3633 14.125H3.63678ZM8.00001 1.875C5.44548 1.875 3.36845 3.96777 3.36845 6.54167C3.36845 9.11428 5.44341 11.2062 7.9962 11.2083C7.99742 11.2083 7.99865 11.2083 7.99987 11.2083C9.35816 11.2083 10.4604 10.0977 10.4604 8.72917C10.4604 7.36058 9.35816 6.25 7.99987 6.25C8.63894 6.25 9.15776 5.72725 9.15776 5.08333C9.15776 4.43942 8.63894 3.91667 7.99987 3.91667C7.3608 3.91667 6.84198 4.43942 6.84198 5.08333C6.84198 5.72725 7.3608 6.25 7.99987 6.25C6.64158 6.25 5.53935 7.36058 5.53935 8.72917C5.53935 10.0965 6.6396 11.2063 7.9962 11.2083C7.99742 11.2083 7.99865 11.2083 7.99987 11.2083C10.5539 11.2083 12.6316 9.11532 12.6316 6.54167C12.6316 3.96802 10.5541 1.875 8.00001 1.875Z" />
</svg>
