<svg width="16" height="16" viewBox="0 0 16 16" fill="currentColor" xmlns="http://www.w3.org/2000/svg">
<path fill-rule="evenodd" clip-rule="evenodd" d="M8.36631 1.73684H11.6663C11.8413 1.73684 11.9916 1.86053 12.0262 2.03327L13.4928 9.40152C13.5145 9.50997 13.4867 9.62173 13.4169 9.70741C13.3474 9.7927 13.2433 9.8421 13.1329 9.8421H10.5663V12.0526H9.83297V9.8421H8.36631V14.2632H9.83297V15H6.16632V14.2632H7.63298V9.8421H2.86634C2.75625 9.8421 2.65284 9.79291 2.58315 9.70741C2.51332 9.62173 2.48556 9.50997 2.50717 9.40175L3.97388 2.0331C4.00797 1.86071 4.15839 1.73684 4.333 1.73684H7.63298V1H8.36631V1.73684ZM11.3663 2.47368H4.63374L3.31374 9.10526H12.6863L11.3663 2.47368Z" />
</svg>
