<svg width="16" height="16" viewBox="0 0 16 16" fill="currentColor" xmlns="http://www.w3.org/2000/svg">
<path d="M12.9316 3.05128C13.8205 3.94017 14.4359 4.96581 14.7436 6.19658C15.0513 7.42735 15.0513 8.58974 14.7436 9.82051C14.4359 11.0513 13.8205 12.0769 12.9316 12.9658C12.0427 13.8547 10.9829 14.4701 9.78633 14.7778C8.58975 15.0855 7.39317 15.0855 6.1624 14.7778C4.96582 14.4701 3.90599 13.8547 3.0171 12.9658C2.12821 12.0769 1.51283 11.0171 1.20513 9.82051C0.897442 8.62393 0.897442 7.42735 1.20513 6.19658C1.51283 4.96581 2.12821 3.94017 3.05129 3.05128C3.94018 2.16239 5.00001 1.54701 6.19659 1.23931C7.39317 0.931622 8.58975 0.931622 9.82052 1.23931C10.9829 1.54701 12.0427 2.16239 12.9316 3.05128ZM1.92308 8.28205C1.92308 8.96581 2.05984 9.61538 2.33334 10.2308C2.57266 10.8462 2.91454 11.4273 3.39317 11.9744L7.35898 8.00854L5.82052 6.47008C4.69231 7.46154 3.39317 8.07692 1.92308 8.28205ZM5.20513 5.82051L3.35898 4.00854C2.53847 4.96581 2.05984 6.05983 1.92308 7.32478C3.15385 7.15384 4.24787 6.64102 5.20513 5.82051ZM4.00855 3.35897L5.82052 5.20513C6.64103 4.28205 7.15385 3.18803 7.35898 1.92307C6.09402 2.05983 4.96582 2.53846 4.00855 3.35897ZM7.80342 14.0598C8.04274 12.5897 8.62394 11.2906 9.61539 10.1966L8.00855 8.62393L4.00855 12.6239C4.55556 13.0684 5.13676 13.4444 5.78633 13.6838C6.4359 13.9231 7.11966 14.0598 7.80342 14.0598ZM8.28206 1.88889C8.07693 3.39316 7.46154 4.69231 6.47009 5.82051L8.00855 7.35897L11.9744 3.35897C11.4615 2.91453 10.8803 2.57265 10.2308 2.29914C9.5812 2.02564 8.93163 1.92307 8.28206 1.88889ZM14.0598 7.80342C14.0256 7.11966 13.8889 6.47008 13.6496 5.82051C13.4103 5.17094 13.0342 4.58974 12.5898 4.04273L8.62394 7.97436L10.1966 9.58119C11.3248 8.62393 12.6239 8.00854 14.0598 7.80342ZM10.2308 10.8462C9.44445 11.7692 8.93163 12.8291 8.69231 13.9914C9.92308 13.8547 10.9829 13.3761 11.9402 12.5556L10.2308 10.8462ZM10.8803 10.2308L12.5898 11.9402C13.3761 11.0171 13.8547 9.95726 13.9915 8.72649C12.8291 8.96581 11.8034 9.44444 10.8803 10.2308Z" />
</svg>
