<svg width="16" height="16" viewBox="0 0 16 16" fill="currentColor" xmlns="http://www.w3.org/2000/svg">
<path fill-rule="evenodd" clip-rule="evenodd" d="M15.2199 5.03444L15.7734 5.58923C16.0756 5.89138 16.0756 6.37969 15.7732 6.68203L14.2337 8.2141C13.9301 8.51476 13.4394 8.51476 13.1356 8.21391L12.5804 7.66137C12.4346 7.51647 12.3528 7.31985 12.3528 7.11483C12.3528 6.92059 12.4263 6.7339 12.5579 6.59161C12.4505 6.40237 12.3178 6.22836 12.1636 6.07454C11.8804 5.79377 11.4225 5.79377 11.1395 6.0744L10.4536 6.757C10.3319 6.87736 10.1354 6.87736 10.0135 6.75676L9.88488 6.62874L7.15374 9.34482L7.28257 9.47303C7.40351 9.5941 7.40351 9.78964 7.28231 9.91097L2.29865 14.8686C1.92948 15.2343 1.33276 15.2343 0.963404 14.8684L0.275566 14.1839C-0.0918893 13.8165 -0.0918893 13.2227 0.27577 12.8551L5.25949 7.89742C5.38115 7.77706 5.57764 7.77706 5.69955 7.89765L5.82813 8.02562L8.56334 5.30178L8.43445 5.17352C8.31351 5.05245 8.31351 4.8569 8.43469 4.73559L9.34279 3.8319C9.47355 3.70527 9.52056 3.51566 9.46327 3.34072C9.41153 3.17056 9.26885 3.04326 9.09531 3.01094C8.31446 2.88029 7.51717 2.88029 6.73481 3.01118C6.58846 3.03368 6.44639 2.95066 6.39491 2.81277L6.13018 2.10892C6.10096 2.03155 6.10395 1.94578 6.1385 1.87061C6.17304 1.79544 6.23629 1.73709 6.3138 1.70863C7.33789 1.32826 8.423 1.13658 9.51539 1.14298C10.723 1.14298 11.9525 1.61823 12.7351 2.38081C13.2401 2.84785 13.5341 3.4982 13.5501 4.18677L13.5501 4.23246C13.5469 4.38328 13.602 4.52957 13.7022 4.63909C13.8391 4.7816 13.9985 4.90077 14.1742 4.99207C14.4812 4.74525 14.9291 4.75937 15.2199 5.03444ZM6.62282 9.69281L5.4804 8.55591L0.718061 13.2972C0.593062 13.4217 0.593062 13.6234 0.717795 13.7476L1.40528 14.4279C1.53086 14.5516 1.73313 14.5517 1.85877 14.428L6.62282 9.69281ZM8.9996 5.74774L9.44452 6.19051L6.71534 8.90094L6.27062 8.45981L8.9996 5.74774ZM10.7032 5.62835C10.9557 5.37707 11.2981 5.23568 11.6552 5.23518C12.0144 5.24274 12.3552 5.38491 12.6056 5.63617C12.759 5.7886 12.8956 5.95679 13.013 6.13781L13.7089 5.44522C13.5418 5.34039 13.3877 5.21556 13.2496 5.07282C13.0353 4.84536 12.9186 4.54366 12.9243 4.23397L12.9243 4.19399C12.9093 3.67377 12.6839 3.18162 12.2958 2.82581C11.6373 2.17053 10.5619 1.76382 9.4892 1.76382C8.58255 1.75984 7.68164 1.90381 6.82227 2.18975L6.88512 2.35655C7.65468 2.25417 8.43563 2.26918 9.20115 2.40125C9.61034 2.47251 9.9433 2.76893 10.0592 3.16363C10.1832 3.55743 10.0771 3.98716 9.78395 4.27902L9.09615 4.96351L9.21477 5.0875L10.104 5.97055L10.2313 6.09118L10.7032 5.62835ZM14.7792 5.4722L15.3349 6.02524C15.3948 6.08504 15.3948 6.182 15.3348 6.24198L13.7956 7.77377C13.7355 7.83339 13.638 7.83339 13.5778 7.77363L13.0226 7.22119C12.9932 7.19224 12.9769 7.15339 12.9769 7.11286C12.9769 7.07233 12.9932 7.03349 13.0222 7.00499L14.5619 5.47266C14.591 5.44338 14.6301 5.42716 14.6708 5.42716C14.7115 5.42716 14.7506 5.44338 14.7792 5.4722Z" />
</svg>
