<svg width="16" height="16" viewBox="0 0 16 16" fill="currentColor" xmlns="http://www.w3.org/2000/svg">
<path fill-rule="evenodd" clip-rule="evenodd" d="M8.44828 6.07393H11.5784C13.3751 6.07899 14.9399 7.31078 15.3799 9.06644C15.8199 10.8221 15.0231 12.655 13.4442 13.5193C11.8654 14.3836 9.90601 14.0594 8.68421 12.7317H7.31579C6.09399 14.0594 4.13463 14.3836 2.55575 13.5193C0.976873 12.655 0.180103 10.8221 0.62009 9.06644C1.06008 7.31078 2.6249 6.07899 4.42165 6.07393H7.52026V4.85334C7.52308 3.87022 8.08596 2.97615 8.96733 2.55482L10.147 2L10.5402 2.856L9.36056 3.41082C8.80304 3.67085 8.44676 4.23421 8.44828 4.85334V6.07393ZM9.28191 11.955C9.84837 12.6558 10.6972 13.0631 11.5941 13.0646C13.2489 13.0646 14.5905 11.7126 14.5905 10.0448C14.5905 8.37705 13.2489 7.02505 11.5941 7.02505H4.42165C3.03678 7.03618 1.84094 8.00475 1.53219 9.36535C1.22344 10.726 1.88269 12.1221 3.12509 12.7387C4.3675 13.3554 5.86753 13.031 6.74954 11.955L6.8911 11.7806H9.14035L9.28191 11.955Z" />
<path d="M4.70477 8.56267H3.76102V9.54549H2.78582V10.4966H3.76102V11.4636H4.70477V10.4966H5.67997V9.54549H4.70477V8.56267Z" />
<path fill-rule="evenodd" clip-rule="evenodd" d="M11.657 9.1492C11.657 8.6064 12.0936 8.16638 12.6322 8.16638C13.1708 8.16638 13.6074 8.6064 13.6074 9.1492C13.6074 9.69199 13.1708 10.132 12.6322 10.132C12.0936 10.132 11.657 9.69199 11.657 9.1492ZM12.6322 9.11749L12.6007 9.1492C12.6007 9.1809 12.6637 9.1809 12.6637 9.1492L12.6322 9.11749Z" />
<path fill-rule="evenodd" clip-rule="evenodd" d="M10.0684 11.0356C10.0684 10.4928 10.505 10.0527 11.0436 10.0527C11.5822 10.0527 12.0188 10.4928 12.0188 11.0356C12.0188 11.5783 11.5822 12.0184 11.0436 12.0184C10.505 12.0184 10.0684 11.5783 10.0684 11.0356ZM11.0436 11.0038L11.0121 11.0356C11.0121 11.0673 11.075 11.0673 11.075 11.0356L11.0436 11.0038Z" />
</svg>
