<svg width="16" height="16" viewBox="0 0 16 16" fill="currentColor" xmlns="http://www.w3.org/2000/svg">
<path d="M8.37414 2.64201C9.12161 2.67828 9.82997 2.83218 10.5412 3.15541C11.2045 3.47477 11.8016 3.93372 12.2845 4.52838C12.7674 5.12305 13.0942 5.80172 13.2709 6.51657C13.4475 7.23143 13.4741 7.98246 13.3295 8.74381L14.8623 10.6312C14.9673 10.7605 15.0182 10.9337 14.9941 11.125C14.97 11.3163 14.8768 11.4779 14.7416 11.5878L10.1192 15.345C9.98408 15.4549 9.80693 15.513 9.61481 15.4975C9.4227 15.482 9.26365 15.3967 9.15866 15.2674L7.62586 13.38C6.87839 13.3437 6.17003 13.1898 5.45877 12.8666C4.79554 12.5472 4.19844 12.0883 3.7155 11.4936C3.23256 10.8989 2.90578 10.2203 2.72912 9.5054C2.55246 8.79055 2.52591 8.03952 2.67049 7.27816L1.13768 5.39074C1.0327 5.26146 0.981775 5.08824 1.00591 4.89693C1.00302 4.7276 1.09618 4.56603 1.25837 4.43419L5.90779 0.654963C6.04295 0.545101 6.2201 0.48695 6.41222 0.502482C6.5773 0.539985 6.71535 0.599461 6.84134 0.754592L8.37414 2.64201ZM10.7581 11.4348C11.4069 10.9075 11.8756 10.269 12.1643 9.51928C12.4529 8.76958 12.5495 8.00434 12.4539 7.22357C12.3583 6.4428 12.0586 5.74216 11.5546 5.12163C11.0507 4.50111 10.4266 4.06413 9.68226 3.8107C8.93793 3.55726 8.16947 3.49514 7.37687 3.62432C6.58427 3.75351 5.8636 4.08177 5.21484 4.6091C4.56608 5.13644 4.09737 5.77496 3.80871 6.52466C3.52005 7.27437 3.4235 8.03961 3.51907 8.82037C3.61463 9.60114 3.91439 10.3018 4.41832 10.9223C4.92226 11.5428 5.54639 11.9798 6.29071 12.2332C7.03504 12.4867 7.8035 12.5488 8.5961 12.4196C9.3887 12.2904 10.1094 11.9622 10.7581 11.4348ZM1.96649 4.97459L2.97436 6.21563C3.32915 5.32633 3.91202 4.55209 4.66891 3.93687C5.42579 3.32165 6.30262 2.90938 7.24534 2.74402L6.23747 1.50297L1.96649 4.97459ZM14.0335 11.0474L13.0256 9.80634C12.6708 10.6956 12.088 11.4699 11.3311 12.0851C10.5742 12.7003 9.69738 13.1126 8.75466 13.278L9.76253 14.519L14.0335 11.0474ZM10.2706 8.56899C10.3667 8.57676 10.4478 8.51084 10.5018 8.4669C10.5619 8.37513 10.595 8.30533 10.6071 8.20967L10.5832 8.01448C10.5953 7.91883 10.5323 7.84126 10.4903 7.78955C10.4273 7.71198 10.3312 7.70422 10.2352 7.69645L8.42188 7.83975L6.51113 5.48694C6.44814 5.40938 6.37911 5.37964 6.28305 5.37187C6.18699 5.36411 6.11193 5.3822 6.03084 5.44811L5.84162 5.60192C5.76052 5.66784 5.72746 5.73763 5.71539 5.83329C5.70332 5.92894 5.71828 6.00263 5.78128 6.08019L7.86001 8.63984C7.923 8.71741 8.01303 8.773 8.13612 8.7588L10.2706 8.56899Z" />
</svg>
