<svg width="16" height="16" viewBox="0 0 16 16" fill="currentColor" xmlns="http://www.w3.org/2000/svg">
<path fill-rule="evenodd" clip-rule="evenodd" d="M8.42269 9.74076C9.54469 9.74076 10.4058 10.3917 10.4058 11.2816C10.4058 12.1716 9.54476 12.8224 8.42269 12.8224C7.73211 12.8224 6.98566 12.3574 6.31978 11.7269L5.50317 12.5548L5.3636 12.5425L5.11708 12.2052L5.12753 12.0407L5.87616 11.2817L5.12752 10.5225L5.11708 10.358L5.3636 10.0207L5.50318 10.0084L6.31978 10.8366C6.98596 10.2057 7.73211 9.74076 8.42269 9.74076ZM9.82993 11.2817C9.82993 11.7476 9.21994 12.1441 8.42269 12.1441C7.92659 12.1441 7.33371 11.7871 6.77284 11.2817C7.33354 10.7763 7.92658 10.4191 8.42269 10.4191C9.21993 10.4191 9.82993 10.8157 9.82993 11.2817Z" />
<path fill-rule="evenodd" clip-rule="evenodd" d="M14.4331 10.7994C14.4331 12.8983 11.4756 14.5 7.71651 14.5C3.95745 14.5 1 12.8983 1 10.7994V5.20061C1 3.10173 3.95745 1.5 7.71651 1.5C10.1446 1.5 12.3022 2.17485 13.4292 3.25089H13.9563C14.5318 3.25089 15 3.80247 15 4.48064V5.40098C15 5.86686 14.7766 6.28563 14.4331 6.49404V10.7994ZM12.3427 3.25089C11.1739 2.58148 9.49182 2.17848 7.71651 2.17848C4.38346 2.17848 1.57584 3.5908 1.57561 5.20061C1.57561 6.81026 4.38317 8.22245 7.71625 8.22245C9.93821 8.22245 11.9959 7.59031 13.0831 6.63058H11.8145C11.7648 6.63058 11.7145 6.62542 11.7119 6.60819C10.6437 7.12465 9.20049 7.41675 7.71638 7.41675C6.15567 7.41675 4.64356 7.0946 3.56473 6.53076C2.74717 6.10326 2.25944 5.5659 2.25944 5.20061C2.25944 4.83516 2.74715 4.29767 3.56474 3.87016C4.64356 3.30633 6.15567 2.98418 7.71638 2.98418C8.93987 2.98418 10.1416 3.18488 11.1328 3.55103C11.3207 3.35926 11.5608 3.25089 11.8147 3.25089H12.3427ZM10.771 4.48049V5.40083C10.771 5.69276 10.8586 5.96838 11.0128 6.18614C10.075 6.54175 8.91046 6.73841 7.71651 6.73841C6.23269 6.73841 4.80339 6.43586 3.79844 5.91061C3.29912 5.6495 3.01093 5.40195 2.87448 5.20045C3.01082 4.99905 3.29902 4.75149 3.79846 4.49031C4.80339 3.96507 6.23269 3.66251 7.71651 3.66251C8.82195 3.66251 9.90568 3.83291 10.8112 4.14457C10.7847 4.25327 10.771 4.36599 10.771 4.48049ZM13.8573 10.7995L13.8572 6.73256C12.8054 8.05141 10.4413 8.90108 7.71651 8.90108C4.98875 8.90108 2.62624 8.05005 1.57586 6.73392V10.7994C1.57586 12.4092 4.38343 13.8215 7.71651 13.8215C11.0496 13.8215 13.8571 12.4094 13.8573 10.7995ZM14.4241 4.48064V5.40098C14.4241 5.70474 14.214 5.95224 13.9563 5.95224H11.8148C11.5568 5.95224 11.3469 5.70485 11.3469 5.40098V4.48064C11.3469 4.17676 11.5568 3.92937 11.8148 3.92937H13.9563C14.214 3.92937 14.4241 4.17687 14.4241 4.48064Z" />
</svg>
