<svg width="16" height="16" viewBox="0 0 16 16" fill="currentColor" xmlns="http://www.w3.org/2000/svg">
<path d="M8 1C9.26341 1 10.4244 1.30732 11.4829 1.9561C12.5415 2.57073 13.3951 3.42439 14.0439 4.51707C14.6585 5.57561 15 6.73659 15 8C15 9.26341 14.6927 10.4244 14.0439 11.4829C13.4293 12.5415 12.5756 13.3951 11.4829 14.0439C10.4244 14.6585 9.26341 15 8 15C6.73659 15 5.57561 14.6927 4.51707 14.0439C3.45854 13.4293 2.60488 12.5756 1.9561 11.4829C1.30732 10.3902 1 9.22927 1 8C1 6.77073 1.30732 5.57561 1.9561 4.51707C2.57073 3.45854 3.42439 2.60488 4.51707 1.9561C5.57561 1.30732 6.73659 1 8 1ZM8 1.8878C6.90732 1.8878 5.88293 2.16098 4.96098 2.70732C4.03902 3.25366 3.25366 4.00488 2.70732 4.92683C2.16098 5.84878 1.8878 6.87317 1.8878 7.96585C1.8878 9.05854 2.16098 10.0829 2.70732 11.0049C3.25366 11.9268 4.00488 12.678 4.92683 13.2244C5.84878 13.7707 6.87317 14.0439 7.96585 14.0439C9.05854 14.0439 10.0829 13.7707 11.0049 13.2244C11.9268 12.678 12.678 11.9268 13.2244 11.0049C13.7707 10.0829 14.0439 9.05854 14.0439 7.96585C14.0439 6.87317 13.7707 5.84878 13.2244 4.92683C12.678 4.00488 11.9268 3.25366 11.0049 2.70732C10.0829 2.16098 9.05854 1.8878 8 1.8878ZM8.20488 9.67317C8.30732 9.67317 8.37561 9.63902 8.4439 9.57073C8.5122 9.50244 8.54634 9.43415 8.54634 9.33171C8.54634 9.09268 8.61463 8.85366 8.78537 8.64878C8.8878 8.54634 9.12683 8.37561 9.43415 8.17073C9.8439 7.89756 10.1512 7.65854 10.322 7.45366C10.5951 7.14634 10.7317 6.73659 10.7317 6.25854C10.7317 5.57561 10.4585 5.02927 9.94634 4.61951C9.43415 4.20976 8.78537 4.00488 8 4.00488C7.38537 4.00488 6.87317 4.10732 6.46341 4.34634C6.12195 4.55122 5.74634 4.85854 5.40488 5.26829C5.33659 5.33659 5.33659 5.43902 5.33659 5.50732C5.37073 5.60976 5.40488 5.67805 5.47317 5.74634L5.84878 5.98537C5.91707 6.05366 6.01951 6.05366 6.0878 6.05366C6.19024 6.01951 6.25854 5.98537 6.29268 5.95122C6.53171 5.67805 6.77073 5.47317 7.00976 5.33659C7.24878 5.2 7.59024 5.13171 7.96585 5.13171C8.47805 5.13171 8.8878 5.26829 9.16098 5.50732C9.43415 5.71219 9.57073 5.95122 9.57073 6.25854C9.57073 6.49756 9.46829 6.70244 9.29756 6.90732C9.19512 7.00976 8.99024 7.18049 8.68293 7.38537C8.27317 7.65854 7.96585 7.86341 7.79512 8.06829C7.52195 8.40976 7.38537 8.81951 7.38537 9.29756C7.38537 9.4 7.41951 9.46829 7.4878 9.53659C7.5561 9.60488 7.62439 9.63902 7.72683 9.63902H8.20488V9.67317ZM8 10.3561C8.23902 10.3561 8.40976 10.4244 8.54634 10.5951C8.68293 10.7317 8.78537 10.9366 8.78537 11.1415C8.78537 11.3805 8.71707 11.5512 8.54634 11.6878C8.40976 11.8244 8.20488 11.9268 8 11.9268C7.79512 11.9268 7.59024 11.8585 7.45366 11.6878C7.31707 11.5512 7.21463 11.3463 7.21463 11.1415C7.21463 10.9024 7.28293 10.7317 7.45366 10.5951C7.5561 10.4244 7.76098 10.3561 8 10.3561Z" />
</svg>
