<svg width="16" height="16" viewBox="0 0 16 16" fill="currentColor" xmlns="http://www.w3.org/2000/svg">
<path d="M14.293 8.19672C14.5799 7.90164 14.6756 7.60656 14.5799 7.31148L14.1018 4.55738C14.0061 4.06557 13.6236 3.77049 13.2411 3.77049H10.4677C9.98954 2.78689 9.12884 2 8.07687 2C7.02491 2 6.06857 2.78689 5.59041 3.86885H2.81704C2.4345 3.86885 2.05197 4.2623 1.95633 4.65574L1.47817 7.40984C1.47817 7.80328 1.5738 8 1.76507 8.29508L1 12.918C1 13.2131 1 13.5082 1.19127 13.7049C1.38253 13.9016 1.5738 14 1.8607 14H14.1018C14.3887 14 14.5799 13.9016 14.7712 13.7049C14.9625 13.5082 15.0581 13.2131 14.9625 12.918L14.293 8.19672ZM8.07687 2.98361C8.65068 2.98361 9.12884 3.37705 9.41574 3.86885H6.64237C7.02491 3.37705 7.50307 2.98361 8.07687 2.98361ZM10.0852 4.85246L13.1454 4.7541L13.6236 7.11475H13.528C12.0935 7.70492 10.0852 8.09836 7.98124 8C5.87731 8 3.869 7.70492 2.4345 7.11475L2.81704 4.85246H10.0852ZM1.95633 13.0164L2.7214 8.29508C4.1559 8.78689 5.97294 9.08197 7.78997 9.08197C7.88561 9.08197 7.98124 9.08197 8.17251 9.08197C9.98954 9.08197 11.8066 8.78689 13.3367 8.29508L14.1974 13.0164H1.95633Z" />
<path d="M6.47817 7.01649H9.34717C9.63407 7.01649 9.82534 6.81977 9.82534 6.52469C9.82534 6.2296 9.53844 6.03288 9.34717 6.03288H6.47817C6.19127 6.03288 6 6.2296 6 6.52469C6 6.81977 6.19127 7.01649 6.47817 7.01649Z" />
</svg>
