<svg width="16" height="16" viewBox="0 0 16 16" fill="currentColor" xmlns="http://www.w3.org/2000/svg">
<path d="M12.6341 11.4054H10.4878C12.2439 10.4595 13.4146 8.66216 13.4146 6.58108C13.5122 3.45946 10.878 1 7.7561 1C4.63415 1 2 3.45946 2 6.58108C2 9.7027 4.53659 12.1622 7.7561 12.1622H7.85366H12.6341C12.9268 12.1622 13.2195 12.4459 13.2195 12.7297C13.2195 13.0135 12.9268 13.2973 12.6341 13.2973H12.2439H10.7805H10.3902C9.21951 13.2973 8.43902 13.8649 8.43902 14.6216C8.43902 14.8108 8.63415 15 8.82927 15C9.02439 15 9.21951 14.8108 9.21951 14.6216C9.21951 14.2432 9.70732 14.0541 10.4878 14.0541H10.7805H12.2439H12.6341C13.4146 14.0541 14 13.4865 14 12.7297C14 11.973 13.3171 11.4054 12.6341 11.4054ZM7.7561 11.4054C7.65854 11.4054 7.56098 11.4054 7.36585 11.4054L6.4878 9.32432L7.85366 8.75676L8.92683 11.3108C8.53658 11.3108 8.14634 11.4054 7.7561 11.4054ZM11.561 3.45946C11.7561 3.74324 12.0488 4.02703 12.1463 4.40541L2.97561 8C2.87805 7.62162 2.78049 7.33784 2.78049 6.95946L11.561 3.45946ZM2.78049 6.2027C2.87805 5.35135 3.07317 4.59459 3.56098 3.93243L4.2439 5.63514L2.78049 6.2027ZM8.43902 3.93243L6.97561 4.5L5.90244 2.04054C6.39024 1.85135 6.87805 1.75676 7.46341 1.75676L8.43902 3.93243ZM8.2439 1.75676C9.31707 1.85135 10.1951 2.22973 10.9756 2.89189L9.02439 3.64865L8.2439 1.75676ZM12.439 4.97297C12.5366 5.35135 12.6341 5.63514 12.6341 6.01351L7.7561 8H7.65854L3.85366 9.60811C3.65854 9.32432 3.46341 9.04054 3.26829 8.66216L12.439 4.97297ZM9.60976 11.027L8.53658 8.47297L9.90244 7.90541L10.878 10.2703C10.4878 10.5541 10.0976 10.8378 9.60976 11.027ZM5.80488 9.51351L6.4878 11.2162C5.70732 11.027 4.92683 10.6486 4.34146 10.0811L5.80488 9.51351ZM11.4634 9.7973L10.5854 7.62162L12.7317 6.77027C12.6341 7.90541 12.1463 8.94595 11.4634 9.7973ZM5.31707 2.32432L6.29268 4.78378L4.92683 5.35135L4.04878 3.27027C4.43902 2.89189 4.82927 2.60811 5.31707 2.32432Z" />
</svg>
