<svg width="16" height="16" viewBox="0 0 16 16" fill="currentColor" xmlns="http://www.w3.org/2000/svg">
<path fill-rule="evenodd" clip-rule="evenodd" d="M14.5 4.90834L14.1258 5.66242L11.5306 4.35469L10.1384 7.15784L12.553 12.0224C12.6173 12.1528 12.6104 12.3082 12.5344 12.4324C12.4586 12.5558 12.3236 12.6316 12.1788 12.6316H8.4175V15.1579H12.5967V16H3.4025V15.1579H7.58167V12.6316H3.82042C3.67583 12.6316 3.54162 12.5561 3.4653 12.4319C3.38931 12.3078 3.38231 12.1527 3.44698 12.0224L5.86069 7.15788L4.46951 4.35463L1.87424 5.66242L1.5 4.90832L7.58167 1.84508V0H8.4175V1.8451L14.5 4.90834ZM4.49653 11.7895H11.5025L9.29783 7.34605C9.23888 7.22768 9.23888 7.08811 9.29755 6.97031L10.7818 3.97755L7.99959 2.57599L5.21725 3.97759L6.70219 6.96977C6.76047 7.08762 6.76047 7.22817 6.70193 7.34655L4.49653 11.7895Z" />
</svg>
