<svg width="16" height="16" viewBox="0 0 16 16" fill="currentColor" xmlns="http://www.w3.org/2000/svg">
<path fill-rule="evenodd" clip-rule="evenodd" d="M9.74749 0.573211V0.63018H7.26691C6.94689 0.63018 6.68692 0.887107 6.68692 1.20339V7.96183C6.68692 8.34558 6.49518 8.70287 6.17381 8.91803L2.15401 11.6103C1.57341 11.9991 1.18021 12.589 1.04789 13.2697C0.915569 13.9504 1.05962 14.6424 1.45307 15.216C1.81495 15.7439 2.50152 16 3.35865 16C4.22004 16 5.18528 15.7337 5.84567 15.3242C6.03204 15.3544 6.22416 15.3697 6.41941 15.3697C7.31297 15.3697 8.31806 15.0834 8.97867 14.6482L13.4635 11.7856C14.4264 11.1512 15 10.0919 15 8.95109V0.573211C15 0.256951 14.74 0 14.42 0H10.3275C10.0075 0 9.74749 0.256951 9.74749 0.573211ZM9.74749 2.08771H7.46434V1.39851H9.74749V2.08771ZM4.86655 14.945C4.72661 14.8433 4.60822 14.7238 4.51355 14.5857C3.70079 13.4006 4.0152 11.7834 5.2145 10.98L9.23431 8.288C9.55565 8.07264 9.74749 7.71514 9.74749 7.33165V2.85604H7.46434V7.96183C7.46434 8.60057 7.14489 9.19592 6.60993 9.55421L2.59014 12.2464C2.18082 12.5205 1.90463 12.9348 1.81131 13.4145C1.71807 13.8945 1.81922 14.3806 2.09654 14.7851C2.47405 15.3353 3.78 15.3618 4.86655 14.945ZM10.5249 2.22586H14.2226V8.04813C13.4717 8.02919 12.6709 8.40586 12.0895 9.05885C11.8469 9.33139 11.6569 9.63754 11.5253 9.96181C11.4296 10.1979 11.3677 10.4402 11.341 10.6813C11.2852 11.1865 11.387 11.6612 11.6386 12.0358L8.55209 14.0058C7.99596 14.3723 7.08002 14.6182 6.31932 14.5982C6.2179 14.5956 6.11994 14.588 6.02562 14.5756C5.93483 14.5637 5.85207 14.5483 5.77633 14.529C5.48603 14.455 5.27646 14.3289 5.157 14.1548C4.58505 13.3206 4.80653 12.1816 5.65064 11.6162L9.6705 8.92413C10.2055 8.56535 10.5249 7.97002 10.5249 7.33165V2.22586ZM13.0369 11.1433C13.7789 10.6545 14.2226 9.83447 14.2226 8.95109V8.81986C13.7027 8.79642 13.1135 9.07186 12.6732 9.56643C12.0732 10.2404 11.9374 11.1075 12.2933 11.6179L13.0369 11.1433ZM14.2226 0.768333V1.45753H10.5249V0.768333H14.2226Z" />
</svg>
