<svg width="16" height="16" viewBox="0 0 16 16" fill="currentColor" xmlns="http://www.w3.org/2000/svg">
<path fill-rule="evenodd" clip-rule="evenodd" d="M13.9771 3.47049C13.9781 3.45904 13.9786 3.4475 13.9786 3.43587C13.9786 1.90696 13.1001 1.5 12.6361 1.5H3.87807C2.82276 1.5 2.48324 2.54424 2.48324 3.09674V3.47049H1.99972C1.72344 3.47049 1.47348 3.56921 1.29198 3.72953C1.11176 3.88885 1 4.10966 1 4.3537C1 4.84155 1.44745 5.23679 1.99972 5.23679H2.48324V11.9933C2.48324 12.2137 2.70817 12.3804 2.92885 12.3804H3.61495V14.0761C3.61495 14.2697 3.75783 14.5 3.95022 14.5H13.5895C13.6136 14.5 13.6376 14.4972 13.6589 14.4901C13.8244 14.4477 13.9418 14.2541 13.9418 14.0761V5.23679H14.0005C14.5528 5.23679 15 4.84167 15 4.3537C15 3.86561 14.5528 3.47049 14.0005 3.47049H13.9771ZM3.33202 9.29827V8.56731C3.94637 8.33559 4.25338 8.3241 4.65188 8.60902C4.84102 8.74439 5.2705 9.05159 5.84894 9.05145C6.2009 9.05145 6.60818 8.93784 7.04954 8.60224C7.50704 8.25477 8.16229 8.31398 8.4646 8.58443C9.2319 9.27231 9.76154 9.03774 10.8167 8.56974C11.1734 8.41143 11.5833 8.30301 12.1665 8.53376L12.1693 9.27649C11.4319 9.0703 10.8678 9.24791 10.4816 9.41926C9.39571 9.90083 9.34295 9.88811 8.98731 9.56933C8.36374 9.01103 7.27235 9.00058 6.55456 9.54587C5.97555 9.98589 5.55682 9.8614 5.10612 9.53909C4.48249 9.0932 3.91627 9.11819 3.33202 9.29827ZM3.33202 3.10239V7.72279C3.92009 7.53954 4.48937 7.51127 5.11687 7.96001C5.56757 8.28247 5.98644 8.40682 6.56588 7.96694C7.28395 7.42164 8.37491 7.43238 8.99792 7.99039C9.34804 8.30409 9.41127 8.31977 10.4923 7.84033C10.8755 7.67029 11.4342 7.49427 12.1634 7.69314L12.1466 3.18859C12.1466 3.11652 12.1651 3.07837 12.2005 3.01761C12.3164 2.81837 12.4989 2.6912 12.7167 2.6587C12.8172 2.64489 12.9177 2.66899 13.0153 2.69237L13.052 2.70109C12.9005 2.35772 12.663 2.34783 12.6248 2.34783H3.87807C3.35749 2.34783 3.33202 3.02043 3.33202 3.10239ZM3.33202 10.1433V11.5326H12.1777L12.1725 10.1204C11.5801 9.88056 11.166 9.98977 10.8061 10.1495C9.75095 10.6177 9.22128 10.8526 8.45314 10.1642C8.1514 9.89419 7.49614 9.83455 7.03879 10.182C6.59714 10.5178 6.18987 10.6315 5.83777 10.6317C5.25943 10.6317 4.83006 10.3246 4.64066 10.1891C4.2448 9.90628 3.9391 9.91569 3.33202 10.1433ZM13.2345 13.6522V3.90783C13.2345 3.83717 13.243 3.77076 13.2753 3.71424C13.2761 3.71262 13.2769 3.71146 13.2777 3.71023C13.2783 3.70932 13.2789 3.70838 13.2796 3.70717C13.2796 3.70576 13.281 3.69163 13.2824 3.68174C13.2937 3.66337 13.3107 3.64641 13.3277 3.63087C13.3333 3.62522 13.339 3.62098 13.3447 3.61674C13.3447 3.61533 13.3461 3.61533 13.3475 3.61533C13.3578 3.60978 13.3687 3.60488 13.3802 3.59973C13.4067 3.58781 13.4363 3.57456 13.4679 3.54891C13.4085 3.56304 13.3519 3.59272 13.3109 3.63087C13.3038 3.63728 13.2933 3.64397 13.2823 3.65096C13.269 3.65938 13.2551 3.66823 13.2458 3.6775C13.1497 3.59696 13.035 3.52348 12.9473 3.48109L12.9786 11.9862C12.9798 12.2052 12.8017 12.3804 12.5809 12.3804H4.32227V13.6522H13.2345Z" />
</svg>
