<svg width="16" height="16" viewBox="0 0 16 16" fill="currentColor" xmlns="http://www.w3.org/2000/svg">
<path fill-rule="evenodd" clip-rule="evenodd" d="M15 2.5V3.58001H1.00015V2.5H15ZM14.5332 5.01987H1.46666C1.20914 5.01987 1 5.26188 1 5.55987V10.5999C1 10.8979 1.20914 11.14 1.46666 11.14C2.89829 11.14 4.07232 11.6928 5.0007 12.6175C5.57068 13.1852 5.94533 13.7795 6.13014 14.201C6.20965 14.3845 6.37121 14.5 6.54809 14.5H9.45177C9.62861 14.5 9.78991 14.3846 9.86885 14.2013C10.5256 12.6813 12.0524 11.14 14.5332 11.14C14.7907 11.14 14.9999 10.8979 14.9999 10.5999V5.55987C14.9999 5.26188 14.7907 5.01987 14.5332 5.01987ZM13.833 10.0996C12.9705 10.1991 12.1991 10.4839 11.4921 10.929L10.95 11.2703L11.1188 10.5834C11.2828 9.91598 11.3703 9.3561 11.3703 8.91992C11.3703 7.99097 11.1932 7.20682 10.8771 6.54504L10.6644 6.09988H14.0665V10.0727L13.833 10.0996ZM5.33547 6.09988H1.93332V10.0727L2.16688 10.0996C3.02934 10.1991 3.80076 10.4839 4.50776 10.929L5.04984 11.2703L4.88104 10.5834C4.71701 9.91598 4.62959 9.3561 4.62959 8.91992C4.62959 7.99097 4.80662 7.20682 5.12279 6.54504L5.33547 6.09988ZM10.4369 8.91992C10.4369 9.85063 9.9213 11.5289 9.22943 13.2467L9.15964 13.42H6.83974L6.76985 13.2471C6.08559 11.5543 5.56291 9.80982 5.56291 8.91992C5.56291 7.5571 6.0068 6.66354 6.60743 6.15737L6.76006 6.09988H9.23835L9.39159 6.1579C9.99563 6.67011 10.4369 7.56091 10.4369 8.91992Z" />
</svg>
