<svg width="16" height="16" viewBox="0 0 16 16" fill="currentColor" xmlns="http://www.w3.org/2000/svg">
<path fill-rule="evenodd" clip-rule="evenodd" d="M12.4949 1.10294L15.7912 3.67647C15.991 3.77941 16.0909 4.08824 15.8911 4.29412L14.193 7.69118C14.0931 8 13.7935 8.10294 13.4938 7.89706L12.4949 7.48529V14.4853C12.4949 14.7941 12.2952 15 11.9955 15H3.80473C3.50507 15 3.30529 14.7941 3.30529 14.4853V7.48529L2.4063 8C2.10664 8.10294 1.80698 8 1.70709 7.79412L0.108894 4.29412C-0.0908806 4.08824 0.00900683 3.77941 0.208782 3.67647L3.50507 1.10294C3.60495 1 3.70484 1 3.80473 1H12.0954C12.2952 1 12.395 1 12.4949 1.10294ZM13.294 6.66177L12.395 6.14706C12.1953 6.14706 11.9955 6.14706 11.8956 6.25C11.6958 6.35294 11.5 6.55882 11.5 6.66177V13.9706H4.40405V6.66177C4.40405 6.45588 4.30417 6.35294 4.20428 6.25C4.0045 6.14706 3.80473 6.14706 3.60495 6.14706L2.4063 6.76471L1.20766 4.29412L4.0045 2.13235L4.10439 2.02941H5.80248V2.33824C5.80248 3.57353 6.80135 4.60294 8 4.60294C9.19865 4.60294 10.1975 3.57353 10.1975 2.33824V2.02941H11.8956L12.0954 2.13235L14.8922 4.29412L13.6936 6.86765L13.294 6.66177ZM9.09876 2.44118C9.09876 3.05882 8.59933 3.57353 8 3.57353C7.40068 3.57353 6.90124 3.05882 6.90124 2.44118V2.02941H9.09876V2.44118Z" />
<path d="M9.19871 10.1618H9.09883C8.99894 10.1618 8.89905 10.1618 8.89905 10.0588C8.39961 9.75 7.80029 9.75 7.30085 10.0588C7.20097 10.1618 7.10108 10.1618 7.00119 10.1618H6.9013C6.60164 10.1618 6.40187 9.95588 6.40187 9.64706V9.54412C6.50175 8.82353 6.30198 8.20588 5.90243 7.89706C5.80254 7.69118 5.80254 7.48529 5.80254 7.27941C5.90243 7.07353 6.1022 6.97059 6.30198 6.97059H6.40187C6.70153 6.86765 7.30085 6.55882 7.50063 5.94118C7.60051 5.73529 7.80029 5.63235 8.00006 5.63235C8.19984 5.63235 8.39961 5.73529 8.4995 5.94118C8.79916 6.55882 9.2986 6.97059 9.79804 7.07353C9.99781 7.07353 10.1976 7.17647 10.2975 7.38235C10.3974 7.58824 10.2975 7.79412 10.1976 7.89706C9.79804 8.30882 9.59826 8.92647 9.69815 9.44118V9.64706C9.69815 9.95588 9.49838 10.1618 9.19871 10.1618ZM8.00006 8.82353C8.19984 8.82353 8.39961 8.82353 8.59939 8.92647C8.59939 8.51471 8.69928 8.20588 8.89905 7.79412C8.59939 7.58824 8.29973 7.38235 8.00006 7.07353C7.80029 7.38235 7.50063 7.58824 7.10108 7.79412C7.30085 8.10294 7.40074 8.51471 7.40074 8.92647C7.60051 8.82353 7.80029 8.82353 8.00006 8.82353Z" />
</svg>
