<svg width="16" height="16" viewBox="0 0 16 16" fill="currentColor" xmlns="http://www.w3.org/2000/svg">
<path fill-rule="evenodd" clip-rule="evenodd" d="M14.7913 4.52326L11.895 2.3062C11.7951 2.20543 11.6952 2.20543 11.5954 2.20543H10.4968L10.297 2.10465L9.79768 1.60078C9.69781 1.60078 9.59794 1.5 9.3982 1.5H6.6018C6.40206 1.5 6.30219 1.60078 6.20232 1.60078L5.70296 2.20543H4.40463C4.30476 2.20543 4.20489 2.20543 4.10502 2.3062L1.20875 4.52326C1.00901 4.72481 0.909134 4.92636 1.10888 5.22868L2.50708 8.15116C2.60695 8.35271 2.90656 8.55426 3.20618 8.35271L3.90527 7.94961V13.9961C3.90527 14.2984 4.10502 14.5 4.40463 14.5H11.5954C11.895 14.5 12.0947 14.2984 12.0947 13.9961V7.94961L12.3943 8.15116L12.7938 8.35271C12.9936 8.45349 13.2932 8.35271 13.4929 8.15116L14.8911 5.22868C15.0909 4.92636 14.991 4.72481 14.7913 4.52326ZM9.69781 2.50775L8.29961 4.01938C8.19974 4.12015 7.90013 4.12015 7.80026 4.01938L6.30219 2.50775H9.69781ZM12.7938 7.24419L11.7951 6.74031C11.5954 6.63953 11.4955 6.63953 11.2958 6.74031C11.1959 6.84108 11.096 7.04264 11.096 7.14341V13.593H4.90399V7.14341C4.90399 6.94186 4.80412 6.84108 4.70425 6.74031C4.60437 6.63953 4.40463 6.63953 4.20489 6.74031L3.20618 7.24419L2.20746 5.12791L4.60437 3.31395H5.60309L5.80283 3.41473L7.00129 4.72481C7.3009 5.02713 7.60051 5.12791 8 5.12791C8.39949 5.12791 8.6991 5.02713 8.99871 4.72481L10.297 3.31395L10.4968 3.21318H11.4955L13.8924 5.02713L12.7938 7.24419Z" />
<path d="M9.89757 7.24421C9.89757 7.14344 9.69783 7.04266 9.59796 6.94188H8.69912L8.29963 6.03491C8.19976 5.73258 7.80027 5.73258 7.60053 6.03491L7.20105 6.94188L6.3022 7.04266C6.10246 7.04266 6.00259 7.14344 6.00259 7.24421C6.00259 7.34499 6.00259 7.54654 6.10246 7.64731L6.80156 8.25196L6.60182 9.25971C6.60182 9.36049 6.60182 9.56204 6.70169 9.66282C6.80156 9.66282 6.80156 9.76359 6.90143 9.76359C7.0013 9.76359 7.0013 9.76359 7.10117 9.76359L7.90014 9.36049L8.69912 9.76359C8.79899 9.86436 8.99873 9.86436 9.0986 9.76359C9.29834 9.56204 9.29834 9.36049 9.29834 9.25971L9.19847 8.35274L9.89757 7.74809C9.89757 7.54654 9.99744 7.44576 9.89757 7.24421ZM7.80027 8.45351L7.40079 8.65506L7.50066 8.25196C7.50066 8.15119 7.50066 8.05041 7.40079 7.94964L7.10117 7.64731L7.50066 7.54654C7.60053 7.54654 7.7004 7.44576 7.80027 7.34499L8.00002 7.04266L8.19976 7.34499C8.19976 7.54654 8.29963 7.64731 8.3995 7.64731L8.79899 7.74809L8.49937 7.94964C8.3995 8.05041 8.3995 8.15119 8.3995 8.25196L8.49937 8.65506L8.09989 8.45351C8.00002 8.45351 8.00002 8.45351 7.90014 8.45351C7.80027 8.45351 7.80027 8.45351 7.80027 8.45351Z" />
</svg>
