<svg width="16" height="16" viewBox="0 0 16 16" fill="currentColor" xmlns="http://www.w3.org/2000/svg">
<path fill-rule="evenodd" clip-rule="evenodd" d="M16 13.1135L15.8005 12.617C15.9002 12.5177 15.9002 12.4184 15.9002 12.2199L12.4088 2.0922C12.4088 1.99291 12.309 1.89362 12.2093 1.89362C12.0098 1.69504 10.0147 1.09929 9.61565 1C9.5159 1 9.31639 1 9.21663 1.09929C9.21663 1.09929 8.71786 1.49645 8.01957 1.49645C7.32128 1.49645 6.72275 1.09929 6.72275 1C6.62299 1 6.52324 1 6.32373 1C5.9247 1.09929 3.9296 1.69504 3.73008 1.79433C3.63033 1.89362 3.53057 1.99291 3.53057 2.0922L0.13889 12.2199C0.13889 12.3191 0.13889 12.5177 0.238645 12.617L0.0391345 13.1135C-0.0606209 13.3121 0.0391345 13.5106 0.238645 13.6099L1.83473 14.2057C2.03424 14.305 2.23375 14.2057 2.33351 14.0071L2.53302 13.5106H2.63278C2.73253 13.5106 2.83229 13.4113 2.83229 13.3121L4.22886 8.94326C4.22886 10.4326 4.22886 12.3191 4.22886 13.8085C4.22886 13.9078 4.22886 14.6028 4.22886 14.6028C4.22886 14.8014 4.62788 15 4.82739 15H11.2117C11.4113 15 11.7105 14.8014 11.7105 14.6028C11.7105 14.6028 11.7105 13.9078 11.7105 13.8085C11.7105 12.3191 11.7105 10.4326 11.7105 8.94326L13.1071 13.3121C13.1071 13.4113 13.2068 13.5106 13.3066 13.5106H13.4064L13.6059 14.0071C13.7056 14.2057 13.9051 14.305 14.1046 14.2057L15.7007 13.6099C15.8005 13.6099 15.9002 13.5106 15.9002 13.4113C16 13.3121 16 13.2128 16 13.1135ZM9.61565 1.79433C9.5159 2.58865 8.81761 3.28369 8.01957 3.28369C7.22152 3.28369 6.62299 2.68794 6.52324 1.79433C6.8225 1.99291 7.42103 2.19149 8.01957 2.19149C8.71786 2.19149 9.21663 1.99291 9.61565 1.79433ZM1.73498 13.3121L1.93449 12.9149C1.93449 12.9149 1.93449 12.9149 1.93449 12.8156L0.936933 12.4184V12.5177L0.737422 13.0142L1.73498 13.3121ZM11.8103 6.56028C11.7105 6.3617 11.6108 6.26241 11.4113 6.26241C11.2117 6.26241 11.112 6.3617 11.112 6.56028C11.112 6.65957 11.112 9.93617 11.0122 14.2057H4.92715C4.92715 7.55319 4.92715 6.46099 4.92715 6.46099C4.92715 6.26241 4.72764 6.16312 4.62788 6.16312C4.42837 6.16312 4.32862 6.26241 4.22886 6.46099L2.23375 12.5177L0.936933 12.0213L4.12911 2.39007C4.22886 2.39007 4.32862 2.29078 4.52813 2.29078C4.82739 2.19149 5.32617 1.99291 5.72519 1.89362C5.9247 3.38298 7.32128 3.97872 8.01957 3.97872C8.71786 3.97872 10.1144 3.28369 10.3139 1.89362C10.713 1.99291 11.112 2.19149 11.4113 2.29078C11.6108 2.39007 11.7105 2.39007 11.8103 2.39007L15.1022 12.0213L13.8054 12.5177L11.8103 6.56028ZM14.0049 12.9149L14.2044 13.3121L15.1022 13.0142L15.0024 12.617L14.0049 12.9149Z" />
<path d="M10.1143 7.05676C10.1143 6.95747 9.91478 6.85817 9.81502 6.85817C9.21649 6.75888 8.61796 6.26243 8.31869 5.76598C8.21894 5.4681 7.72016 5.4681 7.6204 5.76598C7.42089 6.36172 6.82236 6.75888 6.12407 6.85817C6.02432 6.85817 5.92456 6.95747 5.92456 7.05676C5.92456 7.15605 5.92456 7.35463 6.02432 7.45392C6.52309 7.95037 6.7226 8.54612 6.62285 9.24115C6.62285 9.34044 6.62285 9.53903 6.7226 9.53903C6.82236 9.63832 6.92211 9.63832 7.12162 9.53903C7.72016 9.24115 8.41844 9.24115 9.01698 9.53903H9.11673C9.21649 9.53903 9.31624 9.53903 9.31624 9.43973C9.416 9.34044 9.51575 9.24115 9.416 9.14186C9.31624 8.44683 9.51575 7.85108 10.0145 7.35463C10.214 7.35463 10.214 7.15605 10.1143 7.05676ZM8.71771 8.7447C8.21893 8.64541 7.72016 8.64541 7.32114 8.7447C7.32114 8.24825 7.12162 7.75179 6.92211 7.35463C7.32114 7.25534 7.72016 6.95747 8.01942 6.5603C8.31869 6.95747 8.71771 7.25534 9.21649 7.35463C8.91722 7.75179 8.71771 8.24825 8.71771 8.7447Z" />
</svg>
