<svg width="16" height="16" viewBox="0 0 16 16" fill="currentColor" xmlns="http://www.w3.org/2000/svg">
<path fill-rule="evenodd" clip-rule="evenodd" d="M10.2606 1.00253C10.2697 1.00166 10.2788 1.00109 10.288 1.00083C10.6948 0.994705 11.2092 1.05682 11.7244 1.25422C12.2036 1.43781 12.6001 1.71684 12.8756 2.11126C13.1386 2.48842 13.42 3.7434 13.7795 5.89017C13.904 6.63327 14.0339 7.46631 14.1678 8.37348C14.3669 9.7224 14.565 11.1671 14.753 12.6118C14.8188 13.1173 14.8786 13.5868 14.9313 14.0082C14.963 14.2611 14.9852 14.442 14.997 14.5386C15.0268 14.7839 14.8353 15 14.5882 15H12.7515C12.5627 15 12.3981 14.8716 12.3522 14.6885L11.5066 11.3202L11.5394 13.5142C11.5428 13.744 11.3575 13.9321 11.1277 13.9321H4.87263C4.64282 13.9321 4.45748 13.744 4.46091 13.5142L4.49363 11.3206L3.64845 14.6885C3.60249 14.8716 3.43787 15 3.24907 15H1.41182C1.16473 15 0.97328 14.7839 1.00306 14.5386C1.01479 14.442 1.03706 14.2611 1.06872 14.0082C1.12145 13.5868 1.18128 13.1173 1.24708 12.6118C1.43509 11.1671 1.6332 9.72239 1.83233 8.37347C1.96643 7.46505 2.09654 6.63097 2.22117 5.8871C2.58057 3.74208 2.86195 2.48817 3.12517 2.11104C3.4004 1.71692 3.79684 1.43792 4.2758 1.25432C4.79097 1.05684 5.30531 0.994704 5.69831 1.00055C5.71203 1.00093 5.72554 1.00187 5.73882 1.00335C5.83263 0.9914 5.93102 1.01153 6.01632 1.06741C6.10157 1.12326 6.27993 1.21676 6.5364 1.31281C7.5817 1.70429 8.77255 1.70429 10.024 1.04727C10.0995 1.00762 10.1817 0.993748 10.2606 1.00253ZM6.7486 2.24342L8.00002 4.12171L9.25944 2.2314C8.38232 2.46894 7.53534 2.44997 6.7486 2.24342ZM14.1142 14.1105C14.0616 13.6904 14.0019 13.2222 13.9363 12.718C13.7489 11.2777 13.5514 9.83745 13.3531 8.49372C13.2199 7.59148 13.0908 6.76357 12.9673 6.02619C12.6431 4.08983 12.3547 2.80406 12.2003 2.58256C12.0287 2.33687 11.766 2.15209 11.4297 2.02323C11.1144 1.90242 10.7872 1.84546 10.5171 1.82897L8.34269 5.09265C8.17972 5.33726 7.82031 5.33726 7.65734 5.09265L5.48291 1.82898C5.21286 1.84547 4.88579 1.90245 4.57056 2.02329C4.23444 2.15213 3.9719 2.3369 3.80041 2.58246C3.64577 2.80402 3.35751 4.08859 3.03337 6.02318C2.9097 6.76131 2.78039 7.59025 2.64702 8.49373C2.44867 9.83746 2.25116 11.2777 2.06372 12.7181C1.9981 13.2222 1.93844 13.6904 1.88587 14.1105L1.87761 14.1765H2.92787L4.5589 7.67725C4.67793 7.20294 5.37728 7.29466 5.36999 7.78362L5.29058 13.1086H10.7097L10.63 7.78364C10.6227 7.29469 11.3221 7.20293 11.4411 7.67722L13.0727 14.1765H14.1224L14.1142 14.1105Z" />
</svg>
