<svg width="16" height="16" viewBox="0 0 16 16" fill="currentColor" xmlns="http://www.w3.org/2000/svg">
<path d="M15 1.5H1V2.54464H15V1.5Z" />
<path d="M14.5333 3.9375H1.46667C1.21 3.9375 1 4.16964 1 4.45982V13.9777C1 14.2679 1.15167 14.5 1.46667 14.5H5.66667C6.02833 14.5 6.04 14.175 6.19167 13.908C6.22667 13.8384 6.34333 13.5946 6.36667 13.5366C6.53 13.1652 6.65833 13.1071 6.83333 13.1071H9.16667C9.34167 13.1071 9.47 13.1652 9.62167 13.5366C9.645 13.5946 9.76167 13.8384 9.79667 13.908C9.96 14.175 9.97167 14.5 10.3333 14.5H14.5333C14.8483 14.5 15 14.2679 15 13.9777V4.45982C15 4.16964 14.79 3.9375 14.5333 3.9375ZM5.85333 12.6661C5.76 12.9911 5.43333 13.5366 5.43333 13.5366H1.93333V4.98214H5.34L5.11833 5.41161C4.80333 6.05 4.62833 6.80446 4.62833 7.70982C4.62833 8.12768 4.675 8.42946 4.885 9.32321C4.94333 9.61339 5.07167 9.97321 5.21167 10.3562C5.48 11.1339 6.01667 12.1438 5.85333 12.6661ZM9.225 11.9L9.155 12.0625H6.845L6.775 11.9C6.08667 10.2634 5.56167 8.56875 5.56167 7.70982C5.56167 6.38661 6.005 5.52768 6.61167 5.04018L6.76333 4.98214H8H9.23667L9.38833 5.04018C9.98333 5.52768 10.4383 6.39821 10.4383 7.70982C10.4383 8.56875 9.91333 10.2634 9.225 11.9ZM14.055 13.5366H10.555C10.555 13.5366 10.2283 12.9795 10.1233 12.6545C9.97167 12.1437 10.5083 11.1339 10.7767 10.3562C10.9167 9.97321 11.045 9.61339 11.1033 9.32321C11.3017 8.44107 11.36 8.13929 11.36 7.70982C11.36 6.81607 11.185 6.05 10.87 5.41161L10.6483 4.98214H14.055V13.5366Z" />
</svg>
