<svg width="16" height="16" viewBox="0 0 16 16" fill="currentColor" xmlns="http://www.w3.org/2000/svg">
<path fill-rule="evenodd" clip-rule="evenodd" d="M13.9375 4.4326L12.7094 2.3083L12.1314 2.82808L13.179 4.59079C10.4878 8.02582 8.86231 11.4608 8.4469 12.3648H7.54384C7.12843 11.4608 5.50291 8.02582 2.82985 4.61339L3.96771 2.82808L3.40781 2.28571L2.07128 4.4326C2.07128 4.4326 2.07128 4.4552 2.05321 4.4552C1.92679 4.65859 -0.854648 9.58514 0.26515 13.3366C0.283211 13.4269 0.337395 13.4947 0.391579 13.5399C0.452334 13.5907 1.285 14.2857 3.19107 14.2857C4.23863 14.2857 5.62934 14.1953 7.38129 13.2914H8.60945C10.3614 14.1953 11.7521 14.2857 12.7997 14.2857C14.6981 14.2633 15.5488 13.552 15.6157 13.496L15.6172 13.4947C15.6714 13.4495 15.7075 13.3818 15.7436 13.314C16.7813 9.78084 14.3585 5.22543 13.9825 4.51842C13.9592 4.47474 13.9438 4.44575 13.9375 4.4326ZM15.2741 11.3253C13.486 11.7998 11.6076 11.8224 9.81956 11.393C10.5962 9.90152 11.8785 7.64164 13.5944 5.40435C14.1001 6.4213 15.256 8.97497 15.2741 11.3253ZM6.29761 11.6416C5.53904 10.1501 4.22057 7.77723 2.39638 5.42695C1.8726 6.4665 0.662498 9.13316 0.716681 11.5512C2.54087 12.0484 4.45536 12.0936 6.29761 11.6416ZM0.879233 12.862C0.84311 12.749 0.825049 12.636 0.806988 12.5004C1.74617 12.7264 2.70342 12.862 3.67873 12.862C4.6721 12.862 5.66547 12.7264 6.62271 12.4778L6.71302 12.523C6.72205 12.5456 6.73559 12.5682 6.74913 12.5908C6.76267 12.6134 6.77624 12.636 6.78526 12.6586C3.04658 14.0823 1.27658 13.1106 0.879233 12.862ZM9.18741 12.6812C11.3548 13.4947 12.8358 13.4947 13.7208 13.3592C14.4611 13.2268 14.8918 12.9869 15.0632 12.8914C15.0674 12.889 15.0715 12.8867 15.0754 12.8846C15.1115 12.7038 15.1476 12.5004 15.1838 12.297C14.2626 12.523 13.3054 12.636 12.3662 12.636C11.3728 12.636 10.3975 12.5004 9.42221 12.2518L9.38609 12.2744C9.34074 12.3737 9.29539 12.4641 9.2545 12.5456C9.23026 12.5939 9.20758 12.6391 9.18741 12.6812Z" />
</svg>
