<svg width="16" height="16" viewBox="0 0 16 16" fill="currentColor" xmlns="http://www.w3.org/2000/svg">
<path fill-rule="evenodd" clip-rule="evenodd" d="M3.1183 5.88684C2.91538 5.88684 2.72567 5.78303 2.61744 5.61206L1.09179 3.20841C1.00369 3.06936 0.97744 2.89992 1.01986 2.74119C1.06196 2.58366 1.16794 2.45047 1.3119 2.37315L3.86469 1.00216C4.47577 0.673597 5.1671 0.5 5.86407 0.5H10.1353C10.8321 0.5 11.5234 0.673528 12.1351 1.00207L14.6881 2.37315C14.8314 2.45012 14.9365 2.58251 14.9803 2.74184C15.0226 2.90017 14.9961 3.06958 14.908 3.20873L13.3818 5.61316C13.2727 5.78357 13.0834 5.88684 12.881 5.88684H12.543C12.5379 5.98889 12.5314 6.09436 12.5235 6.20459C12.5036 6.48468 12.4854 6.68275 12.4258 7.27258L12.3985 7.54259C12.2921 8.60718 12.2534 9.28617 12.2534 10.1029C12.2534 11.148 12.6235 12.8019 13.1315 14.1024C13.1882 14.2532 13.1802 14.4218 13.1105 14.5638C13.0407 14.7095 12.9145 14.8201 12.7624 14.8692C11.5523 15.2664 9.83022 15.5 7.99967 15.5C6.17147 15.5 4.42993 15.2637 3.23989 14.8699C3.08692 14.8205 2.96024 14.7104 2.89083 14.5667C2.8198 14.4208 2.8118 14.2532 2.86851 14.1023C2.90493 14.0045 2.9543 13.8633 3.00764 13.7037C3.1162 13.3789 3.21753 13.0469 3.30859 12.7169C3.45322 12.1929 3.56346 11.7044 3.6375 11.2584C3.70978 10.823 3.74596 10.4369 3.74596 10.1029C3.74596 9.20805 3.70785 8.585 3.57353 7.27229C3.51391 6.68274 3.49576 6.48467 3.4758 6.20459C3.46795 6.09436 3.46148 5.98889 3.45634 5.88684H3.1183ZM7.99967 3.09394C8.87099 3.09394 9.5505 2.4561 9.69893 1.49043H6.30041C6.44884 2.4561 7.12835 3.09394 7.99967 3.09394ZM12.0506 14.0394C10.8414 14.3455 9.44872 14.5096 7.99967 14.5096C6.55062 14.5096 5.15792 14.3455 3.94871 14.0394C4.46483 12.5195 4.74502 11.1531 4.74502 10.1029C4.74502 9.17059 4.70594 8.52953 4.56755 7.17281C4.4954 6.45989 4.47449 6.21761 4.45662 5.88694C4.44541 5.67958 4.43993 5.48571 4.43993 5.2963C4.43993 5.0745 4.25688 4.89641 4.03355 4.89641H3.33825L3.26557 4.85544L2.16388 3.04188L4.3404 1.8723C4.6937 1.68278 5.08291 1.56032 5.48271 1.51288C5.65269 2.9251 6.67129 3.89372 7.99967 3.89372C9.32791 3.89372 10.3466 2.92524 10.5166 1.51347C10.9176 1.56097 11.3066 1.68338 11.6589 1.87289L13.8336 3.04091L12.6547 4.8982L12.5779 4.93721L11.9788 4.89684C11.7425 4.89641 11.5594 5.0745 11.5594 5.2963C11.5594 5.48571 11.5539 5.67958 11.5427 5.88694C11.5248 6.21761 11.5039 6.4599 11.4318 7.1732C11.2934 8.52955 11.2543 9.17061 11.2543 10.1029C11.2543 11.1531 11.5345 12.5195 12.0506 14.0394Z" />
</svg>
