<svg width="16" height="16" viewBox="0 0 16 16" fill="currentColor" xmlns="http://www.w3.org/2000/svg">
<path fill-rule="evenodd" clip-rule="evenodd" d="M13.0705 9.8329C12.8966 10.1546 12.8089 10.4535 12.8089 10.7823C12.8089 10.96 12.8562 11.1115 13.0306 11.5782C13.1315 11.8494 13.1787 11.9807 13.2375 12.161C13.5075 12.9891 13.6545 13.8442 13.6545 14.9297C13.6545 15.2444 13.394 15.5 13.0732 15.5H2.92683C2.60603 15.5 2.34553 15.2444 2.34553 14.9297C2.34553 13.5632 2.53213 12.7488 2.96946 11.5782C3.14382 11.1115 3.19106 10.96 3.19106 10.7823C3.19106 10.4535 3.10339 10.1546 2.92949 9.8329C2.82595 9.64136 2.72974 9.49661 2.48048 9.14266C1.76617 8.12901 1.5 7.55158 1.5 6.63479C1.5 5.46842 2.48126 4.03683 3.84109 3.67744L4.03659 3.62577V0.5H5.19919V3.9041L5.25003 4.05697C5.75433 4.73447 6.64153 5.23502 8 5.23502C9.35579 5.23502 10.2449 4.73488 10.7502 4.05421L10.8008 3.90161V0.5H11.9634V3.62574L12.1589 3.67743C13.5182 4.03687 14.5 5.46889 14.5 6.63479C14.5 7.55158 14.2338 8.12901 13.5196 9.14259C13.2703 9.49661 13.1741 9.64136 13.0705 9.8329ZM11.6463 10.7823C11.6463 10.0339 11.8811 9.47749 12.4195 8.69904C12.4593 8.64145 12.4913 8.59571 12.5634 8.49343C13.1587 7.649 13.3374 7.27957 13.3374 6.63479C13.3374 5.97403 12.719 5.01034 11.8535 4.77804L11.6884 4.73374L11.5797 4.86337C10.8219 5.7669 9.65906 6.37558 8 6.37558C6.34106 6.37558 5.17878 5.76732 4.41933 4.86321L4.3106 4.73378L4.14569 4.77804C3.2802 5.01033 2.6626 5.97371 2.6626 6.63479C2.6626 7.28016 2.84265 7.65268 3.43682 8.4937C3.50864 8.59569 3.54071 8.64144 3.58055 8.69904C4.11889 9.47749 4.35366 10.0339 4.35366 10.7823C4.35366 11.1188 4.28402 11.3739 4.06118 11.9705C3.75372 12.7928 3.61988 13.2806 3.54559 14.0766L3.51919 14.3594H12.48L12.4536 14.0766C12.3792 13.28 12.2447 12.7886 11.9388 11.9704C11.716 11.3739 11.6463 11.1188 11.6463 10.7823Z" />
</svg>
