<svg width="16" height="16" viewBox="0 0 16 16" fill="currentColor" xmlns="http://www.w3.org/2000/svg">
<path d="M14.4255 4.62011H1.57447C1.25532 4.62011 1 4.84544 1 5.13222V7.84637C1 7.86685 1 7.88734 1 7.90782C1.01064 7.90782 1.03191 7.90782 1.04255 7.90782C1.43617 7.90782 1.80851 7.94879 2.18085 8.02048C4.44681 8.46089 6.14894 10.1713 6.34043 12.2607C6.35106 12.3836 6.38298 12.4963 6.38298 12.6192C6.38298 12.865 6.34043 13.0903 6.29787 13.3259C6.67021 13.3976 7.06383 13.459 7.45745 13.4795C7.6383 13.4898 7.81915 13.5 8 13.5C8.18085 13.5 8.3617 13.4898 8.54255 13.4795C8.93617 13.459 9.32979 13.3976 9.70213 13.3259C9.65957 13.0903 9.61702 12.865 9.61702 12.6192C9.61702 12.4963 9.64894 12.3836 9.65957 12.2607C9.84043 10.1713 11.5532 8.46089 13.8191 8.02048C14.1809 7.94879 14.5638 7.90782 14.9574 7.90782C14.9681 7.90782 14.9894 7.90782 15 7.90782C15 7.88734 15 7.86685 15 7.84637V5.13222C15 4.84544 14.7447 4.62011 14.4255 4.62011ZM8.47872 12.4348C8.31915 12.4451 8.15957 12.4758 8 12.4758C7.84043 12.4758 7.68085 12.4451 7.52128 12.4348C7.42553 9.68994 5.14894 7.42644 2.15957 6.97579V5.64432H13.8404V6.97579C10.8511 7.42644 8.57447 9.68994 8.47872 12.4348Z" />
<path d="M14.9255 2.5H1.02128V3.42179H14.9255V2.5Z" />
</svg>
