<svg width="16" height="16" viewBox="0 0 16 16" fill="currentColor" xmlns="http://www.w3.org/2000/svg">
<path fill-rule="evenodd" clip-rule="evenodd" d="M11.9105 2.33346L14.801 4.53212C14.9932 4.67821 15.0549 4.94266 14.9476 5.16027L13.5025 8.09157C13.3795 8.34095 13.0821 8.44165 12.8357 8.31672L12.1094 7.94905V13.9962C12.1094 14.2742 11.8867 14.5 11.6126 14.5H4.38688C4.11273 14.5 3.89012 14.2742 3.89012 13.9962V7.94875L3.16447 8.31672C2.91823 8.44209 2.62082 8.34124 2.49773 8.09157L1.05259 5.16027C0.94516 4.94236 1.0065 4.67801 1.19847 4.53212L4.08882 2.33359C4.17525 2.2681 4.2796 2.23282 4.38688 2.23282H5.53288L5.69255 2.16575L6.20341 1.64764C6.29678 1.55294 6.42283 1.5 6.55459 1.5H9.44488C9.57684 1.5 9.70331 1.55306 9.79564 1.64721L10.3069 2.16575L10.4666 2.23282H11.6126C11.7205 2.23282 11.8246 2.26803 11.9105 2.33346ZM7.99973 4.22277L6.30859 2.50763H9.69088L7.99973 4.22277ZM8.4965 5.2385L8.56264 5.07657L10.3069 3.30753L10.4666 3.24045H11.372L11.5074 3.28624L13.8737 5.0857L12.8357 7.19027L11.8358 6.68281C11.6813 6.60493 11.4975 6.61326 11.3518 6.70438C11.205 6.79707 11.1158 6.95915 11.1158 7.13359V13.4924H4.88365V7.13359C4.88365 6.95868 4.79481 6.79698 4.64839 6.70486C4.50198 6.61325 4.3189 6.60494 4.16495 6.68251L3.16454 7.19027L2.12654 5.0857L4.49275 3.28624L4.62822 3.24045H5.53288L5.69255 3.30753L7.43683 5.07657L7.50297 5.2385V7.6374H8.4965V5.2385Z" />
</svg>
