<svg width="16" height="16" viewBox="0 0 16 16" fill="currentColor" xmlns="http://www.w3.org/2000/svg">
<path fill-rule="evenodd" clip-rule="evenodd" d="M12.4669 1.60638L15.7919 4.16401C15.9929 4.31851 16.0574 4.59815 15.9452 4.82825L14.2829 8.23808C14.1544 8.50169 13.8428 8.60832 13.5859 8.47629L12.675 8.00999V13.9672C12.675 14.2612 12.4421 14.5 12.1555 14.5H3.84391C3.55725 14.5 3.32444 14.2612 3.32444 13.9672V8.00957L2.41456 8.47617C2.15694 8.60881 1.84608 8.50221 1.71732 8.23808L0.0550036 4.82825C-0.0573465 4.59779 0.00678873 4.31827 0.207491 4.16401L3.53223 1.60656C3.6226 1.53731 3.73172 1.5 3.84391 1.5H12.1555C12.2684 1.5 12.3772 1.5372 12.4669 1.60638ZM12.3892 6.67089C12.2274 6.58847 12.0351 6.59729 11.883 6.69349C11.7293 6.79162 11.636 6.96307 11.636 7.14754V13.4344H4.36338V7.14754C4.36338 6.96252 4.27049 6.79154 4.11744 6.69416C3.96432 6.59727 3.77278 6.58848 3.61187 6.67046L2.41466 7.28497L1.17802 4.74938L3.93453 2.62948L4.12151 2.56556H5.81791V2.88524C5.81791 4.11866 6.7971 5.12294 7.99969 5.12294C9.20282 5.12294 10.1815 4.11897 10.1815 2.88524V2.56556H11.8787L12.0657 2.62948L14.8222 4.74938L13.5856 7.28497L12.3892 6.67089ZM9.14254 2.88524C9.14254 3.53174 8.6304 4.05738 7.99969 4.05738C7.36959 4.05738 6.85685 3.5315 6.85685 2.88524V2.56556H9.14254V2.88524Z" />
</svg>
