<svg width="16" height="16" viewBox="0 0 16 16" fill="currentColor" xmlns="http://www.w3.org/2000/svg">
<path fill-rule="evenodd" clip-rule="evenodd" d="M12.4949 1.10317L15.7912 3.68254C15.991 3.78571 16.0909 4.09524 15.8911 4.30159L14.193 7.70635C14.0931 8.01587 13.7935 8.11905 13.4938 7.9127L12.4949 7.5V14.4841C12.4949 14.7937 12.2952 15 11.9955 15H3.80473C3.50507 15 3.30529 14.7937 3.30529 14.4841V7.5L2.4063 8.01587C2.10664 8.11905 1.80698 8.01587 1.70709 7.80952L0.108894 4.30159C-0.0908806 4.09524 0.00900683 3.78571 0.208782 3.68254L3.50507 1.10317C3.60495 1 3.70484 1 3.80473 1H12.0954C12.2952 1 12.395 1 12.4949 1.10317ZM13.294 6.6746L12.395 6.15873C12.1953 6.15873 11.9955 6.15873 11.8956 6.2619C11.6958 6.36508 11.5 6.57143 11.5 6.6746V13.9683H4.40405V6.6746C4.40405 6.46825 4.30417 6.36508 4.20428 6.2619C4.0045 6.15873 3.80473 6.15873 3.60495 6.15873L2.4063 6.77778L1.20766 4.30159L4.0045 2.13492L4.10439 2.03175H5.80248V2.34127C5.80248 3.57937 6.80135 4.61111 8 4.61111C9.19865 4.61111 10.1975 3.57937 10.1975 2.34127V2.03175H11.8956L12.0954 2.13492L14.8922 4.30159L13.6936 6.88095L13.294 6.6746ZM9.09876 2.44444C9.09876 3.06349 8.59932 3.57937 8 3.57937C7.40068 3.57937 6.90124 3.06349 6.90124 2.44444V2.03175H9.09876V2.44444Z" />
<path d="M10.4972 8.01585H5.70256C5.4029 8.01585 5.20312 7.8095 5.20312 7.49997C5.20312 7.19045 5.4029 6.9841 5.70256 6.9841H10.4972C10.7968 6.9841 10.9966 7.19045 10.9966 7.49997C10.9966 7.8095 10.7968 8.01585 10.4972 8.01585Z" />
<path d="M10.4972 9.87299H5.70256C5.4029 9.87299 5.20312 9.66664 5.20312 9.35712C5.20312 9.0476 5.4029 8.84125 5.70256 8.84125H10.4972C10.7968 8.84125 10.9966 9.0476 10.9966 9.35712C10.9966 9.66664 10.7968 9.87299 10.4972 9.87299Z" />
</svg>
