<svg width="16" height="16" viewBox="0 0 16 16" fill="currentColor" xmlns="http://www.w3.org/2000/svg">
<path fill-rule="evenodd" clip-rule="evenodd" d="M14.7913 4.52521L11.895 2.30672C11.7951 2.20588 11.6952 2.20588 11.5954 2.20588H10.4968L10.297 2.10504L9.79768 1.60084C9.69781 1.60084 9.59794 1.5 9.3982 1.5H6.6018C6.40206 1.5 6.30219 1.60084 6.20232 1.60084L5.70296 2.20588H4.40463C4.30476 2.20588 4.20489 2.20588 4.10502 2.30672L1.20875 4.52521C1.00901 4.72689 0.909134 4.92857 1.10888 5.23109L2.50708 8.15546C2.60695 8.35714 2.90656 8.55882 3.20618 8.35714L3.90527 7.95378V13.9958C3.90527 14.2983 4.10502 14.5 4.40463 14.5H11.5954C11.895 14.5 12.0947 14.2983 12.0947 13.9958V7.95378L12.3943 8.15546L12.7938 8.35714C12.9936 8.45798 13.2932 8.35714 13.4929 8.15546L14.8911 5.23109C15.0909 4.92857 14.991 4.72689 14.7913 4.52521ZM9.69781 2.5084L8.29961 4.02101C8.19974 4.12185 7.90013 4.12185 7.80026 4.02101L6.30219 2.5084H9.69781ZM12.7938 7.2479L11.7951 6.7437C11.5954 6.64286 11.4955 6.64286 11.2958 6.7437C11.1959 6.84454 11.096 7.04622 11.096 7.14706V13.5924H4.90399V7.14706C4.90399 6.94538 4.80412 6.84454 4.70425 6.7437C4.60437 6.64286 4.40463 6.64286 4.20489 6.7437L3.20618 7.2479L2.20746 5.13025L4.60437 3.31513H5.60309L5.80283 3.41597L7.00129 4.72689C7.3009 5.02941 7.60051 5.13025 8 5.13025C8.39949 5.13025 8.6991 5.02941 8.99871 4.72689L10.297 3.31513L10.4968 3.21429H11.4955L13.8924 5.02941L12.7938 7.2479Z" />
<path d="M9.89757 7.65124H6.00259C5.70298 7.65124 5.50323 7.44956 5.50323 7.14703C5.50323 6.84451 5.80285 6.64283 6.00259 6.64283H9.89757C10.1972 6.64283 10.3969 6.84451 10.3969 7.14703C10.3969 7.44956 10.1972 7.65124 9.89757 7.65124Z" />
<path d="M9.89757 9.36553H6.00259C5.70298 9.36553 5.50323 9.16385 5.50323 8.86133C5.50323 8.55881 5.80285 8.35713 6.00259 8.35713H9.89757C10.1972 8.35713 10.3969 8.55881 10.3969 8.86133C10.3969 9.16385 10.1972 9.36553 9.89757 9.36553Z" />
</svg>
