<svg width="16" height="16" viewBox="0 0 16 16" fill="currentColor" xmlns="http://www.w3.org/2000/svg">
<path fill-rule="evenodd" clip-rule="evenodd" d="M15.9764 13.1865L15.7868 12.6872C15.8719 12.5924 15.9037 12.4565 15.8608 12.3291L12.4082 2.06037C12.375 1.96193 12.3014 1.88224 12.2057 1.8413C11.9721 1.74159 9.98818 1.13642 9.59276 1.01597C9.47039 0.97849 9.33651 1.00797 9.24117 1.09403C9.23642 1.0984 8.72903 1.53653 7.9948 1.53653C7.28992 1.53653 6.69629 1.09623 6.67175 1.07803C6.57805 1.00525 6.45401 0.981947 6.34022 1.01597C5.94279 1.13606 3.94886 1.73995 3.7116 1.84203C3.61608 1.88315 3.54248 1.96266 3.50978 2.0611L0.0809961 12.3111C0.0335085 12.4525 0.0782564 12.6052 0.186565 12.6998L0.0178011 13.2194C-0.0430196 13.4068 0.056887 13.6084 0.243184 13.6743L1.809 14.2278C1.98835 14.2911 2.18744 14.2067 2.26488 14.0327L2.48186 13.5469C2.51875 13.5417 2.55473 13.5306 2.58907 13.514C2.67857 13.4707 2.74633 13.3928 2.77701 13.2984L4.19799 8.91592C4.2031 10.3843 4.2073 12.3009 4.20968 13.7977C4.20986 13.9363 4.20968 14.6361 4.20968 14.6361C4.20968 14.837 4.56583 15 4.76747 15H11.2037C11.4053 15 11.7222 14.837 11.7222 14.6361C11.7222 14.6361 11.7217 13.9205 11.7222 13.7988C11.7282 12.314 11.7386 10.4003 11.7503 8.94249L13.162 13.3173C13.1936 13.4148 13.2648 13.4947 13.3583 13.5371C13.3976 13.5549 13.4391 13.5653 13.4813 13.5688L13.6767 14.0351C13.7518 14.214 13.9545 14.3031 14.1371 14.2374L15.7579 13.6579C15.8502 13.6248 15.9252 13.5564 15.9663 13.4678C16.0074 13.3792 16.0111 13.2778 15.9764 13.1865ZM9.57178 1.78868C9.46754 2.64425 8.81119 3.30623 8.01757 3.30623C7.23745 3.30623 6.59011 2.6669 6.46914 1.8327C6.84686 2.01988 7.3831 2.21476 7.99033 2.21476C8.66705 2.21497 9.21422 1.99061 9.57178 1.78868ZM1.73484 13.4294L1.93557 12.98C1.94507 12.9585 1.95767 12.9396 1.97064 12.9208L0.991114 12.5387C0.989835 12.5719 0.985087 12.6052 0.974493 12.6379L0.822168 13.1068L1.73484 13.4294ZM11.7659 6.61169C11.7149 6.45449 11.5618 6.3495 11.3984 6.35969C11.2327 6.36861 11.0939 6.48742 11.0601 6.64936C11.0346 6.77308 11.0119 10.0416 10.9933 14.3912H4.93971C4.92838 7.69685 4.91487 6.62734 4.90573 6.5824C4.87304 6.41992 4.73441 6.30001 4.56857 6.29055C4.40036 6.28254 4.25095 6.38444 4.19981 6.54219L2.22616 12.6297L0.915499 12.1184L4.14703 2.4583C4.22364 2.43269 4.34822 2.38794 4.50089 2.33309C4.83846 2.21183 5.3134 2.04122 5.71094 1.91907C5.89029 3.39851 7.25561 4.03674 7.97864 4.03674C8.70166 4.03674 10.0549 3.36412 10.2516 1.91907C10.6071 2.02925 11.0578 2.19648 11.3886 2.31927C11.5566 2.38161 11.6937 2.4325 11.7719 2.45866L15.0418 12.1838L13.7297 12.6967L11.7659 6.61169ZM14.0296 12.9876L14.2173 13.4354L15.1616 13.0981L14.9934 12.655C14.9883 12.6416 14.986 12.6281 14.9837 12.6146C14.9828 12.6092 14.9819 12.6038 14.9808 12.5984L14.0217 12.9732C14.0228 12.9754 14.024 12.9775 14.0253 12.9796C14.0268 12.9822 14.0283 12.9848 14.0296 12.9876Z" />
</svg>
