<svg width="16" height="16" viewBox="0 0 16 16" fill="currentColor" xmlns="http://www.w3.org/2000/svg">
<path fill-rule="evenodd" clip-rule="evenodd" d="M10.9513 1C8.87258 1 7.51844 1.33273 7.00793 1.84324C6.93044 1.92074 6.89242 2.02888 6.90462 2.13692L7.60815 8.47253L7.5566 8.5724L1.18465 12.1126C1.07089 12.1758 1 12.2964 1 12.4269C1 13.9206 1.72138 15 2.83531 15H8C8.16215 15 8.30695 14.8868 8.34869 14.7257C8.69064 13.4351 9.54442 12.4625 10.8625 12.1442L11.2041 12.0616L11.3294 12.1603V14.6403C11.3294 14.8388 11.4906 15 11.6891 15H14.6403C14.8388 15 15 14.8388 15 14.6403V2.0975C15 2.00255 14.9618 1.9105 14.8946 1.84324C14.3841 1.33273 13.0299 1 10.9513 1ZM9.27591 12.0627L3.13913 12.0672L3.08986 11.8771L8.17462 9.05229C8.30123 8.9818 8.37303 8.8424 8.35683 8.69839L7.64976 2.33095L7.71245 2.22575L7.90654 2.147C8.28813 1.99218 8.80374 1.87321 9.43192 1.80011L9.74058 1.76419L9.85375 1.86496V5.41765C9.85375 6.22587 10.5119 6.88406 11.3202 6.88406C12.128 6.88406 12.7866 6.22553 12.7866 5.41765V1.95245L12.9092 1.85324L13.2437 1.92471C13.5562 1.99148 13.8284 2.0727 14.0465 2.1625L14.2178 2.23305L14.2806 2.32686V11.9657L14.1792 12.0672H12.1502L12.0487 11.9657V11.6891C12.0487 11.4906 11.8875 11.3294 11.6891 11.3294C10.8554 11.3294 10.1182 11.5553 9.43102 12.0152L9.27591 12.0627ZM14.2806 12.888L14.1792 12.7866H12.1502L12.0487 12.888V14.1792L12.1502 14.2806H14.1792L14.2806 14.1792V12.888ZM2.83531 14.2806C2.33558 14.2806 2.01213 13.9175 1.83888 13.2612L1.74719 12.9139L1.84528 12.7866H8.34725L8.43381 12.9409L8.17656 13.3619C8.02104 13.6164 7.90139 13.8453 7.81952 14.0456L7.74922 14.2176L7.65531 14.2806H2.83531ZM11.3202 6.16469C11.7326 6.16469 12.0672 5.83013 12.0672 5.41765V1.85306L11.9706 1.75173L11.7073 1.73899C11.4307 1.72561 11.1946 1.71937 10.9513 1.71937H10.6746L10.5731 1.82082V5.41765C10.5731 5.83013 10.9077 6.16469 11.3202 6.16469Z" />
</svg>
