<svg width="16" height="16" viewBox="0 0 16 16" fill="currentColor" xmlns="http://www.w3.org/2000/svg">
<path fill-rule="evenodd" clip-rule="evenodd" d="M1.73134 1.73134V1H2.56716V1.73134H3.92537V1H4.76119V1.73134H6.1194V1H6.95522V1.73134H11.2388V1H12.0746V1.73134H13.4328V1H14.2687V1.73134H14.5821C14.8127 1.73134 15 1.91866 15 2.14925V8C15 8.16832 14.8983 8.32044 14.743 8.3847C14.6913 8.4064 14.6369 8.41718 14.5821 8.41718C14.472 8.41718 14.3653 8.3737 14.2868 8.29558C13.5924 7.60693 12.5245 6.95522 11.6567 6.95522C10.7301 6.95522 10.078 7.25549 9.75373 7.56926C9.65809 7.65779 9.51241 7.7025 9.38767 7.67989C4.61934 6.81182 1 5.39565 1 3.61194V2.14925C1 1.91866 1.18731 1.73134 1.41791 1.73134H1.73134ZM14.5821 14.2687H14.2687V15H13.4328V14.2687H12.0746V15H11.2388V14.2687H9.8806V15H9.04478V14.2687H4.76119V15H3.92537V14.2687H2.56716V15H1.73134V14.2687H1.41791C1.18731 14.2687 1 14.0813 1 13.8507V8C1 7.83187 1.10163 7.68002 1.25763 7.61502C1.41355 7.55023 1.59343 7.58549 1.71338 7.70461C2.40764 8.39307 3.4755 9.04478 4.34328 9.04478C5.26879 9.04478 5.90233 8.75328 6.24242 8.43513C6.34328 8.34123 6.48692 8.29673 6.61209 8.32007C11.3807 9.18818 15 10.6043 15 12.3881V13.8507C15 14.0813 14.8127 14.2687 14.5821 14.2687ZM1.83582 12.0746H3.38851L4.29308 13.4328H1.83582V12.0746ZM9.80934 9.93891L9.63044 9.88579L8.51706 10.9992L7.9262 10.4083L8.70622 9.62829L8.16022 9.49855C7.69816 9.38875 7.23994 9.28994 6.78722 9.20313L6.65895 9.17853L6.55117 9.2523C5.99896 9.63023 5.26476 9.8806 4.34328 9.8806C3.6883 9.8806 2.99748 9.6379 2.31291 9.21878L1.83582 8.92668V11.2388H3.61194C3.75188 11.2388 3.88181 11.3084 3.95991 11.4251L5.29813 13.4328H10.5075V13.1194C10.5075 12.2955 10.9007 11.5357 11.5572 11.0411L12.0115 10.6989L11.4795 10.4976C10.9685 10.3043 10.4069 10.1163 9.80934 9.93891ZM13.2838 11.343C13.85 11.6918 14.1642 12.0199 14.1642 12.3881V13.4328H11.3433V13.1194C11.3433 12.2466 11.9753 11.5193 12.806 11.3709L13.2838 11.343ZM6.19056 6.06106L6.3695 6.11426L7.48294 5.00083L8.0738 5.59169L7.29378 6.37171L7.83978 6.50145C8.2893 6.60827 8.74856 6.70712 9.21231 6.79678L9.34082 6.82162L9.44883 6.7477C10.001 6.36977 10.7352 6.1194 11.6567 6.1194C12.3117 6.1194 13.0025 6.3621 13.6871 6.78122L14.1642 7.07332V4.76119H12.3881C12.2485 4.76119 12.118 4.69137 12.0401 4.57489L10.7019 2.56716H5.49254V2.8806C5.49254 3.70434 5.09944 4.46424 4.44344 4.95895L3.98984 5.30102L4.52112 5.5023C5.02859 5.69455 5.59052 5.88267 6.19056 6.06106ZM3.19403 4.62906L2.71593 4.65751C2.14951 4.30777 1.83582 3.97989 1.83582 3.61194V2.56716H4.65672V2.8806C4.65672 3.75344 4.02471 4.48071 3.19403 4.62906ZM12.6115 3.92537H14.1642V2.56716H11.7069L12.6115 3.92537Z" />
</svg>
