<svg width="16" height="16" viewBox="0 0 16 16" fill="currentColor" xmlns="http://www.w3.org/2000/svg">
<path fill-rule="evenodd" clip-rule="evenodd" d="M0.951042 9.39325C1.16656 9.61965 1.45894 9.74685 1.7638 9.74685C2.06867 9.74685 2.36104 9.61965 2.57657 9.39325L4.44704 7.42931V13.7934C4.44819 14.4593 4.96201 14.9988 5.59619 15H10.4017C11.0367 15 11.5518 14.4602 11.553 13.7934V7.42711L13.4255 9.39325C13.8748 9.86351 14.6018 9.86351 15.051 9.39325L15.6632 8.75048C15.8789 8.52418 16 8.2172 16 7.8971C16 7.577 15.8789 7.27001 15.6632 7.04372L11.9499 3.14706C11.5783 2.75505 11.0727 2.53544 10.5459 2.53719H9.82506C9.78942 2.53749 9.75409 2.54416 9.72059 2.55693V1.71233C9.73734 1.70664 9.75421 1.70107 9.77105 1.69551C9.82564 1.67749 9.88004 1.65953 9.92953 1.63774C10.0917 1.57353 10.1735 1.38347 10.1123 1.21325C10.0512 1.04302 9.87018 0.957076 9.70805 1.02129C8.60438 1.4658 7.38309 1.4658 6.27941 1.02129C6.12103 0.975626 5.95593 1.06609 5.90104 1.22863C5.84615 1.39117 5.92007 1.57063 6.07047 1.63993C6.11338 1.65716 6.15629 1.67118 6.19827 1.68491C6.2258 1.6939 6.25293 1.70277 6.27941 1.71233V2.55693C6.24591 2.54416 6.21058 2.53749 6.17494 2.53719H5.45202C4.92521 2.53544 4.41964 2.75505 4.04797 3.14706L0.336769 7.04372C0.121145 7.27001 0 7.577 0 7.8971C0 8.2172 0.121145 8.52418 0.336769 8.75048L0.951042 9.39325ZM10.9262 13.7934C10.9262 14.0963 10.6923 14.3419 10.4038 14.3419H5.59828C5.3098 14.3419 5.07594 14.0963 5.07594 13.7934V11.4505L5.22846 11.6106C5.35082 11.739 5.54904 11.739 5.6714 11.6106L6.08928 11.1719L6.50715 11.6106C6.62951 11.739 6.82773 11.739 6.9501 11.6106L7.36797 11.1719L7.78584 11.6106C7.9082 11.739 8.10643 11.739 8.22879 11.6106L8.64666 11.1719L9.06453 11.6106C9.18689 11.739 9.38511 11.739 9.50747 11.6106L9.92535 11.1719L10.3432 11.6106C10.4656 11.739 10.6638 11.739 10.7862 11.6106L10.9262 11.4966V13.7934ZM10.596 10.9064L10.9262 10.5598V9.96092L10.8175 10.075C10.6951 10.2033 10.4969 10.2033 10.3746 10.075L9.95669 9.63625L9.53882 10.075C9.41646 10.2033 9.21823 10.2033 9.09587 10.075L8.678 9.63625L8.26013 10.075C8.13777 10.2033 7.93954 10.2033 7.81718 10.075L7.39931 9.63625L6.98144 10.075C6.85908 10.2033 6.66085 10.2033 6.53849 10.075L6.12062 9.63625L5.70275 10.075C5.58039 10.2033 5.38216 10.2033 5.2598 10.075L5.10728 9.91486V10.5116L5.48127 10.9064L5.89915 10.4677C6.02151 10.3394 6.21973 10.3394 6.34209 10.4677L6.75996 10.9064L7.17784 10.4677C7.3002 10.3394 7.49842 10.3394 7.62078 10.4677L8.03865 10.9064L8.45653 10.4677C8.57889 10.3394 8.77711 10.3394 8.89947 10.4677L9.31734 10.9064L9.73522 10.4677C9.85758 10.3394 10.0558 10.3394 10.1782 10.4677L10.596 10.9064ZM14.886 7.14902L15.2203 7.50002C15.3185 7.60292 15.3737 7.74263 15.3737 7.88832C15.3737 8.03402 15.3185 8.17373 15.2203 8.27662L14.6081 8.9194C14.5101 9.02255 14.377 9.08052 14.2383 9.08052C14.0995 9.08052 13.9665 9.02255 13.8685 8.9194L13.5258 8.55962H13.7055C13.8786 8.55962 14.0189 8.41229 14.0189 8.23055V7.65798H14.5726C14.7457 7.65798 14.886 7.51065 14.886 7.32891V7.14902ZM8.01149 1.99752C7.64064 1.99586 7.27095 1.95395 6.90831 1.87247V2.73463C7.6267 2.91473 8.37539 2.91473 9.09378 2.73463V1.87467C8.73801 1.95463 8.37532 1.9958 8.01149 1.99752ZM1.71993 6.50186L4.49091 3.61214C4.74541 3.344 5.09149 3.19391 5.45202 3.19532H6.12062C7.33355 3.66957 8.66854 3.66957 9.88147 3.19532H10.548C10.9085 3.19391 11.2546 3.344 11.5091 3.61214L14.2592 6.49966V6.99984H13.7055C13.5324 6.99984 13.3921 7.14717 13.3921 7.32891V7.91026H12.899L11.8246 6.77556C11.6752 6.61829 11.4502 6.57118 11.2547 6.65624C11.0593 6.7413 10.932 6.94173 10.9324 7.16386V9.03296L10.6023 9.37957L10.1844 8.94082C10.0621 8.8125 9.86384 8.8125 9.74148 8.94082L9.32361 9.37957L8.90574 8.94082C8.78338 8.8125 8.58515 8.8125 8.46279 8.94082L8.04492 9.37957L7.62705 8.94082C7.50469 8.8125 7.30646 8.8125 7.1841 8.94082L6.76623 9.37957L6.34836 8.94082C6.226 8.8125 6.02777 8.8125 5.90541 8.94082L5.48754 9.37957L5.11354 8.98469V7.16386C5.11392 6.94173 4.98665 6.7413 4.79122 6.65624C4.59579 6.57118 4.37079 6.61829 4.22139 6.77556L3.14278 7.90807H2.59328V7.32891C2.59328 7.14717 2.45297 6.99984 2.27988 6.99984H1.7262L1.71993 6.50186ZM1.10357 7.17754L0.785982 7.51099C0.582765 7.72503 0.582765 8.07136 0.785982 8.2854L1.39817 8.93037C1.60499 9.13819 1.93098 9.13819 2.1378 8.93037L2.48046 8.57059H2.28406C2.20094 8.57059 2.12122 8.53592 2.06244 8.47421C2.00367 8.41249 1.97065 8.32879 1.97065 8.24152V7.66017H1.41697C1.24388 7.66017 1.10357 7.51284 1.10357 7.3311V7.17754Z" />
</svg>
