<svg width="16" height="16" viewBox="0 0 16 16" fill="currentColor" xmlns="http://www.w3.org/2000/svg">
<path fill-rule="evenodd" clip-rule="evenodd" d="M12.4034 1H3.61194C2.17217 1 1 2.17197 1 3.61194V5.80597C1 6.56185 1.33297 7.26478 1.90425 7.76398L2.17436 8L1.90425 8.23602C1.33297 8.73522 1 9.43815 1 10.194V12.3881C1 13.828 2.17217 15 3.61194 15H12.3881C13.8283 15 15 13.8283 15 12.3881V10.1787C15 9.4266 14.6695 8.72823 14.1017 8.23243L13.832 7.99699L14.101 7.76081C14.6692 7.26197 15 6.56046 15 5.80597V3.59658C15 2.16512 13.8349 1 12.4034 1ZM4.70164 9.77612C3.86875 9.77612 3.19403 10.4546 3.19403 11.2984C3.19403 12.1294 3.87061 12.806 4.70164 12.806H12.4034C12.8465 12.806 13.273 12.6945 13.6521 12.4846L14.2929 12.1299L14.1071 12.8384C13.904 13.613 13.1998 14.1642 12.3881 14.1642H3.61194C2.63267 14.1642 1.83582 13.3676 1.83582 12.3881V10.194C1.83582 9.21448 2.63267 8.41791 3.61194 8.41791H12.4034C13.3801 8.41791 14.1642 9.21344 14.1642 10.2094C14.1642 11.1804 13.3744 11.9701 12.4034 11.9701H4.70164C4.32689 11.9701 4.02985 11.6647 4.02985 11.2837C4.02985 10.9132 4.33107 10.6119 4.70164 10.6119H12.0746V9.77612H4.70164ZM4.70164 3.19403H12.0746V4.02985H4.70164C4.33107 4.02985 4.02985 4.33107 4.02985 4.70164C4.02985 5.08265 4.32689 5.38806 4.70164 5.38806H12.4034C13.3744 5.38806 14.1642 4.5983 14.1642 3.6273C14.1642 2.63135 13.3801 1.83582 12.4034 1.83582H3.61194C2.63267 1.83582 1.83582 2.63239 1.83582 3.61194V5.80597C1.83582 6.78552 2.63267 7.58209 3.61194 7.58209H12.3881C13.1998 7.58209 13.904 7.03094 14.1071 6.25627L14.2929 5.54781L13.6521 5.90254C13.273 6.11245 12.8465 6.22388 12.4034 6.22388H4.70164C3.87061 6.22388 3.19403 5.5473 3.19403 4.71627C3.19403 3.87249 3.86875 3.19403 4.70164 3.19403Z" />
</svg>
